; Version : LOCAL
; Job     : H:\PCB100-199\PCB123_Ferret_Cu4_SFP8_Mngd_ref_board\Rev2\Layout\working\PCB\pcb123-02.pcb
; User    : HERENT0076:mag
; Date    : Tue Aug 16 15:48:40 2016
; Format  : 3.3 / Absolute / MM / Leading
; Contents: Thru / Mill / Plated
M48
METRIC,TZ
FMAT,2
ICI,OFF
T14C0.5000
T13C0.5000
T10C1.0000
%
M71
G90
G93X0Y0
T14
G00X69494Y155353
M15
G01X69319
X69669
M16
G00X74494
M15
G01X74319
X74669
M16
T13
G00X75494Y158053
M15
G01Y157728
Y158378
M16
G00X68494Y158053
M15
G01Y157728
Y158378
M16
T10
G00X94000Y148005
M15
G01X92500
X95500
M16
G00X89000Y151255
M15
G01Y149755
Y152755
M16
G00X94000Y154505
M15
G01X92500
X95500
M17
T00
M30
