; Version : LOCAL
; Job     : H:\PCB100-199\PCB123_Ferret_Cu4_SFP8_Mngd_ref_board\Rev2\Layout\working\PCB\pcb123-02.pcb
; User    : HERENT0076:mag
; Date    : Tue Aug 16 15:48:40 2016
; Format  : 3.3 / Absolute / MM / Leading
; Contents: Thru / Drill / Plated
M48
METRIC,TZ
FMAT,2
ICI,OFF
T01C0.3000
T17C0.4000
T15C0.6000
T18C0.7000
T05C0.8000
T11C0.9000
T09C0.9000
T07C1.0000
T16C1.0500
T12C1.1000
T06C1.4000
T03C1.5000
T08C1.6000
T02C1.7000
T04C3.5000
%
M71
G90
G93X0Y0
T01
X125700Y-5700
X123000Y-6650
X120000
X117000
X114000
X111000
X108000
X105000
X102000
X99000
X96000
X93000
X90000
X87000
X84000
X81000
X78000
X75000
X72000
X69000
X66000
X63000
X60000
X57000
X54000
X51000
X48000
X45000
X42000
X39000
X36000
X33000
X30000
X27000
X24000
X21000
X18000
X15000
X12000
X9600Y-6600
Y-3300
X15000Y-4250
Y-3150
X18000Y-4250
Y-3150
X21000Y-4250
Y-3150
X24000Y-4250
Y-3150
X27000Y-4250
Y-3150
X30000Y-4250
Y-3150
X33000Y-4250
Y-3150
X36000Y-4250
Y-3150
X39000Y-4250
Y-3150
X42000Y-4250
Y-3150
X45000Y-4250
Y-3150
X48000Y-4250
Y-3150
X51000Y-4250
Y-3150
X54000Y-4250
Y-3150
X57000Y-4250
Y-3150
X60000Y-4250
Y-3150
X63000Y-4250
Y-3150
X66000Y-4250
Y-3150
X69000Y-4250
Y-3150
X72000Y-4250
Y-3150
X75000Y-4250
Y-3150
X78000Y-4250
Y-3150
X81000Y-4250
Y-3150
X84000Y-4250
Y-3150
X87000Y-4250
Y-3150
X90000Y-4250
Y-3150
X93000Y-4250
Y-3150
X96000Y-4250
Y-3150
X99000Y-4250
Y-3150
X102000Y-4250
Y-3150
X105000Y-4250
Y-3150
X108000Y-4250
Y-3150
X110400Y-2700
X111000Y-4250
X114000
X117000
X120000
X123300Y-3900
X127200Y-3600
Y-900
X124800
X114000Y1500
X113400Y-1800
X112500Y1500
X112200Y-900
X106800Y-1200
X104400Y-1800
X98150Y750
X95843Y2351
X90650Y750
X90118Y1975
X83150Y750
X81849Y2372
X77150Y750
X74899Y2383
X69650Y750
X67907Y2372
X62150Y750
X60866Y2358
X56150Y750
X48650
X41150
X30141Y1279
X23150Y750
X21651Y2381
X15895Y1399
X9650Y750
X11600Y2600
Y3500
Y4400
X14000Y3500
Y4400
X28100Y4292
X41046Y4472
X42984Y3266
X43120Y4968
X43123Y4136
X45350Y4590
X45555Y3291
X53400Y3511
X63998Y4255
X77982Y4233
X84965Y4195
X98150Y3750
X112500Y4500
X114000
X124800Y4200
X127200
Y7200
X124800
X114000Y7500
X112500
X88800Y6000
Y6900
X74400Y5700
Y6600
Y7500
X60300Y5700
Y6600
Y7500
X47300Y5900
Y6800
X44900Y5900
Y6800
X28146Y5123
X24942Y5276
X21963Y6063
X13700Y5300
X12800
X19112Y9559
X24997Y8303
X44900Y7700
X47300
X84558Y9990
X85600Y9590
X87883Y10065
X88800Y7800
X94765Y9557
X98150Y9750
X111600Y9900
X113700Y10200
X111600Y12300
X96784Y10789
X87294Y10568
X85158Y11063
X84106Y10663
X80535Y10326
X60054Y12653
X59312Y12219
X58761Y15178
X65207Y13626
Y15091
X72573Y15043
X78469Y13592
Y14375
Y15182
X87510Y13746
X88500Y13717
X98150Y12750
X124800Y12900
X127200
X98150Y17250
X81579Y16277
X78471Y16013
X78461Y16892
X72589Y17273
X72586Y16308
X69475Y17600
X58754Y16327
X53916Y17574
X45252Y17762
X36011Y15986
X24912Y15984
X21912
X10812
X45253Y19069
X51191Y19409
X53905Y18348
X59329Y18148
X59339Y19781
X65218Y19942
X69475Y18565
X69521Y19700
X72584Y18090
X81574Y19572
X81590Y18797
X81641Y17905
X86354Y20161
X89099Y20204
X89874Y20168
X92689Y20296
X98150Y20250
X127059Y20272
X130891Y20314
X134655Y20269
X138506Y20310
X95986Y20445
X95161Y20494
X81579Y20347
X81578Y22672
X81574Y21897
X81573Y21122
X75732Y22611
X72589Y21746
Y22578
X69535Y20659
X65075Y20704
X63765Y22422
X59339Y20556
Y21331
Y22106
X51198Y20356
Y21707
X45256Y20372
Y21636
X36011Y21086
X25422Y21055
X22359Y21083
X10816Y21089
X8617Y24492
X36500Y23900
X45172Y22963
X45225Y24833
X45253Y23834
X51195Y23046
X53932Y25160
X57258Y23107
X58033
X59299Y24431
X59328Y23656
X59334Y22881
X61089Y25128
X68346Y24696
X68354Y23899
X70309Y23891
X75699Y24428
X75730Y23386
X81624Y23563
X89882Y23343
X95860Y23321
X98150Y24750
X113837Y24931
X120844Y24668
X120720Y27303
X120693Y26522
X120666Y25734
X114149Y27437
X114124Y25826
X114123Y26661
X107132Y27359
X98150Y27750
X93720Y27831
X93715Y26635
X93222Y27233
X87728Y27641
X82660Y25403
X82604Y27227
X82576Y26287
X79672Y25637
X79132Y26309
X73561Y27525
X65216Y26272
X63239Y27314
X55817Y27228
X53904Y25935
X47975Y26789
X43878Y25680
X33800Y25400
X32900
Y26300
X5949Y25456
X5157
X4377Y25448
X2000Y26100
X2190Y29312
X2832Y28435
X2981Y29302
X6035Y29566
X6191Y30330
X6217Y28801
X9519Y28423
X9522Y29207
X47969Y30156
X55961Y28864
X63658Y28260
X68325Y29168
X73588Y28649
Y29424
X79470Y28850
Y29625
X84827Y28588
X85940Y30103
X86665Y28400
X87826Y28498
X87836Y29318
X91420Y28357
X93402Y28537
X93701Y29252
X106044Y30377
X107155Y29012
X109951Y29142
X109952Y29945
X115643Y28362
X116980Y28334
X117977Y28366
X118763Y28356
X120266Y28307
X118516Y31803
X117716Y31003
Y31803
Y32603
X116916Y31803
Y32603
X116116Y31803
Y32603
X112790Y30971
X112683Y31969
X107178Y32869
X107155Y31231
X90942Y31076
X76691Y30624
X68396Y30747
X59041Y31176
X58215Y31353
X39874Y31361
X39023Y32351
X38405Y32829
X34461Y32351
X34075Y31669
X33675Y32338
X21721Y32962
X5361Y32708
X5683Y34888
X6975Y34843
X8531Y34363
X22471Y33187
X22932Y34441
X23682Y34460
X32700Y34175
Y35075
X33600Y34175
Y35075
X34500Y34175
Y35075
X40326Y35229
X50695Y35357
X64933Y33489
X65993Y34690
X69545Y35335
X70724Y35057
X76954Y34307
X77704Y34504
X92368Y33077
X92996Y33531
X93597Y34021
X98150Y33750
X107155Y34346
X112407Y34195
X112415Y33372
X112444Y34954
X116116Y33403
X116916
X117716
X132713Y34668
X136606Y34643
X129002Y37453
X125192Y37484
X121027Y37400
X119412Y36814
X118517Y36721
X118071Y37798
X117274Y37807
X114519Y36699
X113728Y36709
X112454Y35740
X108173Y36627
X98150Y36750
X87531Y37024
X87519Y36249
X82961Y35983
X82555Y37283
X82143Y37940
X81583Y37385
X80391Y37848
X77921Y35795
X76744Y36261
X76136Y37669
X75566Y36093
X75380Y38070
X74371Y37692
X73367Y35766
X72837Y36332
X71011Y36795
X68292Y36706
X67480Y36506
X64295Y35704
X62980Y35839
X62776Y38064
X51262Y37019
X25421Y37855
X24672Y37880
X24624Y36156
X23874Y36121
X11559Y37792
X11108Y36416
X11085Y37191
X6438Y36044
X6177Y36774
X5409Y35613
X4393Y35671
X3523Y35987
X3446Y36779
X3429Y37606
X2292Y40165
X2736Y39053
X2759Y38166
X3207Y39668
X3388Y38633
X6279Y40077
X6293Y39302
X6568Y38552
X7195Y39948
X8199Y38199
X8271Y39241
X11017Y38344
X11110Y39428
X11625Y38826
X11805Y40551
X11811Y39778
X13886Y38131
X19613Y40025
X20144Y39401
X24508Y38648
X26697Y38746
X27175Y39354
X28047Y40182
X29645Y39945
X31574Y39138
X31710Y40002
X34868Y39627
X35550Y40600
X37401Y39829
X37708Y40540
X58512Y39116
X64047Y38309
X65485Y39251
X72143Y39844
X76657Y38242
X78934Y39855
X82700Y38479
X82838Y40094
X83613
X84385Y40027
X85200Y38346
X88692Y39842
X92396Y39861
X93170Y39837
X96825Y38558
X97141Y39531
X97327Y40374
X106064Y39162
X120104Y38461
X106053Y41839
X106052Y41063
X98150Y41250
X95250Y41324
X94185Y42224
Y43124
X91785Y41174
X88185Y42224
Y43124
X87307Y41225
X85965Y40834
X80985Y41324
X79935Y42224
Y43124
X77525Y41217
X73935Y42224
Y43124
X73035Y41174
X66735Y41324
X65685Y42224
Y43124
X63216Y41168
X59685Y42224
Y43124
X58898Y41147
X55945Y41326
X52485Y41324
X51435Y42224
Y43124
X49035Y41174
X45435Y42224
Y43124
X44535Y41174
X38411Y41522
X37664Y41314
X36374Y41367
X35933Y42004
X35529Y43042
X35227Y42324
X34800Y40950
X31272Y40907
X30900Y41600
X29653Y40699
X28047Y40932
X25900Y41600
Y42600
X20945Y40894
X19631Y41000
X15864Y41146
X15299Y41677
X14595Y42438
X13817Y42186
X11719Y41589
X11100Y42045
X11089Y42804
X11086Y40796
X8028Y42809
X7794Y41435
X7298Y43071
X7034Y41531
X6172Y43144
X6170Y42363
X6159Y41593
X3388Y42623
X2606Y41290
X1988Y42163
X3342Y44655
X3406Y43620
X6211Y45677
X11085Y43591
Y44391
Y45191
X13068Y43873
X13168Y45384
X13539Y44659
X13825Y43208
X17376Y44606
X17606Y45346
X18900Y45600
X19896Y44599
X19899Y45596
X20900Y44600
Y45600
X21900Y43600
Y44600
Y45600
X22900Y43600
Y44600
Y45600
X23900Y44600
Y45600
X23904Y43604
X24900Y43600
Y44600
Y45600
X25900Y43600
X26900Y44600
Y45600
X26922Y43622
X27900Y43600
Y44600
Y45600
X28900Y43600
Y44600
Y45600
X29900Y43600
Y44600
X31900Y45600
X34113Y45312
X34806Y43320
X34832Y44666
X34978Y45427
X37652Y45686
X41873Y45610
X45435Y44024
X51435
X56121Y45584
X59685Y44024
X65685
X70386Y45593
X73935Y44024
X79935
X84578Y45541
X88185Y44024
X94185
X98150Y44250
X106040Y43331
Y44106
X108739Y44318
X121150Y43350
X108671Y46040
X94485Y46574
X88035
X83325Y47950
X80235Y46574
X73785
X68979Y47814
X65921Y46461
X59535Y46574
X54763Y47961
X51735Y46574
X45285
X38432Y47778
X38228Y46582
X37853Y47260
X35101Y46210
X34151Y46086
X32900Y46600
X31900
Y47595
X30900Y47600
X29900
X28900
X27900
X26900
X25900Y46600
Y47600
X24900
X23900
X21900Y46600
Y47600
X20900Y46600
Y47600
X19900Y46600
Y47600
X18900
X17717Y46792
X17386Y46089
X13510Y47731
X11636Y46322
X11085Y46867
X10987Y47966
X3411Y48074
X3394Y47299
X3373Y45779
X3352Y46539
X2000Y50100
X3720Y50595
X6387Y50718
X9562Y48935
X9861Y50268
X10265Y49270
X11083Y49999
X11262Y48751
X12257Y48859
X12340Y49629
X13419Y49551
X14982Y48688
X16122Y50017
X17117Y49794
X17694Y50311
X18900Y50600
X19900Y48600
Y49600
Y50600
X20900Y48600
Y49600
Y50600
X21900Y49600
X22900Y48600
Y49600
Y50600
X24900Y48600
Y49600
Y50600
X25900Y48600
Y49600
Y50600
X26900Y48600
Y49600
Y50600
X27900Y48600
Y49600
Y50600
X29900Y48600
Y49600
Y50600
X30900Y49600
X31898Y49602
X31900Y50600
X32900
X33900
X38079Y48468
X38252Y50126
X38327Y49243
X42019Y50559
X70676Y50542
X84983Y50433
X98150Y48750
X139131Y48314
X98150Y51750
X42110Y53307
X31900Y51600
Y52600
X30900Y51600
X29900
Y52600
X27900Y51600
Y52600
X26900Y51600
Y52600
X25900Y51600
Y52600
X24900Y51600
Y52600
X22900Y51600
Y52600
X21900Y51600
X20900
Y52600
X19900Y51600
Y52600
X17824Y52599
X17700Y51331
X17174Y53021
X16414Y52870
X15862Y51584
X15087Y51572
X14532Y52113
X13394Y51135
X12611Y51125
X11880Y50868
X11775Y52095
X11125Y51525
X8670Y52651
X7964Y52330
X7606Y51643
X6916Y51289
X2000Y53100
X8638Y55153
X9413Y55406
X10125Y55712
X13779Y54018
X14554Y53903
X15578Y53921
X17381Y55690
X18900Y55600
X19900
Y53600
Y54600
X20900Y53600
Y54600
X21900Y53600
Y55600
X22900Y54600
Y55600
X23900Y53600
Y55600
X24900Y54600
Y55600
X25900Y54600
Y55600
X26900Y54600
Y55600
X27900Y54600
Y55600
X28900Y53600
Y55600
X29900Y54600
Y55600
X30900Y53600
Y55600
X31900Y53600
Y54600
X52400Y55417
X66682Y55385
X68857Y53874
X70600Y53582
X80911Y55491
X82929Y53966
X84869Y53619
X95173Y55503
X98150Y54750
Y57750
X70414Y58028
X54300Y58243
X43083Y58135
X41036Y55891
X20900Y57904
X17448Y57713
X16161Y57652
X11623Y55926
X10848Y55992
X2000Y56100
Y59100
X11650Y59900
X12550
X13450
X14650Y60455
X15550
X16450Y60450
X17350
X18100Y58800
X18250Y60450
X19000Y58800
X19150Y60450
X45090Y60331
X52635Y60074
X56450Y60886
X58700Y60142
X66885Y60074
X72875Y60087
X81135Y60074
X87212Y60124
X95385Y60074
X98150Y60750
X129929Y60612
X96435Y61574
Y62474
Y63374
X88185Y61574
Y62474
Y63374
X82185Y61574
Y62474
Y63374
X73935Y61574
Y62474
Y63374
X65760Y61574
Y62474
Y63374
X59685Y61574
Y62474
Y63374
X53685Y61574
Y62474
Y63374
X45435Y61574
Y62474
Y63374
X42092Y61623
X22750Y63170
X21850
X21712Y61741
X20950Y61350
Y63170
X20050Y61350
Y63170
X19150Y61350
Y63175
X18250Y61350
Y63175
X17350Y61350
Y63175
X16450Y61350
Y63175
X15550Y61350
Y63170
X14650Y61350
Y63170
X13750
X12850
X11950
X11050
X2000Y62100
Y65100
X11050Y65600
X11950
X12850
X13750
X14650
X15550
X16450Y65900
X17350
X18250
X19150
X20050Y65600
X20950
X21850
X22750
X34721Y65574
X35850Y65257
X36437Y65844
X44385Y64424
X47835Y64874
X52635
X55931Y63861
X57308Y64927
X58635Y64424
X58854Y65828
X62085Y64874
X66885
X71134Y65317
X72885Y64424
X76269Y64726
X81135Y64874
X85046Y64258
X87135Y64424
X90225Y65660
X98150Y63750
X110595Y68300
X88650Y68000
X86322Y67103
X78650Y68000
X74650Y67000
X69569Y67228
X61650Y67000
X55707Y67529
X35257Y66134
X2000Y68100
Y71100
X37485Y69240
X37984Y69833
X38722Y68962
X39202Y69570
X66075Y70540
X67895Y68847
X70650Y71000
X72650Y69000
X76650Y70000
X84355Y69227
X86650Y70000
X89650Y71000
X87650Y73000
X84650Y72000
X82324Y71267
X80222Y73343
X74650Y72000
X21670Y72358
X19900Y72800
X2000Y74100
X19600Y74675
Y75575
X19900Y73700
X82650Y74000
X85650Y75000
X98150Y74100
X107219Y74234
Y75008
Y75804
X108744Y74573
Y75354
Y76128
X109431Y75713
X137491Y78262
X109894Y77702
X108767Y78072
X107208Y76641
X107204Y78597
X98150Y77100
X96600Y76200
X95700
X94800
X83650Y77000
X81650Y78000
X78650
X75650
X72650
X69650
X66650
X63650
X60650
X57650
X54650
X51650
X48650
X45650
X42650
X41167Y77321
X40694Y77965
X40115Y76860
X39459Y77273
X18250Y77075
Y77975
X17350Y77075
Y77975
X16450Y77075
Y77975
X15550Y77075
Y77975
X2000Y77100
Y80100
X15550Y78875
X16450
X17350
X98150Y80100
X103695Y80700
X107153Y80231
Y81060
X107157Y79434
X108784Y79710
X108794Y80575
X138638Y81368
X109920Y83597
X109918Y81668
X109567Y82474
X108784Y81446
X103680Y83220
X98150Y83100
X13070Y83356
X2000Y83100
Y86100
X15980Y84631
X20815Y84611
X31383Y84654
X33964Y84683
X34452Y85903
X35227
X35420Y84564
X36002Y85932
X36777
X36778Y84604
X38080Y84612
X40001Y85157
X40549Y84609
X40907Y85942
X98150Y86100
X103623Y85732
X103630Y84017
X103703Y84899
X108745Y85025
Y85828
X109856Y85369
X109920Y84410
X139694Y85260
X134114Y88535
X130236Y87861
X109899Y88284
X108745Y86616
Y87427
Y88193
X103691Y88093
X103680Y87291
X23065Y88622
X23006Y87652
X2000Y89100
X33943Y89586
X35445Y89333
X37047Y89593
X38339Y91164
X39259Y89594
X40573Y89097
X41856Y89092
X42637Y89089
X43412Y89171
X44901Y89539
X46539Y89111
X48529Y91181
X48746Y89588
X49304Y91181
X49784Y89076
X50788Y89580
X50793Y91308
X98150Y89100
X136169Y91270
X138534
X129924Y91990
X108765Y91603
X108750Y92399
X108743Y93188
X107220Y91509
Y92279
Y93045
X98150Y92100
X47584Y91659
X40053Y91583
X36501Y91648
X35726
X34879Y91659
X34104
X2000Y92100
Y95100
X11904Y94635
X15610Y95014
X17394Y95558
X23028Y96345
X23046Y95541
X26912Y94550
X34186Y94915
X35198Y94817
X36143Y94883
X37177Y94846
X39680Y94817
X40481Y94862
X41338Y94850
X41594Y95582
X42113Y94824
X42322Y96482
X42888Y94809
X44144
X48020Y94817
X66575Y94346
X71862Y96216
X73758Y96225
X98150Y95100
Y98100
X94250Y98955
X93350
X92450
X64990Y97974
X48280Y97279
X44424Y98096
X41619Y96920
X40519Y98127
X39841Y97281
X38556Y97827
X37659Y96930
X34143Y97658
X22818Y98913
X2000Y98100
Y101100
X11247Y99890
X17340Y100708
X22742Y99869
X23315Y100754
X62258Y100455
X70650Y99405
Y100305
Y101205
X71550Y99400
Y100300
Y101200
X79350Y100800
X80150
X81150Y101500
X82050
X85092Y99974
X87317Y100009
X92450Y101055
X94250Y100155
X95150
X96050
X96950
Y101055
X98150Y101100
Y104100
X96950Y101955
Y102855
Y103755
X92450Y101955
Y102855
Y103755
X82950Y102400
X82050
X81450Y103300
X81150Y102400
X80150Y101600
Y102400
X79350Y101600
Y102400
X78450
X77550
X76050Y103300
X75150
X74250
X69800Y102800
Y103700
X68900Y102800
X68000
X67100
X66800Y103700
X61276Y103118
X40458Y103542
X39462Y103911
X39328Y102192
X37695Y103051
X37265Y103717
X23039Y102737
X22342Y101741
X21950Y103582
X20351Y101837
X2000Y104100
X21977Y106562
X22039Y105245
X22047Y104361
X31836Y105621
X41176Y104889
X66800Y104600
Y105500
Y106400
X69800Y104600
Y105500
Y106400
X74250Y104200
Y105100
Y106000
X81450Y104200
Y105100
Y106000
X92450Y104655
X93350
X94250
X95150
X96050
X96950
X112774Y105822
X98150Y107100
X95150Y108700
X85854Y107204
X81450Y106900
X74250
X69800Y107300
Y108200
X68900
X68000
X67100
X66800Y107300
X56858Y107429
X31520Y106966
X21810Y109192
X19074Y106794
X11247Y108019
X2000Y107100
Y110100
X15666Y109380
X20797Y109936
X25661Y111601
X26109Y110617
X28301Y109267
X47056Y111266
X48043Y111289
X98150Y110100
X109434Y109543
X110209Y109542
X110984Y109515
X112097Y109367
X113600Y109404
X117254Y109355
X133732Y109554
X137529Y113656
X98150Y113100
X66650Y112555
Y113455
X65750Y112555
Y113455
X64850Y112555
Y113455
X63950Y112555
Y113455
X24204Y112581
X23371Y112818
X21406Y112898
X20199Y114152
X19424
X2000Y113100
Y116100
X11795Y114565
X15594Y114766
X26345Y116038
X34529Y115663
X55220Y116387
X63950Y114355
Y115255
Y116155
X64850Y114355
Y115255
Y116155
X65750Y114355
Y115255
Y116155
X66650Y114355
Y115255
Y116155
X82600Y115150
X83500
X84400
Y116050
X98150Y116100
X136612Y115353
X133730Y119199
X122897Y119262
X106172Y117206
X98150Y119100
X75922Y118156
X75074
X74271
X48525Y117073
Y117973
Y118873
X47325Y119173
X46425Y118873
X45525Y119173
X27567Y117058
X27399Y118882
X24254Y118798
X2000Y119100
X14233Y121868
X21907Y121886
X25219Y120921
X25798Y121437
X45225Y120073
X45525Y120973
X46425Y121273
X47325Y120973
X47625Y120073
X59563Y119754
X134946Y123685
X121015Y123102
X118490Y123134
X115959Y123086
X98150Y122100
X58450Y122372
X50305Y123648
X47148Y124271
X47086Y123122
X39418Y124222
X28895Y122565
X21900Y124370
X14137Y124333
X6518Y124311
X2000Y122100
X4808Y124959
X36694Y126283
X37676Y126322
X38643Y126699
X39418Y126696
X41991Y125294
X54022Y125559
X66800Y125900
Y126800
X69800Y125900
Y126800
X77300Y125900
Y126800
X77600Y125000
X78500
X79400
X80300
Y125900
Y126800
X98150Y125100
Y128100
X80300Y127700
Y128600
Y129500
X77300Y127700
X69800
Y128600
Y129500
X66800Y127700
Y128600
Y129500
X42169Y128662
X41966Y127914
X41302Y127515
X40337Y127210
X39051Y127378
X28841Y127068
X2000Y128100
Y131100
X53550Y131845
X54157Y130184
X54537Y131446
X55298Y131695
X56320Y130095
X60293Y131982
X61718Y131773
X70848Y129866
X98150Y131100
Y134100
X72041Y132271
X51743Y132267
X50634Y132231
X49861Y132187
X44585Y134108
X28837Y133101
X26321Y132139
X18560Y132121
X12900Y132621
X10760Y132121
X2000Y134100
Y137100
X8143Y136671
X33941Y137048
X48065Y136071
X49390Y135897
X50388Y135898
X51783Y136374
X52919
X55475Y135974
X57280Y136374
X58110Y136069
X59330Y136374
X60467Y136361
X63212Y136137
X65115Y136297
X66337Y136255
X70276Y136354
X72056Y136363
X73972Y135863
X76452Y135895
X78364Y135951
X80060Y137193
X77100Y138479
X44123Y137206
X41600Y138700
Y139600
X40700Y138700
X39800
X38900
X38000
Y139600
X34481Y137814
X28482Y138692
X27936Y138142
X37324Y142039
X38231Y141384
X42769Y142235
X45750Y140358
X49837Y141624
X51110Y141626
X52771Y141650
X55214Y141674
X57155Y141556
X59236Y141615
X66694Y141641
X69140Y141643
X78350Y141716
X87800Y139900
Y142100
X88700Y139900
Y142100
X89600Y139900
Y142100
X127093Y142600
X118670Y142538
X76906Y144107
X68913Y144264
X65634Y144170
X61118Y142692
X60343Y142681
X57947Y142829
X55643Y142321
X54185Y143812
X53267Y142292
X51494Y143459
X50696Y143780
X49732Y144021
X48207Y144060
X47438Y143960
X46685Y143776
X44760Y143392
X37171Y143926
X34930Y144706
X33619Y144701
X32405Y144703
X31281Y144707
X30223Y144703
X27600
X2000Y143100
Y146100
X51126Y146406
X56835Y146447
X59526Y147202
X59959Y146309
X60749Y146400
X64031Y147149
X67832Y146663
X71631Y144955
X73985Y144949
X117277Y145715
X120551Y144888
X135780Y145252
X137540Y145657
X133716Y149776
X121026Y149554
X115982
X70055Y149107
X66149Y147358
X65400Y148900
Y149800
X64500Y148900
Y149800
X63600Y148900
Y149800
X54411Y147334
X54408Y148459
X16919Y148055
X4800Y151500
X11579Y150830
X19970Y151800
X21370Y150668
X28370Y151800
X29270
X30170
X31070
X31970
X32870
X33770Y151000
X38670Y151800
X39570
X40470
X41370
X42270
X43170
X44070
X45009Y150940
X49057Y150409
X50770Y151800
X51670
X52570
X53498Y151816
X54588Y150656
X55737Y151816
X60386Y152002
X64504Y151600
X66148Y151343
X70815Y152228
X75609Y150332
X85253Y151050
X122235Y149888
X138369Y151869
X107083Y153650
X77996Y154045
X61170Y152700
Y153600
Y154500
X56070Y153600
Y154500
X49870Y152700
Y153600
Y154500
X44770Y153600
Y154500
X38670Y152700
Y153600
Y154500
X33570Y153600
Y154500
X27470Y152700
Y153600
Y154500
X22070Y153600
Y154500
X15900Y152400
Y153300
X15600Y154200
X14700
X13800
X13500Y153300
X7200
X6900Y154200
X6000
X5100
X4800Y152400
Y153300
X2000Y155100
X22070Y155400
Y156300
Y157200
X27470Y155400
Y156300
Y157200
X33570Y155400
Y156300
Y157200
X38670Y155400
Y156300
Y157200
X44770Y155400
Y156300
Y157200
X49870Y155400
Y156300
Y157200
X56070Y155400
Y156300
Y157200
X61170Y155400
Y156300
Y157200
X66606Y156925
X70689Y156493
X85693Y157139
X98150Y155100
X93650Y158100
X90650
X87650
X79695Y157919
X12500Y158100
X9500
X6500
X2000
T17
X5665Y27056
X4615
X3569Y27061
X3565Y28056
X4619Y28061
X5669
T15
X93880Y47583
X92280
X90680
X89080
X87480
X79630
X78030
X76430
X74830
X73230
X65380
X63780
X62180
X60580
X58980
X51130
X49530
X47930
X46330
X44730
Y50083
X45530Y48833
X46330Y50083
X47130Y48833
X47930Y50083
X48730Y48833
X49530Y50083
X50330Y48833
X51130Y50083
X51930Y48833
X58980Y50083
X59780Y48833
X60580Y50083
X61380Y48833
X62180Y50083
X62980Y48833
X63780Y50083
X64580Y48833
X65380Y50083
X66180Y48833
X73230Y50083
X74030Y48833
X74830Y50083
X75630Y48833
X76430Y50083
X77230Y48833
X78030Y50083
X78830Y48833
X79630Y50083
X80430Y48833
X87480Y50083
X88280Y48833
X89080Y50083
X89880Y48833
X90680Y50083
X91480Y48833
X92280Y50083
X93080Y48833
X93880Y50083
X94680Y48833
Y51333
X93880Y52583
X93080Y51333
X92280Y52583
X91480Y51333
X90680Y52583
X89880Y51333
X89080Y52583
X88280Y51333
X87480Y52583
X80430Y51333
X79630Y52583
X78830Y51333
X78030Y52583
X77230Y51333
X76430Y52583
X75630Y51333
X74830Y52583
X74030Y51333
X73230Y52583
X66180Y51333
X65380Y52583
X64580Y51333
X63780Y52583
X62980Y51333
X62180Y52583
X61380Y51333
X60580Y52583
X59780Y51333
X58980Y52583
X51930Y51333
X51130Y52583
X50330Y51333
X49530Y52583
X48730Y51333
X47930Y52583
X47130Y51333
X46330Y52583
X45530Y51333
X44730Y52583
Y55083
X45530Y53833
X46330Y55083
X47130Y53833
X47930Y55083
X48730Y53833
X49530Y55083
X50330Y53833
X51130Y55083
X51930Y53833
X58980Y55083
X59780Y53833
X60580Y55083
X61380Y53833
X62180Y55083
X62980Y53833
X63780Y55083
X64580Y53833
X65380Y55083
X66180Y53833
X73230Y55083
X74030Y53833
X74830Y55083
X75630Y53833
X76430Y55083
X77230Y53833
X78030Y55083
X78830Y53833
X79630Y55083
X80430Y53833
X87480Y55083
X88280Y53833
X89080Y55083
X89880Y53833
X90680Y55083
X91480Y53833
X92280Y55083
X93080Y53833
X93880Y55083
X94680Y53833
Y56333
X93080
X91480
X89880
X88280
X80430
X78830
X77230
X75630
X74030
X66180
X64580
X62980
X61380
X59780
X51930
X50330
X48730
X47130
X45530
T18
X2382Y3403
X4252Y2623
X6122Y3403
X6902Y5273
X6122Y7143
X2382
X1602Y5273
X4252Y7923
X97620Y66930
X95750Y66150
X93880Y66930
X93100Y68800
X93880Y70670
X97620
X98400Y68800
X95750Y71450
X89250Y129350
X38450
X35800Y132000
X36580Y130130
X40320
X41100Y132000
X86600
X87380Y130130
X91120
X91900Y132000
X91120Y133870
X87380
X40320
X36580
X38450Y134650
X89250
T05
X113640Y78311
Y79581
Y80851
X115291Y78950
Y80220
Y81490
Y82760
X113640Y82121
Y83391
Y84661
Y85931
X115291Y84030
Y85300
Y86570
Y87840
X113640Y87201
Y88471
X115291Y89110
T09
X131866Y42966
Y44996
X133646Y43986
Y46016
Y48046
X131866Y47026
Y49056
X133646Y50076
X135110Y65735
X136890Y64715
Y66745
X135110Y67765
Y69795
X136890Y68775
Y70805
X135110Y71825
X6300Y139880
X8840
X11390
X13930
X15190Y142420
X12650
X10110
X7570
X6300Y146110
X8840
X11390
X13930
X15195Y148650
X12655
X10115
X7575
T11
X33670Y11330
X32400Y12600
X28340
X27070Y11330
X19670
X18400Y12600
X14340
X13070Y11330
Y13870
X14340Y15140
X18400
X19670Y13870
X27070
X28340Y15140
X32400
X33670Y13870
Y16410
X32400Y17680
X28340Y17650
X27070Y16410
X19670
X18400Y17680
X14340Y17650
X13070Y16410
Y18950
X14340Y20220
X18400
X19670Y18950
X27070
X28340Y20220
X32400
X33670Y18950
Y21490
X32400Y22760
X28340
X27070Y21490
X19670
X18400Y22760
X14340
X13070Y21490
X5523Y54144
X9059Y57679
X5523Y64344
X9059Y67879
X84730Y90418
X88266Y93953
T07
X115075Y61999
X112535
X109995
X107455
X104915
Y64539
X107455
X109995
X112535
X115075
X4729Y76115
X7269
Y78655
X4729
Y81195
X7269
Y83735
X4729
Y86275
X7269
X7270Y96780
X4730
Y99320
X7270
Y101860
X4730
Y104400
X7270
Y106940
X4730
Y109480
X7270
X61500Y112450
X7270Y112020
X4730
X61500Y114990
Y117530
Y120070
Y122610
Y125150
X133600Y163105
X131060
X128520
X125980
X123440
X120900
X118360
X115820
X113280
X110740
X108200
X105660
X103120
X100580
X98040
X95500
X92960
X90420
X87880
X85340
X82800
X80260
X77720
Y165645
X80260
X82800
X85340
X87880
X90420
X92960
X95500
X98040
X100580
X103120
X105660
X108200
X110740
X113280
X115820
X118360
X120900
X123440
X125980
X128520
X131060
X133600
X77715Y211360
X80255
X82795
X85335
X87875
X90415
X92955
X95495
X98035
X100575
X103115
X105655
X108195
X110735
X113275
X115815
X118355
X120895
X123435
X125975
X128515
X131055
X133595
Y213900
X131055
X128515
X125975
X123435
X120895
X118355
X115815
X113275
X110735
X108195
X105655
X103115
X100575
X98035
X95495
X92955
X90415
X87875
X85335
X82795
X80255
X77715
T16
X98200Y6733
X92530
X83950
X78280
X69700
X64030
X55450
X49780
X41200
Y14733
X55450
X69700
X83950
X98200
Y22733
X83950
X69700
X55450
X41200
X98200Y30733
X95030Y32413
X89630
X83950Y30733
X80780Y32413
X75380
X69700Y30733
X66530Y32413
X61130
X55450Y30733
X52280Y32413
X46880
X41200Y30733
Y38733
X55450
X69700
X83950
X98200
Y46733
X83950
X69700
X55450
X41200
X95100Y58363
X91100
X87100
X80850
X76850
X72850
X66600
X62600
X58600
X52350
X48350
X44350
T12
X79713Y150750
X86713
X85463Y153250
X80963
T06
X118840Y72711
X110080Y71211
Y96211
X118840Y94711
T03
X106700Y3635
X119600
X132500
Y11835
X119600
X106700
T08
X38840Y2060
X7860
X38840Y18060
X7860Y22120
X23350Y23900
X132756Y38396
Y54656
X136000Y60135
Y76395
X2620Y141410
X18880
Y149790
X2620
T02
X135040Y1095
X129960
X122140
X117060
X109240
X104160
X135040Y6175
X129960
X122140
X117060
X109240
X104160
Y9295
X109240
X117060
X122140
X129960
X135040
X104160Y14375
X109240
X117060
X122140
X129960
X135040
T04
X4252Y5273
X95750Y68800
X5150Y120550
X10650
X38450Y132000
X89250
T00
M30
