; Version : LOCAL
; Job     : H:\PCB100-199\PCB123_Ferret_Cu4_SFP8_Mngd_ref_board\Rev2\Layout\working\PCB\pcb123-02.pcb
; User    : HERENT0076:mag
; Date    : Tue Aug 16 15:48:40 2016
; Format  : 3.3 / Absolute / MM / Leading
; Contents: Thru / Drill / Non-Plated
M48
METRIC,TZ
FMAT,2
ICI,OFF
T21C0.7000
T22C0.8000
T19C1.0000
T23C1.2000
T25C2.0000
T26C3.1000
T20C3.3000
T24C4.0000
%
M71
G90
G93X0Y0
T21
X99600Y0
Y1000
Y2000
X7000Y200
X6000
X5000
X4000
X3000
X2000
X1000
X0
X99600Y3000
Y4000
Y5000
Y6000
Y7000
X102400Y18900
X103400
X104400
X105400
X106400
X107400
X108400
X109400
X134500
X135500
X136500
X137500
X138500
X139500
X140500
X141500
Y56000
X140500
X139500
X138500
X137500
X131000
X130000
X129000
X128000
X127000
X109400
X108400
X107400
X106400
X105400
X104400
X103400
X102400
Y58800
X103400
X104400
X105400
X106400
X107400
X108400
X109400
X127000
X128000
X129000
X130000
X131000
X137500
X138500
X139500
X140500
X141500
X120000Y63700
Y64700
Y65700
X122800Y63700
Y64700
Y65700
Y66700
Y67700
X120000Y66700
Y67700
Y68700
Y69700
Y70700
X122800Y68700
Y69700
Y70700
X102600Y92500
Y93500
X99600Y92500
Y93500
Y94500
Y95500
Y96500
X102600Y94500
Y95500
Y96500
X120095Y95500
Y96500
X134500Y94000
X135500
X136500
X137500
X138500
X139500
X140500
X141500
X120095Y97500
Y98500
X102600Y97500
Y98500
X99600Y97500
Y98500
Y99500
X102600
X120095
X134500Y102100
X133500
X132500
X131500
X130500
X129500
X128500
X127500
X102600Y101900
Y102900
Y103900
X99600Y101900
Y102900
Y103900
Y104900
Y105900
X102600Y104900
Y105900
Y106900
Y107900
Y108900
X99600Y106900
Y107900
Y108900
X102600Y154900
X99600
Y155900
Y156900
X102600Y155900
Y156900
Y157900
Y158900
Y159900
X99600Y157900
Y158900
Y159900
X68100Y159300
X67100
X66100
X65100
X64100
X7000
X6000
X5000
X4000
X3000
X2000
X1000
X0
X64100Y162100
X65100
X66100
X67100
X68100
X99600Y160900
Y161900
X102600Y160900
Y161900
T22
X130176Y61809
Y91019
X107695Y109603
X136905
Y149797
X107695
T19
X109964Y27144
Y45544
X109980Y74511
X51750Y87704
X31620
X109980Y92911
X56846Y111588
X43880Y139850
X84010
T23
X136905Y119200
X107695
X46045Y136121
X75255
T25
X42830Y48833
X57080
X71330
X85580
X96580Y56333
X82330
X68080
X53830
T26
X48330Y14733
X91080
X69700Y60833
T20
X36050Y6630
X10650
X106164Y22666
X136186Y40176
X106164Y50066
X120864
X136186Y52876
X124670Y60715
X139430Y61915
X106180Y70011
X139430Y74615
X55400Y88574
X28000
X124670Y92115
X106180Y97411
X138000Y104100
X106600
X28000Y103276
X44951Y130626
X76351
X4400Y156900
X17100
X115340Y157650
X138670Y164370
X72320Y167545
Y209455
X138670Y212630
T24
X3000Y-4900
X138500
Y164400
X3000
T00
M30
