*
G04 Job   : H:\PCB100-199\PCB121_Ferret_Cu8_SFP2_Unmngd_ref_board\Rev2\Layout\working\PCB\pcb121-02.pcb*
G04 User  : HERENT0076:mag*
G04 Layer : 03_PasteTop.gdo*
G04 Date  : Fri Aug 12 11:52:14 2016*
%ICAS*%
%MOMM*%
%FSLAX24Y24*%
%OFA0.0000B0.0000*%
G90*
G74*
%AMVB_RECTANGLE*
21,1,$1,$2,0,0,$3*
%
%AMVB_FINGER0*
$3=$1/2*
$4=$2/2*
$5=0-$4*
1,1,$2,$3-$4,0*
21,1,$1-$4,$2,$5/2,0,0*
%
%AMVB_FINGER90*
$3=$1/2*
$4=$2/2*
$5=0-$4*
1,1,$2,0,$3-$4*
21,1,$2,$1-$4,0,$5/2,0*
%
%AMVB_FINGER180*
$3=$1/2*
$4=$2/2*
1,1,$2,$4-$3,0*
21,1,$1-$4,$2,$4/2,0,0*
%
%AMVB_FINGER270*
$3=$1/2*
$4=$2/2*
1,1,$2,0,$4-$3*
21,1,$2,$1-$4,0,$4/2,0*
%
%AMVB_RCRECTANGLE*
$3=$3X2*
21,1,$1-$3,$2,0,0,0*
21,1,$1,$2-$3,0,0,0*
$1=$1/2*
$2=$2/2*
$3=$3/2*
$1=$1-$3*
$2=$2-$3*
1,1,$3X2,0-$1,0-$2*
1,1,$3X2,0-$1,$2*
1,1,$3X2,$1,$2*
1,1,$3X2,$1,0-$2*
%
%ADD10C,0.00500*%
%ADD19C,0.35000*%
%ADD22C,0.40000*%
%ADD24C,0.50000*%
%ADD20C,0.86360*%
%ADD11C,1.00000*%
%ADD33O,0.61000X0.28000*%
%ADD32O,0.28000X0.61000*%
%ADD53VB_RECTANGLE,1.50000X1.50000X270.00000*%
%ADD18VB_RECTANGLE,3.20000X3.20000X90.00000*%
%ADD73VB_RECTANGLE,0.25000X0.70000X90.00000*%
%ADD45VB_RECTANGLE,0.30000X0.60000X180.00000*%
%ADD39VB_RECTANGLE,0.30000X2.25000X180.00000*%
%ADD14VB_RECTANGLE,0.50040X0.59940X180.00000*%
%ADD43VB_RECTANGLE,0.50040X0.59940X90.00000*%
%ADD31VB_RECTANGLE,0.55000X0.75000X0.00000*%
%ADD29VB_RECTANGLE,0.60000X1.30000X180.00000*%
%ADD16VB_RECTANGLE,0.60000X1.30000X270.00000*%
%ADD44VB_RECTANGLE,0.75000X2.70000X180.00000*%
%ADD25VB_RECTANGLE,0.75000X2.70000X270.00000*%
%ADD13VB_RECTANGLE,0.80000X0.80000X180.00000*%
%ADD12VB_RECTANGLE,0.80000X0.80000X270.00000*%
%ADD15VB_RECTANGLE,0.80000X1.60000X180.00000*%
%ADD52VB_RECTANGLE,0.80000X1.60000X90.00000*%
%ADD28VB_RECTANGLE,0.90000X1.00000X0.00000*%
%ADD54VB_RECTANGLE,0.90000X1.00000X270.00000*%
%ADD51VB_RECTANGLE,1.00000X0.50000X90.00000*%
%ADD50VB_RECTANGLE,1.00000X1.80000X0.00000*%
%ADD27VB_RECTANGLE,1.20000X1.00000X0.00000*%
%ADD17VB_RECTANGLE,1.20000X1.90000X270.00000*%
%ADD55VB_RECTANGLE,1.40000X2.00000X0.00000*%
%ADD26VB_RECTANGLE,1.40000X4.40000X270.00000*%
%ADD72VB_RECTANGLE,1.80000X0.60000X90.00000*%
%ADD30VB_RECTANGLE,1.80000X2.60000X180.00000*%
%ADD46VB_RECTANGLE,1.80000X2.60000X270.00000*%
%ADD47VB_RECTANGLE,1.80000X3.20000X90.00000*%
%ADD48VB_RECTANGLE,1.80000X3.40000X180.00000*%
%ADD49VB_RECTANGLE,2.20000X0.40000X270.00000*%
%ADD40VB_RECTANGLE,2.55000X0.65000X180.00000*%
%ADD42VB_RECTANGLE,2.80000X3.80000X180.00000*%
%ADD38VB_RECTANGLE,3.40000X2.56000X270.00000*%
%ADD41VB_RECTANGLE,4.70000X0.65000X180.00000*%
%ADD37VB_FINGER0,0.61000X0.28000*%
%ADD36VB_FINGER90,0.61000X0.28000*%
%ADD34VB_FINGER180,0.61000X0.28000*%
%ADD35VB_FINGER270,0.61000X0.28000*%
%ADD21VB_RCRECTANGLE,0.50000X0.35000X0.17500*%
%ADD71VB_RCRECTANGLE,0.35000X0.50000X0.17500*%
%ADD70VB_RCRECTANGLE,0.65000X0.35000X0.17500*%
%ADD23VB_RCRECTANGLE,0.35000X0.65000X0.17500*%
G01*
G36*
X458200Y338000D02*
X490200D01*
Y370000*
X458200*
Y338000*
Y374000D02*
X490200D01*
Y406000*
X458200*
Y374000*
X494200Y338000D02*
X526200D01*
Y370000*
X494200*
Y338000*
Y374000D02*
X526200D01*
Y406000*
X494200*
Y374000*
G37*
G54D10*
X0Y-74000D02*
X1415000D01*
Y995000*
X0*
Y-74000*
G54D11*
X80000Y-49000D03*
Y970000D03*
X108000Y456000D03*
X252000Y537000D03*
X378000Y273000D03*
X510000Y852000D03*
X612000Y549000D03*
X762000Y630000D03*
X903000Y21000D03*
X921000Y978000D03*
X1033000Y598000D03*
X1047000Y279000D03*
X1159950Y963000D03*
X1248000Y882000D03*
X1335000Y-49000D03*
X1392000Y504000D03*
Y657000D03*
G54D12*
X19000Y301000D03*
Y317000D03*
X22000Y235000D03*
Y251000D03*
X34000Y235000D03*
Y251000D03*
Y301000D03*
Y317000D03*
X45000Y648000D03*
Y664000D03*
X46000Y235000D03*
Y251000D03*
Y301000D03*
Y317000D03*
X57000Y648000D03*
Y664000D03*
X58000Y235000D03*
Y251000D03*
Y301000D03*
Y317000D03*
X69000Y648000D03*
Y664000D03*
X70000Y235000D03*
Y251000D03*
X76500Y301000D03*
Y317000D03*
X81000Y648000D03*
Y664000D03*
X82000Y235000D03*
Y251000D03*
X98000Y648000D03*
Y664000D03*
X107350Y-63000D03*
Y-47000D03*
X113400Y648000D03*
Y664000D03*
X125400Y648000D03*
Y664000D03*
X126000Y328000D03*
Y344000D03*
X137400Y648000D03*
Y664000D03*
X240000Y451000D03*
Y467000D03*
X252000Y451000D03*
Y467000D03*
X264000Y451000D03*
Y467000D03*
X323000Y419000D03*
Y435000D03*
X332500Y345500D03*
Y361500D03*
X380250Y657425D03*
Y673425D03*
X392250Y657425D03*
Y673425D03*
X404250Y657425D03*
Y673425D03*
X429000Y889000D03*
Y905000D03*
Y916000D03*
Y932000D03*
X444000Y889000D03*
Y905000D03*
Y916000D03*
Y932000D03*
X456000Y889000D03*
Y905000D03*
Y916000D03*
Y932000D03*
X468000Y889000D03*
Y905000D03*
Y916000D03*
Y932000D03*
X480000Y889000D03*
Y905000D03*
Y916000D03*
Y932000D03*
X486000Y478000D03*
Y494000D03*
X492000Y889000D03*
Y905000D03*
Y916000D03*
Y932000D03*
X498000Y478000D03*
Y494000D03*
X504000Y889000D03*
Y905000D03*
Y916000D03*
Y932000D03*
X510000Y478000D03*
Y494000D03*
X516000Y889000D03*
Y905000D03*
Y916000D03*
Y932000D03*
X522000Y478000D03*
Y494000D03*
X528000Y902500D03*
Y918500D03*
X635625Y539500D03*
Y555500D03*
X639000Y677500D03*
Y693500D03*
Y722500D03*
Y738500D03*
Y763500D03*
Y779500D03*
Y808500D03*
Y824500D03*
X650625Y539500D03*
Y555500D03*
X660000Y304250D03*
Y320250D03*
X1160306Y390832D03*
Y406832D03*
X1175208Y393059D03*
Y409059D03*
D03*
Y425059D03*
X1187208Y393059D03*
Y409059D03*
D03*
Y425059D03*
X1199208Y393059D03*
Y409059D03*
D03*
Y425059D03*
X1211208Y393059D03*
Y409059D03*
D03*
Y425059D03*
X1349700Y888150D03*
Y904150D03*
X1361700Y888150D03*
Y904150D03*
X1373700Y888150D03*
Y904150D03*
X1385700Y888150D03*
Y904150D03*
X1397700Y888150D03*
Y904150D03*
G54D13*
X87750Y132500D03*
X90000Y291000D03*
Y303000D03*
Y315000D03*
X103750Y132500D03*
X106000Y291000D03*
D03*
Y303000D03*
D03*
Y315000D03*
D03*
X107350Y-37000D03*
X122000Y291000D03*
Y303000D03*
Y315000D03*
X123350Y-37000D03*
X131000Y465000D03*
X147000D03*
X157700Y453000D03*
X157750Y465000D03*
Y477000D03*
Y525500D03*
X173700Y453000D03*
X173750Y465000D03*
Y477000D03*
Y525500D03*
X253000Y480000D03*
X269000D03*
X275500Y467000D03*
X280000Y480000D03*
X291500Y467000D03*
X296000Y480000D03*
X304000Y357500D03*
Y369500D03*
Y381500D03*
Y393500D03*
X320000Y357500D03*
Y369500D03*
Y381500D03*
D03*
Y393500D03*
D03*
X321000Y477000D03*
X336000Y381500D03*
Y393500D03*
X337000Y477000D03*
X412000Y468000D03*
Y480000D03*
X428000Y468000D03*
Y480000D03*
X442000Y468000D03*
Y480000D03*
X458000Y468000D03*
Y480000D03*
X587500Y381500D03*
X589000Y328250D03*
Y340250D03*
Y352250D03*
Y393500D03*
Y405500D03*
Y417500D03*
Y429500D03*
X603500Y381500D03*
X605000Y316250D03*
Y328250D03*
D03*
Y340250D03*
D03*
Y352250D03*
D03*
Y393500D03*
D03*
Y405500D03*
D03*
Y417500D03*
D03*
Y429500D03*
D03*
X606000Y364500D03*
X621000Y316250D03*
Y328250D03*
Y340250D03*
Y352250D03*
Y393500D03*
Y405500D03*
Y417500D03*
Y429500D03*
X622000Y364500D03*
X649000Y382000D03*
X658000Y439500D03*
X659500Y339250D03*
Y351250D03*
X665000Y382000D03*
X674000Y439500D03*
X675500Y339250D03*
Y351250D03*
X680500Y291250D03*
X686500Y339250D03*
Y351250D03*
Y363250D03*
X696500Y291250D03*
X702500Y339250D03*
Y351250D03*
Y363250D03*
X752500Y681000D03*
X760000Y767000D03*
X768500Y681000D03*
X776000Y767000D03*
X779500Y681000D03*
X795500D03*
X806500D03*
Y767000D03*
X822500Y681000D03*
Y767000D03*
X833500Y681000D03*
Y693000D03*
Y705000D03*
Y717000D03*
Y729000D03*
Y741000D03*
Y767000D03*
Y779000D03*
Y791000D03*
Y803000D03*
Y815000D03*
Y827000D03*
X849500Y681000D03*
Y693000D03*
Y705000D03*
Y717000D03*
Y729000D03*
Y741000D03*
Y767000D03*
Y779000D03*
Y791000D03*
Y803000D03*
Y815000D03*
Y827000D03*
X922000Y720000D03*
X938000D03*
X1045300Y819100D03*
Y831100D03*
Y843100D03*
Y855100D03*
Y867100D03*
Y879100D03*
X1061300Y819100D03*
D03*
Y831100D03*
D03*
Y843100D03*
D03*
Y855100D03*
D03*
Y867100D03*
D03*
Y879100D03*
D03*
Y891113D03*
X1077300Y819100D03*
Y831100D03*
Y843100D03*
Y855100D03*
Y867100D03*
Y879100D03*
Y891113D03*
X1151406Y244632D03*
X1151430Y256659D03*
Y268659D03*
X1167406Y244632D03*
X1167430Y256659D03*
Y268659D03*
X1181906Y244632D03*
X1181930Y256659D03*
Y268659D03*
X1197906Y244632D03*
X1197930Y256659D03*
Y268659D03*
X1383700Y776150D03*
X1399700D03*
G54D14*
X348000Y477000D03*
X358000D03*
X378500Y357502D03*
Y366502D03*
Y375502D03*
Y384502D03*
Y393502D03*
Y402502D03*
X388500Y357502D03*
Y366502D03*
Y375502D03*
Y384502D03*
Y393502D03*
Y402502D03*
X1067644Y407661D03*
Y416661D03*
Y434661D03*
Y443661D03*
X1077644Y407661D03*
Y416661D03*
Y434661D03*
Y443661D03*
X1251709Y198647D03*
X1261709D03*
X1290709D03*
X1300709D03*
X1328644Y198661D03*
X1338644D03*
X1366503Y198761D03*
X1376503D03*
G54D15*
X186500Y500750D03*
X639000Y708000D03*
Y794000D03*
X975000Y726000D03*
G54D16*
X40500Y539500D03*
Y552200D03*
Y565000D03*
Y577700D03*
Y590400D03*
Y603100D03*
Y615800D03*
Y628500D03*
X137500Y539500D03*
Y552200D03*
Y564900D03*
Y577600D03*
Y590300D03*
Y603000D03*
Y615800D03*
Y628500D03*
X765000Y697900D03*
Y710600D03*
Y723300D03*
Y736000D03*
Y783900D03*
Y796600D03*
Y809300D03*
Y822000D03*
X819000Y697900D03*
Y710600D03*
Y723300D03*
Y736000D03*
Y783900D03*
Y796600D03*
Y809300D03*
Y822000D03*
G54D17*
X745500Y698000D03*
Y730000D03*
Y784000D03*
Y816000D03*
G54D18*
X904000Y588000D03*
Y696000D03*
X956000Y588000D03*
Y696000D03*
G54D19*
X165490Y334000D03*
Y340500D03*
Y353500D03*
Y366500D03*
Y373000D03*
Y386000D03*
Y392500D03*
Y399000D03*
Y405500D03*
X171980Y343750D03*
Y356750D03*
Y363250D03*
Y369750D03*
Y376250D03*
Y382750D03*
Y395750D03*
Y402250D03*
X176250Y326480D03*
X178490Y340500D03*
Y347000D03*
Y360000D03*
Y366500D03*
Y373000D03*
Y379500D03*
Y386000D03*
X179500Y319980D03*
Y400020D03*
X182750Y406520D03*
X186000Y319980D03*
Y332990D03*
X189250Y313480D03*
Y326480D03*
Y406520D03*
X192500Y319980D03*
Y332990D03*
X195750Y313480D03*
Y406520D03*
X199000Y332990D03*
Y400020D03*
X202250Y313480D03*
Y406520D03*
X205500Y332990D03*
X212000Y319980D03*
Y332990D03*
Y400020D03*
X215250Y406520D03*
X218500Y332990D03*
X221750Y406520D03*
X225000Y332990D03*
Y400020D03*
X228250Y313480D03*
Y326480D03*
X231500Y332990D03*
Y400020D03*
X234750Y406520D03*
X238000Y319980D03*
Y332990D03*
X241250Y326480D03*
Y406520D03*
X244500Y319980D03*
Y400020D03*
X245520Y334000D03*
Y347000D03*
Y366500D03*
Y373000D03*
Y379500D03*
Y386000D03*
Y392500D03*
X252010Y337250D03*
Y343750D03*
Y350250D03*
Y356750D03*
Y363250D03*
Y369750D03*
Y376250D03*
Y402250D03*
X258520Y340500D03*
Y353500D03*
Y360000D03*
Y373000D03*
Y379500D03*
Y386000D03*
Y392500D03*
Y405500D03*
X265010Y343750D03*
Y350250D03*
Y363250D03*
Y369750D03*
Y376250D03*
Y389250D03*
Y402230D03*
G54D20*
X160750Y305500D03*
Y414500D03*
X269750Y305500D03*
Y414500D03*
G54D21*
X199000Y319980D03*
X205500Y307000D03*
Y319980D03*
Y400020D03*
X218500Y319980D03*
Y400020D03*
X221750Y313480D03*
X225000Y307000D03*
Y319980D03*
X231500D03*
X238000Y400020D03*
X247750Y326480D03*
G54D22*
X158980Y363250D03*
Y369750D03*
Y389250D03*
Y395750D03*
X165490Y327500D03*
X173000Y319980D03*
X212000Y307000D03*
X218500D03*
X231500Y413010D03*
X238000D03*
X257500Y319980D03*
Y413010D03*
X258520Y327500D03*
X271520Y373000D03*
Y379500D03*
X1133180Y290009D03*
Y298009D03*
Y306009D03*
Y314009D03*
Y322009D03*
Y330009D03*
Y338009D03*
Y346009D03*
Y354009D03*
Y362009D03*
X1141180Y290009D03*
Y298009D03*
Y306009D03*
Y314009D03*
Y322009D03*
Y330009D03*
Y338009D03*
Y346009D03*
Y354009D03*
Y362009D03*
X1149180Y290009D03*
Y298009D03*
Y306009D03*
Y314009D03*
Y322009D03*
Y330009D03*
Y338009D03*
Y346009D03*
Y354009D03*
Y362009D03*
X1157180Y290009D03*
Y298009D03*
Y306009D03*
Y314009D03*
Y322009D03*
Y330009D03*
Y338009D03*
Y346009D03*
Y354009D03*
Y362009D03*
X1165180Y290009D03*
Y298009D03*
Y306009D03*
Y314009D03*
Y322009D03*
Y330009D03*
Y338009D03*
Y346009D03*
Y354009D03*
Y362009D03*
X1173180Y290009D03*
Y298009D03*
Y306009D03*
Y314009D03*
Y322009D03*
Y330009D03*
Y338009D03*
Y346009D03*
Y354009D03*
Y362009D03*
X1181180Y290009D03*
Y298009D03*
Y306009D03*
Y314009D03*
Y322009D03*
Y330009D03*
Y338009D03*
Y346009D03*
Y354009D03*
Y362009D03*
X1189180Y290009D03*
Y298009D03*
Y306009D03*
Y314009D03*
Y322009D03*
Y330009D03*
Y338009D03*
Y346009D03*
Y354009D03*
Y362009D03*
X1197180Y290009D03*
Y298009D03*
Y306009D03*
Y314009D03*
Y322009D03*
Y330009D03*
Y338009D03*
Y346009D03*
Y354009D03*
Y362009D03*
X1205180Y290009D03*
Y298009D03*
Y306009D03*
Y314009D03*
Y322009D03*
Y330009D03*
Y338009D03*
Y346009D03*
Y354009D03*
Y362009D03*
G54D23*
X158980Y337250D03*
Y350250D03*
X171980D03*
X178490Y353500D03*
G54D24*
X195900Y350500D03*
Y358500D03*
Y366500D03*
Y374500D03*
Y382500D03*
X204000Y350500D03*
Y358500D03*
Y366500D03*
Y374500D03*
Y382500D03*
X212000Y350500D03*
Y358500D03*
Y366500D03*
Y374500D03*
Y382500D03*
X220000Y350500D03*
Y358500D03*
Y366500D03*
Y374500D03*
Y382500D03*
X228000Y350500D03*
Y358500D03*
Y366500D03*
Y374500D03*
Y382500D03*
G54D25*
X1281229Y611746D03*
Y624446D03*
Y637146D03*
Y649846D03*
Y662546D03*
Y675246D03*
Y687946D03*
Y700646D03*
Y713346D03*
Y726046D03*
Y738746D03*
Y751446D03*
Y764146D03*
Y776846D03*
Y789546D03*
Y802246D03*
Y814946D03*
Y827646D03*
Y840346D03*
Y853046D03*
Y865746D03*
Y878446D03*
Y891146D03*
Y903846D03*
Y916546D03*
X1322229Y611746D03*
Y624446D03*
Y637146D03*
Y649846D03*
Y662546D03*
Y675246D03*
Y687946D03*
Y700646D03*
Y713346D03*
Y726046D03*
Y738746D03*
Y751446D03*
Y764146D03*
Y776846D03*
Y789546D03*
Y802246D03*
Y814946D03*
Y827646D03*
Y840346D03*
Y853046D03*
Y865746D03*
Y878446D03*
Y891146D03*
Y903846D03*
Y916546D03*
G54D26*
X1122930Y214518D03*
X1206930D03*
G54D27*
X680500Y305750D03*
G54D28*
X679000Y324750D03*
X698000Y305750D03*
Y324750D03*
G54D29*
X69900Y556000D03*
Y610000D03*
X82600Y556000D03*
Y610000D03*
X95300Y556000D03*
Y610000D03*
X108000Y556000D03*
Y610000D03*
G54D30*
X40000Y276000D03*
G54D31*
X661500Y523125D03*
Y538125D03*
X669500Y523125D03*
Y538125D03*
X677500Y383500D03*
Y398500D03*
Y523125D03*
Y538125D03*
X685500Y383500D03*
Y398500D03*
Y523125D03*
Y538125D03*
X686500Y424500D03*
Y439500D03*
X693500Y383500D03*
Y398500D03*
X694500Y424500D03*
Y439500D03*
X701500Y383500D03*
Y398500D03*
X702500Y424500D03*
Y439500D03*
X710500Y424500D03*
Y439500D03*
G54D32*
X442250Y315500D03*
Y428500D03*
X447250Y315500D03*
Y428500D03*
X452250Y315500D03*
Y428500D03*
X457250Y315500D03*
Y428500D03*
X462250Y315500D03*
Y428500D03*
X467250Y315500D03*
Y428500D03*
X472250Y315500D03*
Y428500D03*
X477250Y315500D03*
Y428500D03*
X482250Y315500D03*
Y428500D03*
X487250Y315500D03*
Y428500D03*
X492250Y315500D03*
Y428500D03*
X497250Y315500D03*
Y428500D03*
X502250Y315500D03*
Y428500D03*
X507250Y315500D03*
Y428500D03*
X512250Y315500D03*
Y428500D03*
X517250Y315500D03*
Y428500D03*
X522250Y315500D03*
Y428500D03*
X527250Y315500D03*
Y428500D03*
X532250Y315500D03*
Y428500D03*
X537250Y315500D03*
Y428500D03*
X542250Y315500D03*
Y428500D03*
G54D33*
X435750Y322000D03*
Y327000D03*
Y332000D03*
Y337000D03*
Y342000D03*
Y347000D03*
Y352000D03*
Y357000D03*
Y362000D03*
Y367000D03*
Y372000D03*
Y377000D03*
Y382000D03*
Y387000D03*
Y392000D03*
Y397000D03*
Y402000D03*
Y407000D03*
Y412000D03*
Y417000D03*
Y422000D03*
X548750Y322000D03*
Y327000D03*
Y332000D03*
Y337000D03*
Y342000D03*
Y347000D03*
Y352000D03*
Y357000D03*
Y362000D03*
Y367000D03*
Y372000D03*
Y377000D03*
Y382000D03*
Y387000D03*
Y392000D03*
Y397000D03*
Y402000D03*
Y407000D03*
Y412000D03*
Y417000D03*
Y422000D03*
G54D34*
X555750Y319500D03*
Y324500D03*
Y329500D03*
Y334500D03*
Y339500D03*
Y344500D03*
Y349500D03*
Y354500D03*
Y359500D03*
Y364500D03*
Y369500D03*
Y374500D03*
Y379500D03*
Y384500D03*
Y389500D03*
Y394500D03*
Y399500D03*
Y404500D03*
Y409500D03*
Y414500D03*
Y419500D03*
Y424500D03*
G54D35*
X439750Y435500D03*
X444750D03*
X449750D03*
X454750D03*
X459750D03*
X464750D03*
X469750D03*
X474750D03*
X479750D03*
X484750D03*
X489750D03*
X494750D03*
X499750D03*
X504750D03*
X509750D03*
X514750D03*
X519750D03*
X524750D03*
X529750D03*
X534750D03*
X539750D03*
X544750D03*
G54D36*
X439750Y308500D03*
X444750D03*
X449750D03*
X454750D03*
X459750D03*
X464750D03*
X469750D03*
X474750D03*
X479750D03*
X484750D03*
X489750D03*
X494750D03*
X499750D03*
X504750D03*
X509750D03*
X514750D03*
X519750D03*
X524750D03*
X529750D03*
X534750D03*
X539750D03*
X544750D03*
G54D37*
X428750Y319500D03*
Y324500D03*
Y329500D03*
Y334500D03*
Y339500D03*
Y344500D03*
Y349500D03*
Y354500D03*
Y359500D03*
Y364500D03*
Y369500D03*
Y374500D03*
Y379500D03*
Y384500D03*
Y389500D03*
Y394500D03*
Y399500D03*
Y404500D03*
Y409500D03*
Y414500D03*
Y419500D03*
Y424500D03*
G54D38*
X792000Y717000D03*
Y803000D03*
G54D39*
X270900Y575975D03*
Y633175D03*
X278900Y575975D03*
Y633175D03*
X286900Y575975D03*
Y633175D03*
X294900Y575975D03*
Y633175D03*
X302900Y575975D03*
Y633175D03*
X310900Y575975D03*
Y633175D03*
X318900Y575975D03*
Y633175D03*
X326900Y575975D03*
Y633175D03*
X334900Y575975D03*
Y633175D03*
X342900Y575975D03*
Y633175D03*
X350900Y575975D03*
Y633175D03*
X358900Y575975D03*
Y633175D03*
X366900Y575975D03*
Y633175D03*
X374900Y575975D03*
Y633175D03*
X382900Y575975D03*
Y633175D03*
X390900Y575975D03*
Y633175D03*
X398900Y575975D03*
Y633175D03*
X406900Y575975D03*
Y633175D03*
X414900Y575975D03*
Y633175D03*
X422900Y575975D03*
Y633175D03*
G54D40*
X266300Y604575D03*
X427600D03*
G54D41*
X315200D03*
X378700D03*
G54D42*
X881000Y348000D03*
X898000Y411000D03*
Y474000D03*
Y537000D03*
X954000Y348000D03*
X971000Y411000D03*
Y474000D03*
Y537000D03*
G54D43*
X229000Y466000D03*
Y476000D03*
G54D44*
X573604Y890735D03*
Y931735D03*
X586304Y890735D03*
Y931735D03*
X599004Y890735D03*
Y931735D03*
X611704Y890735D03*
Y931735D03*
X624404Y890735D03*
Y931735D03*
X637104Y890735D03*
Y931735D03*
X649804Y890735D03*
Y931735D03*
X662504Y890735D03*
Y931735D03*
X675204Y890735D03*
Y931735D03*
X687904Y890735D03*
Y931735D03*
X700604Y890735D03*
Y931735D03*
X713304Y890735D03*
Y931735D03*
X726004Y890735D03*
Y931735D03*
X738704Y890735D03*
Y931735D03*
X751404Y890735D03*
Y931735D03*
X764104Y890735D03*
Y931735D03*
X776804Y890735D03*
Y931735D03*
X789504Y890735D03*
Y931735D03*
X802204Y890735D03*
Y931735D03*
X814904Y890735D03*
Y931735D03*
X827604Y890735D03*
Y931735D03*
X840304Y890735D03*
Y931735D03*
X853004Y890735D03*
Y931735D03*
X865704Y890735D03*
Y931735D03*
X878404Y890735D03*
Y931735D03*
G54D45*
X155741Y487498D03*
Y514498D03*
X160741Y487498D03*
Y514498D03*
X165741Y487498D03*
Y514498D03*
X170741Y487498D03*
Y514498D03*
X175741Y487498D03*
Y514498D03*
G54D46*
X165750Y501000D03*
G54D47*
X906000Y144500D03*
Y202500D03*
X954000Y144500D03*
Y202500D03*
G54D48*
X661200Y708000D03*
Y794000D03*
X718800Y708000D03*
Y794000D03*
G54D49*
X1353900Y798150D03*
Y868150D03*
X1360400Y798150D03*
Y868150D03*
X1366900Y798150D03*
Y868150D03*
X1373400D03*
X1373500Y798150D03*
X1379900Y868150D03*
X1380000Y798150D03*
X1386500D03*
Y868150D03*
X1393000Y798150D03*
Y868150D03*
X1399500Y798150D03*
Y868150D03*
G54D50*
X52750Y132500D03*
X72750D03*
G54D51*
X631000Y303000D03*
Y327000D03*
X640500Y303000D03*
X650000D03*
Y327000D03*
G54D52*
X679500Y276250D03*
G54D53*
X33500Y11500D03*
X68500D03*
G54D54*
X51000Y18000D03*
G54D55*
X343600Y417000D03*
Y459000D03*
X394400Y417000D03*
Y459000D03*
G54D70*
X182750Y326480D03*
X192500Y400020D03*
X208750Y313480D03*
X234750Y326480D03*
G54D71*
X171980Y389250D03*
X178490Y392500D03*
X245520Y353500D03*
Y360000D03*
X252010Y382750D03*
Y389250D03*
X258520Y347000D03*
X265010Y395750D03*
G54D72*
X1251757Y214952D03*
Y360992D03*
X1264457Y214952D03*
Y360992D03*
X1277157Y214952D03*
Y360992D03*
X1289857Y214952D03*
Y360992D03*
X1302557Y214952D03*
Y360992D03*
X1315257Y214952D03*
Y360992D03*
X1327957Y214952D03*
Y360992D03*
X1340657Y214952D03*
Y360992D03*
X1353357Y214952D03*
Y360992D03*
X1366057Y214952D03*
Y360992D03*
X1378757Y214952D03*
Y360992D03*
X1391457Y214952D03*
Y360992D03*
G54D73*
X26000Y264700D03*
Y269200D03*
Y273700D03*
Y278300D03*
Y282800D03*
Y287300D03*
X54000Y264700D03*
Y269200D03*
Y273700D03*
Y278300D03*
Y282800D03*
Y287300D03*
M02*
