*
G04 Job   : H:\PCB100-199\PCB121_Ferret_Cu8_SFP2_Unmngd_ref_board\Rev2\Layout\working\PCB\pcb121-02.pcb*
G04 User  : HERENT0076:mag*
G04 Layer : 06_Layer2(gnd).gdo*
G04 Date  : Fri Aug 12 11:52:13 2016*
%ICAS*%
%MOMM*%
%FSLAX24Y24*%
%OFA0.0000B0.0000*%
G90*
G74*
%ADD10C,0.00500*%
%ADD15C,0.12500*%
%ADD14C,0.20000*%
%ADD13C,0.50000*%
%ADD16C,0.55000*%
%ADD26C,0.60000*%
%ADD17C,0.65000*%
%ADD29C,0.80000*%
%ADD28C,0.90000*%
%ADD20C,1.00000*%
%ADD33C,1.10000*%
%ADD25C,1.30000*%
%ADD22C,1.35000*%
%ADD23C,1.50000*%
%ADD21C,1.60000*%
%ADD11C,1.80000*%
%ADD34C,1.90000*%
%ADD24C,2.20000*%
%ADD19C,2.40000*%
%ADD18C,2.60000*%
%ADD27C,2.80000*%
%ADD12C,3.10000*%
%ADD72C,3.80000*%
%ADD71C,4.00000*%
%ADD70C,6.00000*%
%ADD73O,1.25000X0.90000*%
%ADD30O,0.90000X1.55000*%
%ADD32O,5.00000X2.60000*%
%ADD31O,2.60000X5.00000*%
G01*
G36*
X4000Y967740D02*
G02X4500Y968240I500D01*
X4998Y967784J500*
G03X13000Y951534I25002J2216*
G01Y87500*
G03X17750Y78989I10000*
G01Y41500*
G03X24250Y35000I6500*
G01X27750*
G03X34250Y41500J6500*
X27750Y48000I6500*
G01X24250*
G03X17750Y41500J6500*
G01Y78989*
G03X23000Y77500I5250J8511*
X25500Y77818J10000*
G01Y62500*
G03X35500Y52500I10000*
X45500Y62500J10000*
X35500Y72500I10000*
X25500Y62500J10000*
G01Y77818*
G03X33000Y87500I2500J9682*
X23000Y97500I10000*
X13000Y87500J10000*
G01Y951534*
G03X15250Y949691I17000J18466*
G01Y879000*
G03X16529Y875211I6250*
G01Y226455*
G03X20257Y222021I4500*
G02X20671Y221529I86J492*
X20636Y221346I500*
G03X20323Y219697I4187J1649*
X24823Y215197I4500*
X29323Y219697J4500*
X25596Y224130I4500*
G02X25182Y224622I86J492*
X25216Y224806I500*
G03X25529Y226455I4187J1649*
X21029Y230955I4500*
X16529Y226455J4500*
G01Y875211*
G03X21500Y872750I4971J3789*
X26300Y874997J6250*
G02X26684Y875177I384J320*
X27174Y874776J500*
G03X30259Y867303I20826J4224*
G02X30341Y867028I418J275*
X29841Y866528I500*
X29801Y866530J500*
G03X29300Y866550I501J6230*
X23050Y860300J6250*
X24500Y856297I6250*
G01Y741000*
G03X26641Y729491I32000*
G01Y325680*
G03X31141Y321180I4500*
X33250Y321704J4500*
G01Y186000*
G03X39500Y179750I6250*
X44300Y181997J6250*
G02X44684Y182177I384J320*
X45174Y181776J500*
G03X48259Y174303I20826J4224*
G02X48341Y174028I418J275*
X47841Y173528I500*
X47801Y173530J500*
G03X47300Y173550I501J6230*
X41050Y167300J6250*
X47300Y161050I6250*
X53550Y167300J6250*
X53530Y167801I6250*
G02X53528Y167841I498J40*
X54028Y168341I500*
X54303Y168259J500*
G03X61776Y165174I11697J17741*
G02X62177Y164684I99J490*
X61997Y164300I500*
G03X59750Y159500I4003J4800*
X66000Y153250I6250*
X67750Y153500J6250*
G01Y41500*
G03X74250Y35000I6500*
G01X77750*
G03X84250Y41500J6500*
X77750Y48000I6500*
G01X74250*
G03X67750Y41500J6500*
G01Y153500*
G03X71250Y156109I1750J6000*
G01Y62500*
G03X80500Y53250I9250*
X89750Y62500J9250*
X80500Y71750I9250*
X71250Y62500J9250*
G01Y156109*
G03X72250Y159500I5250J3391*
X70003Y164300I6250*
G02X69823Y164684I320J384*
X70224Y165174I500*
G03X77697Y168259I4224J20826*
G02X77972Y168341I275J418*
X78472Y167841J500*
X78470Y167801I500*
G03X78450Y167300I6230J501*
X78809Y165211I6250*
G01Y143376*
G03X83000Y138887I4500*
G01Y87500*
G03X93000Y77500I10000*
X103000Y87500J10000*
X93000Y97500I10000*
X83000Y87500J10000*
G01Y138887*
G03X83309Y138876I309J4489*
X87809Y143376J4500*
X83309Y147876I4500*
X78809Y143376J4500*
G01Y165211*
G03X84700Y161050I5891J2089*
X90950Y167300J6250*
X84700Y173550I6250*
X84199Y173530J6250*
G02X84159Y173528I40J498*
X83659Y174028J500*
X83741Y174303I500*
G03X86826Y181776I17741J11697*
G02X87316Y182177I490J99*
X87700Y181997J500*
G03X92500Y179750I4800J4003*
X98750Y186000J6250*
X92500Y192250I6250*
X87700Y190003J6250*
G02X87316Y189823I384J320*
X86826Y190224J500*
G03X83741Y197697I20826J4224*
G02X83659Y197972I418J275*
X84159Y198472I500*
X84199Y198470J500*
G03X84700Y198450I501J6230*
X90950Y204700J6250*
X84700Y210950I6250*
X78450Y204700J6250*
X78470Y204199I6250*
G02X78472Y204159I498J40*
X77972Y203659I500*
X77697Y203741J500*
G03X70224Y206826I11697J17741*
G02X69823Y207316I99J490*
X70003Y207700I500*
G03X72250Y212500I4003J4800*
X66000Y218750I6250*
X59750Y212500J6250*
X61997Y207700I6250*
G02X62177Y207316I320J384*
X61776Y206826I500*
G03X54303Y203741I4224J20826*
G02X54028Y203659I275J418*
X53528Y204159J500*
X53530Y204199I500*
G03X53550Y204700I6230J501*
X47300Y210950I6250*
X41050Y204700J6250*
X47300Y198450I6250*
X47801Y198470J6250*
G02X47841Y198472I40J498*
X48341Y197972J500*
X48259Y197697I500*
G03X45174Y190224I17741J11697*
G02X44684Y189823I490J99*
X44300Y190003J500*
G03X39500Y192250I4800J4003*
X33250Y186000J6250*
G01Y321704*
G03X35641Y325680I2109J3976*
X31141Y330180I4500*
X26641Y325680J4500*
G01Y729491*
G03X37300Y715400I29859J11509*
G01Y375200*
G03X47300Y365200I10000*
X57300Y375200J10000*
X47300Y385200I10000*
X37300Y375200J10000*
G01Y476800*
G03X38050Y473000I10000*
G01Y400600*
G03X47300Y391350I9250*
X56550Y400600J9250*
X47300Y409850I9250*
X38050Y400600J9250*
G01Y426000*
G03X47300Y416750I9250*
X56550Y426000J9250*
X47300Y435250I9250*
X38050Y426000J9250*
G01Y451400*
G03X47300Y442150I9250*
X56550Y451400J9250*
X47300Y460650I9250*
X38050Y451400J9250*
G01Y473000*
G03X47300Y466800I9250J3800*
X57300Y476800J10000*
X47300Y486800I10000*
X37300Y476800J10000*
G01Y715400*
G03X56500Y709000I19200J25600*
X57539Y709017J32000*
G01Y276272*
G03X62039Y271772I4500*
X66539Y276272J4500*
X62039Y280772I4500*
X57539Y276272J4500*
G01Y709017*
G03X63450Y709764I1039J31983*
G01Y375200*
G03X70500Y366215I9250*
G01Y282000*
G03X73038Y277950I4500*
G02X73321Y277500I217J450*
X73038Y277050I500*
G03X70500Y273000I1962J4050*
X73038Y268950I4500*
G02X73321Y268500I217J450*
X73038Y268050I500*
G03X70500Y264000I1962J4050*
X75000Y259500I4500*
X79050Y262038J4500*
G02X79500Y262321I450J217*
X79950Y262039J500*
G03X84000Y259500I4050J1961*
X88050Y262038J4500*
G02X88500Y262321I450J217*
X88950Y262039J500*
G03X93000Y259500I4050J1961*
X97500Y264000J4500*
X94962Y268050I4500*
G02X94679Y268500I217J450*
X94962Y268950I500*
G03X97500Y273000I1962J4050*
X94962Y277050I4500*
G02X94679Y277500I217J450*
X94962Y277950I500*
G03X97500Y282000I1962J4050*
X93000Y286500I4500*
X88950Y283962J4500*
G02X88500Y283679I450J217*
X88050Y283961J500*
G03X84000Y286500I4050J1961*
X79950Y283962J4500*
G02X79500Y283679I450J217*
X79050Y283961J500*
G03X75000Y286500I4050J1961*
X70500Y282000J4500*
G01Y366215*
G03X72700Y365950I2200J8985*
X81950Y375200J9250*
X72700Y384450I9250*
X63450Y375200J9250*
G01Y400600*
G03X72700Y391350I9250*
X81950Y400600J9250*
X72700Y409850I9250*
X63450Y400600J9250*
G01Y426000*
G03X72700Y416750I9250*
X81950Y426000J9250*
X72700Y435250I9250*
X63450Y426000J9250*
G01Y451400*
G03X72700Y442150I9250*
X81950Y451400J9250*
X72700Y460650I9250*
X63450Y451400J9250*
G01Y476800*
G03X72700Y467550I9250*
X81950Y476800J9250*
X72700Y486050I9250*
X63450Y476800J9250*
G01Y709764*
G03X64377Y709985I6950J31236*
G01Y672577*
G03X68877Y668077I4500*
X73377Y672577J4500*
X68877Y677077I4500*
X64377Y672577J4500*
G01Y709985*
G03X83577Y723946I7877J31015*
G02X84000Y724180I423J266*
X84423Y723946J500*
G03X93879Y714288I27077J17054*
G01Y323744*
G03X98379Y319244I4500*
X99250Y319329J4500*
G01Y220900*
G03X104320Y210975I12250*
G01Y46719*
G03X108820Y42219I4500*
X113320Y46719J4500*
X108820Y51219I4500*
X104320Y46719J4500*
G01Y210975*
G03X108125Y209124I7180J9925*
G01Y132533*
G03X112625Y128033I4500*
X117125Y132533J4500*
X112625Y137033I4500*
X108125Y132533J4500*
G01Y209124*
G03X111500Y208650I3375J11776*
X117400Y210164J12250*
G01Y66000*
G03X139000Y44400I21600*
X150157Y47504J21600*
G02X150415Y47576I258J428*
X150915Y47076J500*
X150826Y46792I500*
G03X150030Y44237I3704J2555*
X154530Y39737I4500*
X159030Y44237J4500*
X154530Y48737I4500*
X153318Y48570J4500*
G02X153183Y48552I135J482*
X152683Y49052J500*
X152862Y49435I500*
G03X160145Y61592I13862J16565*
G02X160635Y61990I490J102*
X160996Y61836J500*
G03X164250Y60444I3254J3108*
X168750Y64944J4500*
X164250Y69444I4500*
X161267Y68314J4500*
G02X160936Y68188I331J374*
X160440Y68627J500*
G03X139000Y87600I21440J2627*
X117400Y66000J21600*
G01Y210164*
G03X123750Y220900I5900J10736*
X111500Y233150I12250*
X99250Y220900J12250*
G01Y319329*
G03X102879Y323744I871J4415*
X98379Y328244I4500*
X93879Y323744J4500*
G01Y714288*
G03X94586Y713836I17621J26712*
G01Y672595*
G03X99086Y668095I4500*
X103586Y672595J4500*
X99086Y677095I4500*
X94586Y672595J4500*
G01Y713836*
G03X108105Y709181I16914J27164*
G01Y359703*
G03X112605Y355203I4500*
X117105Y359703J4500*
X114424Y363819I4500*
G02X114126Y364276I202J457*
X114515Y364763I500*
G03X118016Y369151I999J4388*
X113516Y373651I4500*
X109016Y369151J4500*
X111697Y365035I4500*
G02X111995Y364578I202J457*
X111606Y364090I500*
G03X108105Y359703I999J4387*
G01Y709181*
G03X111500Y709000I3395J31819*
X113900Y709090J32000*
G01Y435000*
G03X129000Y419900I15100*
X144100Y435000J15100*
X129000Y450100I15100*
X113900Y435000J15100*
G01Y709090*
G03X121634Y710647I2400J31910*
G01Y551718*
G03X126134Y547218I4500*
X130634Y551718J4500*
X126134Y556218I4500*
X121634Y551718J4500*
G01Y710647*
G03X132840Y717155I10134J30353*
G01Y639190*
G03X137340Y634690I4500*
X141840Y639190J4500*
X137340Y643690I4500*
X132840Y639190J4500*
G01Y717155*
G03X143500Y741000I21340J23845*
X111500Y773000I32000*
X84423Y758054J32000*
G02X84000Y757821I423J267*
X83577Y758054J500*
G03X56500Y773000I27077J17054*
X24500Y741000J32000*
G01Y856297*
G03X29300Y854050I4800J4003*
X35550Y860300J6250*
X35530Y860801I6250*
G02X35528Y860841I498J40*
X36028Y861341I500*
X36303Y861259J500*
G03X43776Y858174I11697J17741*
G02X44177Y857684I99J490*
X43997Y857300I500*
G03X41750Y852500I4003J4800*
X48000Y846250I6250*
X54250Y852500J6250*
X52003Y857300I6250*
G02X51823Y857684I320J384*
X52224Y858174I500*
G03X59697Y861259I4224J20826*
G02X59972Y861341I275J418*
X60472Y860841J500*
X60470Y860801I500*
G03X60450Y860300I6230J501*
X66700Y854050I6250*
X72950Y860300J6250*
X66700Y866550I6250*
X66199Y866530J6250*
G02X66159Y866528I40J498*
X65659Y867028J500*
X65741Y867303I500*
G03X68826Y874776I17741J11697*
G02X69316Y875177I490J99*
X69700Y874997J500*
G03X74500Y872750I4800J4003*
X80750Y879000J6250*
X74500Y885250I6250*
X69700Y883003J6250*
G02X69316Y882823I384J320*
X68826Y883224J500*
G03X65741Y890697I20826J4224*
G02X65659Y890972I418J275*
X66159Y891472I500*
X66199Y891470J500*
G03X66700Y891450I501J6230*
X72950Y897700J6250*
X66700Y903950I6250*
X60450Y897700J6250*
X60470Y897199I6250*
G02X60472Y897159I498J40*
X59972Y896659I500*
X59697Y896741J500*
G03X52224Y899826I11697J17741*
G02X51823Y900316I99J490*
X52003Y900700I500*
G03X54250Y905500I4003J4800*
X48000Y911750I6250*
X41750Y905500J6250*
X43997Y900700I6250*
G02X44177Y900316I320J384*
X43776Y899826I500*
G03X36303Y896741I4224J20826*
G02X36028Y896659I275J418*
X35528Y897159J500*
X35530Y897199I500*
G03X35550Y897700I6230J501*
X29300Y903950I6250*
X23050Y897700J6250*
X29300Y891450I6250*
X29801Y891470J6250*
G02X29841Y891472I40J498*
X30341Y890972J500*
X30259Y890697I500*
G03X27174Y883224I17741J11697*
G02X26684Y882823I490J99*
X26300Y883003J500*
G03X21500Y885250I4800J4003*
X15250Y879000J6250*
G01Y949691*
G03X30000Y944900I14750J20309*
X55100Y970000J25100*
X45034Y990100I25100*
G02X44833Y990500I299J400*
X45333Y991000I500*
G01X153650*
Y214600*
G03X162400Y205850I8750*
X166923Y207110J8750*
G02X167182Y207182I259J428*
X167682Y206682J500*
X167610Y206423I500*
G03X166350Y201900I7490J4523*
X167610Y197377I8750*
G02X167682Y197118I428J259*
X167182Y196618I500*
X166923Y196690J500*
G03X162400Y197950I4523J7490*
X153650Y189200J8750*
X162400Y180450I8750*
X167237Y181908J8750*
G02X167513Y181992I276J416*
X168013Y181492J500*
X167923Y181206I500*
G03X166350Y176200I7177J5006*
X167370Y172100I8750*
G02X167428Y171866I442J234*
X166928Y171366I500*
X166683Y171430J500*
G03X162400Y172550I4283J7630*
X153650Y163800J8750*
X162400Y155050I8750*
X166923Y156310J8750*
G02X167182Y156382I259J428*
X167682Y155882J500*
X167610Y155623I500*
G03X166350Y151100I7490J4523*
X167610Y146577I8750*
G02X167682Y146318I428J259*
X167182Y145818I500*
X166923Y145890J500*
G03X162400Y147150I4523J7490*
X153650Y138400J8750*
X162400Y129650I8750*
X166923Y130910J8750*
G02X167182Y130982I259J428*
X167682Y130482J500*
X167610Y130223I500*
G03X166350Y125700I7490J4523*
X167610Y121177I8750*
G02X167682Y120918I428J259*
X167182Y120418I500*
X166923Y120490J500*
G03X162400Y121750I4523J7490*
X153650Y113000J8750*
X162400Y104250I8750*
X171150Y113000J8750*
X169890Y117523I8750*
G02X169818Y117782I428J259*
X170318Y118282I500*
X170577Y118210J500*
G03X174293Y116987I4523J7490*
G01Y37300*
G03X178793Y32800I4500*
X183293Y37300J4500*
X178793Y41800I4500*
X174293Y37300J4500*
G01Y116987*
G03X175100Y116950I807J8713*
X183850Y125700J8750*
X175100Y134450I8750*
X170577Y133190J8750*
G02X170318Y133118I259J428*
X169818Y133618J500*
X169890Y133877I500*
G03X171150Y138400I7490J4523*
X169890Y142923I8750*
G02X169818Y143182I428J259*
X170318Y143682I500*
X170577Y143610J500*
G03X175100Y142350I4523J7490*
X183850Y151100J8750*
X175100Y159850I8750*
X170577Y158590J8750*
G02X170318Y158518I259J428*
X169818Y159018J500*
X169890Y159277I500*
G03X171150Y163800I7490J4523*
X170130Y167900I8750*
G02X170072Y168134I442J234*
X170572Y168634I500*
X170817Y168570J500*
G03X175100Y167450I4283J7630*
X183850Y176200J8750*
X175100Y184950I8750*
X170263Y183492J8750*
G02X169987Y183408I276J416*
X169487Y183908J500*
X169577Y184194I500*
G03X171150Y189200I7177J5006*
X169890Y193723I8750*
G02X169818Y193982I428J259*
X170318Y194482I500*
X170577Y194410J500*
G03X175100Y193150I4523J7490*
X183850Y201900J8750*
X175100Y210650I8750*
X170577Y209390J8750*
G02X170318Y209318I259J428*
X169818Y209818J500*
X169890Y210077I500*
G03X171150Y214600I7490J4523*
X170453Y218023I8750*
G02X170413Y218219I460J196*
X170913Y218719I500*
X171122Y218673J500*
G03X175100Y217800I3978J8627*
X184600Y227300J9500*
X175100Y236800I9500*
X165600Y227300J9500*
X166473Y223322I9500*
G02X166519Y223113I454J209*
X166019Y222613I500*
X165823Y222653J500*
G03X162400Y223350I3423J8053*
X153650Y214600J8750*
G01Y991000*
X170250*
Y534250*
G03X170529Y532691I4500*
G01Y336674*
G03X174529Y332674I4000*
X174793Y332683J4000*
G02X174826Y332684I33J499*
X175326Y332184J500*
X175325Y332160I500*
G03X175321Y331972I3996J188*
X175900Y329898I4000*
G01Y281769*
G03X180400Y277269I4500*
X184900Y281769J4500*
X183595Y284938I4500*
G02X183449Y285290I354J352*
X183647Y285688I500*
G03X185421Y289269I2726J3581*
X180921Y293769I4500*
X176421Y289269J4500*
X177727Y286099I4500*
G02X177872Y285747I355J352*
X177674Y285349I500*
G03X175900Y281769I2726J3580*
G01Y329898*
G03X179321Y327972I3421J2074*
X183321Y331972J4000*
X179321Y335972I4000*
X179057Y335963J4000*
G02X179024Y335962I33J499*
X178524Y336462J500*
Y336486I500*
G03X178529Y336674I3996J188*
X174529Y340674I4000*
X170529Y336674J4000*
G01Y532691*
G03X173010Y530100I4221J1559*
G01Y405236*
G03X177010Y401236I4000*
X179258Y401927J4000*
G01Y388801*
G03X180675Y385747I4000*
G02X180852Y385365I323J382*
X180689Y384996I500*
G03X179388Y382044I2699J2952*
X179458Y381303I4000*
G01Y364136*
G03X180816Y361132I4000*
G02X180985Y360757I331J375*
X180816Y360382I500*
G03X179463Y357382I2647J3000*
X181489Y353903I4000*
G02X181742Y353468I247J435*
X181489Y353034I500*
G03X179463Y349554I1974J3480*
X181079Y346342I4000*
G02X181281Y345940I298J402*
X181099Y345554I500*
G03X179636Y342462I2537J3092*
X183636Y338462I4000*
X184081Y338486J4000*
G02X184137Y338490I56J496*
X184637Y337990J500*
G01Y337989*
G02Y337972I500*
G03X184634Y337830I3997J142*
X188634Y333830I4000*
X190062Y334094J4000*
G01Y15758*
G03X194562Y11258I4500*
X199062Y15758J4500*
X194562Y20258I4500*
X190062Y15758J4500*
G01Y334094*
G03X190775Y334451I1428J3736*
G01Y326363*
G03X191480Y324094I4000*
G01Y82743*
G03X195980Y78243I4500*
X200480Y82743J4500*
X198392Y86542I4500*
G02X198160Y86965I268J423*
X198397Y87390I500*
G03X200531Y91218I2366J3828*
X196031Y95718I4500*
X191531Y91218J4500*
X193620Y87418I4500*
G02X193852Y86996I268J422*
X193615Y86571I500*
G03X191480Y82743I2365J3828*
G01Y324094*
G03X194775Y322363I3295J2269*
X197688Y323622J4000*
G02X198052Y323779I364J343*
X198419Y323618J500*
G03X201360Y322330I2941J2712*
X202594Y322526J4000*
G01Y300634*
G03X206200Y296224I4500*
G01Y227300*
G03X215700Y217800I9500*
X219678Y218673J9500*
G02X219887Y218719I209J454*
X220387Y218219J500*
X220347Y218023I500*
G03X219650Y214600I8053J3423*
X220910Y210077I8750*
G02X220982Y209818I428J259*
X220482Y209318I500*
X220223Y209390J500*
G03X215700Y210650I4523J7490*
X206950Y201900J8750*
X215700Y193150I8750*
X220223Y194410J8750*
G02X220482Y194482I259J428*
X220982Y193982J500*
X220910Y193723I500*
G03X219650Y189200I7490J4523*
X220910Y184677I8750*
G02X220982Y184418I428J259*
X220482Y183918I500*
X220223Y183990J500*
G03X215700Y185250I4523J7490*
X206950Y176500J8750*
X215700Y167750I8750*
X220223Y169010J8750*
G02X220482Y169082I259J428*
X220982Y168582J500*
X220910Y168323I500*
G03X219650Y163800I7490J4523*
X220910Y159277I8750*
G02X220982Y159018I428J259*
X220482Y158518I500*
X220223Y158590J500*
G03X215700Y159850I4523J7490*
X206950Y151100J8750*
X215700Y142350I8750*
X220223Y143610J8750*
G02X220482Y143682I259J428*
X220982Y143182J500*
X220910Y142923I500*
G03X219650Y138400I7490J4523*
X220910Y133877I8750*
G02X220982Y133618I428J259*
X220482Y133118I500*
X220223Y133190J500*
G03X215700Y134450I4523J7490*
X206950Y125700J8750*
X215700Y116950I8750*
X220223Y118210J8750*
G02X220482Y118282I259J428*
X220982Y117782J500*
X220910Y117523I500*
G03X219650Y113000I7490J4523*
X228400Y104250I8750*
X237150Y113000J8750*
X228400Y121750I8750*
X223877Y120490J8750*
G02X223618Y120418I259J428*
X223118Y120918J500*
X223190Y121177I500*
G03X224450Y125700I7490J4523*
X223190Y130223I8750*
G02X223118Y130482I428J259*
X223618Y130982I500*
X223877Y130910J500*
G03X228400Y129650I4523J7490*
X237150Y138400J8750*
X228400Y147150I8750*
X223877Y145890J8750*
G02X223618Y145818I259J428*
X223118Y146318J500*
X223190Y146577I500*
G03X224450Y151100I7490J4523*
X223190Y155623I8750*
G02X223118Y155882I428J259*
X223618Y156382I500*
X223877Y156310J500*
G03X228400Y155050I4523J7490*
X237150Y163800J8750*
X228400Y172550I8750*
X223877Y171290J8750*
G02X223618Y171218I259J428*
X223118Y171718J500*
X223190Y171977I500*
G03X224450Y176500I7490J4523*
X223190Y181023I8750*
G02X223118Y181282I428J259*
X223618Y181782I500*
X223877Y181710J500*
G03X228400Y180450I4523J7490*
X237150Y189200J8750*
X228400Y197950I8750*
X223877Y196690J8750*
G02X223618Y196618I259J428*
X223118Y197118J500*
X223190Y197377I500*
G03X224450Y201900I7490J4523*
X223190Y206423I8750*
G02X223118Y206682I428J259*
X223618Y207182I500*
X223877Y207110J500*
G03X228400Y205850I4523J7490*
X237150Y214600J8750*
X228400Y223350I8750*
X224977Y222653J8750*
G02X224781Y222613I196J460*
X224281Y223113J500*
X224327Y223322I500*
G03X225200Y227300I8627J3978*
X215700Y236800I9500*
X206200Y227300J9500*
G01Y296224*
G03X207094Y296134I894J4410*
X207949Y296217J4500*
G01Y261170*
G03X212449Y256670I4500*
X216940Y260874J4500*
G02X217439Y261341I499J33*
X217534Y261332J500*
G03X218389Y261250I855J4418*
X222889Y265750J4500*
X218389Y270250I4500*
X213899Y266046J4500*
G02X213400Y265579I499J33*
X213305Y265589J500*
G03X212449Y265671I856J4418*
X207949Y261171J4500*
G01Y296217*
G03X209962Y297167I855J4417*
G02X210281Y297282I319J385*
X210737Y296986J500*
G03X214844Y294326I4107J1840*
X219344Y298826J4500*
X214844Y303326I4500*
X211975Y302294J4500*
G02X211657Y302179I318J385*
X211200Y302474J500*
G03X207094Y305134I4106J1840*
X202594Y300634J4500*
G01Y322526*
G03X204340Y323662I1234J3804*
G02X204712Y323829I372J333*
X205072Y323676J500*
G03X207947Y322457I2875J2781*
X210808Y323661J4000*
G02X211165Y323812I357J349*
X211563Y323615J500*
G03X211639Y323519I3180J2426*
G01Y312028*
G03X215639Y308028I4000*
X219639Y312028J4000*
X215639Y316028I4000*
X211639Y312028J4000*
G01Y323519*
G03X214743Y322041I3104J2522*
X218593Y324954J4000*
G02X219074Y325319I481J135*
X219479Y325112J500*
G03X222720Y323456I3241J2344*
X225106Y324246J4000*
G01Y292395*
G03X229606Y287895I4500*
X234106Y292395J4500*
X232921Y295438I4500*
G02X232790Y295776I369J338*
X233080Y296230I500*
G03X235688Y300313I1892J4083*
X231188Y304813I4500*
X226688Y300313J4500*
X227873Y297270I4500*
G02X228005Y296932I368J338*
X227715Y296478I500*
G03X225106Y292395I1891J4083*
G01Y324246*
G03X226720Y327456I2386J3210*
X222720Y331456I4000*
X218870Y328543J4000*
G02X218389Y328179I481J136*
X217984Y328386J500*
G03X214743Y330041I3241J2345*
X211882Y328837J4000*
G02X211525Y328686I357J349*
X211127Y328883J500*
G03X207947Y330457I3180J2426*
X204967Y329125J4000*
G02X204594Y328959I373J334*
X204235Y329111J500*
G03X201360Y330330I2875J2781*
X198446Y329072J4000*
G02X198082Y328914I364J342*
X197715Y329075J500*
G03X194775Y330363I2940J2712*
X190775Y326363J4000*
G01Y334451*
G03X191570Y335113I2141J3379*
G02X191937Y335273I367J340*
X192317Y335099J500*
G03X195356Y333699I3039J2600*
X198464Y335181J4000*
G02X198853Y335367I389J314*
X199232Y335192J500*
G03X202268Y333797I3036J2605*
X205086Y334959J4000*
G02X205438Y335104I352J355*
X205809Y334940J500*
G03X208774Y333625I2965J2685*
X211605Y334800J4000*
G02X211959Y334947I354J353*
X212328Y334784J500*
G03X215281Y333482I2953J2698*
X218436Y335022J4000*
G02X218830Y335215I394J307*
X219199Y335053J500*
G03X222145Y333758I2946J2705*
X225034Y334992J4000*
G02X225395Y335146I361J346*
X225759Y334989J500*
G03X228671Y333732I2912J2743*
X231585Y334991J4000*
G02X231949Y335149I364J342*
X232310Y334995J500*
G03X235196Y333764I2886J2769*
X239104Y336914J4000*
G02X239593Y337307I489J107*
X240057Y336994J500*
G03X243768Y334487I3711J1493*
X247768Y338487J4000*
X244421Y342433I4000*
G02X244003Y342926I82J493*
X244024Y343073I500*
G03X244199Y344242I3825J1169*
X240199Y348242I4000*
X236199Y344242J4000*
X236659Y342380I4000*
G02X236716Y342147I443J233*
X236216Y341647I500*
X236103Y341660J500*
G03X235196Y341764I907J3896*
X232282Y340505J4000*
G02X231918Y340347I364J342*
X231557Y340501J500*
G03X228671Y341732I2886J2769*
X225782Y340498J4000*
G02X225421Y340344I361J346*
X225057Y340501J500*
G03X222145Y341758I2912J2743*
X218990Y340218J4000*
G02X218596Y340025I394J307*
X218228Y340187J500*
G03X215281Y341482I2947J2705*
X212450Y340307J4000*
G02X212096Y340160I354J353*
X211727Y340323J500*
G03X208774Y341625I2953J2698*
X205955Y340464J4000*
G02X205603Y340319I352J355*
X205232Y340483J500*
G03X202268Y341797I2964J2686*
X199159Y340315J4000*
G02X198771Y340130I388J315*
X198391Y340304J500*
G03X195356Y341699I3035J2605*
X192420Y340416J4000*
G02X192054Y340256I366J340*
X191674Y340430J500*
G03X188634Y341830I3040J2600*
X188189Y341805J4000*
G02X188133Y341802I56J497*
X187633Y342302J500*
Y342320I500*
G03X187636Y342462I3997J142*
X186019Y345674I4000*
G02X185817Y346076I298J402*
X186000Y346462I500*
G03X187463Y349554I2537J3092*
X185437Y353034I4000*
G02X185183Y353468I246J434*
X185437Y353903I500*
G03X187463Y357382I1974J3479*
X186105Y360386I4000*
G02X185935Y360761I330J375*
X186104Y361136I500*
G03X187458Y364136I2646J3000*
X186078Y367158I4000*
G02X185905Y367536I327J378*
X186100Y367932I500*
G03X187657Y371099I2443J3167*
X183657Y375099I4000*
X179657Y371099J4000*
X181037Y368077I4000*
G02X181209Y367699I328J378*
X181015Y367303I500*
G03X179458Y364136I2443J3167*
G01Y381303*
G03X183388Y378044I3930J741*
X187388Y382044J4000*
X185972Y385098I4000*
G02X185794Y385480I322J382*
X185957Y385849I500*
G03X187258Y388801I2699J2952*
X186208Y391503I4000*
G02X186076Y391841I368J338*
X186311Y392265I500*
G03X188188Y395655I2123J3390*
X187608Y397729I4000*
G02X187536Y397988I428J259*
G01Y397999*
G02X187772Y398423I500*
G03X189661Y401821I2111J3398*
X185661Y405821I4000*
X181661Y401821J4000*
X182245Y399740I4000*
G02X182318Y399480I427J260*
X182081Y399055I500*
G03X180188Y395655I2107J3400*
X181238Y392953I4000*
G02X181370Y392615I368J338*
X181135Y392191I500*
G03X179258Y388801I2123J3390*
G01Y401927*
G03X181010Y405236I2248J3309*
X177010Y409236I4000*
X173010Y405236J4000*
G01Y530100*
G03X174750Y529750I1740J4150*
X178800Y532288J4500*
G02X178808Y532304I450J217*
G01Y472251*
G03X179901Y469312I4500*
X180519Y468720I3407J2939*
G02X180709Y468327I310J393*
X180519Y467935I500*
G03X178808Y464403I2789J3532*
X183308Y459903I4500*
X187808Y464403J4500*
X186097Y467935I4500*
G02X185907Y468327I310J392*
X186097Y468720I500*
G03X186715Y469312I2789J3531*
X187808Y472251I3407J2939*
X186133Y475754I4500*
G02X185946Y476143I313J389*
X186141Y476539I500*
G03X187887Y480031I2753J3560*
G02X188387Y480524I500J7*
X188534Y480502J500*
G03X189854Y480304I1320J4302*
X192089Y480898J4500*
G01Y394511*
G03X196089Y390511I4000*
X199065Y391839J4000*
G02X199438Y392005I373J334*
X199791Y391858J500*
G03X202621Y390686I2830J2828*
X205756Y392202J4000*
G02X206148Y392391I392J311*
X206526Y392218J500*
G03X209551Y390835I3025J2617*
X212435Y392063J4000*
G02X212795Y392217I360J346*
X213163Y392056J500*
G03X216099Y390773I2936J2717*
X218945Y391962J4000*
G02X219301Y392111I356J351*
X219672Y391945J500*
G03X222644Y390623I2972J2678*
X225778Y392138J4000*
G02X226170Y392327I392J311*
X226535Y392168J500*
G03X229460Y390896I2925J2728*
X232296Y392075J4000*
G02X232650Y392223I354J352*
X233033Y392045J500*
G03X236092Y390622I3059J2577*
X236381Y390633J4000*
G02X236417Y390634I36J499*
X236652Y390575J500*
G01Y363841*
G03X238262Y360634I4000*
G02X238463Y360233I299J401*
X238272Y359840I500*
G03X236750Y356700I2478J3140*
X240750Y352700I4000*
X244750Y356700J4000*
X243141Y359907I4000*
G02X242940Y360308I299J401*
X243130Y360700I500*
G03X244652Y363841I2478J3141*
X240652Y367841I4000*
X236652Y363841J4000*
G01Y390575*
G02X236917Y390134I235J441*
X236910Y390047I500*
G03X236849Y389352I3939J695*
X239917Y385462I4000*
G02X240300Y384975I117J487*
G01Y384970*
X240299Y384793*
G02X239904Y384310I500J5*
G03X236750Y380400I846J3910*
X238350Y377200I4000*
G02X238550Y376800I300J400*
X238350Y376400I500*
G03X236750Y373200I2400J3200*
X240750Y369200I4000*
X244750Y373200J4000*
X243150Y376400I4000*
G02X242950Y376800I300J400*
X243150Y377200I500*
G03X244750Y380400I2400J3200*
X241682Y384290I4000*
G02X241298Y384776I116J486*
G01Y384782*
X241300Y384959*
G02X241695Y385442I500J6*
G03X244849Y389352I846J3910*
X240849Y393352I4000*
X240559Y393341J4000*
G02X240523Y393340I36J499*
X240023Y393840J500*
X240031Y393927I500*
G03X240092Y394622I3939J695*
X236092Y398622I4000*
X233256Y397443J4000*
G02X232902Y397296I354J353*
X232519Y397474J500*
G03X229460Y398896I3059J2578*
X226326Y397382J4000*
G02X225934Y397192I392J310*
X225569Y397351J500*
G03X222644Y398623I2925J2728*
X219798Y397434J4000*
G02X219442Y397285I356J351*
X219070Y397450J500*
G03X216099Y398773I2971J2677*
X213215Y397545J4000*
G02X212854Y397391I361J346*
X212487Y397552J500*
G03X209551Y398835I2936J2717*
X206416Y397319J4000*
G02X206024Y397130I392J311*
X205646Y397302J500*
G03X202621Y398686I3025J2616*
X199644Y397358J4000*
G02X199272Y397192I372J334*
X198919Y397338J500*
G03X196089Y398511I2830J2827*
X192089Y394511J4000*
G01Y480898*
G03X194354Y484804I2235J3906*
X189854Y489304I4500*
X185355Y484871J4500*
G02X184855Y484379I500J8*
X184708Y484401J500*
G03X183388Y484599I1320J4302*
X178888Y480099J4500*
X180563Y476596I4500*
G02X180750Y476207I313J389*
X180555Y475811I500*
G03X178808Y472251I2753J3560*
G01Y532304*
G02X179250Y532571I442J233*
X179700Y532288J500*
G03X181788Y530200I4050J1962*
G02X182071Y529750I217J450*
X181788Y529300I500*
G03X179250Y525250I1962J4050*
X181788Y521200I4500*
G02X182071Y520750I217J450*
X181788Y520300I500*
G03X179250Y516250I1962J4050*
X183750Y511750I4500*
X188250Y516250J4500*
X185712Y520300I4500*
G02X185429Y520750I217J450*
X185712Y521200I500*
G03X188250Y525250I1962J4050*
X185712Y529300I4500*
G02X185429Y529750I217J450*
X185712Y530200I500*
G03X188250Y534250I1962J4050*
X183750Y538750I4500*
X179700Y536212J4500*
G02X179250Y535929I450J217*
X178800Y536211J500*
G03X174750Y538750I4050J1961*
X170250Y534250J4500*
G01Y991000*
X188400*
Y586575*
G03X210000Y564975I21600*
X229500Y577285J21600*
G01Y429000*
G03X234000Y424500I4500*
X238050Y427038J4500*
G02X238500Y427321I450J217*
X238950Y427039J500*
G03X243000Y424500I4050J1961*
X243066J4500*
G01Y405211*
G03X247066Y401211I4000*
X251066Y405211J4000*
X247066Y409211I4000*
X243066Y405211J4000*
G01Y424500*
G03X247500Y429000I66J4500*
X243000Y433500I4500*
X238950Y430962J4500*
G02X238500Y430679I450J217*
X238050Y430961J500*
G03X234000Y433500I4050J1961*
X229500Y429000J4500*
G01Y577285*
G03X231600Y586575I19500J9290*
X210000Y608175I21600*
X188400Y586575J21600*
G01Y733600*
G03X210000Y712000I21600*
X219527Y714215J21600*
G01Y690640*
G03X219626Y689705I4500*
G01Y643338*
G03X223691Y638859I4500*
G02X224143Y638362I48J497*
X224110Y638181I500*
G03X223807Y636560I4197J1621*
X228307Y632060I4500*
X230282Y632516J4500*
G02X230502Y632567I220J449*
X231001Y632092J500*
G03X235005Y627841I4495J222*
G02X235450Y627344I55J497*
X235389Y627104I500*
G03X234834Y624940I3945J2164*
X236100Y621811I4500*
G01Y577875*
G03X246200Y567775I10100*
X253750Y571166J10100*
G01Y238700*
G03X259097Y228580I12250*
G01Y13296*
G03X263597Y8796I4500*
X268097Y13296J4500*
X263597Y17796I4500*
X259097Y13296J4500*
G01Y228580*
G03X266000Y226450I6903J10120*
X267873Y226594J12250*
G01Y38423*
G03X272373Y33923I4500*
X276873Y38423J4500*
X272373Y42923I4500*
X267873Y38423J4500*
G01Y226594*
G03X278250Y238700I1873J12106*
X266000Y250950I12250*
X253750Y238700J12250*
G01Y571166*
G03X256300Y577875I7550J6709*
X246200Y587975I10100*
X236100Y577875J10100*
G01Y621811*
G03X239334Y620440I3234J3129*
X243834Y624940J4500*
X239825Y629413I4500*
G02X239380Y629910I55J497*
X239441Y630151I500*
G03X239996Y632314I3945J2163*
X235496Y636814I4500*
X233520Y636358J4500*
G02X233301Y636307I219J449*
X232802Y636782J500*
G03X228741Y641039I4495J222*
G02X228290Y641536I49J497*
X228323Y641716I500*
G03X228626Y643338I4197J1622*
X224126Y647838I4500*
X219626Y643338J4500*
G01Y689705*
G03X223941Y686141I4401J935*
G02X224431Y685641I10J500*
X224370Y685403I500*
G03X223825Y683256I3955J2147*
X228325Y678756I4500*
X232825Y683256J4500*
X228412Y687755I4500*
G02X227922Y688255I10J500*
X227982Y688493I500*
G03X228527Y690640I3955J2147*
X224027Y695140I4500*
X219527Y690640J4500*
G01Y714215*
G03X231600Y733600I9527J19385*
X210000Y755200I21600*
X188400Y733600J21600*
G01Y991000*
X231611*
Y692228*
G03X234320Y688099I4500*
G01Y674540*
G03X235767Y671234I4500*
G01Y656474*
G03X240267Y651974I4500*
X242797Y652753J4500*
G02X243078Y652839I281J414*
X243540Y652531J500*
G03X245055Y650616I4154J1730*
G02X245261Y650211I294J405*
X244961Y649753I500*
G03X242262Y645628I1801J4125*
X244500Y641738I4500*
G02X244749Y641306I251J432*
X244622Y640972I500*
G03X243478Y637974I3356J2998*
X247978Y633474I4500*
X252478Y637974J4500*
X250239Y641865I4500*
G02X249990Y642297I251J432*
X250117Y642630I500*
G03X251262Y645628I3355J2998*
X249401Y649273I4500*
G02X249194Y649678I293J405*
X249494Y650136I500*
G03X252194Y654261I1800J4125*
X247694Y658761I4500*
X245164Y657982J4500*
G02X244883Y657896I281J414*
X244422Y658203J500*
G03X243197Y659889I4155J1729*
G02X243023Y660269I326J380*
X243226Y660671I500*
G03X245052Y664290I2674J3619*
X240552Y668790I4500*
X236052Y664290J4500*
X237621Y660875I4500*
G02X237796Y660496I325J379*
X237593Y660093I500*
G03X235767Y656474I2674J3619*
G01Y671234*
G03X238820Y670040I3053J3306*
X243320Y674540J4500*
X242048Y677675I4500*
G02X241907Y678023I359J348*
X242305Y678513I500*
G03X245885Y682918I920J4405*
X241385Y687418I4500*
X236885Y682918J4500*
X238157Y679783I4500*
G02X238298Y679435I359J348*
X237900Y678945I500*
G03X234320Y674540I920J4405*
G01Y688099*
G03X236111Y687728I1791J4129*
X240611Y692228J4500*
X236111Y696728I4500*
X231611Y692228J4500*
G01Y991000*
X255365*
Y641626*
G03X257423Y637847I4500*
G01Y589080*
G03X261923Y584580I4500*
X261993Y584581J4500*
G01Y442500*
G03X266493Y438000I4500*
X270993Y442500J4500*
X270932Y443238I4500*
G02X270925Y443320I493J82*
X271425Y443820I500*
X271544Y443806J500*
G03X272612Y443677I1068J4371*
X273310Y443732J4500*
G01Y308631*
G03X274926Y305176I4500*
G02X275106Y304793I320J383*
X274946Y304427I500*
G03X273513Y301134I3067J3293*
X278013Y296634I4500*
X282513Y301134J4500*
X280897Y304588I4500*
G02X280718Y304972I321J384*
X280877Y305338I500*
G03X282310Y308631I3067J3293*
X277810Y313131I4500*
X273310Y308631J4500*
G01Y443732*
G03X277112Y448177I698J4445*
X272612Y452677I4500*
X268112Y448177J4500*
X268173Y447439I4500*
G02X268180Y447357I493J82*
X267680Y446857I500*
X267561Y446871J500*
G03X266493Y447000I1068J4371*
X261993Y442500J4500*
G01Y584581*
G03X266423Y589080I70J4499*
X261923Y593580I4500*
X257423Y589080J4500*
G01Y637847*
G03X259865Y637126I2442J3779*
X260226Y637141J4500*
G01Y625896*
G03X264726Y621396I4500*
X268033Y622844J4500*
G01Y458427*
G03X272533Y453927I4500*
X276021Y455583J4500*
G02X276408Y455767I387J316*
X276796Y455583J500*
G03X280283Y453927I3487J2844*
X282750Y454663J4500*
G01Y340000*
G03X287250Y335500I4500*
X291750Y340000J4500*
X287250Y344500I4500*
X282750Y340000J4500*
G01Y351000*
G03X287250Y346500I4500*
X291750Y351000J4500*
X287250Y355500I4500*
X282750Y351000J4500*
G01Y377500*
G03X287250Y373000I4500*
X291750Y377500J4500*
X287250Y382000I4500*
X282750Y377500J4500*
G01Y409000*
G03X283750Y406172I4500*
G01Y390800*
G03X288250Y386300I4500*
X289704Y386541J4500*
G02X289865Y386568I161J473*
X290365Y386068J500*
X290354Y385961I500*
G03X290250Y385000I4396J961*
X293650Y380636I4500*
G01Y214600*
G03X302400Y205850I8750*
X306923Y207110J8750*
G02X307182Y207182I259J428*
X307682Y206682J500*
X307610Y206423I500*
G03X306350Y201900I7490J4523*
X307610Y197377I8750*
G02X307682Y197118I428J259*
X307182Y196618I500*
X306923Y196690J500*
G03X302400Y197950I4523J7490*
X293650Y189200J8750*
X302400Y180450I8750*
X307237Y181908J8750*
G02X307513Y181992I276J416*
X308013Y181492J500*
X307923Y181206I500*
G03X306350Y176200I7177J5006*
X307370Y172100I8750*
G02X307428Y171866I442J234*
X306928Y171366I500*
X306683Y171430J500*
G03X302400Y172550I4283J7630*
X293650Y163800J8750*
X302400Y155050I8750*
X306923Y156310J8750*
G02X307182Y156382I259J428*
X307682Y155882J500*
X307610Y155623I500*
G03X306350Y151100I7490J4523*
X307610Y146577I8750*
G02X307682Y146318I428J259*
X307182Y145818I500*
X306923Y145890J500*
G03X302400Y147150I4523J7490*
X293650Y138400J8750*
X302400Y129650I8750*
X306923Y130910J8750*
G02X307182Y130982I259J428*
X307682Y130482J500*
X307610Y130223I500*
G03X306350Y125700I7490J4523*
X307610Y121177I8750*
G02X307682Y120918I428J259*
X307182Y120418I500*
X306923Y120490J500*
G03X302400Y121750I4523J7490*
X293650Y113000J8750*
X296946Y106158I8750*
G01Y64882*
G03X299322Y60915I4500*
G01Y37094*
G03X303822Y32594I4500*
X308322Y37094J4500*
X303822Y41594I4500*
X299322Y37094J4500*
G01Y60915*
G03X301446Y60382I2124J3967*
X305946Y64882J4500*
X301446Y69382I4500*
X296946Y64882J4500*
G01Y106158*
G03X302400Y104250I5454J6842*
X308406Y106637J8750*
G01Y85337*
G03X312906Y80837I4500*
X317406Y85337J4500*
X312906Y89837I4500*
X308406Y85337J4500*
G01Y106637*
G03X311150Y113000I6006J6363*
X309890Y117523I8750*
G02X309818Y117782I428J259*
X310318Y118282I500*
X310577Y118210J500*
G03X315100Y116950I4523J7490*
X323850Y125700J8750*
X315100Y134450I8750*
X310577Y133190J8750*
G02X310318Y133118I259J428*
X309818Y133618J500*
X309890Y133877I500*
G03X311150Y138400I7490J4523*
X309890Y142923I8750*
G02X309818Y143182I428J259*
X310318Y143682I500*
X310577Y143610J500*
G03X315100Y142350I4523J7490*
X323850Y151100J8750*
X315100Y159850I8750*
X310577Y158590J8750*
G02X310318Y158518I259J428*
X309818Y159018J500*
X309890Y159277I500*
G03X311150Y163800I7490J4523*
X310130Y167900I8750*
G02X310072Y168134I442J234*
X310572Y168634I500*
X310817Y168570J500*
G03X315100Y167450I4283J7630*
X323850Y176200J8750*
X315100Y184950I8750*
X310263Y183492J8750*
G02X309987Y183408I276J416*
X309487Y183908J500*
X309577Y184194I500*
G03X311150Y189200I7177J5006*
X309890Y193723I8750*
G02X309818Y193982I428J259*
X310318Y194482I500*
X310577Y194410J500*
G03X315100Y193150I4523J7490*
X323850Y201900J8750*
X315100Y210650I8750*
X310577Y209390J8750*
G02X310318Y209318I259J428*
X309818Y209818J500*
X309890Y210077I500*
G03X311150Y214600I7490J4523*
X310453Y218023I8750*
G02X310413Y218219I460J196*
X310913Y218719I500*
X311122Y218673J500*
G03X315100Y217800I3978J8627*
X324600Y227300J9500*
X315100Y236800I9500*
X305600Y227300J9500*
X306473Y223322I9500*
G02X306519Y223113I454J209*
X306019Y222613I500*
X305823Y222653J500*
G03X302400Y223350I3423J8053*
X293650Y214600J8750*
G01Y380637*
G03X294750Y380500I1100J4363*
X299250Y385000J4500*
X294750Y389500I4500*
X293296Y389259J4500*
G02X293135Y389232I161J473*
X292635Y389732J500*
X292646Y389839I500*
G03X292750Y390800I4396J961*
X292742Y391069I4500*
G02X292741Y391099I499J30*
X293241Y391599I500*
X293457Y391550J500*
G03X295403Y391107I1946J4057*
X299903Y395607J4500*
X295403Y400107I4500*
X290903Y395607J4500*
X290911Y395338I4500*
G02X290912Y395308I499J30*
X290412Y394808I500*
X290196Y394858J500*
G03X288250Y395300I1946J4058*
X283750Y390800J4500*
G01Y406172*
G03X287250Y404500I3500J2828*
X291750Y409000J4500*
X287250Y413500I4500*
X282750Y409000J4500*
G01Y454663*
G03X284783Y458427I2467J3764*
X280283Y462927I4500*
X276796Y461271J4500*
G02X276408Y461087I388J316*
X276021Y461271J500*
G03X272533Y462927I3488J2844*
X268033Y458427J4500*
G01Y622844*
G03X269226Y625896I3307J3052*
X264726Y630396I4500*
X260226Y625896J4500*
G01Y637141*
G03X264365Y641626I361J4485*
X259865Y646126I4500*
X255365Y641626J4500*
G01Y991000*
X292707*
Y420737*
G03X297207Y416237I4500*
X301707Y420737J4500*
X297207Y425237I4500*
X292707Y420737J4500*
G01Y991000*
X314813*
Y591757*
G03X316281Y588432I4500*
G01Y468476*
G03X320781Y463976I4500*
X325281Y468476J4500*
X320781Y472976I4500*
X316281Y468476J4500*
G01Y588432*
G03X319313Y587257I3032J3325*
X323813Y591757J4500*
X319313Y596257I4500*
X314813Y591757J4500*
G01Y991000*
X328048*
Y14354*
G03X332548Y9854I4500*
X337048Y14354J4500*
X332548Y18854I4500*
X328048Y14354J4500*
G01Y991000*
X334017*
Y591965*
G03X338517Y587465I4500*
X338900Y587481J4500*
G01Y294000*
G03X346200Y281071I15100*
G01Y227300*
G03X355700Y217800I9500*
X359678Y218673J9500*
G02X359887Y218719I209J454*
X360387Y218219J500*
X360347Y218023I500*
G03X359650Y214600I8053J3423*
X360910Y210077I8750*
G02X360982Y209818I428J259*
X360482Y209318I500*
X360223Y209390J500*
G03X355700Y210650I4523J7490*
X346950Y201900J8750*
X355700Y193150I8750*
X360223Y194410J8750*
G02X360482Y194482I259J428*
X360982Y193982J500*
X360910Y193723I500*
G03X359650Y189200I7490J4523*
X360910Y184677I8750*
G02X360982Y184418I428J259*
X360482Y183918I500*
X360223Y183990J500*
G03X355700Y185250I4523J7490*
X346950Y176500J8750*
X355700Y167750I8750*
X360223Y169010J8750*
G02X360482Y169082I259J428*
X360982Y168582J500*
X360910Y168323I500*
G03X359650Y163800I7490J4523*
X360910Y159277I8750*
G02X360982Y159018I428J259*
X360482Y158518I500*
X360223Y158590J500*
G03X355700Y159850I4523J7490*
X346950Y151100J8750*
X355700Y142350I8750*
X360223Y143610J8750*
G02X360482Y143682I259J428*
X360982Y143182J500*
X360910Y142923I500*
G03X359650Y138400I7490J4523*
X360910Y133877I8750*
G02X360982Y133618I428J259*
X360482Y133118I500*
X360223Y133190J500*
G03X355700Y134450I4523J7490*
X346950Y125700J8750*
X355700Y116950I8750*
X360223Y118210J8750*
G02X360482Y118282I259J428*
X360982Y117782J500*
X360910Y117523I500*
G03X359650Y113000I7490J4523*
X368400Y104250I8750*
X377150Y113000J8750*
X368400Y121750I8750*
X363877Y120490J8750*
G02X363618Y120418I259J428*
X363118Y120918J500*
X363190Y121177I500*
G03X364450Y125700I7490J4523*
X363190Y130223I8750*
G02X363118Y130482I428J259*
X363618Y130982I500*
X363877Y130910J500*
G03X368400Y129650I4523J7490*
X377150Y138400J8750*
X368400Y147150I8750*
X363877Y145890J8750*
G02X363618Y145818I259J428*
X363118Y146318J500*
X363190Y146577I500*
G03X364450Y151100I7490J4523*
X363190Y155623I8750*
G02X363118Y155882I428J259*
X363618Y156382I500*
X363877Y156310J500*
G03X368400Y155050I4523J7490*
X377150Y163800J8750*
X368400Y172550I8750*
X363877Y171290J8750*
G02X363618Y171218I259J428*
X363118Y171718J500*
X363190Y171977I500*
G03X364450Y176500I7490J4523*
X363190Y181023I8750*
G02X363118Y181282I428J259*
X363618Y181782I500*
X363877Y181710J500*
G03X368400Y180450I4523J7490*
X377150Y189200J8750*
X368400Y197950I8750*
X363877Y196690J8750*
G02X363618Y196618I259J428*
X363118Y197118J500*
X363190Y197377I500*
G03X364450Y201900I7490J4523*
X363190Y206423I8750*
G02X363118Y206682I428J259*
X363618Y207182I500*
X363877Y207110J500*
G03X368400Y205850I4523J7490*
X377150Y214600J8750*
X368400Y223350I8750*
X364977Y222653J8750*
G02X364781Y222613I196J460*
X364281Y223113J500*
X364327Y223322I500*
G03X365200Y227300I8627J3978*
X355700Y236800I9500*
X346200Y227300J9500*
G01Y281071*
G03X354000Y278900I7800J12929*
X369100Y294000J15100*
X354000Y309100I15100*
X338900Y294000J15100*
G01Y587481*
G03X342767Y590485I383J4484*
G02X343239Y590821I472J164*
X343719Y590461J500*
G03X348018Y587225I4319J1264*
G01Y559943*
G03X352518Y555443I4500*
X357018Y559943J4500*
X352518Y564443I4500*
X348018Y559943J4500*
G01Y587225*
G03X348038I20J4500*
X352332Y590381J4500*
G02X352809Y590732I477J149*
X353287Y590381J500*
G03X357581Y587225I4294J1344*
X362081Y591725J4500*
X357581Y596225I4500*
X353287Y593069J4500*
G02X352809Y592718I478J149*
X352332Y593069J500*
G03X348038Y596225I4294J1344*
X343788Y593205J4500*
G02X343316Y592869I472J164*
X342836Y593229J500*
G03X338517Y596465I4319J1264*
X334017Y591965J4500*
G01Y991000*
X338050*
Y649770*
G03X338891Y647150I4500*
G01Y606349*
G03X343391Y601849I4500*
X345653Y602458J4500*
G02X345905Y602526I252J432*
X346384Y602169J500*
G03X350696Y598956I4312J1287*
X355196Y603456J4500*
X350696Y607956I4500*
X348434Y607346J4500*
G02X348183Y607278I251J432*
X347703Y607635J500*
G03X343391Y610849I4312J1286*
X338891Y606349J4500*
G01Y647150*
G03X342550Y645270I3659J2620*
X346225Y647174J4500*
G02X346633Y647385I408J289*
X347083Y647104J500*
G03X351130Y644573I4047J1969*
X355630Y649073J4500*
X351130Y653573I4500*
X347454Y651669J4500*
G02X347046Y651458I408J289*
X346596Y651739J500*
G03X342550Y654270I4046J1969*
X338050Y649770J4500*
G01Y991000*
X340761*
Y660063*
G03X345261Y655563I4500*
X349761Y660063J4500*
X345261Y664563I4500*
X340761Y660063J4500*
G01Y991000*
X343966*
Y670339*
G03X348466Y665839I4500*
X352966Y670339J4500*
X352250Y672775I4500*
G02X352170Y673046I420J271*
X352490Y673512I500*
G03X355366Y677708I1624J4196*
X350866Y682208I4500*
X346366Y677708J4500*
X347082Y675273I4500*
G02X347161Y675002I421J271*
X346842Y674536I500*
G03X343966Y670339I1624J4197*
G01Y991000*
X355393*
Y655646*
G03X359893Y651146I4500*
X364393Y655646J4500*
X359893Y660146I4500*
X355393Y655646J4500*
G01Y991000*
X364488*
Y551620*
G03X366874Y547647I4500*
G01Y374686*
G03X369582Y370559I4500*
G02X369882Y370100I200J459*
X369582Y369641I500*
G03X366874Y365514I1792J4127*
X371374Y361014I4500*
X375874Y365514J4500*
X373167Y369641I4500*
G02X372866Y370100I199J459*
X373167Y370559I500*
G03X375874Y374686I1793J4127*
X373771Y378495I4500*
G02X373538Y378918I267J423*
X373781Y379347I500*
G03X375967Y383207I2314J3860*
X373260Y387334I4500*
G02X372959Y387793I199J459*
X373260Y388251I500*
G03X375967Y392379I1793J4128*
X373398Y396444I4500*
G02X373113Y396895I215J451*
X373398Y397347I500*
G03X375967Y401412I1931J4065*
X373484Y405434I4500*
G02X373208Y405881I224J447*
X373484Y406328I500*
G03X375967Y410351I2017J4023*
X371467Y414851I4500*
X366967Y410351J4500*
X369451Y406328I4500*
G02X369727Y405881I224J447*
X369451Y405434I500*
G03X366967Y401412I2016J4022*
X369536Y397347I4500*
G02X369822Y396895I214J452*
X369536Y396444I500*
G03X366967Y392379I1931J4065*
X369675Y388251I4500*
G02X369976Y387793I199J458*
X369675Y387334I500*
G03X366967Y383207I1792J4127*
X369070Y379398I4500*
G02X369304Y378975I266J423*
X369061Y378546I500*
G03X366874Y374686I2313J3860*
G01Y547647*
G03X368988Y547120I2114J3973*
X372613Y548953J4500*
G02X373016Y549157I403J296*
X373405Y548971J500*
G03X376911Y547292I3506J2821*
X377569Y547341J4500*
G01Y491010*
G03X382069Y486510I4500*
X386569Y491010J4500*
X382069Y495510I4500*
X377569Y491010J4500*
G01Y547341*
G03X381411Y551792I658J4451*
X376911Y556292I4500*
X373285Y554459J4500*
G02X372883Y554255I402J296*
X372493Y554441J500*
G03X368988Y556120I3505J2821*
X364488Y551620J4500*
G01Y991000*
X372673*
Y616783*
G03X377173Y612283I4500*
X381673Y616783J4500*
X377173Y621283I4500*
X372673Y616783J4500*
G01Y991000*
X393450*
Y238700*
G03X397224Y229856I12250*
G01Y13430*
G03X401724Y8930I4500*
X406224Y13430J4500*
X401724Y17930I4500*
X397224Y13430J4500*
G01Y229856*
G03X405700Y226450I8476J8844*
X417950Y238700J12250*
X405700Y250950I12250*
X393450Y238700J12250*
G01Y991000*
X394531*
Y473997*
G03X399031Y469497I4500*
X402902Y471702J4500*
G01Y270746*
G03X407402Y266246I4500*
X411902Y270746J4500*
X407402Y275246I4500*
X402902Y270746J4500*
G01Y471702*
G03X403531Y473997I3871J2295*
X399031Y478497I4500*
X394531Y473997J4500*
G01Y991000*
X408250*
Y654426*
G03X409750Y651072I4500*
G01Y327000*
G03X412288Y322950I4500*
G02X412571Y322500I217J450*
X412288Y322050I500*
G03X409750Y318000I1962J4050*
X412288Y313950I4500*
G02X412571Y313500I217J450*
X412288Y313050I500*
G03X409750Y309000I1962J4050*
X412288Y304950I4500*
G02X412571Y304500I217J450*
X412288Y304050I500*
G03X409750Y300000I1962J4050*
X414250Y295500I4500*
X418750Y300000J4500*
X416212Y304050I4500*
G02X415929Y304500I217J450*
X416212Y304950I500*
G03X418750Y309000I1962J4050*
X416212Y313050I4500*
G02X415929Y313500I217J450*
X416212Y313950I500*
G03X418750Y318000I1962J4050*
X416212Y322050I4500*
G02X415929Y322500I217J450*
X416212Y322950I500*
G03X418750Y327000I1962J4050*
X414250Y331500I4500*
X409750Y327000J4500*
G01Y651072*
G03X412750Y649926I3000J3354*
X413026Y649934J4500*
G01Y455656*
G03X416000Y451422I4500*
G01Y413000*
G03X417486Y409889I4000*
G02X417672Y409500I314J389*
X417486Y409111I500*
G03X416000Y406000I2514J3111*
X417486Y402889I4000*
G02X417672Y402500I314J389*
X417486Y402111I500*
G03X416000Y399000I2514J3111*
X417486Y395889I4000*
G02X417672Y395500I314J389*
X417486Y395111I500*
G03X416000Y392000I2514J3111*
X417486Y388889I4000*
G02X417672Y388500I314J389*
X417486Y388111I500*
G03X416000Y385000I2514J3111*
X417486Y381889I4000*
G02X417672Y381500I314J389*
X417486Y381111I500*
G03X416000Y378000I2514J3111*
X420000Y374000I4000*
X422542Y374912J4000*
G01Y291854*
G03X424136Y288418I4500*
G02X424313Y288036I323J382*
X424143Y287660I500*
G03X422611Y284278I2968J3382*
X423123Y282194I4500*
G01Y267600*
G03X424797Y264099I4500*
G02X424983Y263709I314J390*
X424798Y263321I500*
G03X423136Y259829I2838J3492*
X427636Y255329I4500*
X432136Y259829J4500*
X430462Y263331I4500*
G02X430276Y263720I314J389*
X430461Y264108I500*
G03X432123Y267600I2838J3492*
X427623Y272100I4500*
X423123Y267600J4500*
G01Y282194*
G03X427111Y279778I3988J2084*
X431611Y284278J4500*
X430017Y287714I4500*
G02X429840Y288096I323J382*
X430010Y288472I500*
G03X431542Y291854I2968J3382*
X427042Y296354I4500*
X422542Y291854J4500*
G01Y374912*
G03X424000Y378000I2542J3088*
X422514Y381111I4000*
G02X422328Y381500I314J389*
X422514Y381889I500*
G03X424000Y385000I2514J3111*
X422514Y388111I4000*
G02X422328Y388500I314J389*
X422514Y388889I500*
G03X424000Y392000I2514J3111*
X422514Y395111I4000*
G02X422328Y395500I314J389*
X422514Y395889I500*
G03X424000Y399000I2514J3111*
X422514Y402111I4000*
G02X422328Y402500I314J389*
X422514Y402889I500*
G03X424000Y406000I2514J3111*
X422514Y409111I4000*
G02X422328Y409500I314J389*
X422514Y409889I500*
G03X424000Y413000I2514J3111*
X420000Y417000I4000*
X416000Y413000J4000*
G01Y451422*
G03X417526Y451156I1526J4234*
X422026Y455656J4500*
X417526Y460156I4500*
X413026Y455656J4500*
G01Y649934*
G03X417250Y654426I276J4492*
X412750Y658926I4500*
X408250Y654426J4500*
G01Y991000*
X410973*
Y907331*
G03X415473Y902831I4500*
X419973Y907331J4500*
X418699Y910468I4500*
G02X418558Y910816I359J348*
X419058Y911316I500*
X419202Y911295J500*
G03X419979Y911134I1298J4309*
G01Y654335*
G03X424479Y649835I4500*
X425523Y649957J4500*
G01Y626742*
G03X430023Y622242I4500*
X430686Y622291J4500*
G01Y304521*
G03X432500Y301172I4000*
G01Y69899*
G03X437000Y65399I4500*
X441500Y69899J4500*
X437000Y74399I4500*
X432500Y69899J4500*
G01Y301172*
G03X433650Y300658I2186J3349*
G01Y214600*
G03X442400Y205850I8750*
X446923Y207110J8750*
G02X447182Y207182I259J428*
X447682Y206682J500*
X447610Y206423I500*
G03X446350Y201900I7490J4523*
X447610Y197377I8750*
G02X447682Y197118I428J259*
X447182Y196618I500*
X446923Y196690J500*
G03X442400Y197950I4523J7490*
X433650Y189200J8750*
X442400Y180450I8750*
X447237Y181908J8750*
G02X447513Y181992I276J416*
X448013Y181492J500*
X447923Y181206I500*
G03X446350Y176200I7177J5006*
X447370Y172100I8750*
G02X447428Y171866I442J234*
X446928Y171366I500*
X446683Y171430J500*
G03X442400Y172550I4283J7630*
X433650Y163800J8750*
X442400Y155050I8750*
X446923Y156310J8750*
G02X447182Y156382I259J428*
X447682Y155882J500*
X447610Y155623I500*
G03X446350Y151100I7490J4523*
X447610Y146577I8750*
G02X447682Y146318I428J259*
X447182Y145818I500*
X446923Y145890J500*
G03X442400Y147150I4523J7490*
X433650Y138400J8750*
X442400Y129650I8750*
X446923Y130910J8750*
G02X447182Y130982I259J428*
X447682Y130482J500*
X447610Y130223I500*
G03X446350Y125700I7490J4523*
X447610Y121177I8750*
G02X447682Y120918I428J259*
X447182Y120418I500*
X446923Y120490J500*
G03X442400Y121750I4523J7490*
X433650Y113000J8750*
X440500Y104459I8750*
G01Y83456*
G03X445000Y78956I4500*
X449500Y83456J4500*
X445000Y87956I4500*
X440500Y83456J4500*
G01Y104459*
G03X442400Y104250I1900J8541*
X451150Y113000J8750*
X449890Y117523I8750*
G02X449818Y117782I428J259*
X450318Y118282I500*
X450577Y118210J500*
G03X455100Y116950I4523J7490*
X456719Y117101J8750*
G01Y40595*
Y40594*
G03X461219Y36094I4500*
X464463Y37475J4500*
G02X464823Y37629I360J346*
X465238Y37408J500*
G03X466137Y36426I3731J2515*
G01Y14231*
G03X470637Y9731I4500*
X475137Y14231J4500*
X470637Y18731I4500*
X466137Y14231J4500*
G01Y36426*
G03X468969Y35423I2832J3497*
X473469Y39923J4500*
X468969Y44423I4500*
X465726Y43042J4500*
G02X465365Y42889I361J347*
X464951Y43110J500*
G03X461219Y45094I3732J2516*
X456719Y40595J4500*
G01Y117101*
G03X463850Y125700I1619J8599*
X455100Y134450I8750*
X450577Y133190J8750*
G02X450318Y133118I259J428*
X449818Y133618J500*
X449890Y133877I500*
G03X451150Y138400I7490J4523*
X449890Y142923I8750*
G02X449818Y143182I428J259*
X450318Y143682I500*
X450577Y143610J500*
G03X455100Y142350I4523J7490*
X463850Y151100J8750*
X455100Y159850I8750*
X450577Y158590J8750*
G02X450318Y158518I259J428*
X449818Y159018J500*
X449890Y159277I500*
G03X451150Y163800I7490J4523*
X450130Y167900I8750*
G02X450072Y168134I442J234*
X450572Y168634I500*
X450817Y168570J500*
G03X455100Y167450I4283J7630*
X463850Y176200J8750*
X455100Y184950I8750*
X450263Y183492J8750*
G02X449987Y183408I276J416*
X449487Y183908J500*
X449577Y184194I500*
G03X451150Y189200I7177J5006*
X449890Y193723I8750*
G02X449818Y193982I428J259*
X450318Y194482I500*
X450577Y194410J500*
G03X455100Y193150I4523J7490*
X463850Y201900J8750*
X455100Y210650I8750*
X450577Y209390J8750*
G02X450318Y209318I259J428*
X449818Y209818J500*
X449890Y210077I500*
G03X451150Y214600I7490J4523*
X450453Y218023I8750*
G02X450413Y218219I460J196*
X450913Y218719I500*
X451122Y218673J500*
G03X455100Y217800I3978J8627*
X464600Y227300J9500*
X455100Y236800I9500*
X445600Y227300J9500*
X446473Y223322I9500*
G02X446519Y223113I454J209*
X446019Y222613I500*
X445823Y222653J500*
G03X442400Y223350I3423J8053*
X433650Y214600J8750*
G01Y300658*
G03X434686Y300521I1036J3863*
X438686Y304521J4000*
X434686Y308521I4000*
X430686Y304521J4000*
G01Y622291*
G03X434303Y625350I663J4451*
G02X434778Y625696I475J154*
X435025Y625630J500*
G03X437249Y625042I2224J3912*
X437400Y625045J4500*
G01Y577875*
G03X438500Y573291I10100*
G01Y415100*
G03X440500Y411358I4500*
G01Y402500*
G03X441986Y399389I4000*
G02X442172Y399000I314J389*
X441986Y398611I500*
G03X440500Y395500I2514J3111*
X441986Y392389I4000*
G02X442172Y392000I314J389*
X441986Y391611I500*
G03X440500Y388500I2514J3111*
X441986Y385389I4000*
G02X442172Y385000I314J389*
X441986Y384611I500*
G03X440500Y381500I2514J3111*
X441986Y378389I4000*
G02X442172Y378000I314J389*
X441986Y377611I500*
G03X440500Y374500I2514J3111*
X441986Y371389I4000*
G02X442172Y371000I314J389*
X441986Y370611I500*
G03X440500Y367500I2514J3111*
X441986Y364389I4000*
G02X442172Y364000I314J389*
X441986Y363611I500*
G03X440500Y360500I2514J3111*
X441986Y357389I4000*
G02X442172Y357000I314J389*
X441986Y356611I500*
G03X440500Y353500I2514J3111*
X441986Y350389I4000*
G02X442172Y350000I314J389*
X441986Y349611I500*
G03X440500Y346500I2514J3111*
X441986Y343389I4000*
G02X442172Y343000I314J389*
X441986Y342611I500*
G03X440500Y339500I2514J3111*
X441441Y336923I4000*
G01Y326952*
G03X445129Y322964I4000*
G02X445590Y322466I39J498*
X445585Y322398I500*
G03X445548Y321854I3963J544*
X449548Y317854I4000*
X449634Y317855J4000*
G01Y293229*
G03X453666Y288754I4500*
G02X454114Y288256I52J498*
X454091Y288104I500*
G03X453878Y286736I4287J1368*
X454129Y285254I4500*
G02X454157Y285089I472J165*
X453713Y284592I500*
G03X449719Y280121I506J4471*
X454219Y275621I4500*
X458719Y280121J4500*
X458467Y281603I4500*
G02X458440Y281768I473J165*
X458883Y282265I500*
G03X462878Y286736I505J4471*
X458846Y291212I4500*
G02X458398Y291709I52J497*
X458422Y291861I500*
G03X458634Y293229I4288J1368*
X456316Y297165I4500*
G02X456058Y297603I242J438*
X456339Y298052I500*
G03X458446Y300604I1755J3595*
G02X458929Y300974I483J130*
X458948Y300973J500*
G01X459045Y300969*
G02X459517Y300561I20J499*
G03X463449Y297295I3932J734*
X467449Y301295J4000*
X463449Y305295I4000*
X459587Y302338J4000*
G02X459105Y301968I482J130*
X459085Y301969J500*
G01X458988Y301972*
G02X458516Y302380I20J500*
G03X454584Y305647I3932J733*
X450584Y301647J4000*
X452457Y298259I4000*
G02X452691Y297836I266J423*
X452385Y297375I500*
G03X449634Y293229I1749J4146*
G01Y317855*
G03X453548Y321854I86J3999*
X449860Y325842I4000*
G02X449399Y326340I39J498*
X449403Y326408I500*
G03X449441Y326952I3962J544*
X445441Y330952I4000*
X441441Y326952J4000*
G01Y336923*
G03X444500Y335500I3059J2577*
X448500Y339500J4000*
X447014Y342611I4000*
G02X446828Y343000I314J389*
X447014Y343389I500*
G03X448500Y346500I2514J3111*
X447014Y349611I4000*
G02X446828Y350000I314J389*
X447014Y350389I500*
G03X448500Y353500I2514J3111*
X447014Y356611I4000*
G02X446828Y357000I314J389*
X447014Y357389I500*
G03X448500Y360500I2514J3111*
X447014Y363611I4000*
G02X446828Y364000I314J389*
X447014Y364389I500*
G03X448500Y367500I2514J3111*
X447014Y370611I4000*
G02X446828Y371000I314J389*
X447014Y371389I500*
G03X448500Y374500I2514J3111*
X447014Y377611I4000*
G02X446828Y378000I314J389*
X447014Y378389I500*
G03X448500Y381500I2514J3111*
X447014Y384611I4000*
G02X446828Y385000I314J389*
X447014Y385389I500*
G03X448500Y388500I2514J3111*
X447014Y391611I4000*
G02X446828Y392000I314J389*
X447014Y392389I500*
G03X448500Y395500I2514J3111*
X447014Y398611I4000*
G02X446828Y399000I314J389*
X447014Y399389I500*
G03X448500Y402500I2514J3111*
X444500Y406500I4000*
X440500Y402500J4000*
G01Y411358*
G03X443000Y410600I2500J3742*
X446936Y412919J4500*
G02X447373Y413177I437J242*
X447786Y412959J500*
G03X451500Y411000I3714J2541*
X456000Y415500J4500*
X455977Y415951I4500*
G02X455975Y416001I498J50*
X456475Y416501I500*
X456508Y416499J500*
G03X456774Y416491I266J3992*
X459503Y417567J4000*
G01Y322421*
G03X463503Y318421I4000*
X467301Y321165J4000*
G02X467775Y321508I474J157*
X468253Y321157J500*
G03X468458Y320632I3819J1189*
G01Y284750*
G03X470832Y280784I4500*
G02X471096Y280343I236J441*
X470970Y280011I500*
G03X469832Y277020I3362J2991*
X474332Y272520I4500*
X476295Y272971J4500*
G02X476513Y273021I218J450*
X477013Y272521J500*
X476953Y272282I500*
G03X476405Y270130I3952J2152*
X480905Y265630I4500*
X485405Y270130J4500*
X480905Y274630I4500*
X478942Y274179J4500*
G02X478723Y274129I219J450*
X478223Y274629J500*
X478284Y274868I500*
G03X478794Y276438I3952J2152*
G02X479290Y276874I496J64*
X479452Y276847J500*
G03X480905Y276606I1453J4259*
X485405Y281106J4500*
X480905Y285606I4500*
X478239Y284732J4500*
G02X477943Y284634I296J402*
X477445Y285096J500*
G03X472958Y289250I4487J346*
X468458Y284750J4500*
G01Y320632*
G03X472072Y318346I3614J1714*
X475919Y321251J4000*
G02X476400Y321614I481J137*
X476887Y321227J500*
G03X480784Y318130I3897J903*
X484731Y321487J4000*
G02X485225Y321906I494J81*
X485717Y321492J500*
G03X486200Y320172I3940J691*
G01Y227300*
G03X495700Y217800I9500*
X499678Y218673J9500*
G02X499887Y218719I209J454*
X500387Y218219J500*
X500347Y218023I500*
G03X499650Y214600I8053J3423*
X500910Y210077I8750*
G02X500982Y209818I428J259*
X500482Y209318I500*
X500223Y209390J500*
G03X495700Y210650I4523J7490*
X486950Y201900J8750*
X495700Y193150I8750*
X500223Y194410J8750*
G02X500482Y194482I259J428*
X500982Y193982J500*
X500910Y193723I500*
G03X499650Y189200I7490J4523*
X500910Y184677I8750*
G02X500982Y184418I428J259*
X500482Y183918I500*
X500223Y183990J500*
G03X495700Y185250I4523J7490*
X486950Y176500J8750*
X495700Y167750I8750*
X500223Y169010J8750*
G02X500482Y169082I259J428*
X500982Y168582J500*
X500910Y168323I500*
G03X499650Y163800I7490J4523*
X500910Y159277I8750*
G02X500982Y159018I428J259*
X500482Y158518I500*
X500223Y158590J500*
G03X495700Y159850I4523J7490*
X486950Y151100J8750*
X495700Y142350I8750*
X500223Y143610J8750*
G02X500482Y143682I259J428*
X500982Y143182J500*
X500910Y142923I500*
G03X499650Y138400I7490J4523*
X500910Y133877I8750*
G02X500982Y133618I428J259*
X500482Y133118I500*
X500223Y133190J500*
G03X495700Y134450I4523J7490*
X486950Y125700J8750*
X495700Y116950I8750*
X500223Y118210J8750*
G02X500482Y118282I259J428*
X500982Y117782J500*
X500910Y117523I500*
G03X499650Y113000I7490J4523*
X508400Y104250I8750*
X517150Y113000J8750*
X508400Y121750I8750*
X503877Y120490J8750*
G02X503618Y120418I259J428*
X503118Y120918J500*
X503190Y121177I500*
G03X504450Y125700I7490J4523*
X503190Y130223I8750*
G02X503118Y130482I428J259*
X503618Y130982I500*
X503877Y130910J500*
G03X508400Y129650I4523J7490*
X517150Y138400J8750*
X508400Y147150I8750*
X503877Y145890J8750*
G02X503618Y145818I259J428*
X503118Y146318J500*
X503190Y146577I500*
G03X504450Y151100I7490J4523*
X503190Y155623I8750*
G02X503118Y155882I428J259*
X503618Y156382I500*
X503877Y156310J500*
G03X508400Y155050I4523J7490*
X517150Y163800J8750*
X508400Y172550I8750*
X503877Y171290J8750*
G02X503618Y171218I259J428*
X503118Y171718J500*
X503190Y171977I500*
G03X504450Y176500I7490J4523*
X503190Y181023I8750*
G02X503118Y181282I428J259*
X503618Y181782I500*
X503877Y181710J500*
G03X508400Y180450I4523J7490*
X517150Y189200J8750*
X508400Y197950I8750*
X503877Y196690J8750*
G02X503618Y196618I259J428*
X503118Y197118J500*
X503190Y197377I500*
G03X504450Y201900I7490J4523*
X503190Y206423I8750*
G02X503118Y206682I428J259*
X503618Y207182I500*
X503877Y207110J500*
G03X508400Y205850I4523J7490*
X517150Y214600J8750*
X508400Y223350I8750*
X504977Y222653J8750*
G02X504781Y222613I196J460*
X504281Y223113J500*
X504327Y223322I500*
G03X505200Y227300I8627J3978*
X495700Y236800I9500*
X486200Y227300J9500*
G01Y320172*
G03X489657Y318183I3457J2011*
X492181Y319080J4000*
G01Y301405*
G03X496181Y297405I4000*
X500181Y301405J4000*
X496181Y305405I4000*
X492181Y301405J4000*
G01Y319080*
G03X492721Y319612I2524J3103*
G02X493104Y319790I383J322*
X493457Y319645J500*
G03X496279Y318479I2822J2834*
X500279Y322479J4000*
X496279Y326479I4000*
X493216Y325050J4000*
G02X492833Y324872I383J322*
X492480Y325018J500*
G03X489789Y326181I2823J2835*
G02X489305Y326681I16J500*
X489306Y326720I500*
G03X489319Y327030I3987J310*
X485319Y331030I4000*
X481520Y328284J4000*
G02X481045Y327940I475J156*
X480562Y328313J500*
G03X476693Y331298I3869J1015*
X472735Y327875J4000*
G02X472240Y327447I495J72*
X471745Y327877J500*
G03X467784Y331317I3961J560*
X463784Y327317J4000*
X463800Y326961I4000*
G02X463802Y326916I498J45*
X463324Y326417I500*
G03X459503Y322421I179J3996*
G01Y417567*
G03X460774Y420491I2729J2924*
X456774Y424491I4000*
X452774Y420491J4000*
Y420445I4000*
G01Y420440*
G02X452274Y419940I500*
X452196Y419946J500*
G03X451500Y420000I696J4446*
X449064Y419284J4500*
G02X448793Y419204I271J420*
X448435Y419355J500*
G01X448324Y419469*
G02X448182Y419818I358J349*
X448261Y420089I500*
G03X448901Y422259I3360J2170*
X444901Y426259I4000*
X440901Y422259J4000*
X441580Y420030I4000*
G02X441665Y419751I415J279*
X441348Y419286I500*
G03X438500Y415100I1652J4186*
G01Y573291*
G03X445694Y567938I9000J4584*
G01Y449310*
G03X448327Y445215I4500*
G02X448620Y444761I207J454*
X448535Y444482I500*
G03X447856Y442253I3321J2229*
X451856Y438253I4000*
X455856Y442253J4000*
X453834Y445730I4000*
G02X453581Y446164I247J434*
X453692Y446479I500*
G03X454694Y449310I3498J2831*
X450194Y453810I4500*
X445694Y449310J4500*
G01Y567938*
G03X447500Y567775I1806J9937*
X448578Y567833J10100*
G02X448631Y567836I53J497*
X449129Y567385J500*
G03X453607Y563328I4478J443*
X457094Y564984J4500*
G02X457482Y565168I388J316*
X457869Y564984J500*
G03X458408Y564429I3488J2844*
G01Y458189*
G03X460708Y454569I4000*
G02X460996Y454116I212J453*
X460902Y453825I500*
G03X460153Y451494I3251J2331*
X462948Y447680I4000*
G01Y421343*
G03X466948Y417343I4000*
X469948Y418698J4000*
G02X470323Y418867I375J331*
X470698Y418698J500*
G03X473698Y417343I3000J2645*
X476613Y418605J4000*
G02X476977Y418762I364J343*
X477381Y418558J500*
G03X480606Y416924I3225J2366*
X484050Y418890J4000*
G02X484481Y419136I431J254*
X484912Y418890J500*
G03X488356Y416924I3444J2034*
X491578Y418554J4000*
G02X491981Y418758I403J296*
X492328Y418618J500*
G03X495102Y417499I2774J2881*
X498234Y419011J4000*
G02X498625Y419199I391J312*
X499001Y419030J500*
G03X500406Y418005I3003J2642*
G01Y270932*
G03X504906Y266432I4500*
X509406Y270932J4500*
X508051Y274151I4500*
G02X507901Y274508I350J357*
X508090Y274900I500*
G03X508512Y275281I2800J3523*
G02X508870Y275432I358J349*
X509262Y275242J500*
G03X512790Y273536I3528J2794*
X517290Y278036J4500*
X515679Y281486I4500*
G02X515500Y281869I321J383*
X515659Y282236I500*
G03X517097Y285533I3062J3297*
X512597Y290033I4500*
X508097Y285533J4500*
X509708Y282083I4500*
G02X509887Y281700I321J383*
X509728Y281333I500*
G03X509568Y281177I3062J3297*
G02X509210Y281026I358J349*
X508818Y281216J500*
G03X505290Y282923I3528J2793*
X500790Y278423J4500*
X502145Y275204I4500*
G02X502295Y274847I350J357*
X502106Y274455I500*
G03X500406Y270932I2800J3523*
G01Y418005*
G03X501862Y417674I1598J3667*
G02X502345Y417175I17J499*
X502337Y417087I500*
G03X502276Y416390I3939J697*
X502287Y416090I4000*
G01Y327656*
G03X505577Y323720I4000*
G02X505989Y323228I88J492*
X505958Y323057I500*
G03X505717Y321688I3759J1369*
X509717Y317688I4000*
X513588Y320681J4000*
G02X514072Y321055I484J126*
X514535Y320744J500*
G03X518237Y318258I3702J1514*
X522148Y321415J4000*
G02X522636Y321810I488J105*
X523100Y321497J500*
G03X526808Y318997I3708J1500*
X528013Y319183J4000*
G01Y301159*
G03X532013Y297159I4000*
X533040Y297293J4000*
G02X533150Y297310I129J483*
G01Y238700*
G03X535323Y231734I12250*
G01Y16767*
G03X539823Y12267I4500*
X544323Y16767J4500*
X539823Y21267I4500*
X535323Y16767J4500*
G01Y231734*
G03X536475Y230310I10077J6966*
G01Y87078*
G03X540975Y82578I4500*
X545475Y87078J4500*
X540975Y91578I4500*
X536475Y87078J4500*
G01Y230310*
G03X545400Y226450I8925J8390*
X557650Y238700J12250*
X545400Y250950I12250*
X533150Y238700J12250*
G01Y297310*
G02X533169I19J500*
X533664Y296875J500*
G03X537631Y293392I3967J517*
X541631Y297392J4000*
X537631Y301392I4000*
X536604Y301258J4000*
G02X536476Y301242I128J484*
X535980Y301677J500*
G03X532013Y305159I3967J518*
X528013Y301159J4000*
G01Y319183*
G03X530482Y321415I1205J3814*
G02X530942Y321718I460J197*
X531429Y321330J500*
G03X535326Y318229I3897J899*
X538297Y319551J4000*
G02X538668Y319716I371J335*
X539027Y319564J500*
G03X541899Y318348I2872J2784*
X544487Y319299J4000*
G01Y275849*
G03X548987Y271349I4500*
X549418Y271369J4500*
G02X549466Y271371I48J498*
X549966Y270871J500*
X549965Y270856I500J1*
G03X549963Y270718I4498J138*
X554463Y266218I4500*
X557800Y267698J4500*
G01Y59470*
G03X559975Y55617I4500*
G02X560217Y55189I258J428*
X560085Y54850I500*
G03X558891Y51798I3306J3052*
X563391Y47298I4500*
X567891Y51798J4500*
X565716Y55651I4500*
G02X565474Y56079I258J428*
X565606Y56418I500*
G03X566800Y59470I3306J3052*
X562300Y63970I4500*
X557800Y59470J4500*
G01Y267698*
G03X558122Y268098I3337J3020*
G01Y72820*
G03X562622Y68320I4500*
X567122Y72820J4500*
X566308Y75401I4500*
G02X566218Y75687I410J286*
X566615Y76177I500*
G03X570191Y80581I924J4404*
X565691Y85081I4500*
X561191Y80581J4500*
X562005Y78000I4500*
G02X562095Y77713I410J287*
X561698Y77224I500*
G03X558122Y72820I924J4404*
G01Y268098*
G03X558963Y270718I3659J2620*
X554463Y275218I4500*
X554033Y275197J4500*
G02X553985Y275195I48J498*
X553485Y275695J500*
Y275710I500*
G03X553487Y275848I4498J138*
G01Y275849*
G03X548987Y280349I4500*
X544487Y275849J4500*
G01Y319299*
G03X545899Y322348I2588J3049*
X544630Y325271I4000*
G02X544471Y325636I341J365*
X544693Y326052I500*
G03X546465Y329374I2228J3322*
X542465Y333374I4000*
X542228Y333367J4000*
G02X542198Y333366I30J499*
X541698Y333866J500*
X541699Y333904I500*
G03X541711Y334206I3988J302*
X539589Y337738I4000*
G02X539324Y338179I235J441*
X539434Y338491I500*
G03X540282Y340532I3126J2496*
G02X540779Y340975I497J57*
X540913Y340957J500*
G03X541993Y340808I1080J3851*
X545993Y344808J4000*
X541993Y348808I4000*
X541439Y348770J4000*
G02X541370Y348765I69J495*
X540870Y349265J500*
X540873Y349322I500*
G03X540898Y349690I3974J455*
G02X541398Y350179I500J11*
X541473Y350173J500*
G03X542073Y350128I600J3955*
X546073Y354128J4000*
X542156Y358127I4000*
G02X541666Y358627I10J500*
X541674Y358715I500*
G03X541737Y359420I3937J705*
X541686Y360055I4000*
G02X541680Y360134I494J79*
X542180Y360634I500*
X542183J500*
G03X542206I23J4000*
X546206Y364634J4000*
X542206Y368634I4000*
X538206Y364634J4000*
X538256Y363999I4000*
G02X538263Y363920I493J79*
X537763Y363420I500*
X537760J500*
G03X537737I23J4000*
X533737Y359420J4000*
X537654Y355421I4000*
G02X538144Y354921I10J500*
X538136Y354833I500*
G03X538074Y354215I3937J705*
G02X537574Y353726I500J11*
X537499Y353732J500*
G03X536899Y353777I600J3955*
X532899Y349777J4000*
X535820Y345925I4000*
G02X536186Y345444I134J481*
X535755Y344948I500*
G03X532308Y340987I553J3961*
X534429Y337456I4000*
G02X534694Y337014I235J442*
X534585Y336702I500*
G03X533711Y334206I3126J2496*
X537711Y330206I4000*
X537948Y330213J4000*
G02X537978Y330214I30J499*
X538478Y329714J500*
X538477Y329676I500*
G03X538465Y329374I3988J302*
X539734Y326451I4000*
G02X539893Y326086I341J365*
X539671Y325670I500*
G03X538928Y325027I2228J3322*
G02X538557Y324862I371J335*
X538198Y325014J500*
G03X535326Y326229I2872J2785*
X535099Y326223J4000*
G02X535070Y326222I29J499*
X534570Y326722J500*
X534597Y326884I500*
G03X534813Y328180I3784J1296*
X530813Y332180I4000*
X526893Y328977J4000*
G02X526403Y328577I490J100*
X525932Y328909J500*
G03X522165Y331563I3767J1346*
X518221Y328224J4000*
G02X517727Y327807I494J83*
X517247Y328167J500*
G03X513408Y331045I3839J1122*
X510451Y329739J4000*
G02X510081Y329576I370J337*
X509660Y329807J500*
G03X506287Y331656I3373J2151*
X502287Y327656J4000*
G01Y416090*
G03X506276Y412390I3989J300*
X510276Y416390J4000*
X510245Y416886I4000*
G02X510241Y416948I496J62*
X510741Y417448I500*
X510747J500*
G03X510792I45J4000*
X513792Y418802J4000*
G02X514167Y418972I375J330*
X514542Y418802J500*
G03X517542Y417448I3000J2646*
X520032Y418318J4000*
G02X520343Y418427I311J391*
X520819Y418080J500*
G03X524627Y415305I3808J1225*
X528279Y417672J4000*
G02X528735Y417968I456J204*
X529018Y417880J500*
G03X530169Y417335I2266J3297*
G01Y368700*
G03X534169Y364700I4000*
X538169Y368700J4000*
X534169Y372700I4000*
X530169Y368700J4000*
G01Y417335*
G03X531284Y417177I1115J3842*
X532071Y417255J4000*
G01Y388726*
G03X536071Y384726I4000*
X536393Y384739J4000*
G02X536433Y384741I40J498*
X536933Y384241J500*
X536930Y384187I500*
G03X536906Y383755I3976J432*
X536922Y383402I4000*
G02X536924Y383358I498J44*
X536424Y382858I500*
X536400Y382859J500*
G03X536208Y382863I192J3996*
X532208Y378863J4000*
X536208Y374863I4000*
X536815Y374910J4000*
G02X536891Y374915I76J495*
X537391Y374415J500*
X537390Y374385I500*
G03X537382Y374140I3993J245*
X541382Y370140I4000*
X545382Y374140J4000*
X541382Y378140I4000*
X540776Y378093J4000*
G02X540700Y378088I76J495*
X540200Y378588J500*
X540201Y378618I500*
G03X540208Y378863I3993J245*
X540193Y379216I4000*
G02X540191Y379260I498J44*
X540691Y379760I500*
X540715Y379759J500*
G03X540906Y379755I191J3996*
X544906Y383755J4000*
X540906Y387755I4000*
X540585Y387742J4000*
G02X540545Y387740I40J498*
X540045Y388240J500*
X540048Y388294I500*
G03X540071Y388666I3977J432*
G02X540570Y389158I499J8*
X540691Y389143J500*
G03X541658Y389025I967J3882*
X545658Y393025J4000*
X541787Y397023I4000*
G02X541304Y397522I17J499*
X541313Y397620I500*
G03X541400Y398500I4413J880*
X541270Y399573I4500*
G02X541256Y399692I486J119*
X541742Y400192I500*
G03X546116Y404690I126J4498*
X541616Y409190I4500*
X537116Y404690J4500*
X537246Y403617I4500*
G02X537260Y403498I486J119*
X536774Y402998I500*
G03X532400Y398500I126J4498*
X536900Y394000I4500*
X537156Y394007J4500*
G02X537184Y394008I28J499*
X537684Y393508J500*
X537682Y393454I500*
G03X537659Y393085I3976J429*
G02X537159Y392593I500J8*
X537038Y392608J500*
G03X536071Y392726I967J3882*
X532071Y388726J4000*
G01Y417255*
G03X532657Y417420I787J3922*
G02X532829Y417450I172J470*
X533329Y416950J500*
X533256Y416690I500*
G03X532601Y414352I3845J2338*
X537101Y409852I4500*
X541601Y414352J4500*
X540240Y417576I4500*
G02X540089Y417935I349J359*
X540333Y418365I500*
G03X542292Y421804I2041J3439*
X538292Y425804I4000*
X534955Y424010J4000*
G02X534537Y423785I418J275*
X534176Y423940J500*
G03X531284Y425177I2892J2763*
X527632Y422809J4000*
G02X527176Y422513I456J204*
X526893Y422601J500*
G03X524627Y423305I2266J3296*
X522137Y422435J4000*
G02X521826Y422326I311J391*
X521350Y422673J500*
G03X517542Y425448I3808J1225*
X514542Y424094J4000*
G02X514167Y423925I375J331*
X513792Y424094J500*
G03X510792Y425448I3000J2646*
X506908Y422405J4000*
G02X506423Y422025I485J120*
X505932Y422430J500*
G03X502004Y425672I3928J758*
X498873Y424160J4000*
G02X498481Y423972I392J312*
X498106Y424141J500*
G03X495102Y425499I3004J2642*
X491880Y423869J4000*
G02X491477Y423665I403J296*
X491130Y423805J500*
G03X488356Y424924I2774J2881*
X484912Y422957J4000*
G02X484481Y422712I431J255*
X484050Y422957J500*
G03X480606Y424924I3444J2033*
X477691Y423663J4000*
G02X477326Y423505I365J342*
X476923Y423709J500*
G03X473698Y425343I3225J2366*
X470698Y423989J4000*
G02X470323Y423820I375J331*
X469948Y423989J500*
G03X466948Y425343I3000J2646*
X462948Y421343J4000*
G01Y447680*
G03X464153Y447494I1205J3814*
X465570Y447753J4000*
G01Y442330*
G03X469570Y438330I4000*
X473570Y442330J4000*
X469570Y446330I4000*
X465570Y442330J4000*
G01Y447753*
G03X468153Y451494I1417J3741*
X465852Y455115I4000*
G02X465565Y455567I213J452*
X465659Y455859I500*
G03X466408Y458189I3251J2330*
X462408Y462189I4000*
X458408Y458189J4000*
G01Y564429*
G03X461357Y563328I2949J3399*
X465857Y567828J4500*
X461357Y572328I4500*
X457869Y570672J4500*
G02X457482Y570488I387J316*
X457094Y570672J500*
G03X456062Y571599I3487J2844*
G02X455835Y572018I273J419*
X455918Y572294I500*
G03X457600Y577875I8418J5581*
X447500Y587975I10100*
X437400Y577875J10100*
G01Y625045*
G03X440718Y626676I151J4497*
G02X441104Y626857I386J319*
X441493Y626671J500*
G03X444999Y624992I3506J2821*
X449046Y627524J4500*
G02X449496Y627805I450J219*
X449800Y627701J500*
G03X452543Y626769I2743J3568*
X457043Y631269J4500*
X452543Y635769I4500*
X448496Y633237J4500*
G02X448046Y632956I450J219*
X447741Y633060J500*
G03X444999Y633992I2742J3568*
X441530Y632358J4500*
G02X441145Y632177I385J319*
X440755Y632363J500*
G03X437249Y634042I3506J2821*
X432970Y630934J4500*
G02X432494Y630588I476J154*
X432247Y630654J500*
G03X430023Y631242I2224J3912*
X425523Y626742J4500*
G01Y649957*
G03X428016Y651553I1044J4378*
G02X428409Y651744I393J309*
X428791Y651567J500*
G03X432228Y649972I3437J2905*
X436176Y652313J4500*
G02X436615Y652573I439J240*
X437039Y652337J500*
G03X440862Y650211I3823J2374*
X444660Y652297J4500*
G02X445082Y652529I422J268*
X445483Y652327J500*
G03X449094Y650512I3611J2685*
X453075Y652913J4500*
G02X453518Y653180I443J233*
X453945Y652939J500*
G03X457177Y650814I3849J2332*
G01Y614297*
G03X461677Y609797I4500*
X462400Y609855J4500*
G01Y586575*
G03X480586Y565246I21600*
G01Y442304*
G03X484586Y438304I4000*
X488586Y442304J4000*
X484586Y446304I4000*
X480586Y442304J4000*
G01Y565246*
G03X484000Y564975I3414J21329*
X504128Y578738J21600*
G01Y442333*
G03X508128Y438333I4000*
X511177Y439744J4000*
G02X511558Y439920I381J324*
X511941Y439742J500*
G03X515006Y438313I3065J2571*
X519006Y442313J4000*
X515006Y446313I4000*
X511957Y444902J4000*
G02X511576Y444725I381J323*
X511193Y444904J500*
G03X508128Y446333I3065J2571*
X504128Y442333J4000*
G01Y578738*
G03X505600Y586575I20128J7837*
X484000Y608175I21600*
X462400Y586575J21600*
G01Y609855*
G03X466177Y614297I723J4442*
X461677Y618797I4500*
X457177Y614297J4500*
G01Y650814*
G03X457794Y650771I617J4457*
X458910Y650912J4500*
G01Y635073*
G03X463410Y630573I4500*
X467910Y635073J4500*
X463410Y639573I4500*
X458910Y635073J4500*
G01Y650912*
G03X462294Y655271I1116J4359*
X457794Y659771I4500*
X453813Y657369J4500*
G02X453371Y657103I442J234*
X452943Y657344J500*
G03X449094Y659512I3849J2332*
X445297Y657426J4500*
G02X444875Y657194I422J268*
X444474Y657396J500*
G03X440862Y659211I3612J2685*
X436914Y656870J4500*
G02X436475Y656610I439J240*
X436050Y656846J500*
G03X432228Y658972I3822J2374*
X428690Y657253J4500*
G02X428297Y657062I393J309*
X427916Y657240J500*
G03X424479Y658835I3437J2905*
X419979Y654335J4500*
G01Y911134*
G03X420500Y911104I521J4470*
X425000Y915604J4500*
X420500Y920104I4500*
X416000Y915604J4500*
X417274Y912467I4500*
G02X417415Y912118I359J349*
X416915Y911618I500*
X416771Y911639J500*
G03X415473Y911831I1298J4308*
X410973Y907331J4500*
G01Y991000*
X438331*
Y681711*
G03X442831Y677211I4500*
X447331Y681711J4500*
X442831Y686211I4500*
X438331Y681711J4500*
G01Y991000*
X439588*
Y940553*
G03X444088Y936053I4500*
X448588Y940553J4500*
X444088Y945053I4500*
X439588Y940553J4500*
G01Y991000*
X451212*
Y766299*
G03X455712Y761799I4500*
X458673Y762910J4500*
G01Y676935*
G03X463173Y672435I4500*
X465706Y673216J4500*
G01Y659866*
G03X469842Y655381I4500*
G01Y642330*
G03X474342Y637830I4500*
X478842Y642330J4500*
X474342Y646830I4500*
X469842Y642330J4500*
G01Y655381*
G03X470206Y655366I364J4485*
X474706Y659866J4500*
X470206Y664366I4500*
X465706Y659866J4500*
G01Y673216*
G03X467673Y676935I2533J3719*
X463173Y681435I4500*
X458673Y676935J4500*
G01Y762910*
G03X460212Y766299I2961J3389*
X460119Y767211I4500*
G02X460108Y767312I489J101*
X460608Y767812I500*
G03X465101Y772312I7J4500*
X460601Y776812I4500*
X456101Y772312J4500*
X456195Y771400I4500*
G02X456205Y771299I490J101*
X455706Y770799I500*
G03X451212Y766299I6J4500*
G01Y991000*
X451437*
Y940522*
G03X455937Y936022I4500*
X460437Y940522J4500*
X455937Y945022I4500*
X451437Y940522J4500*
G01Y991000*
X468266*
Y750108*
G03X472766Y745608I4500*
X477266Y750108J4500*
X477205Y750850I4500*
G02X477198Y750932I493J82*
X477698Y751432I500*
X477719J500*
G03X477906Y751428I187J4496*
X480220Y752068J4500*
G02X480477Y752139I257J429*
X480949Y751805J500*
G03X485195Y748795I4246J1490*
X489634Y752552J4500*
G02X490127Y752969I493J83*
X490315Y752932J500*
G03X492013Y752599I1698J4167*
X493338Y752799J4500*
G02X493485Y752821I147J478*
X493984Y752349J500*
G03X498477Y748103I4493J254*
X502914Y751855J4500*
G02X503407Y752272I493J83*
X503588Y752238J500*
G03X505214Y751934I1626J4196*
X506642Y752167J4500*
G01Y459985*
G03X508460Y456371I4500*
G02X508662Y455970I298J401*
X508488Y455590I500*
G03X506917Y452174I2929J3416*
X511417Y447674I4500*
X515917Y452174J4500*
X514099Y455788I4500*
G02X513897Y456189I298J401*
X514072Y456569I500*
G03X515642Y459985I2930J3416*
X511142Y464485I4500*
X506642Y459985J4500*
G01Y752167*
G03X508556Y753421I1428J4267*
G02X508927Y753586I371J335*
X509330Y753382J500*
G03X512954Y751549I3624J2667*
X513823Y751634J4500*
G01Y519828*
G03X514608Y517288I4500*
G01Y508029*
G03X519108Y503529I4500*
X519763Y503576J4500*
G02X519836Y503582I73J494*
X520336Y503082J500*
X520333Y503024I500*
G03X520302Y502500I4469J524*
X524802Y498000I4500*
X528396Y499792J4500*
G01Y442888*
G03X532396Y438888I4000*
X535660Y440576J4000*
G02X536068Y440787I408J289*
X536420Y440643J500*
G03X539234Y439485I2814J2842*
X543234Y443485J4000*
X539234Y447485I4000*
X535970Y445797J4000*
G02X535562Y445586I408J289*
X535210Y445731J500*
G03X532396Y446888I2814J2843*
X528396Y442888J4000*
G01Y499792*
G03X529302Y502500I3594J2708*
X524802Y507000I4500*
X524147Y506952J4500*
G02X524074Y506947I73J495*
X523574Y507447J500*
X523577Y507505I500*
G03X523608Y508029I4469J524*
X519108Y512529I4500*
X514608Y508029J4500*
G01Y517288*
G03X518323Y515328I3715J2540*
X522823Y519828J4500*
X522813Y520132I4500*
G02X522811Y520166I498J34*
X523311Y520666I500*
X523456Y520645J500*
G03X524758Y520453I1302J4308*
X529258Y524953J4500*
X524758Y529453I4500*
X520258Y524953J4500*
X520268Y524648I4500*
G02X520270Y524614I498J34*
X519770Y524114I500*
X519625Y524135J500*
G03X518323Y524328I1302J4307*
X513823Y519828J4500*
G01Y751634*
G03X514677Y751892I869J4415*
G01Y588085*
G03X515646Y585296I4500*
G01Y571684*
G03X520146Y567184I4500*
X521984Y567576J4500*
G02X522188Y567620I204J456*
X522687Y567138J500*
G03X527185Y562799I4498J161*
X531685Y567299J4500*
X527185Y571799I4500*
X525347Y571407J4500*
G02X525142Y571363I205J456*
X524643Y571845J500*
G03X524429Y573062I4497J161*
G02X524405Y573215I476J153*
X524851Y573712I500*
G03X528863Y578186I488J4474*
X524363Y582686I4500*
X519863Y578186J4500*
X520079Y576807I4500*
G02X520103Y576654I476J153*
X519657Y576157I500*
G03X515646Y571684I489J4473*
G01Y585296*
G03X519177Y583585I3531J2789*
X523677Y588085J4500*
X519177Y592585I4500*
X514677Y588085J4500*
G01Y751892*
G03X516412Y753169I1723J4157*
G02X516796Y753349I384J320*
X517187Y753161J500*
G03X520704Y751469I3517J2808*
X523109Y752166J4500*
G02X523377Y752243I268J423*
X523869Y751829J500*
G03X528302Y748106I4433J777*
X530264Y748557J4500*
G01Y603694*
G03X534308Y599217I4500*
G01Y518706*
G03X538808Y514206I4500*
X541603Y515180J4500*
G01Y454383*
G03X544807Y450073I4500*
G01Y442896*
G03X546827Y439420I4000*
G02X547080Y438986I247J434*
X546979Y438685I500*
G03X546174Y436277I3195J2408*
X547131Y433681I4000*
G02X547250Y433357I381J324*
X547016Y432934I500*
G03X545145Y429547I2129J3387*
X549145Y425547I4000*
X552276Y427057J4000*
G01Y307088*
G03X555769Y303120I4000*
G01Y291903*
G03X560269Y287403I4500*
X561177Y287495J4500*
G01Y279492*
G03X565677Y274992I4500*
X566269Y275031J4500*
G01Y95483*
G03X570769Y90983I4500*
X575269Y95483J4500*
X570769Y99983I4500*
X566269Y95483J4500*
G01Y275031*
G03X569356Y276901I592J4461*
G02X569765Y277113I409J288*
X570142Y276941J500*
G03X573539Y275392I3397J2951*
X573650Y275393J4500*
G01Y214600*
G03X582400Y205850I8750*
X586923Y207110J8750*
G02X587182Y207182I259J428*
X587682Y206682J500*
X587610Y206423I500*
G03X586350Y201900I7490J4523*
X587610Y197377I8750*
G02X587682Y197118I428J259*
X587182Y196618I500*
X586923Y196690J500*
G03X582400Y197950I4523J7490*
X573650Y189200J8750*
X582400Y180450I8750*
X587237Y181908J8750*
G02X587513Y181992I276J416*
X588013Y181492J500*
X587923Y181206I500*
G03X586350Y176200I7177J5006*
X587370Y172100I8750*
G02X587428Y171866I442J234*
X586928Y171366I500*
X586683Y171430J500*
G03X582400Y172550I4283J7630*
X573650Y163800J8750*
X582400Y155050I8750*
X586923Y156310J8750*
G02X587182Y156382I259J428*
X587682Y155882J500*
X587610Y155623I500*
G03X586350Y151100I7490J4523*
X587610Y146577I8750*
G02X587682Y146318I428J259*
X587182Y145818I500*
X586923Y145890J500*
G03X582400Y147150I4523J7490*
X573650Y138400J8750*
X582400Y129650I8750*
X586923Y130910J8750*
G02X587182Y130982I259J428*
X587682Y130482J500*
X587610Y130223I500*
G03X586350Y125700I7490J4523*
X587610Y121177I8750*
G02X587682Y120918I428J259*
X587182Y120418I500*
X586923Y120490J500*
G03X582400Y121750I4523J7490*
X573650Y113000J8750*
X577701Y105619I8750*
G01Y64935*
G03X582201Y60435I4500*
X586701Y64935J4500*
X582201Y69435I4500*
X577701Y64935J4500*
G01Y105619*
G03X582400Y104250I4699J7381*
X591150Y113000J8750*
X589890Y117523I8750*
G02X589818Y117782I428J259*
X590318Y118282I500*
X590577Y118210J500*
G03X595100Y116950I4523J7490*
X603711Y124144J8750*
G01Y21236*
G03X608211Y16736I4500*
X612711Y21236J4500*
X608211Y25736I4500*
X603711Y21236J4500*
G01Y124144*
G03X603850Y125700I8611J1556*
X595100Y134450I8750*
X590577Y133190J8750*
G02X590318Y133118I259J428*
X589818Y133618J500*
X589890Y133877I500*
G03X591150Y138400I7490J4523*
X589890Y142923I8750*
G02X589818Y143182I428J259*
X590318Y143682I500*
X590577Y143610J500*
G03X595100Y142350I4523J7490*
X603850Y151100J8750*
X595100Y159850I8750*
X590577Y158590J8750*
G02X590318Y158518I259J428*
X589818Y159018J500*
X589890Y159277I500*
G03X591150Y163800I7490J4523*
X590130Y167900I8750*
G02X590072Y168134I442J234*
X590572Y168634I500*
X590817Y168570J500*
G03X595100Y167450I4283J7630*
X603850Y176200J8750*
X595100Y184950I8750*
X590263Y183492J8750*
G02X589987Y183408I276J416*
X589487Y183908J500*
X589577Y184194I500*
G03X591150Y189200I7177J5006*
X589890Y193723I8750*
G02X589818Y193982I428J259*
X590318Y194482I500*
X590577Y194410J500*
G03X595100Y193150I4523J7490*
X603850Y201900J8750*
X595100Y210650I8750*
X590577Y209390J8750*
G02X590318Y209318I259J428*
X589818Y209818J500*
X589890Y210077I500*
G03X591150Y214600I7490J4523*
X590453Y218023I8750*
G02X590413Y218219I460J196*
X590913Y218719I500*
X591122Y218673J500*
G03X595100Y217800I3978J8627*
X604600Y227300J9500*
X595100Y236800I9500*
X585600Y227300J9500*
X586473Y223322I9500*
G02X586519Y223113I454J209*
X586019Y222613I500*
X585823Y222653J500*
G03X582400Y223350I3423J8053*
X573650Y214600J8750*
G01Y275393*
G03X578039Y279892I111J4499*
X573539Y284392I4500*
X569860Y282483J4500*
G02X569452Y282271I408J288*
X569074Y282443J500*
G03X565677Y283992I3397J2951*
X561177Y279492J4500*
G01Y287495*
G03X564628Y290785I908J4408*
G02X565112Y291160I484J125*
X565137J500*
G01X565262Y291154*
G02X565731Y290730I25J500*
G03X570179Y286910I4448J680*
X574679Y291410J4500*
X570179Y295910I4500*
X565821Y292528J4500*
G02X565336Y292152I485J124*
X565311J500*
G01X565187Y292159*
G02X564717Y292582I25J499*
G03X560269Y296403I4448J679*
X555769Y291903J4500*
G01Y303120*
G03X556276Y303088I507J3968*
X560276Y307088J4000*
X559419Y309562I4000*
G02X559311Y309871I392J309*
X559583Y310316I500*
G03X561758Y313875I1825J3559*
X557758Y317875I4000*
X553758Y313875J4000*
X554615Y311401I4000*
G02X554722Y311092I393J309*
X554450Y310647I500*
G03X552276Y307088I1826J3559*
G01Y427057*
G03X553145Y429547I3131J2490*
X552188Y432143I4000*
G02X552068Y432468I380J325*
X552302Y432891I500*
G03X554174Y436277I2128J3386*
X552153Y439753I4000*
G02X551901Y440188I248J435*
X552001Y440489I500*
G03X552807Y442896I3194J2407*
X548807Y446896I4000*
X544807Y442896J4000*
G01Y450073*
G03X546103Y449883I1296J4310*
X550603Y454383J4500*
X549086Y457752I4500*
G02X548917Y458126I331J374*
G01Y458127*
G02X549133Y458538I500*
G03X551077Y462241I2556J3703*
X546577Y466741I4500*
X542077Y462241J4500*
X543594Y458872I4500*
G02X543762Y458498I332J374*
X543546Y458086I500*
G03X541603Y454383I2557J3703*
G01Y515180*
G03X543308Y518706I2795J3526*
X542377Y521447I4500*
G02X542273Y521752I396J305*
X542555Y522202I500*
G03X545088Y526249I1967J4047*
X540588Y530749I4500*
X536088Y526249J4500*
X537019Y523508I4500*
G02X537123Y523204I396J304*
X536841Y522754I500*
G03X534308Y518706I1967J4048*
G01Y599217*
G03X534764Y599194I456J4477*
X539264Y603694J4500*
X534764Y608194I4500*
X530264Y603694J4500*
G01Y748557*
G03X532802Y752606I1962J4049*
X528302Y757106I4500*
X525896Y756409J4500*
G02X525629Y756332I267J423*
X525136Y756745J500*
G03X520704Y760469I4432J776*
X517246Y758848J4500*
G02X516862Y758668I384J320*
X516471Y758857J500*
G03X512954Y760549I3517J2808*
X509612Y759063J4500*
G02X509241Y758898I371J335*
X508838Y759101J500*
G03X505214Y760934I3624J2667*
X500776Y757182J4500*
G02X500283Y756765I493J83*
X500103Y756799J500*
G03X498477Y757103I1626J4196*
X497152Y756904J4500*
G02X497005Y756881I147J477*
X496506Y757353J500*
G03X492013Y761599I4493J254*
X487575Y757843J4500*
G02X487082Y757425I493J82*
X486893Y757462J500*
G03X485195Y757795I1698J4167*
X482882Y757154J4500*
G02X482624Y757083I258J429*
X482153Y757418J500*
G03X477906Y760428I4247J1490*
X473406Y755928J4500*
X473468Y755186I4500*
G02X473475Y755104I493J82*
X472975Y754604I500*
X472954J500*
G03X472766Y754608I188J4496*
X468266Y750108J4500*
G01Y991000*
X475309*
Y940571*
G03X479809Y936071I4500*
X484309Y940571J4500*
X483398Y943286I4500*
G02X483297Y943588I399J302*
X483657Y944068I500*
G03X486896Y948388I1261J4320*
X482396Y952888I4500*
X477896Y948388J4500*
X478807Y945673I4500*
G02X478909Y945371I398J302*
X478549Y944891I500*
G03X475309Y940571I1260J4320*
G01Y991000*
X487264*
Y769912*
G03X491764Y765412I4500*
X496264Y769912J4500*
X491764Y774412I4500*
X487264Y769912J4500*
G01Y991000*
X491015*
Y780264*
G03X495515Y775764I4500*
X500015Y780264J4500*
X495515Y784764I4500*
X491015Y780264J4500*
G01Y991000*
X494060*
Y790531*
G03X498560Y786031I4500*
X501023Y786765J4500*
G02X501297Y786846I274J419*
X501762Y786530J500*
G03X505946Y783684I4184J1654*
X510446Y788184J4500*
X505946Y792684I4500*
X503484Y791950J4500*
G02X503210Y791869I274J419*
X502745Y792185J500*
G03X498560Y795031I4185J1654*
X494060Y790531J4500*
G01Y991000*
X499803*
Y940564*
G03X504303Y936064I4500*
X508803Y940564J4500*
X504303Y945064I4500*
X499803Y940564J4500*
G01Y991000*
X523856*
Y762849*
G03X528356Y758349I4500*
X531920Y760102J4500*
G02X532316Y760297I396J305*
X532772Y760002J500*
G03X536876Y757347I4104J1845*
X541376Y761847J4500*
X539484Y765515I4500*
G02X539274Y765922I290J407*
X539433Y766288I500*
G03X539759Y766625I3068J3293*
G02X540136Y766797I377J328*
X540533Y766600J500*
G03X543157Y764932I3578J2729*
G01Y600304*
G03X547657Y595804I4500*
X549113Y596046J4500*
G01Y540564*
G03X552645Y536169I4500*
G02X553037Y535681I108J488*
X552994Y535477I500*
G03X552603Y533644I4109J1833*
X557103Y529144I4500*
X559264Y529697J4500*
G01Y374675*
G03X563264Y370675I4000*
X563681Y370697J4000*
G01Y330801*
G03X568181Y326301I4500*
X572681Y330801J4500*
X568181Y335301I4500*
X563681Y330801J4500*
G01Y370697*
G03X566148Y371903I417J3978*
G02X566509Y372056I361J347*
X566909Y371856J500*
G03X570514Y370049I3605J2693*
X575014Y374549J4500*
X570514Y379049I4500*
X567005Y377366J4500*
G02X566615Y377179I390J313*
X566243Y377345J500*
G03X563264Y378675I2979J2670*
X559264Y374675J4000*
G01Y529697*
G03X559758Y530010I2161J3947*
G01Y411781*
G03X563233Y407816I4000*
G02X563665Y407366I66J496*
G01X563669Y407329*
G02X563671Y407283I498J46*
X563326Y406808I500*
G03X560572Y403007I1246J3801*
X564572Y399007I4000*
X568572Y403007J4000*
X568510Y403710I4000*
G02X568502Y403798I492J88*
X569002Y404298I500*
X569138Y404279J500*
G03X570333Y404109I1226J4330*
G01Y387778*
G03X574285Y383311I4500*
G02X574724Y382815I61J496*
X574681Y382611I500*
G03X574288Y380772I4107J1839*
X575447Y377758I4500*
G01Y335300*
G03X576893Y331996I4500*
G01Y289841*
G03X580893Y285841I4000*
X584893Y289841J4000*
X580893Y293841I4000*
X576893Y289841J4000*
G01Y331996*
G03X579947Y330800I3054J3304*
X584447Y335300J4500*
X579947Y339800I4500*
X575447Y335300J4500*
G01Y377758*
G03X578788Y376272I3341J3014*
X583288Y380772J4500*
X579336Y385239I4500*
G02X578897Y385735I61J496*
X578941Y385939I500*
G03X579333Y387778I4108J1839*
X579274Y388509I4500*
G02X579267Y388590I493J81*
X579767Y389090I500*
X579837Y389085J500*
G03X580471Y389040I634J4455*
X584971Y393540J4500*
X580471Y398040I4500*
X575971Y393540J4500*
X576031Y392809I4500*
G02X576037Y392728I494J81*
X575537Y392228I500*
X575467Y392233J500*
G03X574833Y392278I634J4455*
X570333Y387778J4500*
G01Y404109*
G03X570364I31J4500*
X574864Y408609J4500*
X570364Y413109I4500*
X568303Y412609J4500*
G02X568074Y412554I229J445*
X567594Y412912J500*
G03X566654Y414539I3836J1131*
G02X566517Y414884I363J345*
X566738Y415300I500*
G03X568514Y418624I2224J3324*
X566949Y421798I4000*
G02X566754Y422194I305J396*
X566900Y422547I500*
G03X568067Y425372I2833J2825*
X564067Y429372I4000*
X560067Y425372J4000*
X561632Y422198I4000*
G02X561828Y421802I304J396*
X561682Y421449I500*
G03X560514Y418624I2832J2825*
X561617Y415866I4000*
G02X561755Y415521I362J345*
X561533Y415106I500*
G03X559758Y411781I2225J3325*
G01Y530010*
G03X561603Y533644I2655J3634*
X558072Y538038I4500*
G02X557679Y538527I107J489*
X557723Y538730I500*
G03X558113Y540564I4110J1834*
X553613Y545064I4500*
X549113Y540564J4500*
G01Y596046*
G03X552157Y600304I1456J4258*
X547657Y604804I4500*
X543157Y600304J4500*
G01Y764932*
G03X544111Y764829I954J4397*
X547544Y766420J4500*
G02X547926Y766597I382J323*
X548319Y766406J500*
G03X551860Y764683I3541J2777*
X556360Y769183J4500*
X555465Y771876I4500*
G02X555365Y772176I400J300*
X555772Y772667I500*
G03X558900Y773861I1772J9333*
G01Y599000*
G03X563674Y587982I15100*
G01Y434566*
G03X568174Y430066I4500*
X572674Y434566J4500*
X571566Y437524I4500*
G02X571443Y437852I377J328*
X571697Y438288I500*
G03X573982Y442205I2215J3917*
X569482Y446705I4500*
X564982Y442205J4500*
X566090Y439247I4500*
G02X566214Y438919I376J328*
X565960Y438483I500*
G03X563674Y434566I2214J3917*
G01Y587982*
G03X573536Y583907I10326J11018*
G01Y451824*
G03X578036Y447324I4500*
X580044Y447796J4500*
G02X580267Y447849I223J447*
X580762Y447419J500*
G03X585218Y443546I4456J627*
X589718Y448046J4500*
X585218Y452546I4500*
X583210Y452073J4500*
G02X582987Y452020I223J447*
X582492Y452451J500*
G03X578036Y456324I4456J627*
X573536Y451824J4500*
G01Y583907*
G03X574000Y583900I464J15093*
X585761Y589529J15100*
G02X586150Y589715I389J314*
X586650Y589215J500*
X586635Y589094I500*
G03X586500Y588000I4365J1094*
X589038Y583950I4500*
G02X589321Y583500I217J450*
X589038Y583050I500*
G03X586500Y579000I1962J4050*
X591000Y574500I4500*
X593535Y575282J4500*
G01Y438365*
G03X598035Y433865I4500*
X602535Y438365J4500*
X598035Y442865I4500*
X593535Y438365J4500*
G01Y575282*
G03X595050Y577039I2535J3718*
G02X595500Y577321I450J218*
X595950Y577039J500*
G03X600000Y574500I4050J1961*
X604050Y577038J4500*
G02X604500Y577321I450J217*
X604950Y577039J500*
G03X607809Y574660I4050J1961*
G01Y380546*
G03X612309Y376046I4500*
X616809Y380546J4500*
X612309Y385046I4500*
X607809Y380546J4500*
G01Y574660*
G03X609000Y574500I1191J4340*
X613500Y579000J4500*
X610962Y583050I4500*
G02X610679Y583500I217J450*
X610962Y583950I500*
G03X613500Y588000I1962J4050*
X610962Y592050I4500*
G02X610679Y592500I217J450*
X610962Y592950I500*
G03X613500Y597000I1962J4050*
X609000Y601500I4500*
X604950Y598962J4500*
G02X604500Y598679I450J217*
X604050Y598961J500*
G03X600000Y601500I4050J1961*
X595950Y598962J4500*
G02X595500Y598679I450J217*
X595050Y598961J500*
G03X591000Y601500I4050J1961*
X589524Y601251J4500*
G02X589360Y601224I164J473*
X588868Y601636J500*
G03X574000Y614100I14868J2636*
X558900Y599000J15100*
G01Y773861*
G03X563500Y782000I4900J8139*
X554000Y791500I9500*
X545267Y785739J9500*
G02X544807Y785436I460J197*
X544445Y785591J500*
G03X541188Y786987I3257J3104*
X537679Y785304J4500*
G02X537289Y785117I390J313*
X536904Y785298J500*
G03X533438Y786928I3466J2870*
X528938Y782428J4500*
X533438Y777928I4500*
X536947Y779611J4500*
G02X537336Y779798I389J313*
X537722Y779617J500*
G03X541188Y777987I3466J2870*
X544200Y779144J4500*
G02X544535Y779273I335J371*
X545008Y778934J500*
G03X549292Y773749I8992J3066*
G02X549544Y773315I248J434*
X549325Y772901I500*
G03X548427Y772092I2535J3718*
G02X548045Y771915I382J323*
X547652Y772107J500*
G03X544111Y773829I3541J2778*
X540718Y772285J4500*
G02X540341Y772113I377J328*
X539943Y772310J500*
G03X536365Y774081I3578J2729*
X531865Y769581J4500*
X533758Y765913I4500*
G02X533968Y765506I290J407*
X533809Y765140I500*
G03X533312Y764594I3067J3292*
G02X532916Y764399I396J305*
X532460Y764694J500*
G03X528356Y767349I4104J1845*
X523856Y762849J4500*
G01Y991000*
X532019*
Y902103*
G03X536519Y897603I4500*
X537334Y897677J4500*
G01Y811333*
G03X541834Y806833I4500*
X546334Y811333J4500*
X541834Y815833I4500*
X537334Y811333J4500*
G01Y897677*
G03X541019Y902103I815J4426*
X536519Y906603I4500*
X532019Y902103J4500*
G01Y991000*
X547409*
Y856265*
G03X554653Y840126I21600*
G01Y808528*
G03X559153Y804028I4500*
X563653Y808528J4500*
X559153Y813028I4500*
X554653Y808528J4500*
G01Y840126*
G03X569009Y834665I14356J16139*
X590609Y856265J21600*
X569009Y877865I21600*
X547409Y856265J21600*
G01Y991000*
X568850*
Y911206*
G03X579950Y900106I11100*
X591050Y911206J11100*
X579950Y922306I11100*
X568850Y911206J11100*
G01Y991000*
X595250*
Y782000*
G03X604000Y773250I8750*
X612750Y782000J8750*
X604000Y790750I8750*
X595250Y782000J8750*
G01Y991000*
X598500*
Y798500*
G03X603000Y794000I4500*
X607050Y796538J4500*
G02X607500Y796821I450J217*
X607950Y796539J500*
G03X612000Y794000I4050J1961*
X614950Y795102J4500*
G01Y575625*
G03X619713Y565639I12850*
G01Y453748*
G03X624213Y449248I4500*
X625000Y449318J4500*
G01Y400036*
G03X626074Y397118I4500*
G01Y370635*
G03X626200Y369579I4500*
G01Y227300*
G03X635700Y217800I9500*
X639678Y218673J9500*
G02X639887Y218719I209J454*
X640387Y218219J500*
X640347Y218023I500*
G03X639650Y214600I8053J3423*
X640910Y210077I8750*
G02X640982Y209818I428J259*
X640482Y209318I500*
X640223Y209390J500*
G03X635700Y210650I4523J7490*
X626950Y201900J8750*
X635700Y193150I8750*
X640223Y194410J8750*
G02X640482Y194482I259J428*
X640982Y193982J500*
X640910Y193723I500*
G03X639650Y189200I7490J4523*
X640910Y184677I8750*
G02X640982Y184418I428J259*
X640482Y183918I500*
X640223Y183990J500*
G03X635700Y185250I4523J7490*
X626950Y176500J8750*
X635700Y167750I8750*
X640223Y169010J8750*
G02X640482Y169082I259J428*
X640982Y168582J500*
X640910Y168323I500*
G03X639650Y163800I7490J4523*
X640910Y159277I8750*
G02X640982Y159018I428J259*
X640482Y158518I500*
X640223Y158590J500*
G03X635700Y159850I4523J7490*
X626950Y151100J8750*
X635700Y142350I8750*
X640223Y143610J8750*
G02X640482Y143682I259J428*
X640982Y143182J500*
X640910Y142923I500*
G03X639650Y138400I7490J4523*
X640910Y133877I8750*
G02X640982Y133618I428J259*
X640482Y133118I500*
X640223Y133190J500*
G03X635700Y134450I4523J7490*
X626950Y125700J8750*
X635700Y116950I8750*
X640223Y118210J8750*
G02X640482Y118282I259J428*
X640982Y117782J500*
X640910Y117523I500*
G03X639650Y113000I7490J4523*
X648400Y104250I8750*
X650800Y104586J8750*
G01Y66000*
G03X663032Y46537I21600*
G01Y23575*
G03X667532Y19075I4500*
X672032Y23575J4500*
X667532Y28075I4500*
X663032Y23575J4500*
G01Y46537*
G03X672400Y44400I9368J19463*
X688050Y51113J21600*
G01Y20300*
G03X700300Y8050I12250*
X712550Y20300J12250*
X700300Y32550I12250*
X688050Y20300J12250*
G01Y51113*
G03X694000Y66000I15650J14887*
X672400Y87600I21600*
X650800Y66000J21600*
G01Y104586*
G03X657150Y113000I2400J8414*
X648400Y121750I8750*
X643877Y120490J8750*
G02X643618Y120418I259J428*
X643118Y120918J500*
X643190Y121177I500*
G03X644450Y125700I7490J4523*
X643190Y130223I8750*
G02X643118Y130482I428J259*
X643618Y130982I500*
X643877Y130910J500*
G03X648400Y129650I4523J7490*
X657150Y138400J8750*
X648400Y147150I8750*
X643877Y145890J8750*
G02X643618Y145818I259J428*
X643118Y146318J500*
X643190Y146577I500*
G03X644450Y151100I7490J4523*
X643190Y155623I8750*
G02X643118Y155882I428J259*
X643618Y156382I500*
X643877Y156310J500*
G03X648400Y155050I4523J7490*
X657150Y163800J8750*
X648400Y172550I8750*
X643877Y171290J8750*
G02X643618Y171218I259J428*
X643118Y171718J500*
X643190Y171977I500*
G03X644450Y176500I7490J4523*
X643190Y181023I8750*
G02X643118Y181282I428J259*
X643618Y181782I500*
X643877Y181710J500*
G03X648400Y180450I4523J7490*
X657150Y189200J8750*
X648400Y197950I8750*
X643877Y196690J8750*
G02X643618Y196618I259J428*
X643118Y197118J500*
X643190Y197377I500*
G03X644450Y201900I7490J4523*
X643190Y206423I8750*
G02X643118Y206682I428J259*
X643618Y207182I500*
X643877Y207110J500*
G03X648400Y205850I4523J7490*
X657150Y214600J8750*
X648400Y223350I8750*
X644977Y222653J8750*
G02X644781Y222613I196J460*
X644281Y223113J500*
X644327Y223322I500*
G03X645200Y227300I8627J3978*
X635700Y236800I9500*
X626200Y227300J9500*
G01Y369579*
G03X630574Y366135I4374J1056*
X633735Y367433J4500*
G01Y327279*
G03X638235Y322779I4500*
X642735Y327279J4500*
X638235Y331779I4500*
X633735Y327279J4500*
G01Y367433*
G03X635074Y370635I3161J3202*
X630574Y375135I4500*
X626074Y370635J4500*
G01Y397118*
G03X629500Y395536I3426J2918*
X634000Y400036J4500*
X629500Y404536I4500*
X625000Y400036J4500*
G01Y449318*
G03X628713Y453748I787J4430*
X624213Y458248I4500*
X619713Y453748J4500*
G01Y565639*
G03X627800Y562775I8087J9986*
X629000Y562831J12850*
G01Y496000*
G03X633500Y491500I4500*
X637074Y493266J4500*
G01Y366345*
G03X641574Y361845I4500*
X646072Y366193J4500*
G01Y339190*
G03X650572Y334690I4500*
X655072Y339190J4500*
X650572Y343690I4500*
X646072Y339190J4500*
G01Y366193*
G03X646074Y366345I4498J152*
X644082Y370082I4500*
G02X643861Y370497I279J415*
X644089Y370917I500*
G03X646147Y374696I2442J3779*
X641647Y379196I4500*
X637147Y374696J4500*
X639139Y370960I4500*
G02X639361Y370545I278J415*
X639132Y370125I500*
G03X637074Y366345I2442J3780*
G01Y493266*
G03X638000Y496000I3574J2734*
X633500Y500500I4500*
X629000Y496000J4500*
G01Y562831*
G03X640650Y575625I1200J12794*
X627800Y588475I12850*
X614950Y575625J12850*
G01Y795102*
G03X616050Y796538I2950J3398*
G02X616500Y796821I450J217*
X616950Y796539J500*
G03X619038Y794450I4050J1961*
G02X619321Y794000I217J450*
X619038Y793550I500*
G03X616500Y789500I1962J4050*
X619038Y785450I4500*
G02X619321Y785000I217J450*
X619038Y784550I500*
G03X616500Y780500I1962J4050*
X621000Y776000I4500*
X625050Y778538J4500*
G02X625500Y778821I450J217*
G01Y721500*
G03X628038Y717450I4500*
G02X628321Y717000I217J450*
X628038Y716550I500*
G03X625500Y712500I1962J4050*
X628038Y708450I4500*
G02X628321Y708000I217J450*
X628038Y707550I500*
G03X625500Y703500I1962J4050*
X628038Y699450I4500*
G02X628321Y699000I217J450*
X628038Y698550I500*
G03X625500Y694500I1962J4050*
X630000Y690000I4500*
X634500Y694500J4500*
X631962Y698550I4500*
G02X631679Y699000I217J450*
X631962Y699450I500*
G03X634500Y703500I1962J4050*
X631962Y707550I4500*
G02X631679Y708000I217J450*
X631962Y708450I500*
G03X634500Y712500I1962J4050*
X631962Y716550I4500*
G02X631679Y717000I217J450*
X631962Y717450I500*
G03X634500Y721500I1962J4050*
X630000Y726000I4500*
X625500Y721500J4500*
G01Y778821*
G02X625950Y778539J500*
G03X630000Y776000I4050J1961*
X634500Y780500J4500*
X631962Y784550I4500*
G02X631679Y785000I217J450*
X631962Y785450I500*
G03X634500Y789500I1962J4050*
X631962Y793550I4500*
G02X631679Y794000I217J450*
X631962Y794450I500*
G03X634500Y798500I1962J4050*
X631962Y802550I4500*
G02X631679Y803000I217J450*
X631962Y803450I500*
G03X634500Y807500I1962J4050*
X630000Y812000I4500*
X625950Y809462J4500*
G02X625500Y809179I450J217*
X625050Y809461J500*
G03X621000Y812000I4050J1961*
X616950Y809462J4500*
G02X616500Y809179I450J217*
X616050Y809461J500*
G03X612000Y812000I4050J1961*
X607500Y807500J4500*
X610038Y803450I4500*
G02X610321Y803000I217J450*
X610038Y802550I500*
G03X607950Y800462I1962J4050*
G02X607500Y800179I450J217*
X607050Y800461J500*
G03X603000Y803000I4050J1961*
X598500Y798500J4500*
G01Y991000*
X615382*
Y951109*
G03X619882Y946609I4500*
X624382Y951109J4500*
X619882Y955609I4500*
X615382Y951109J4500*
G01Y991000*
X641000*
Y496000*
G03X645500Y491500I4500*
X650000Y496000J4500*
X645500Y500500I4500*
X641000Y496000J4500*
G01Y991000*
X641027*
Y594745*
G03X644965Y590280I4500*
G01Y513071*
G03X649465Y508571I4500*
X652739Y509984J4500*
G01Y368632*
G03X654707Y364912I4500*
G02X654925Y364499I282J413*
X654773Y364140I500*
G03X653408Y360911I3135J3229*
X657908Y356411I4500*
X658743Y356489J4500*
G01Y260285*
G03X663243Y255785I4500*
X667743Y260285J4500*
X663243Y264785I4500*
X658743Y260285J4500*
G01Y356489*
G03X662408Y360911I835J4422*
X660440Y364631I4500*
G02X660221Y365044I281J413*
X660373Y365403I500*
G03X660939Y366072I3134J3229*
G02X661350Y366287I411J285*
X661712Y366133J500*
G03X664965Y364742I3253J3109*
X665013J4500*
G01Y330851*
G03X669513Y326351I4500*
X674013Y330851J4500*
X669513Y335351I4500*
X665013Y330851J4500*
G01Y364742*
G03X669465Y369242I48J4500*
X664965Y373742I4500*
X661264Y371803J4500*
G02X660853Y371587I411J284*
X660492Y371742J500*
G03X657239Y373132I3253J3110*
X652739Y368632J4500*
G01Y509984*
G03X653000Y510287I3274J3087*
G01Y496000*
G03X657500Y491500I4500*
X662000Y496000J4500*
X657500Y500500I4500*
X653000Y496000J4500*
G01Y510287*
G03X653965Y513071I3535J2784*
X653726Y514516I4500*
G02X653700Y514676I474J160*
X654138Y515172I500*
G03X658080Y519638I558J4466*
X653580Y524138I4500*
X649080Y519638J4500*
X649319Y518193I4500*
G02X649345Y518032I474J161*
X648907Y517536I500*
G03X644965Y513071I558J4465*
G01Y590280*
G03X645527Y590245I562J4465*
X650027Y594745J4500*
X649486Y596884I4500*
G02X649426Y597122I440J238*
X649916Y597622I500*
G03X654332Y602121I84J4499*
X649832Y606621I4500*
X645332Y602121J4500*
X645874Y599982I4500*
G02X645934Y599744I440J238*
X645443Y599244I500*
G03X641027Y594745I84J4499*
G01Y991000*
X643500*
Y807500*
G03X646038Y803450I4500*
G02X646321Y803000I217J450*
X646038Y802550I500*
G03X643500Y798500I1962J4050*
X646038Y794450I4500*
G02X646321Y794000I217J450*
X646038Y793550I500*
G03X643500Y789500I1962J4050*
X646038Y785450I4500*
G02X646321Y785000I217J450*
X646038Y784550I500*
G03X643500Y780500I1962J4050*
G01Y721500*
G03X646038Y717450I4500*
G02X646321Y717000I217J450*
X646038Y716550I500*
G03X643500Y712500I1962J4050*
X646038Y708450I4500*
G02X646321Y708000I217J450*
X646038Y707550I500*
G03X643500Y703500I1962J4050*
X646038Y699450I4500*
G02X646321Y699000I217J450*
X646038Y698550I500*
G03X643500Y694500I1962J4050*
X648000Y690000I4500*
X652500Y694500J4500*
X649962Y698550I4500*
G02X649679Y699000I217J450*
X649962Y699450I500*
G03X652500Y703500I1962J4050*
X649962Y707550I4500*
G02X649679Y708000I217J450*
X649962Y708450I500*
G03X652500Y712500I1962J4050*
X649962Y716550I4500*
G02X649679Y717000I217J450*
X649962Y717450I500*
G03X652500Y721500I1962J4050*
X648000Y726000I4500*
X643500Y721500J4500*
G01Y780500*
G03X648000Y776000I4500*
X652500Y780500J4500*
X649962Y784550I4500*
G02X649679Y785000I217J450*
X649962Y785450I500*
G03X652500Y789500I1962J4050*
X649962Y793550I4500*
G02X649679Y794000I217J450*
X649962Y794450I500*
G03X652500Y798500I1962J4050*
X649962Y802550I4500*
G02X649679Y803000I217J450*
X649962Y803450I500*
G03X652500Y807500I1962J4050*
X648000Y812000I4500*
X643500Y807500J4500*
G01Y991000*
X660844*
Y593489*
G03X662203Y590266I4500*
G01Y392856*
G03X666703Y388356I4500*
X671203Y392856J4500*
X666703Y397356I4500*
X662203Y392856J4500*
G01Y590266*
G03X665000Y589002I3141J3223*
G01Y496000*
G03X669500Y491500I4500*
X674000Y496000J4500*
X669500Y500500I4500*
X665000Y496000J4500*
G01Y589002*
G03X665344Y588989I344J4487*
X668026Y589876J4500*
G02X668324Y589975I298J401*
X668665Y589841J500*
G01Y549156*
G03X673165Y544656I4500*
X677000Y546802J4500*
G01Y496000*
G03X681500Y491500I4500*
X684484Y492632J4500*
G01Y330409*
G03X685280Y327853I4500*
G01Y315014*
G03X688050Y310860I4500*
G01Y180300*
G03X700300Y168050I12250*
X712550Y180300J12250*
X700300Y192550I12250*
X688050Y180300J12250*
G01Y310860*
G03X689780Y310514I1730J4154*
X694280Y315014J4500*
X689780Y319514I4500*
X685280Y315014J4500*
G01Y327853*
G03X688984Y325909I3704J2556*
X693484Y330409J4500*
X688984Y334909I4500*
X684484Y330409J4500*
G01Y492632*
G03X686000Y496000I2984J3368*
X681500Y500500I4500*
X677000Y496000J4500*
G01Y546802*
G03X677665Y549156I3835J2354*
X673165Y553656I4500*
X668665Y549156J4500*
G01Y589841*
G02X668808Y589601I341J366*
G03X678000Y582500I9192J2399*
X687284Y589987J9500*
G02X687773Y590381I489J106*
X687999Y590327J500*
G03X689145Y589929I2036J4013*
G01Y520079*
G03X693645Y515579I4500*
X697132Y517236J4500*
G02X697520Y517420I388J316*
X697907Y517236J500*
G03X701395Y515579I3488J2843*
X705895Y520079J4500*
X701395Y524579I4500*
X697907Y522923J4500*
G02X697520Y522739I387J316*
X697132Y522923J500*
G03X693645Y524579I3487J2844*
X689145Y520079J4500*
G01Y589929*
G03X690035Y589840I890J4411*
X694535Y594340J4500*
X690035Y598840I4500*
X686644Y597298J4500*
G02X686267Y597127I377J329*
X685854Y597345J500*
G03X678000Y601500I7854J5345*
X669616Y596467J9500*
G02X669175Y596202I441J235*
X668792Y596381J500*
G03X667806Y597256I3448J2892*
G02X667579Y597675I273J419*
X667845Y598116I500*
G03X670237Y602092I2108J3976*
X665737Y606592I4500*
X661237Y602092J4500*
X663275Y598325I4500*
G02X663501Y597907I274J418*
X663236Y597465I500*
G03X660844Y593489I2108J3976*
G01Y991000*
X669250*
Y642000*
G03X678000Y633250I8750*
X686750Y642000J8750*
X678000Y650750I8750*
X669250Y642000J8750*
G01Y991000*
X670500*
Y721500*
G03X673038Y717450I4500*
G02X673321Y717000I217J450*
X673038Y716550I500*
G03X670500Y712500I1962J4050*
X673038Y708450I4500*
G02X673321Y708000I217J450*
X673038Y707550I500*
G03X670500Y703500I1962J4050*
X673038Y699450I4500*
G02X673321Y699000I217J450*
X673038Y698550I500*
G03X670500Y694500I1962J4050*
X675000Y690000I4500*
X679050Y692538J4500*
G02X679500Y692821I450J217*
X679950Y692539J500*
G03X684000Y690000I4050J1961*
X688050Y692538J4500*
G02X688500Y692821I450J217*
X688950Y692539J500*
G03X693000Y690000I4050J1961*
X693295Y690010J4500*
G01Y602098*
G03X697795Y597598I4500*
X702295Y602098J4500*
X697795Y606598I4500*
X693295Y602098J4500*
G01Y690010*
G03X697500Y694500I295J4490*
X694962Y698550I4500*
G02X694679Y699000I217J450*
X694962Y699450I500*
G03X697500Y703500I1962J4050*
X694962Y707550I4500*
G02X694679Y708000I217J450*
X694962Y708450I500*
G03X697500Y712500I1962J4050*
X694962Y716550I4500*
G02X694679Y717000I217J450*
X694962Y717450I500*
G03X697500Y721500I1962J4050*
X693000Y726000I4500*
X688950Y723462J4500*
G02X688500Y723179I450J217*
X688050Y723461J500*
G03X684000Y726000I4050J1961*
X679950Y723462J4500*
G02X679500Y723179I450J217*
X679050Y723461J500*
G03X675000Y726000I4050J1961*
X670500Y721500J4500*
G01Y991000*
X676500*
Y844500*
G03X679038Y840450I4500*
G02X679321Y840000I217J450*
X679038Y839550I500*
G03X676500Y835500I1962J4050*
X679038Y831450I4500*
G02X679321Y831000I217J450*
X679038Y830550I500*
G03X676500Y826500I1962J4050*
X681000Y822000I4500*
X685050Y824538J4500*
G02X685500Y824821I450J217*
X685950Y824539J500*
G03X690000Y822000I4050J1961*
X694050Y824538J4500*
G02X694500Y824821I450J217*
X694950Y824539J500*
G03X699000Y822000I4050J1961*
X703500Y826500J4500*
X700962Y830550I4500*
G02X700679Y831000I217J450*
X700962Y831450I500*
G03X703500Y835500I1962J4050*
X700962Y839550I4500*
G02X700679Y840000I217J450*
X700962Y840450I500*
G03X703500Y844500I1962J4050*
X699000Y849000I4500*
X694950Y846462J4500*
G02X694500Y846179I450J217*
X694050Y846461J500*
G03X690000Y849000I4050J1961*
X685950Y846462J4500*
G02X685500Y846179I450J217*
X685050Y846461J500*
G03X681000Y849000I4050J1961*
X676500Y844500J4500*
G01Y991000*
X677040*
Y854981*
G03X681540Y850481I4500*
X686040Y854981J4500*
X681540Y859481I4500*
X677040Y854981J4500*
G01Y873033*
G03X681540Y868533I4500*
X686040Y873033J4500*
X681540Y877533I4500*
X677040Y873033J4500*
G01Y991000*
X681547*
Y956289*
G03X686047Y951789I4500*
X690547Y956289J4500*
X686047Y960789I4500*
X681547Y956289J4500*
G01Y991000*
X705669*
Y956221*
G03X710169Y951721I4500*
X710950Y951790J4500*
G01Y575625*
G03X712728Y569103I12850*
G01Y433358*
G03X714600Y429706I4500*
G01Y67000*
G03X723850Y57750I9250*
X733100Y67000J9250*
X723850Y76250I9250*
X714600Y67000J9250*
G01Y147000*
G03X723850Y137750I9250*
X733100Y147000J9250*
X723850Y156250I9250*
X714600Y147000J9250*
G01Y227000*
G03X723850Y217750I9250*
X733100Y227000J9250*
X723850Y236250I9250*
X714600Y227000J9250*
G01Y307000*
G03X723850Y297750I9250*
X733100Y307000J9250*
X723850Y316250I9250*
X714600Y307000J9250*
G01Y387000*
G03X723850Y377750I9250*
X733100Y387000J9250*
X723850Y396250I9250*
X714600Y387000J9250*
G01Y429706*
G03X717228Y428858I2628J3652*
X721728Y433358J4500*
X717228Y437858I4500*
X712728Y433358J4500*
G01Y569103*
G03X723800Y562775I11072J6522*
X725000Y562831J12850*
G01Y488000*
G03X740100Y472900I15100*
X754600Y483786J15100*
G01Y465200*
G03X761100Y458700I6500*
X763350Y459102J6500*
G01Y451300*
G03X769100Y445550I5750*
X771922Y446290J5750*
G01Y23574*
G03X776422Y19074I4500*
X780922Y23574J4500*
X776422Y28074I4500*
X771922Y23574J4500*
G01Y446290*
G03X774850Y451300I2822J5010*
X769100Y457050I5750*
X763350Y451300J5750*
G01Y459102*
G03X767600Y465200I2250J6098*
X761100Y471700I6500*
X754600Y465200J6500*
G01Y483786*
G03X755196Y487654I14500J4214*
G02X755696Y488142I500J12*
X755796Y488132J500*
G03X757100Y488000I1304J6368*
X758600Y488175J6500*
G01Y480700*
G03X765100Y474200I6500*
X771350Y478915J6500*
G01Y465200*
G03X775000Y459847I5750*
G01Y147000*
G03X795100Y126900I20100*
X815200Y147000J20100*
X795100Y167100I20100*
X775000Y147000J20100*
G01Y459847*
G03X777100Y459450I2100J5353*
X778600Y459649J5750*
G01Y451300*
G03X785100Y444800I6500*
X791600Y451300J6500*
X785100Y457800I6500*
X778600Y451300J6500*
G01Y459649*
G03X782850Y465200I1500J5551*
X777100Y470950I5750*
X771350Y465200J5750*
G01Y478915*
G03X771600Y480700I6250J1785*
X765100Y487200I6500*
X758600Y480700J6500*
G01Y488175*
G03X763600Y494500I1500J6325*
X757100Y501000I6500*
X751880Y498374J6500*
G02X751479Y498172I401J298*
X751114Y498330J500*
G03X740100Y503100I11014J10330*
X725000Y488000J15100*
G01Y562831*
G03X736650Y575625I1200J12794*
X723800Y588475I12850*
X710950Y575625J12850*
G01Y951790*
G03X714669Y956221I781J4431*
X710169Y960721I4500*
X705669Y956221J4500*
G01Y991000*
X715198*
Y949548*
G03X719698Y945048I4500*
X724198Y949548J4500*
X719698Y954048I4500*
X715198Y949548J4500*
G01Y991000*
X745850*
Y583300*
G03X750600Y575218I9250*
G01Y553200*
G03X754600Y547200I6500*
G01Y523900*
G03X761100Y517400I6500*
X763350Y517802J6500*
G01Y510000*
G03X767350Y504523I5750*
G01Y494500*
G03X773100Y488750I5750*
X775350Y489208J5750*
G01Y480700*
G03X781100Y474950I5750*
X786850Y480700J5750*
X781100Y486450I5750*
X775350Y480700J5750*
G01Y489209*
G03X778850Y494500I2250J5291*
X773100Y500250I5750*
X767350Y494500J5750*
G01Y504523*
G03X769100Y504250I1750J5477*
X774850Y510000J5750*
X769100Y515750I5750*
X763350Y510000J5750*
G01Y517802*
G03X767600Y523900I2250J6098*
X761100Y530400I6500*
X754600Y523900J6500*
G01Y547200*
G03X757100Y546700I2500J6000*
X759350Y547102J6500*
G01Y539400*
G03X765100Y533650I5750*
X770850Y539400J5750*
X765100Y545150I5750*
X759350Y539400J5750*
G01Y547102*
G03X763600Y553200I2250J6098*
X757100Y559700I6500*
X750600Y553200J6500*
G01Y575218*
G03X755100Y574050I4500J8082*
X764350Y583300J9250*
X755100Y592550I9250*
X745850Y583300J9250*
G01Y991000*
X767350*
Y553200*
G03X771350Y547723I5750*
G01Y523900*
G03X777100Y518150I5750*
X779350Y518608J5750*
G01Y510000*
G03X783350Y504523I5750*
G01Y494500*
G03X787350Y489023I5750*
G01Y465200*
G03X793100Y459450I5750*
X795350Y459908J5750*
G01Y451300*
G03X801100Y445550I5750*
X806850Y451300J5750*
X801100Y457050I5750*
X795350Y451300J5750*
G01Y459909*
G03X798850Y465200I2250J5291*
X793100Y470950I5750*
X787350Y465200J5750*
G01Y489023*
G03X789100Y488750I1750J5477*
X791350Y489209J5750*
G01Y480700*
G03X797100Y474950I5750*
X802600Y479023J5750*
G01Y465200*
G03X809100Y458700I6500*
X811350Y459102J6500*
G01Y451300*
G03X817100Y445550I5750*
X822850Y451300J5750*
X817100Y457050I5750*
X811350Y451300J5750*
G01Y459102*
G03X815600Y465200I2250J6098*
X809100Y471700I6500*
X802600Y465200J6500*
G01Y479023*
G03X802850Y480700I5500J1677*
X797100Y486450I5750*
X791350Y480700J5750*
G01Y489209*
G03X794850Y494500I2250J5291*
X789100Y500250I5750*
X783350Y494500J5750*
G01Y504523*
G03X785100Y504250I1750J5477*
X790850Y510000J5750*
X785100Y515750I5750*
X779350Y510000J5750*
G01Y518609*
G03X782850Y523900I2250J5291*
X777100Y529650I5750*
X771350Y523900J5750*
G01Y547723*
G03X773100Y547450I1750J5477*
X774600Y547649J5750*
G01Y539400*
G03X781100Y532900I6500*
X787350Y537615J6500*
G01Y523900*
G03X793100Y518150I5750*
X795350Y518608J5750*
G01Y510000*
G03X799350Y504523I5750*
G01Y494500*
G03X805100Y488750I5750*
X807350Y489208J5750*
G01Y480700*
G03X813100Y474950I5750*
X818850Y480700J5750*
X813100Y486450I5750*
X807350Y480700J5750*
G01Y489209*
G03X810850Y494500I2250J5291*
X805100Y500250I5750*
X799350Y494500J5750*
G01Y504523*
G03X801100Y504250I1750J5477*
X806850Y510000J5750*
X801100Y515750I5750*
X795350Y510000J5750*
G01Y518609*
G03X798850Y523900I2250J5291*
X793100Y529650I5750*
X787350Y523900J5750*
G01Y537615*
G03X787600Y539400I6250J1785*
X781100Y545900I6500*
X774600Y539400J6500*
G01Y547649*
G03X778850Y553200I1500J5551*
X773100Y558950I5750*
X767350Y553200J5750*
G01Y991000*
X775000*
Y608000*
G03X783350Y591692I20100*
G01Y553200*
G03X789100Y547450I5750*
X791350Y547908J5750*
G01Y539400*
G03X797100Y533650I5750*
X802850Y539400J5750*
X797100Y545150I5750*
X791350Y539400J5750*
G01Y547909*
G03X794850Y553200I2250J5291*
X789100Y558950I5750*
X783350Y553200J5750*
G01Y591692*
G03X787371Y589446I11750J16308*
G02X787678Y588984I193J462*
X787585Y588693I500*
G03X785850Y583300I7515J5393*
X795100Y574050I9250*
X798600Y574738J9250*
G01Y553200*
G03X803350Y546940I6500*
G01Y523900*
G03X809100Y518150I5750*
X811350Y518608J5750*
G01Y510000*
G03X815350Y504523I5750*
G01Y494500*
G03X819350Y489023I5750*
G01Y465200*
G03X825100Y459450I5750*
X826600Y459649J5750*
G01Y451300*
G03X833100Y444800I6500*
X839600Y451300J6500*
X833100Y457800I6500*
X826600Y451300J6500*
G01Y459649*
G03X830850Y465200I1500J5551*
X825100Y470950I5750*
X819350Y465200J5750*
G01Y489023*
G03X821100Y488750I1750J5477*
X822600Y488949J5750*
G01Y480700*
G03X829100Y474200I6500*
X831999Y474882J6500*
G01Y464276*
G03X836499Y459776I4500*
X840769Y462857J4500*
G01Y23574*
G03X845269Y19074I4500*
X849769Y23574J4500*
X845269Y28074I4500*
X840769Y23574J4500*
G01Y462857*
G03X840999Y464276I4270J1419*
X840097Y466979I4500*
G02X839997Y467280I400J301*
X840283Y467732I500*
G03X842860Y471800I1923J4068*
X838360Y476300I4500*
X833860Y471800J4500*
X834762Y469097I4500*
G02X834862Y468797I400J300*
X834576Y468345I500*
G03X831999Y464276I1923J4069*
G01Y474882*
G03X835600Y480700I2899J5818*
X829100Y487200I6500*
X822600Y480700J6500*
G01Y488949*
G03X826850Y494500I1500J5551*
X821100Y500250I5750*
X815350Y494500J5750*
G01Y504523*
G03X817100Y504250I1750J5477*
X822850Y510000J5750*
X817100Y515750I5750*
X811350Y510000J5750*
G01Y518609*
G03X814850Y523900I2250J5291*
X809100Y529650I5750*
X803350Y523900J5750*
G01Y546940*
G03X805100Y546700I1750J6260*
X807350Y547102J6500*
G01Y539400*
G03X813100Y533650I5750*
X818600Y537723J5750*
G01Y523900*
G03X825100Y517400I6500*
X826600Y517575J6500*
G01Y510000*
G03X833100Y503500I6500*
X839600Y510000J6500*
X833100Y516500I6500*
X826600Y510000J6500*
G01Y517575*
G03X831600Y523900I1500J6325*
X825100Y530400I6500*
X818600Y523900J6500*
G01Y537723*
G03X818850Y539400I5500J1677*
X813100Y545150I5750*
X807350Y539400J5750*
G01Y547102*
G03X811600Y553200I2250J6098*
X805100Y559700I6500*
X798600Y553200J6500*
G01Y574738*
G03X804350Y583300I3500J8562*
X802615Y588693I9250*
G02X802522Y588984I407J291*
X802829Y589446I500*
G03X815200Y608000I7729J18554*
X795100Y628100I20100*
X775000Y608000J20100*
G01Y991000*
X782670*
Y674255*
G03X787170Y669755I4500*
X791670Y674255J4500*
X787170Y678755I4500*
X782670Y674255J4500*
G01Y991000*
X815350*
Y553200*
G03X821100Y547450I5750*
X822600Y547649J5750*
G01Y539400*
G03X829100Y532900I6500*
X835600Y539400J6500*
X829100Y545900I6500*
X822600Y539400J6500*
G01Y547649*
G03X826850Y553200I1500J5551*
X821100Y558950I5750*
X815350Y553200J5750*
G01Y991000*
X817450*
G02X817950Y990500J500*
G01Y990326*
G03X819200Y989076I1250*
G01X825850*
Y583300*
G03X835100Y574050I9250*
X839686Y575267J9250*
G02X839934Y575333I248J434*
X840434Y574833J500*
X840260Y574454I500*
G03X835000Y563000I9840J11454*
X848356Y548001I15100*
G01Y498119*
G03X852856Y493619I4500*
X853496Y493665J4500*
G02X853567Y493670I71J495*
X854067Y493170J500*
X854065Y493123I500*
G03X854045Y492701I4480J422*
X857100Y488439I4500*
G01Y67000*
G03X866350Y57750I9250*
X875600Y67000J9250*
X866350Y76250I9250*
X857100Y67000J9250*
G01Y147000*
G03X866350Y137750I9250*
X875600Y147000J9250*
X866350Y156250I9250*
X857100Y147000J9250*
G01Y227000*
G03X866350Y217750I9250*
X875600Y227000J9250*
X866350Y236250I9250*
X857100Y227000J9250*
G01Y307000*
G03X866350Y297750I9250*
X875600Y307000J9250*
X866350Y316250I9250*
X857100Y307000J9250*
G01Y387000*
G03X866350Y377750I9250*
X875600Y387000J9250*
X866350Y396250I9250*
X857100Y387000J9250*
G01Y488439*
G03X858545Y488201I1445J4262*
X863045Y492701J4500*
X858545Y497201I4500*
X857906Y497155J4500*
G02X857834Y497150I72J495*
X857334Y497650J500*
X857337Y497697I500*
G03X857356Y498119I4481J422*
X852856Y502619I4500*
X848356Y498119J4500*
G01Y548001*
G03X849007Y547940I1744J14999*
G01Y508901*
G03X853507Y504401I4500*
X858007Y508901J4500*
X853507Y513401I4500*
X849007Y508901J4500*
G01Y547940*
G03X850100Y547900I1093J15060*
X865200Y563000J15100*
X850100Y578100I15100*
X842041Y575770J15100*
G02X841774Y575693I267J423*
X841274Y576193J500*
X841432Y576557I500*
G03X844350Y583300I6332J6743*
X835100Y592550I9250*
X825850Y583300J9250*
G01Y989076*
X826479*
G02X826979Y988576J500*
G01Y956850*
G03X828229Y955600I1250*
G01X850174*
G03X851424Y956850J1250*
G01Y988576*
G02X851924Y989076I500*
G01X859200*
G03X860450Y990326J1250*
G01Y990500*
G02X860950Y991000I500*
G01Y911206*
G03X861409Y908047I11100*
G01Y856265*
G03X883009Y834665I21600*
X883500Y834670J21600*
G01Y782000*
G03X893000Y772500I9500*
X902500Y782000J9500*
X893000Y791500I9500*
X883500Y782000J9500*
G01Y834670*
G03X904609Y856265I491J21595*
X883009Y877865I21600*
X861409Y856265J21600*
G01Y908047*
G03X872050Y900106I10641J3159*
X883144Y910854J11100*
G02X883644Y911338I500J16*
X883887Y911275J500*
G03X886073Y910709I2186J3934*
X890573Y915209J4500*
X886073Y919709I4500*
X882140Y917396J4500*
G02X881703Y917139I437J243*
X881287Y917361J500*
G03X872050Y922306I9237J6155*
X860950Y911206J11100*
G01Y991000*
X919250*
Y930000*
G03X925500Y923750I6250*
X930300Y925997J6250*
G02X930684Y926177I384J320*
X931174Y925776J500*
G03X934259Y918303I20826J4224*
G02X934341Y918028I418J275*
X933841Y917528I500*
X933801Y917530J500*
G03X933300Y917550I501J6230*
X927050Y911300J6250*
X933300Y905050I6250*
X934250Y905123J6250*
G01Y782000*
G03X943000Y773250I8750*
X951750Y782000J8750*
X943000Y790750I8750*
X934250Y782000J8750*
G01Y905123*
G03X939550Y911300I950J6177*
X939530Y911801I6250*
G02X939528Y911841I498J40*
X940028Y912341I500*
X940303Y912259J500*
G03X947776Y909174I11697J17741*
G02X948177Y908684I99J490*
X947997Y908300I500*
G03X945750Y903500I4003J4800*
X952000Y897250I6250*
X958250Y903500J6250*
X956003Y908300I6250*
G02X955823Y908684I320J384*
X956224Y909174I500*
G03X963697Y912259I4224J20826*
G02X963972Y912341I275J418*
X964472Y911841J500*
X964470Y911801I500*
G03X964450Y911300I6230J501*
X970700Y905050I6250*
X976950Y911300J6250*
X970700Y917550I6250*
X970199Y917530J6250*
G02X970159Y917528I40J498*
X969659Y918028J500*
X969741Y918303I500*
G03X972826Y925776I17741J11697*
G02X973316Y926177I490J99*
X973700Y925997J500*
G03X978500Y923750I4800J4003*
X984750Y930000J6250*
X978500Y936250I6250*
X973700Y934003J6250*
G02X973316Y933823I384J320*
X972826Y934224J500*
G03X969741Y941697I20826J4224*
G02X969659Y941972I418J275*
X970159Y942472I500*
X970199Y942470J500*
G03X970700Y942450I501J6230*
X976950Y948700J6250*
X970700Y954950I6250*
X964450Y948700J6250*
X964470Y948199I6250*
G02X964472Y948159I498J40*
X963972Y947659I500*
X963697Y947741J500*
G03X956224Y950826I11697J17741*
G02X955823Y951316I99J490*
X956003Y951700I500*
G03X958250Y956500I4003J4800*
X952000Y962750I6250*
X945750Y956500J6250*
X947997Y951700I6250*
G02X948177Y951316I320J384*
X947776Y950826I500*
G03X940303Y947741I4224J20826*
G02X940028Y947659I275J418*
X939528Y948159J500*
X939530Y948199I500*
G03X939550Y948700I6230J501*
X933300Y954950I6250*
X927050Y948700J6250*
X933300Y942450I6250*
X933801Y942470J6250*
G02X933841Y942472I40J498*
X934341Y941972J500*
X934259Y941697I500*
G03X931174Y934224I17741J11697*
G02X930684Y933823I490J99*
X930300Y934003J500*
G03X925500Y936250I4800J4003*
X919250Y930000J6250*
G01Y991000*
X988091*
G02X988525Y990747J500*
G03X988814Y990275I7475J4253*
G02X988897Y990000I417J275*
X988814Y989725I500*
G03X987400Y985000I7186J4725*
X988814Y980275I8600*
G02X988897Y980000I417J275*
X988814Y979725I500*
G03X987400Y975000I7186J4725*
X988814Y970275I8600*
G02X988897Y970000I417J275*
X988814Y969725I500*
G03X987400Y965000I7186J4725*
X988814Y960275I8600*
G02X988897Y960000I417J275*
X988814Y959725I500*
G03X987400Y955000I7186J4725*
X988814Y950275I8600*
G02X988897Y950000I417J275*
X988814Y949725I500*
G03X987400Y945000I7186J4725*
X988814Y940275I8600*
G02X988897Y940000I417J275*
X988814Y939725I500*
G03X987400Y935000I7186J4725*
X988814Y930275I8600*
G02X988897Y930000I417J275*
X988814Y929725I500*
G03X987400Y925000I7186J4725*
X995527Y916413I8600*
G02X996000Y915914I27J499*
G01Y667500*
G02X995500Y667000I500*
G01X878000*
Y4500*
G02X877500Y4000I500*
G01X141750*
G02X141269Y4363J500*
G03X133000Y10600I8269J2363*
X128275Y9186J8600*
G02X128000Y9103I275J417*
X127725Y9186J500*
G03X123000Y10600I4725J7186*
X119758Y9966J8600*
G02X119570Y9929I188J463*
X119070Y10429J500*
X119253Y10816I500*
G03X123750Y20300I7753J9484*
X111500Y32550I12250*
X99250Y20300J12250*
X103024Y11455I12250*
G02X103179Y11094I345J361*
X102696Y10595I500*
G03X98275Y9186I304J8595*
G02X98000Y9103I275J417*
X97725Y9186J500*
G03X93000Y10600I4725J7186*
G01X92998*
G02X92498Y11100J500*
Y11111I501*
G03X92500Y11250I6498J139*
G01Y17750*
G03X86000Y24250I6500*
X79500Y17750J6500*
G01Y11250*
G03X84278Y4982I6500*
G02X84646Y4500I132J482*
X84146Y4000I500*
G01X17854*
G02X17354Y4500J500*
X17722Y4982I500*
G03X22500Y11250I1722J6268*
G01Y17750*
G03X16000Y24250I6500*
X9500Y17750J6500*
G01Y11250*
G03X14278Y4982I6500*
G02X14646Y4500I132J482*
X14146Y4000I500*
G01X4500*
G02X4000Y4500J500*
G01Y967740*
X45333Y-28000D02*
X1028000D01*
Y2665*
G02X1028500Y3165I500*
X1028923Y2932J500*
G03X1041600Y-4050I12677J8018*
X1056600Y10950J15000*
X1041600Y25950I15000*
X1028923Y18968J15000*
G02X1028500Y18735I423J267*
X1028000Y19235J500*
G01Y53465*
G02X1028500Y53965I500*
X1028923Y53732J500*
G03X1041600Y46750I12677J8018*
X1053750Y52954J15000*
G01Y36350*
G03X1067000Y23100I13250*
X1077400Y28140J13250*
G01Y10950*
G03X1092400Y-4050I15000*
X1107400Y10950J15000*
X1092400Y25950I15000*
X1077400Y10950J15000*
G01Y28140*
G03X1080250Y36350I10400J8210*
X1067000Y49600I13250*
X1053750Y36350J13250*
G01Y52954*
G03X1056600Y61750I12150J8796*
X1041600Y76750I15000*
X1028923Y69768J15000*
G02X1028500Y69535I423J267*
X1028000Y70035J500*
G01Y84665*
G02X1028500Y85165I500*
X1028923Y84932J500*
G03X1041600Y77950I12677J8018*
X1056600Y92950J15000*
X1041600Y107950I15000*
X1028923Y100968J15000*
G02X1028500Y100735I423J267*
X1028000Y101235J500*
G01Y135465*
G02X1028500Y135965I500*
X1028923Y135732J500*
G03X1041600Y128750I12677J8018*
X1053750Y134954J15000*
G01Y118350*
G03X1067000Y105100I13250*
X1077400Y110140J13250*
G01Y61750*
G03X1092400Y46750I15000*
X1107400Y61750J15000*
X1092400Y76750I15000*
X1077400Y61750J15000*
G01Y92950*
G03X1092400Y77950I15000*
X1107400Y92950J15000*
X1092400Y107950I15000*
X1077400Y92950J15000*
G01Y110140*
G03X1080250Y118350I10400J8210*
X1067000Y131600I13250*
X1053750Y118350J13250*
G01Y134954*
G03X1056600Y143750I12150J8796*
X1046209Y158024I15000*
G02X1045863Y158500I154J476*
X1046363Y159000I500*
G01X1087637*
G02X1088137Y158500J500*
X1087791Y158024I500*
G03X1077400Y143750I4609J14274*
X1092400Y128750I15000*
X1107400Y143750J15000*
X1097009Y158024I15000*
G02X1096663Y158500I154J476*
X1097163Y159000I500*
G01X1165837*
G02X1166337Y158500J500*
X1165991Y158024I500*
G03X1155600Y143750I4609J14274*
G01Y10950*
G03X1170600Y-4050I15000*
X1185600Y10950J15000*
X1170600Y25950I15000*
X1155600Y10950J15000*
G01Y61750*
G03X1170600Y46750I15000*
X1182750Y52954J15000*
G01Y36350*
G03X1196000Y23100I13250*
X1206400Y28140J13250*
G01Y10950*
G03X1221400Y-4050I15000*
X1236400Y10950J15000*
X1221400Y25950I15000*
X1206400Y10950J15000*
G01Y28140*
G03X1209250Y36350I10400J8210*
X1196000Y49600I13250*
X1182750Y36350J13250*
G01Y52954*
G03X1185600Y61750I12150J8796*
X1170600Y76750I15000*
X1155600Y61750J15000*
G01Y92950*
G03X1170600Y77950I15000*
X1185600Y92950J15000*
X1170600Y107950I15000*
X1155600Y92950J15000*
G01Y143750*
G03X1170600Y128750I15000*
X1182750Y134954J15000*
G01Y118350*
G03X1196000Y105100I13250*
X1206400Y110140J13250*
G01Y61750*
G03X1221400Y46750I15000*
X1236400Y61750J15000*
X1221400Y76750I15000*
X1206400Y61750J15000*
G01Y92950*
G03X1221400Y77950I15000*
X1236400Y92950J15000*
X1221400Y107950I15000*
X1206400Y92950J15000*
G01Y110140*
G03X1209250Y118350I10400J8210*
X1196000Y131600I13250*
X1182750Y118350J13250*
G01Y134954*
G03X1185600Y143750I12150J8796*
X1175209Y158024I15000*
G02X1174863Y158500I154J476*
X1175363Y159000I500*
G01X1216637*
G02X1217137Y158500J500*
X1216791Y158024I500*
G03X1206400Y143750I4609J14274*
X1221400Y128750I15000*
X1236400Y143750J15000*
X1226009Y158024I15000*
G02X1225663Y158500I154J476*
X1226163Y159000I500*
G01X1294837*
G02X1295337Y158500J500*
X1294991Y158024I500*
G03X1284600Y143750I4609J14274*
G01Y10950*
G03X1299600Y-4050I15000*
X1314600Y10950J15000*
X1299600Y25950I15000*
X1284600Y10950J15000*
G01Y61750*
G03X1299600Y46750I15000*
X1311750Y52954J15000*
G01Y36350*
G03X1325000Y23100I13250*
X1335400Y28140J13250*
G01Y10950*
G03X1350400Y-4050I15000*
X1365400Y10950J15000*
X1350400Y25950I15000*
X1335400Y10950J15000*
G01Y28140*
G03X1338250Y36350I10400J8210*
X1325000Y49600I13250*
X1311750Y36350J13250*
G01Y52954*
G03X1314600Y61750I12150J8796*
X1299600Y76750I15000*
X1284600Y61750J15000*
G01Y92950*
G03X1299600Y77950I15000*
X1314600Y92950J15000*
X1299600Y107950I15000*
X1284600Y92950J15000*
G01Y143750*
G03X1299600Y128750I15000*
X1311750Y134954J15000*
G01Y118350*
G03X1325000Y105100I13250*
X1335400Y110140J13250*
G01Y61750*
G03X1350400Y46750I15000*
X1365400Y61750J15000*
X1350400Y76750I15000*
X1335400Y61750J15000*
G01Y92950*
G03X1350400Y77950I15000*
X1365400Y92950J15000*
X1350400Y107950I15000*
X1335400Y92950J15000*
G01Y110140*
G03X1338250Y118350I10400J8210*
X1325000Y131600I13250*
X1311750Y118350J13250*
G01Y134954*
G03X1314600Y143750I12150J8796*
X1304209Y158024I15000*
G02X1303863Y158500I154J476*
X1304363Y159000I500*
G01X1345637*
G02X1346137Y158500J500*
X1345791Y158024I500*
G03X1335400Y143750I4609J14274*
X1350400Y128750I15000*
X1365400Y143750J15000*
X1355009Y158024I15000*
G02X1354663Y158500I154J476*
X1355163Y159000I500*
G01X1410500*
G02X1411000Y158500J500*
G01Y-46739*
G02X1410500Y-47239I500*
X1410002Y-46784J500*
G03X1385000Y-23900I25002J2216*
X1359900Y-49000J25100*
X1369966Y-69100I25100*
G02X1370167Y-69500I299J400*
X1369667Y-70000I500*
G01X45333*
G02X44833Y-69500J500*
X45034Y-69100I500*
G03X55100Y-49000I15034J20100*
X45034Y-28900I25100*
G02X44833Y-28500I299J400*
X45333Y-28000I500*
G01X819200Y990326D02*
X859200D01*
Y1004000*
X819200*
Y990326*
X1027950Y916236D02*
G02X1028315Y916718I500D01*
G03X1031732Y918588I2315J8282*
G01Y857321*
G03X1034137Y853338I4500*
G02X1034404Y852896I233J442*
X1034216Y852506I500*
G03X1032528Y848992I2812J3514*
X1034608Y845198I4500*
G02X1034840Y844776I268J422*
X1034535Y844316I500*
G03X1031797Y840175I1762J4141*
X1033821Y836418I4500*
G02X1034045Y836000I276J418*
X1033871Y835621I500*
G03X1032300Y832205I2929J3416*
X1036800Y827705I4500*
X1041300Y832205J4500*
X1039277Y835962I4500*
G02X1039052Y836379I275J417*
X1039226Y836759I500*
G03X1040797Y840175I2929J3416*
X1038716Y843969I4500*
G02X1038485Y844391I269J422*
X1038789Y844851I500*
G03X1041528Y848992I1761J4141*
X1039123Y852975I4500*
G02X1038855Y853417I232J442*
X1039043Y853807I500*
G03X1040732Y857321I2811J3514*
X1036232Y861821I4500*
X1031732Y857321J4500*
G01Y918588*
G03X1032302Y919148I5732J6412*
G01Y872909*
G03X1036802Y868409I4500*
X1041302Y872909J4500*
X1036802Y877409I4500*
X1032302Y872909J4500*
G01Y919148*
G03X1034600Y925000I6302J5852*
X1033186Y929725I8600*
G02X1033103Y930000I417J275*
X1033186Y930275I500*
G03X1034600Y935000I7186J4725*
X1033186Y939725I8600*
G02X1033103Y940000I417J275*
X1033186Y940275I500*
G03X1034600Y945000I7186J4725*
X1033186Y949725I8600*
G02X1033103Y950000I417J275*
X1033186Y950275I500*
G03X1033949Y951718I7186J4725*
G02X1034411Y952027I462J191*
X1034797Y951845J500*
G03X1061800Y939113I27003J22268*
X1089700Y952980J35000*
G01Y745113*
G03X1099800Y735013I10100*
X1109900Y745113J10100*
X1099800Y755213I10100*
X1099134Y755190J10100*
G02X1099101Y755189I33J499*
X1098601Y755689J500*
X1098622Y755834I500*
G03X1098813Y757131I4309J1297*
X1094313Y761631I4500*
X1089813Y757131J4500*
X1092471Y753025I4500*
G02X1092766Y752569I205J456*
X1092622Y752218I500*
G03X1089700Y745113I7178J7105*
G01Y929113*
G03X1091168Y923869I10100*
G01Y824742*
G03X1094443Y820412I4500*
G01Y777019*
G03X1098943Y772519I4500*
X1103443Y777019J4500*
X1098943Y781519I4500*
X1094443Y777019J4500*
G01Y820412*
G03X1095285Y820258I1225J4330*
G02X1095743Y819760I42J498*
X1095636Y819452I500*
G03X1094680Y816678I3544J2774*
X1099180Y812178I4500*
X1103680Y816678J4500*
X1099563Y821162I4500*
G02X1099105Y821660I42J498*
X1099211Y821968I500*
G03X1100168Y824742I3543J2774*
X1095668Y829242I4500*
X1091168Y824742J4500*
G01Y923869*
G03X1094063Y920800I8632J5244*
G01Y853686*
G03X1097602Y849289I4500*
G02X1097995Y848801I107J488*
X1097666Y848331I500*
G03X1094700Y844101I1534J4230*
X1096583Y840440I4500*
G02X1096792Y840033I291J407*
X1096583Y839626I500*
G03X1094700Y835966I2617J3660*
X1099200Y831466I4500*
X1103700Y835966J4500*
X1101817Y839626I4500*
G02X1101608Y840033I291J407*
X1101817Y840440I500*
G03X1103700Y844101I2617J3661*
X1100161Y848497I4500*
G02X1099767Y848985I106J488*
X1100097Y849455I500*
G03X1103063Y853686I1534J4231*
X1098563Y858186I4500*
X1094063Y853686J4500*
G01Y920800*
G03X1099800Y919013I5737J8313*
X1109900Y929113J10100*
X1099800Y939213I10100*
X1089700Y929113J10100*
G01Y952980*
G03X1091033Y954865I27900J21132*
G02X1091450Y955090I417J275*
X1091840Y954904J500*
G03X1100800Y950613I8960J7209*
X1112300Y962113J11500*
X1100800Y973613I11500*
X1097442Y973111J11500*
G02X1097296Y973090I146J479*
X1096796Y973590J500*
G01Y973597*
G03X1096800Y974112I34996J516*
G01Y974113*
G03X1092848Y990269I35000*
G02X1092791Y990500I443J231*
X1093291Y991000I500*
G01X1116100*
Y619988*
G03X1125350Y610738I9250*
X1134600Y619988J9250*
X1125350Y629238I9250*
X1116100Y619988J9250*
G01Y645388*
G03X1125350Y636138I9250*
X1134600Y645388J9250*
X1125350Y654638I9250*
X1116100Y645388J9250*
G01Y991000*
X1128900*
Y884713*
Y884712*
G03X1132450Y878337I7500*
G02X1132686Y877912I264J425*
X1132477Y877505I500*
G03X1129650Y872012I3923J5493*
X1133143Y866100I6750*
G02X1133401Y865663I242J437*
X1133143Y865225I500*
G03X1129650Y859313I3257J5912*
X1133143Y853400I6750*
G02X1133401Y852963I242J437*
X1133143Y852525I500*
G03X1129650Y846613I3257J5912*
X1133143Y840700I6750*
G02X1133401Y840263I242J437*
X1133143Y839825I500*
G03X1129650Y833913I3257J5912*
X1133143Y828000I6750*
G02X1133401Y827563I242J437*
X1133143Y827125I500*
G03X1129650Y821213I3257J5912*
X1133143Y815300I6750*
G02X1133401Y814863I242J437*
X1133143Y814425I500*
G03X1129650Y808513I3257J5912*
X1133143Y802600I6750*
G02X1133401Y802163I242J437*
X1133143Y801725I500*
G03X1129650Y795813I3257J5912*
X1133143Y789900I6750*
G02X1133401Y789463I242J437*
X1133143Y789025I500*
G03X1129650Y783113I3257J5912*
X1136400Y776363I6750*
X1140750Y777951J6750*
G01Y619988*
G03X1150750Y609988I10000*
X1160750Y619988J10000*
X1150750Y629988I10000*
X1140750Y619988J10000*
G01Y777951*
G03X1141500Y778691I4350J5161*
G01Y645388*
G03X1150750Y636138I9250*
X1160000Y645388J9250*
X1150750Y654638I9250*
X1141500Y645388J9250*
G01Y778691*
G03X1143150Y783113I5100J4422*
X1139657Y789025I6750*
G02X1139399Y789463I242J438*
X1139657Y789900I500*
G03X1143150Y795813I3257J5913*
X1139657Y801725I6750*
G02X1139399Y802163I242J438*
X1139657Y802600I500*
G03X1143150Y808513I3257J5913*
X1139657Y814425I6750*
G02X1139399Y814863I242J438*
X1139657Y815300I500*
G03X1143150Y821213I3257J5913*
X1139657Y827125I6750*
G02X1139399Y827563I242J438*
X1139657Y828000I500*
G03X1143150Y833913I3257J5913*
X1139657Y839825I6750*
G02X1139399Y840263I242J438*
X1139657Y840700I500*
G03X1143150Y846613I3257J5913*
X1139657Y852525I6750*
G02X1139399Y852963I242J438*
X1139657Y853400I500*
G03X1143150Y859313I3257J5913*
X1139657Y865225I6750*
G02X1139399Y865663I242J438*
X1139657Y866100I500*
G03X1143150Y872013I3257J5913*
X1140323Y877505I6750*
G02X1140114Y877912I291J407*
X1140350Y878337I500*
G03X1143900Y884712I3950J6375*
G01Y884713*
G03X1136400Y892213I7500*
X1128900Y884713J7500*
G01Y991000*
X1145406*
Y840295*
G03X1148955Y833920I7500*
G02X1149192Y833495I263J425*
X1148982Y833088I500*
G03X1146156Y827595I3924J5493*
X1149648Y821683I6750*
G02X1149907Y821245I241J438*
X1149648Y820807I500*
G03X1146156Y814895I3258J5912*
X1149648Y808983I6750*
G02X1149907Y808545I241J438*
X1149648Y808107I500*
G03X1146156Y802195I3258J5912*
X1148982Y796702I6750*
G02X1149192Y796295I290J407*
X1148955Y795870I500*
G03X1145406Y789495I3951J6375*
X1152906Y781995I7500*
X1160406Y789495J7500*
X1156856Y795870I7500*
G02X1156619Y796295I263J425*
X1156829Y796702I500*
G03X1159656Y802195I3923J5493*
X1156163Y808107I6750*
G02X1155904Y808545I241J438*
X1156163Y808983I500*
G03X1159656Y814895I3257J5912*
X1156163Y820807I6750*
G02X1155904Y821245I241J438*
X1156163Y821683I500*
G03X1159656Y827595I3257J5912*
X1156829Y833088I6750*
G02X1156619Y833495I290J407*
X1156856Y833920I500*
G03X1160406Y840295I3950J6375*
X1156856Y846670I7500*
G02X1156619Y847095I263J425*
X1156829Y847502I500*
G03X1159656Y852995I3923J5493*
X1156163Y858907I6750*
G02X1155904Y859345I241J438*
X1156163Y859783I500*
G03X1159656Y865695I3257J5912*
X1156163Y871607I6750*
G02X1155904Y872045I241J438*
X1156163Y872483I500*
G03X1159656Y878395I3257J5912*
X1156163Y884307I6750*
G02X1155904Y884745I241J438*
X1156163Y885183I500*
G03X1159656Y891095I3257J5912*
X1152906Y897845I6750*
X1146156Y891095J6750*
X1149648Y885183I6750*
G02X1149907Y884745I241J438*
X1149648Y884307I500*
G03X1146156Y878395I3258J5912*
X1149648Y872483I6750*
G02X1149907Y872045I241J438*
X1149648Y871607I500*
G03X1146156Y865695I3258J5912*
X1149648Y859783I6750*
G02X1149907Y859345I241J438*
X1149648Y858907I500*
G03X1146156Y852995I3258J5912*
X1148982Y847502I6750*
G02X1149192Y847095I290J407*
X1148955Y846670I500*
G03X1145406Y840295I3951J6375*
G01Y991000*
X1193041*
G02X1193475Y990747J500*
G03X1193764Y990275I7475J4253*
G02X1193847Y990000I417J275*
X1193764Y989725I500*
G03X1192350Y985000I7186J4725*
X1193764Y980275I8600*
G02X1193847Y980000I417J275*
X1193764Y979725I500*
G03X1192350Y975000I7186J4725*
X1193764Y970275I8600*
G02X1193847Y970000I417J275*
X1193764Y969725I500*
G03X1192350Y965000I7186J4725*
X1193764Y960275I8600*
G02X1193847Y960000I417J275*
X1193764Y959725I500*
G03X1192969Y958203I7186J4725*
G02X1192504Y957889I465J186*
X1192333Y957919J500*
G03X1188400Y958613I3933J10806*
X1176900Y947113J11500*
G01Y947112*
G03X1188400Y935612I11500*
X1197073Y939561J11500*
G02X1197450Y939732I377J329*
X1197950Y939232J500*
G01Y734993*
G02X1197450Y734493I500*
X1197073Y734664J500*
G03X1188400Y738613I8673J7551*
X1176900Y727113J11500*
G01Y727112*
G03X1188400Y715612I11500*
X1197073Y719561J11500*
G02X1197450Y719732I377J329*
X1197950Y719232J500*
G01Y715735*
G02X1197590Y715255I500*
G03X1191400Y707000I2410J8255*
X1192814Y702275I8600*
G02X1192897Y702000I417J275*
X1192814Y701725I500*
G03X1191400Y697000I7186J4725*
X1192814Y692275I8600*
G02X1192897Y692000I417J275*
X1192814Y691725I500*
G03X1191400Y687000I7186J4725*
X1192814Y682275I8600*
G02X1192897Y682000I417J275*
X1192814Y681725I500*
G03X1191400Y677000I7186J4725*
X1192814Y672275I8600*
G02X1192897Y672000I417J275*
X1192814Y671725I500*
G03X1191400Y667000I7186J4725*
X1192814Y662275I8600*
G02X1192897Y662000I417J275*
X1192814Y661725I500*
G03X1191400Y657000I7186J4725*
X1192814Y652275I8600*
G02X1192897Y652000I417J275*
X1192814Y651725I500*
G03X1191400Y647000I7186J4725*
X1192814Y642275I8600*
G02X1192897Y642000I417J275*
X1192814Y641725I500*
G03X1191400Y637000I7186J4725*
X1197590Y628745I8600*
G02X1197950Y628265I140J480*
G01Y590500*
G02X1197450Y590000I500*
G01X1102750*
G02X1102269Y590363J500*
G03X1094000Y596600I8269J2363*
X1089275Y595186J8600*
G02X1089000Y595103I275J417*
X1088725Y595186J500*
G03X1084000Y596600I4725J7186*
X1079275Y595186J8600*
G02X1079000Y595103I275J417*
X1078725Y595186J500*
G03X1074000Y596600I4725J7186*
X1069275Y595186J8600*
G02X1069000Y595103I275J417*
X1068725Y595186J500*
G03X1064000Y596600I4725J7186*
X1059275Y595186J8600*
G02X1059000Y595103I275J417*
X1058725Y595186J500*
G03X1054000Y596600I4725J7186*
X1049275Y595186J8600*
G02X1049000Y595103I275J417*
X1048725Y595186J500*
G03X1044000Y596600I4725J7186*
X1039275Y595186J8600*
G02X1039000Y595103I275J417*
X1038725Y595186J500*
G03X1034000Y596600I4725J7186*
X1029275Y595186J8600*
G02X1029000Y595103I275J417*
X1028725Y595186J500*
G03X1028205Y595502I4725J7186*
G02X1027950Y595938I245J436*
G01Y687946*
G02X1028450Y688446I500*
X1028920Y688117J500*
G03X1039150Y673430I32880J11996*
G01Y619988*
G03X1049150Y609988I10000*
X1059150Y619988J10000*
X1049150Y629988I10000*
X1039150Y619988J10000*
G01Y673430*
G03X1039900Y672811I22650J26683*
G01Y645388*
G03X1049150Y636138I9250*
X1058400Y645388J9250*
X1049150Y654638I9250*
X1039900Y645388J9250*
G01Y672811*
G03X1061800Y665113I21900J27302*
X1065300Y665288J35000*
G01Y619988*
G03X1074550Y610738I9250*
X1083800Y619988J9250*
X1074550Y629238I9250*
X1065300Y619988J9250*
G01Y645388*
G03X1074550Y636138I9250*
X1083800Y645388J9250*
X1074550Y654638I9250*
X1065300Y645388J9250*
G01Y665288*
G03X1090700Y680369I3500J34825*
G01Y619988*
G03X1099950Y610738I9250*
X1109200Y619988J9250*
X1099950Y629238I9250*
X1090700Y619988J9250*
G01Y645388*
G03X1099950Y636138I9250*
X1109200Y645388J9250*
X1099950Y654638I9250*
X1090700Y645388J9250*
G01Y680369*
G03X1096800Y700113I28900J19744*
X1096796Y700628I35000J1*
G01Y700635*
G02X1097296Y701135I500*
X1097442Y701114J500*
G03X1100800Y700613I3358J10999*
X1101450Y700631J11500*
G01Y683000*
G03X1105950Y678500I4500*
X1110450Y683000J4500*
X1105950Y687500I4500*
X1101450Y683000J4500*
G01Y700631*
G03X1112300Y712112I650J11482*
G01Y712113*
G03X1100800Y723613I11500*
X1091840Y719321J11500*
G02X1091450Y719135I390J314*
X1091033Y719360J500*
G03X1061800Y735113I29233J19247*
X1028920Y712108J35000*
G02X1028450Y711779I470J171*
X1027950Y712279J500*
G01Y916236*
X1028000Y552091D02*
G02X1028253Y552525I500D01*
G03X1028725Y552814I4253J7475*
G02X1029000Y552897I275J417*
X1029275Y552814J500*
G03X1034000Y551400I4725J7186*
X1038725Y552814J8600*
G02X1039000Y552897I275J417*
X1039275Y552814J500*
G03X1044000Y551400I4725J7186*
X1048725Y552814J8600*
G02X1049000Y552897I275J417*
X1049275Y552814J500*
G03X1054000Y551400I4725J7186*
X1058725Y552814J8600*
G02X1059000Y552897I275J417*
X1059275Y552814J500*
G03X1064000Y551400I4725J7186*
X1068725Y552814J8600*
G02X1069000Y552897I275J417*
X1069275Y552814J500*
G03X1074000Y551400I4725J7186*
X1078725Y552814J8600*
G02X1079000Y552897I275J417*
X1079275Y552814J500*
G03X1084000Y551400I4725J7186*
X1088725Y552814J8600*
G02X1089000Y552897I275J417*
X1089275Y552814J500*
G03X1094000Y551400I4725J7186*
X1102269Y557637J8600*
G02X1102750Y558000I481J137*
G01X1119571*
Y341952*
G03X1121550Y338224I4500*
G02X1121770Y337810I280J414*
X1121559Y337401I500*
G03X1119652Y333724I2593J3677*
X1122330Y329609I4500*
G01Y319689*
G03X1123399Y316777I4500*
G01Y309709*
G03X1127899Y305209I4500*
X1132399Y309709J4500*
X1127899Y314209I4500*
X1123399Y309709J4500*
G01Y316777*
G03X1126830Y315189I3431J2912*
X1131330Y319689J4500*
X1126830Y324189I4500*
X1122330Y319689J4500*
G01Y329609*
G03X1124152Y329224I1822J4115*
X1128652Y333724J4500*
X1126672Y337452I4500*
G02X1126452Y337866I280J414*
X1126664Y338274I500*
G03X1128571Y341952I2593J3678*
X1127159Y345226I4500*
G02X1127002Y345589I343J363*
X1127196Y345985I500*
G03X1128941Y349543I2755J3558*
X1127268Y353044I4500*
G02X1127082Y353433I314J389*
X1127278Y353830I500*
G03X1129039Y357400I2739J3570*
X1124539Y361900I4500*
X1120039Y357400J4500*
X1121712Y353899I4500*
G02X1121898Y353510I314J389*
X1121702Y353114I500*
G03X1119941Y349543I2739J3571*
X1121353Y346269I4500*
G02X1121510Y345906I343J363*
X1121316Y345510I500*
G03X1119571Y341952I2755J3558*
G01Y558000*
X1132776*
Y367086*
G03X1137276Y362586I4500*
X1140803Y364291J4500*
G02X1141195Y364481I392J310*
X1141594Y364282J500*
G03X1145185Y362495I3591J2713*
X1149685Y366995J4500*
X1145185Y371495I4500*
X1141658Y369789J4500*
G02X1141266Y369599I392J310*
X1140867Y369798J500*
G03X1137276Y371586I3591J2712*
X1132776Y367086J4500*
G01Y558000*
X1151930*
Y283623*
G03X1156430Y279123I4500*
X1160930Y283623J4500*
X1156430Y288123I4500*
X1151930Y283623J4500*
G01Y558000*
X1165298*
Y283340*
G03X1169798Y278840I4500*
X1174233Y282582J4500*
G02X1174710Y282997I493J85*
G01X1174889Y283003*
G02X1174905I16J500*
X1175392Y282619J500*
G03X1179770Y279159I4378J1040*
X1183271Y280833J4500*
G02X1183660Y281019I389J314*
X1184057Y280823J500*
G03X1187629Y279061I3572J2738*
X1192129Y283561J4500*
X1187629Y288061I4500*
X1184127Y286387J4500*
G02X1183738Y286201I389J314*
X1183341Y286397J500*
G03X1179770Y288159I3571J2738*
X1175334Y284418J4500*
G02X1174857Y284002I493J84*
G01X1174678Y283997*
G02X1174662Y283996I16J499*
X1174176Y284381J500*
G03X1169798Y287840I4378J1041*
X1165298Y283340J4500*
G01Y558000*
X1168244*
Y378069*
G03X1172744Y373569I4500*
X1176300Y375312J4500*
G02X1176695Y375505I395J307*
X1177097Y375303J500*
G03X1180712Y373483I3615J2680*
X1185212Y377983J4500*
X1180712Y382483I4500*
X1177155Y380740J4500*
G02X1176760Y380547I395J307*
X1176359Y380749J500*
G03X1172744Y382569I3615J2680*
X1168244Y378069J4500*
G01Y558000*
X1168645*
Y500881*
G03X1189616Y465697I40000*
G01Y368138*
G03X1194116Y363638I4500*
X1198156Y366156J4500*
G01Y283074*
G03X1202656Y278574I4500*
X1203939Y278760J4500*
G01Y246676*
G03X1208439Y242176I4500*
X1212939Y246676J4500*
X1208439Y251176I4500*
X1203939Y246676J4500*
G01Y278760*
G03X1207156Y283074I1283J4314*
X1202656Y287574I4500*
X1198156Y283074J4500*
G01Y366156*
G03X1198616Y368138I4040J1982*
X1194116Y372638I4500*
X1189616Y368138J4500*
G01Y465697*
G03X1205773Y460984I19029J35184*
G01Y374004*
G03X1210273Y369504I4500*
X1214773Y374004J4500*
X1210273Y378504I4500*
X1205773Y374004J4500*
G01Y460984*
G03X1206999Y460915I2872J39897*
G01Y433503*
G03X1211499Y429003I4500*
X1215999Y433503J4500*
X1211499Y438003I4500*
X1206999Y433503J4500*
G01Y460915*
G03X1208645Y460881I1646J39966*
X1247416Y491043J40000*
G01Y374836*
G03X1251916Y370336I4500*
X1256416Y374836J4500*
X1251916Y379336I4500*
X1247416Y374836J4500*
G01Y491043*
G03X1248645Y500881I38771J9838*
X1208645Y540881I40000*
X1168645Y500881J40000*
G01Y558000*
X1261250*
G02X1261731Y557637J500*
G03X1270000Y551400I8269J2363*
X1274725Y552814J8600*
G02X1275000Y552897I275J417*
X1275275Y552814J500*
G03X1280000Y551400I4725J7186*
X1284725Y552814J8600*
G02X1285000Y552897I275J417*
X1285275Y552814J500*
G03X1285518Y552660I4725J7186*
G01Y374534*
G03X1290018Y370034I4500*
X1294518Y374534J4500*
X1290018Y379034I4500*
X1285518Y374534J4500*
G01Y552660*
G03X1290000Y551400I4482J7340*
X1294725Y552814J8600*
G02X1295000Y552897I275J417*
X1295275Y552814J500*
G03X1300000Y551400I4725J7186*
X1304725Y552814J8600*
G02X1305000Y552897I275J417*
X1305275Y552814J500*
G03X1310000Y551400I4725J7186*
X1310907Y551448J8600*
G01Y429658*
G03X1314557Y423081I7750*
G01Y383958*
G03X1322628Y371929I13000*
G01Y346682*
G03X1327128Y342182I4500*
X1331628Y346682J4500*
X1327128Y351182I4500*
X1322628Y346682J4500*
G01Y371929*
G03X1327557Y370958I4929J12029*
X1340557Y383958J13000*
X1327557Y396958I13000*
X1314557Y383958J13000*
G01Y423081*
G03X1318657Y421908I4100J6577*
X1326407Y429658J7750*
X1318657Y437408I7750*
X1310907Y429658J7750*
G01Y449958*
G03X1318657Y442208I7750*
X1326407Y449958J7750*
X1318657Y457708I7750*
X1310907Y449958J7750*
G01Y470258*
G03X1318657Y462508I7750*
X1326407Y470258J7750*
X1318657Y478008I7750*
X1310907Y470258J7750*
G01Y490558*
G03X1318657Y482808I7750*
X1326407Y490558J7750*
X1318657Y498308I7750*
X1310907Y490558J7750*
G01Y551448*
G03X1315294Y553223I907J8552*
G02X1315602Y553329I308J394*
X1316102Y552829J500*
X1316045Y552597I500*
G03X1314557Y546558I11512J6039*
X1327557Y533558I13000*
X1328707Y533609J13000*
G01Y439858*
G03X1336457Y432108I7750*
X1340257Y433104J7750*
G01Y401758*
G03X1361557Y380160I21600*
G01Y346431*
G03X1366057Y341931I4500*
X1370557Y346431J4500*
X1366057Y350931I4500*
X1361557Y346431J4500*
G01Y380160*
G03X1361857Y380158I300J21598*
X1383457Y401758J21600*
X1361857Y423358I21600*
X1340257Y401758J21600*
G01Y433104*
G03X1344207Y439858I3800J6754*
X1336457Y447608I7750*
X1328707Y439858J7750*
G01Y460158*
G03X1336457Y452408I7750*
X1344207Y460158J7750*
X1336457Y467908I7750*
X1328707Y460158J7750*
G01Y480458*
G03X1336457Y472708I7750*
X1344207Y480458J7750*
X1336457Y488208I7750*
X1328707Y480458J7750*
G01Y500758*
G03X1336457Y493008I7750*
X1344207Y500758J7750*
X1336457Y508508I7750*
X1328707Y500758J7750*
G01Y533609*
G03X1340257Y543781I1150J12949*
G01Y528758*
G03X1361857Y507158I21600*
X1383457Y528758J21600*
X1361857Y550358I21600*
X1340257Y528758J21600*
G01Y543781*
G03X1340557Y546558I12700J2777*
X1335172Y557095I13000*
G02X1334965Y557500I293J405*
X1335465Y558000I500*
G01X1366250*
G02X1366731Y557637J500*
G03X1375000Y551400I8269J2363*
X1379725Y552814J8600*
G02X1380000Y552897I275J417*
X1380275Y552814J500*
G03X1385000Y551400I4725J7186*
X1386808Y551592J8600*
G01Y483143*
G03X1391308Y478643I4500*
X1395808Y483143J4500*
X1391308Y487643I4500*
X1386808Y483143J4500*
G01Y551592*
G03X1389725Y552814I1808J8408*
G02X1390000Y552897I275J417*
X1390275Y552814J500*
G03X1395000Y551400I4725J7186*
X1399725Y552814J8600*
G02X1400000Y552897I275J417*
X1400275Y552814J500*
G03X1405000Y551400I4725J7186*
X1409725Y552814J8600*
G02X1410000Y552897I275J417*
X1410275Y552814J500*
G03X1410747Y552525I4725J7186*
G02X1411000Y552091I247J434*
G01Y196909*
G02X1410747Y196475I500*
G03X1410275Y196186I4253J7475*
G02X1410000Y196103I275J417*
X1409725Y196186J500*
G03X1405000Y197600I4725J7186*
X1400275Y196186J8600*
G02X1400000Y196103I275J417*
X1399725Y196186J500*
G03X1395000Y197600I4725J7186*
X1390275Y196186J8600*
G02X1390000Y196103I275J417*
X1389725Y196186J500*
G03X1385000Y197600I4725J7186*
X1380275Y196186J8600*
G02X1380000Y196103I275J417*
X1379725Y196186J500*
G03X1375000Y197600I4725J7186*
X1370275Y196186J8600*
G02X1370000Y196103I275J417*
X1369725Y196186J500*
G03X1365000Y197600I4725J7186*
X1360275Y196186J8600*
G02X1360000Y196103I275J417*
X1359725Y196186J500*
G03X1355000Y197600I4725J7186*
X1350275Y196186J8600*
G02X1350000Y196103I275J417*
X1349725Y196186J500*
G03X1345000Y197600I4725J7186*
X1336731Y191363J8600*
G02X1336250Y191000I481J137*
G01X1102750*
G02X1102269Y191363J500*
G03X1094000Y197600I8269J2363*
X1089275Y196186J8600*
G02X1089000Y196103I275J417*
X1088725Y196186J500*
G03X1084000Y197600I4725J7186*
X1082652Y197494J8600*
G02X1082573Y197488I79J494*
X1082073Y197988J500*
X1082279Y198391I500*
G03X1096644Y226661I20635J28270*
X1061644Y261661I35000*
X1028967Y239201J35000*
G02X1028500Y238880I467J179*
X1028000Y239380J500*
G01Y477606*
G02X1028500Y478106I500*
X1028909Y477894J500*
G03X1055901Y461295I32736J22987*
G01Y441062*
G03X1057557Y437575I4500*
G02X1057741Y437187I316J388*
X1057557Y436800I500*
G03X1055901Y433312I2844J3488*
X1055940Y432726I4500*
G01Y303772*
G03X1060440Y299272I4500*
X1064940Y303772J4500*
X1060440Y308272I4500*
X1055940Y303772J4500*
G01Y432726*
G03X1056021Y432283I4461J586*
G01Y410627*
G03X1056141Y409593I4500*
G01Y391616*
G03X1060641Y387116I4500*
X1065141Y391616J4500*
X1060641Y396116I4500*
X1056141Y391616J4500*
G01Y409593*
G03X1060521Y406127I4380J1034*
X1065021Y410627J4500*
X1063364Y414116I4500*
G02X1063179Y414503I315J387*
X1063364Y414891I500*
G03X1065029Y418385I2835J3494*
X1060529Y422885I4500*
X1056029Y418385J4500*
X1057686Y414897I4500*
G02X1057870Y414510I316J387*
X1057685Y414121I500*
G03X1056021Y410627I2836J3494*
G01Y432283*
G03X1060401Y428812I4380J1029*
X1064901Y433312J4500*
X1063245Y436800I4500*
G02X1063061Y437187I316J387*
X1063245Y437575I500*
G03X1064901Y441062I2844J3487*
X1060401Y445562I4500*
X1055901Y441062J4500*
G01Y461295*
G03X1061645Y460881I5744J39586*
X1089542Y472215J40000*
G01X1089543Y271442*
G03X1099643Y261342I10100*
X1109743Y271442J10100*
X1099643Y281542I10100*
X1089543Y271442J10100*
G01Y455442*
G03X1095011Y446466I10100*
G01Y291425*
G03X1099511Y286925I4500*
X1104011Y291425J4500*
X1102198Y295034I4500*
G02X1101997Y295435I299J401*
X1102199Y295837I500*
G03X1104019Y299452I2680J3615*
X1099519Y303952I4500*
X1095019Y299452J4500*
X1096832Y295842I4500*
G02X1097033Y295441I299J401*
X1096831Y295039I500*
G03X1095011Y291425I2680J3614*
G01Y446466*
G03X1099643Y445342I4632J8976*
X1109743Y455442J10100*
X1099643Y465542I10100*
X1089543Y455442J10100*
G01Y472215*
G03X1101645Y500881I27898J28666*
X1061645Y540881I40000*
X1028909Y523868J40000*
G02X1028500Y523655I409J287*
X1028000Y524155J500*
G01Y552091*
X1037337Y158500D02*
G03X1036837Y159000I500D01*
G01X1028500*
G03X1028000Y158500J500*
G01Y152035*
G03X1028500Y151535I500*
X1028923Y151768J500*
G02X1036991Y158024I12677J8018*
G03X1037337Y158500I154J476*
G01X1230000Y906118D02*
G02X1230500Y906618I500D01*
X1230867Y906458J500*
G03X1246700Y899550I15833J14692*
X1268300Y921150J21600*
X1261233Y937130I21600*
G02X1261069Y937500I336J370*
X1261569Y938000I500*
G01X1292658*
Y618091*
G03X1301758Y608991I9100*
X1310858Y618091J9100*
X1301758Y627191I9100*
X1292658Y618091J9100*
G01Y910191*
G03X1301758Y901091I9100*
X1310858Y910191J9100*
X1301758Y919291I9100*
X1292658Y910191J9100*
G01Y938000*
X1336250*
G02X1336731Y937637J500*
G03X1342600Y931742I8269J2363*
G01Y677650*
G03X1343350Y674159I8500*
G01Y657350*
G03X1351100Y649600I7750*
X1358850Y657350J7750*
X1351100Y665100I7750*
X1343350Y657350J7750*
G01Y674159*
G03X1351100Y669150I7750J3491*
X1359600Y677650J8500*
X1351100Y686150I8500*
X1342600Y677650J8500*
G01Y931742*
G03X1343350Y931560I2400J8258*
G01Y697950*
G03X1351100Y690200I7750*
X1358850Y697950J7750*
X1351100Y705700I7750*
X1343350Y697950J7750*
G01Y718250*
G03X1351100Y710500I7750*
X1358850Y718250J7750*
X1351100Y726000I7750*
X1343350Y718250J7750*
G01Y931560*
G03X1345000Y931400I1650J8440*
X1347000Y931636J8600*
G01Y763950*
G03X1360000Y750950I13000*
X1360400Y750956J13000*
G01Y687750*
G03X1361150Y684259I8500*
G01Y647150*
G03X1368900Y639400I7750*
X1376650Y647150J7750*
X1368900Y654900I7750*
X1361150Y647150J7750*
G01Y667450*
G03X1368900Y659700I7750*
X1376650Y667450J7750*
X1368900Y675200I7750*
X1361150Y667450J7750*
G01Y684259*
G03X1368900Y679250I7750J3491*
X1377400Y687750J8500*
X1368900Y696250I8500*
X1360400Y687750J8500*
G01Y750956*
G03X1361150Y751001I400J12994*
G01Y708050*
G03X1368900Y700300I7750*
X1376650Y708050J7750*
X1368900Y715800I7750*
X1361150Y708050J7750*
G01Y751001*
G03X1373000Y763950I1150J12949*
X1360000Y776950I13000*
X1347000Y763950J13000*
G01Y931636*
G03X1349725Y932814I2000J8364*
G02X1350000Y932897I275J417*
X1350275Y932814J500*
G03X1355000Y931400I4725J7186*
X1359725Y932814J8600*
G02X1360000Y932897I275J417*
X1360275Y932814J500*
G03X1365000Y931400I4725J7186*
X1369725Y932814J8600*
G02X1370000Y932897I275J417*
X1370275Y932814J500*
G03X1375000Y931400I4725J7186*
X1379725Y932814J8600*
G02X1380000Y932897I275J417*
X1380275Y932814J500*
G03X1385000Y931400I4725J7186*
X1389725Y932814J8600*
G02X1390000Y932897I275J417*
X1390275Y932814J500*
G03X1395000Y931400I4725J7186*
X1399725Y932814J8600*
G02X1400000Y932897I275J417*
X1400275Y932814J500*
G03X1405000Y931400I4725J7186*
X1409725Y932814J8600*
G02X1410000Y932897I275J417*
X1410275Y932814J500*
G03X1410747Y932525I4725J7186*
G02X1411000Y932091I247J434*
G01Y761182*
G02X1410500Y760682I500*
X1410133Y760842J500*
G03X1394300Y767750I15833J14692*
X1372700Y746150J21600*
X1394300Y724550I21600*
X1410133Y731458J21600*
G02X1410500Y731618I367J340*
X1411000Y731118J500*
G01Y634182*
G02X1410500Y633682I500*
X1410133Y633842J500*
G03X1394300Y640750I15833J14692*
X1372700Y619150J21600*
X1393808Y597556I21600*
G02X1394296Y597067I12J500*
G01X1394297Y597031*
G02Y597020I500J11*
X1393863Y596525I500*
G03X1390275Y595186I1137J8525*
G02X1390000Y595103I275J417*
X1389725Y595186J500*
G03X1385000Y596600I4725J7186*
X1380275Y595186J8600*
G02X1380000Y595103I275J417*
X1379725Y595186J500*
G03X1375000Y596600I4725J7186*
X1372839Y596324J8600*
G02X1372713Y596308I126J484*
X1372213Y596808J500*
X1372242Y596976I500*
G03X1373000Y601350I12242J4374*
X1360000Y614350I13000*
X1347000Y601350J13000*
X1352265Y590902I13000*
G02X1352467Y590500I298J402*
X1351967Y590000I500*
G01X1318750*
G02X1318269Y590363J500*
G03X1310000Y596600I8269J2363*
X1305275Y595186J8600*
G02X1305000Y595103I275J417*
X1304725Y595186J500*
G03X1300000Y596600I4725J7186*
X1295275Y595186J8600*
G02X1295000Y595103I275J417*
X1294725Y595186J500*
G03X1290000Y596600I4725J7186*
X1285275Y595186J8600*
G02X1285000Y595103I275J417*
X1284725Y595186J500*
G03X1280000Y596600I4725J7186*
X1275275Y595186J8600*
G02X1275000Y595103I275J417*
X1274725Y595186J500*
G03X1270000Y596600I4725J7186*
X1266062Y595646J8600*
G02X1265833Y595590I229J444*
X1265333Y596090J500*
X1265401Y596340I500*
G03X1268300Y607150I18701J10810*
X1246700Y628750I21600*
X1230867Y621842J21600*
G02X1230500Y621682I367J340*
X1230000Y622182J500*
G01Y628250*
G02X1230363Y628731I500*
G03X1236600Y637000I2363J8269*
X1235186Y641725I8600*
G02X1235103Y642000I417J275*
X1235186Y642275I500*
G03X1236600Y647000I7186J4725*
X1235186Y651725I8600*
G02X1235103Y652000I417J275*
X1235186Y652275I500*
G03X1236600Y657000I7186J4725*
X1235186Y661725I8600*
G02X1235103Y662000I417J275*
X1235186Y662275I500*
G03X1236600Y667000I7186J4725*
X1235186Y671725I8600*
G02X1235103Y672000I417J275*
X1235186Y672275I500*
G03X1236600Y677000I7186J4725*
X1235186Y681725I8600*
G02X1235103Y682000I417J275*
X1235186Y682275I500*
G03X1236600Y687000I7186J4725*
X1235186Y691725I8600*
G02X1235103Y692000I417J275*
X1235186Y692275I500*
G03X1236600Y697000I7186J4725*
X1235186Y701725I8600*
G02X1235103Y702000I417J275*
X1235186Y702275I500*
G03X1236600Y707000I7186J4725*
X1230363Y715269I8600*
G02X1230000Y715750I137J481*
G01Y906118*
X1371856Y948339D02*
G03X1371623Y948762I500D01*
G02X1359900Y970000I13377J21238*
X1369966Y990100I25100*
G03X1370167Y990500I299J400*
X1369667Y991000I500*
G01X1208859*
G03X1208425Y990747J500*
G02X1208136Y990275I7475J4253*
G03X1208053Y990000I417J275*
X1208136Y989725I500*
G02X1209550Y985000I7186J4725*
X1208136Y980275I8600*
G03X1208053Y980000I417J275*
X1208136Y979725I500*
G02X1209550Y975000I7186J4725*
X1208425Y970747I8600*
G03X1208359Y970500I435J247*
X1208859Y970000I500*
G01X1350000*
Y947909*
G03X1350500Y947409I500*
X1350747Y947475J500*
G02X1355000Y948600I4253J7475*
X1359725Y947186J8600*
G03X1360000Y947103I275J417*
X1360275Y947186J500*
G02X1365000Y948600I4725J7186*
X1369725Y947186J8600*
G03X1370000Y947103I275J417*
X1370275Y947186J500*
G02X1371557Y947881I4725J7186*
G03X1371856Y948339I201J458*
G01X1411000Y967740D02*
G03X1410500Y968240I500D01*
X1410002Y967784J500*
G02X1398377Y948762I25002J2216*
G03X1398144Y948339I267J423*
X1398443Y947881I500*
G02X1399725Y947186I3443J7881*
G03X1400000Y947103I275J417*
X1400275Y947186J500*
G02X1405000Y948600I4725J7186*
X1409725Y947186J8600*
G03X1410000Y947103I275J417*
X1410275Y947186J500*
G02X1410747Y947475I4725J7186*
G03X1411000Y947909I247J434*
G01Y967740*
Y990500D02*
G03X1410500Y991000I500D01*
G01X1400333*
G03X1399833Y990500J500*
X1400034Y990100I500*
G02X1410002Y972216I15034J20100*
G03X1410500Y971761I498J45*
X1411000Y972261J500*
G01Y990500*
G37*
G54D10*
X0Y-74000D02*
X1415000D01*
Y995000*
X0*
Y-74000*
G54D11*
X129000Y435000D03*
X354000Y294000D03*
X574000Y599000D03*
X740100Y488000D03*
X850100Y563000D03*
G54D12*
X139000Y66000D03*
X210000Y586575D03*
Y733600D03*
X484000Y586575D03*
X569009Y856265D03*
X672400Y66000D03*
X883009Y856265D03*
X1061644Y226661D03*
Y500661D03*
X1061800Y700113D03*
Y974113D03*
X1208644Y500661D03*
X1246700Y607150D03*
Y921150D03*
X1361857Y401758D03*
Y528758D03*
X1394300Y619150D03*
Y746150D03*
G54D13*
X16000Y11250D02*
X22289Y8177D01*
X16000Y11250D02*
X9711Y8177D01*
X16000Y17750D02*
X20950Y22700D01*
X16000Y17750D02*
X11050Y22700D01*
X23000Y87500D02*
Y77000D01*
Y87500D02*
X12500D01*
X23000D02*
Y98000D01*
Y87500D02*
X33500D01*
X24250Y41500D02*
X19300Y36550D01*
X24250Y41500D02*
X19300Y46450D01*
X27750Y41500D02*
X32700Y36550D01*
X27750Y41500D02*
X32700Y46450D01*
X35500Y62500D02*
Y52000D01*
Y62500D02*
X25000D01*
X35500D02*
Y73000D01*
Y62500D02*
X46000D01*
X47300Y375200D02*
X57800D01*
X47300D02*
Y364700D01*
Y375200D02*
X36800D01*
X47300D02*
Y385700D01*
Y476800D02*
X57800D01*
X47300D02*
Y466300D01*
Y476800D02*
X36800D01*
X47300D02*
Y487300D01*
X56500Y741000D02*
X79029Y717576D01*
X56500Y741000D02*
X33519Y718019D01*
X56500Y741000D02*
X33519Y763981D01*
X56500Y741000D02*
X79029Y764424D01*
X74250Y41500D02*
X69300Y46450D01*
X74250Y41500D02*
X69300Y36550D01*
X77750Y41500D02*
X82700Y36550D01*
X77750Y41500D02*
X82700Y46450D01*
X86000Y14500D02*
X93000D01*
X86000D02*
X79000D01*
X86000Y17750D02*
Y24750D01*
X93000Y2000D03*
Y87500D02*
Y77000D01*
Y87500D02*
X82500D01*
X93000D02*
Y98000D01*
Y87500D02*
X103500D01*
X103000Y2000D03*
X111500Y741000D02*
X134481Y718019D01*
X111500Y741000D02*
X88971Y717576D01*
X111500Y741000D02*
X88971Y764424D01*
X111500Y741000D02*
X134481Y763981D01*
X113000Y2000D03*
X123000D03*
X133000D03*
X175100Y227300D02*
X175471Y217307D01*
X175100Y227300D02*
X165107Y227671D01*
X175100Y227300D02*
Y237300D01*
Y227300D02*
X185100D01*
X215700D02*
X215329Y217307D01*
X215700Y227300D02*
X205700D01*
X215700D02*
Y237300D01*
Y227300D02*
X225693Y227671D01*
X315100Y227300D02*
X315471Y217307D01*
X315100Y227300D02*
X305107Y227671D01*
X315100Y227300D02*
Y237300D01*
Y227300D02*
X325100D01*
X355700D02*
X355329Y217307D01*
X355700Y227300D02*
X365693Y227671D01*
X355700Y227300D02*
X345700D01*
X355700D02*
Y237300D01*
X455100Y227300D02*
Y237300D01*
Y227300D02*
X445107Y227671D01*
X455100Y227300D02*
X465100D01*
X455100D02*
X455471Y217307D01*
X495700Y227300D02*
Y237300D01*
Y227300D02*
X495329Y217307D01*
X495700Y227300D02*
X505693Y227671D01*
X495700Y227300D02*
X485700D01*
X554000Y782000D02*
X560222Y774171D01*
X554000Y782000D02*
X547778Y789829D01*
X554000Y782000D02*
X561829Y788222D01*
X595100Y227300D02*
X585107Y227671D01*
X595100Y227300D02*
X605100D01*
X595100D02*
Y237300D01*
Y227300D02*
X595471Y217307D01*
X635700Y227300D02*
Y237300D01*
Y227300D02*
X635329Y217307D01*
X635700Y227300D02*
X645693Y227671D01*
X635700Y227300D02*
X625700D01*
X678000Y592000D02*
X686122Y586166D01*
X678000Y592000D02*
X672409Y583709D01*
X678000Y592000D02*
X683344Y600452D01*
X757100Y494500D02*
X755917Y501399D01*
X757100Y494500D02*
X763999Y495683D01*
X757100Y494500D02*
X758283Y487601D01*
X757100Y553200D02*
X750100D01*
X757100D02*
Y560200D01*
Y553200D02*
X764100D01*
X757100D02*
Y546200D01*
X761100Y465200D02*
Y458200D01*
Y465200D02*
X754100D01*
X761100D02*
Y472200D01*
Y465200D02*
X768100D01*
X761100Y523900D02*
Y530900D01*
Y523900D02*
X768100D01*
X761100D02*
Y516900D01*
Y523900D02*
X754100D01*
X765100Y480700D02*
X758100D01*
X765100D02*
Y487700D01*
Y480700D02*
Y473700D01*
Y480700D02*
X772100D01*
X781100Y539400D02*
Y546400D01*
Y539400D02*
Y532400D01*
Y539400D02*
X788100D01*
X781100D02*
X774100D01*
X785100Y451300D02*
Y444300D01*
Y451300D02*
X778100D01*
X785100D02*
Y458300D01*
Y451300D02*
X792100D01*
X805100Y553200D02*
Y546200D01*
Y553200D02*
X798100D01*
X805100D02*
Y560200D01*
Y553200D02*
X812100D01*
X809100Y465200D02*
Y472200D01*
Y465200D02*
X816100D01*
X809100D02*
Y458200D01*
Y465200D02*
X802100D01*
X825100Y523900D02*
Y530900D01*
Y523900D02*
X832100D01*
X825100D02*
Y516900D01*
Y523900D02*
X818100D01*
X829100Y480700D02*
X822100D01*
X829100D02*
Y487700D01*
Y480700D02*
X836100D01*
X829100D02*
Y473700D01*
Y539400D02*
Y546400D01*
Y539400D02*
X836100D01*
X829100D02*
Y532400D01*
Y539400D02*
X822100D01*
X833100Y451300D02*
X829566Y457343D01*
X833100Y451300D02*
X839143Y454834D01*
X833100Y451300D02*
X836634Y445257D01*
X833100Y451300D02*
X827057Y447766D01*
X833100Y510000D02*
Y517000D01*
Y510000D02*
X840100D01*
X833100D02*
Y503000D01*
Y510000D02*
X826100D01*
X893000Y782000D02*
Y792000D01*
Y782000D02*
X903000D01*
X893000D02*
Y772000D01*
Y782000D02*
X883000D01*
X930000Y2000D03*
X940000D03*
X950000D03*
X960000D03*
X970000D03*
X980000D03*
X990000D03*
X996000Y925000D03*
Y935000D03*
Y945000D03*
Y955000D03*
Y965000D03*
Y975000D03*
Y985000D03*
Y995000D03*
X1000000Y2000D03*
X1024000Y189000D03*
Y560000D03*
Y588000D03*
X1026000Y925000D03*
Y935000D03*
Y945000D03*
Y955000D03*
Y965000D03*
Y975000D03*
Y985000D03*
Y995000D03*
X1034000Y189000D03*
Y560000D03*
Y588000D03*
X1041600Y10950D02*
X1032051Y23160D01*
X1041600Y10950D02*
X1052560Y21910D01*
X1041600Y10950D02*
X1052560Y-10D01*
X1041600Y10950D02*
X1032051Y-1260D01*
X1041600Y61750D02*
X1052560Y72710D01*
X1041600Y61750D02*
X1052560Y50790D01*
X1041600Y61750D02*
X1032051Y49541D01*
X1041600Y61750D02*
X1032051Y73960D01*
X1041600Y92950D02*
X1032051Y105160D01*
X1041600Y92950D02*
X1032051Y80741D01*
X1041600Y92950D02*
X1052560Y103910D01*
X1041600Y92950D02*
X1052560Y81990D01*
X1041600Y143750D02*
X1052560Y132790D01*
X1041600Y143750D02*
X1053025Y154225D01*
X1041600Y143750D02*
X1032051Y131541D01*
X1041600Y143750D02*
X1031531Y155534D01*
X1044000Y189000D03*
Y560000D03*
Y588000D03*
X1049150Y619988D02*
Y609488D01*
Y619988D02*
X1038650D01*
X1049150D02*
Y630488D01*
Y619988D02*
X1059650D01*
X1054000Y189000D03*
Y560000D03*
Y588000D03*
X1064000Y189000D03*
Y560000D03*
Y588000D03*
X1074000Y189000D03*
Y560000D03*
Y588000D03*
X1084000Y189000D03*
Y560000D03*
Y588000D03*
X1092400Y10950D02*
X1076900D01*
X1092400D02*
Y-4550D01*
Y10950D02*
X1107900D01*
X1092400D02*
Y26450D01*
Y61750D02*
X1103360Y50790D01*
X1092400Y61750D02*
X1103360Y72710D01*
X1092400Y61750D02*
X1081440Y72710D01*
X1092400Y61750D02*
X1081440Y50790D01*
X1092400Y92950D02*
X1081440Y103910D01*
X1092400Y92950D02*
X1081440Y81990D01*
X1092400Y92950D02*
X1103360Y81990D01*
X1092400Y92950D02*
X1103360Y103910D01*
X1092400Y143750D02*
X1103825Y154225D01*
X1092400Y143750D02*
X1103360Y132790D01*
X1092400Y143750D02*
X1081440Y132790D01*
X1092400Y143750D02*
X1080975Y154225D01*
X1094000Y189000D03*
Y560000D03*
Y588000D03*
X1100800Y712113D02*
X1101274Y700122D01*
X1100800Y712113D02*
Y724113D01*
Y712113D02*
X1112800D01*
X1100800Y962113D02*
X1112800D01*
X1100800D02*
Y950113D01*
Y962113D02*
X1101274Y974103D01*
X1136400Y884713D02*
X1142697Y879778D01*
X1136400Y884713D02*
X1130103Y879778D01*
X1136400Y884713D02*
X1130743Y890369D01*
X1136400Y884713D02*
X1142057Y890369D01*
X1150750Y619988D02*
Y609488D01*
Y619988D02*
Y630488D01*
Y619988D02*
X1140250D01*
X1150750D02*
X1161250D01*
X1152906Y789495D02*
X1146609Y794430D01*
X1152906Y789495D02*
X1159202Y794430D01*
X1152906Y789495D02*
X1158562Y783838D01*
X1152906Y789495D02*
X1147249Y783838D01*
X1152906Y840295D02*
X1146609Y835361D01*
X1152906Y840295D02*
X1159202Y835361D01*
X1152906Y840295D02*
X1146609Y845230D01*
X1152906Y840295D02*
X1159202Y845230D01*
X1170600Y10950D02*
X1186100D01*
X1170600D02*
Y26450D01*
Y10950D02*
X1155100D01*
X1170600D02*
Y-4550D01*
Y61750D02*
X1181560Y72710D01*
X1170600Y61750D02*
X1159640Y72710D01*
X1170600Y61750D02*
X1159640Y50790D01*
X1170600Y61750D02*
X1181560Y50790D01*
X1170600Y92950D02*
X1181560Y103910D01*
X1170600Y92950D02*
X1181560Y81990D01*
X1170600Y92950D02*
X1159640Y81990D01*
X1170600Y92950D02*
X1159640Y103910D01*
X1170600Y143750D02*
X1182025Y154225D01*
X1170600Y143750D02*
X1159640Y132790D01*
X1170600Y143750D02*
X1159175Y154225D01*
X1170600Y143750D02*
X1181560Y132790D01*
X1188400Y727113D02*
X1176400D01*
X1188400D02*
Y739113D01*
Y727113D02*
Y715113D01*
Y947113D02*
X1176400D01*
X1188400D02*
X1188069Y959108D01*
X1188400Y947113D02*
Y935113D01*
X1200000Y637000D03*
Y647000D03*
Y657000D03*
Y667000D03*
Y677000D03*
Y687000D03*
Y697000D03*
Y707000D03*
X1200950Y955000D03*
Y965000D03*
Y975000D03*
Y985000D03*
Y995000D03*
X1221400Y10950D02*
Y26450D01*
Y10950D02*
X1236900D01*
X1221400D02*
Y-4550D01*
Y10950D02*
X1205900D01*
X1221400Y61750D02*
X1210440Y72710D01*
X1221400Y61750D02*
X1232360Y50790D01*
X1221400Y61750D02*
X1210440Y50790D01*
X1221400Y61750D02*
X1232360Y72710D01*
X1221400Y92950D02*
X1232360Y103910D01*
X1221400Y92950D02*
X1210440Y103910D01*
X1221400Y92950D02*
X1232360Y81990D01*
X1221400Y92950D02*
X1210440Y81990D01*
X1221400Y143750D02*
X1210440Y132790D01*
X1221400Y143750D02*
X1232825Y154225D01*
X1221400Y143750D02*
X1232360Y132790D01*
X1221400Y143750D02*
X1209975Y154225D01*
X1228000Y637000D03*
Y647000D03*
Y657000D03*
Y667000D03*
Y677000D03*
Y687000D03*
Y697000D03*
Y707000D03*
X1270000Y560000D03*
Y588000D03*
X1280000Y560000D03*
Y588000D03*
X1290000Y560000D03*
Y588000D03*
X1299600Y10950D02*
Y-4550D01*
Y10950D02*
Y26450D01*
Y10950D02*
X1284100D01*
X1299600D02*
X1315100D01*
X1299600Y61750D02*
X1310560Y50790D01*
X1299600Y61750D02*
X1288640Y50790D01*
X1299600Y61750D02*
X1288640Y72710D01*
X1299600Y61750D02*
X1310560Y72710D01*
X1299600Y92950D02*
X1310560Y81990D01*
X1299600Y92950D02*
X1288640Y81990D01*
X1299600Y92950D02*
X1310560Y103910D01*
X1299600Y92950D02*
X1288640Y103910D01*
X1299600Y143750D02*
X1310560Y132790D01*
X1299600Y143750D02*
X1311025Y154225D01*
X1299600Y143750D02*
X1288175Y154225D01*
X1299600Y143750D02*
X1288640Y132790D01*
X1300000Y560000D03*
Y588000D03*
X1310000Y560000D03*
Y588000D03*
X1327557Y383958D02*
X1341057D01*
X1327557D02*
Y370458D01*
Y383958D02*
X1314057D01*
X1327557D02*
Y397458D01*
Y546558D02*
X1341057D01*
X1327557D02*
Y533058D01*
Y546558D02*
X1314058Y546500D01*
X1345000Y189000D03*
Y940000D03*
X1350400Y10950D02*
Y-4550D01*
Y10950D02*
X1334900D01*
X1350400D02*
X1365900D01*
X1350400D02*
Y26450D01*
Y61750D02*
X1339440Y50790D01*
X1350400Y61750D02*
X1361360Y72710D01*
X1350400Y61750D02*
X1361360Y50790D01*
X1350400Y61750D02*
X1339440Y72710D01*
X1350400Y92950D02*
X1361360Y81990D01*
X1350400Y92950D02*
X1339440Y103910D01*
X1350400Y92950D02*
X1361360Y103910D01*
X1350400Y92950D02*
X1339440Y81990D01*
X1350400Y143750D02*
X1339440Y132790D01*
X1350400Y143750D02*
X1361825Y154225D01*
X1350400Y143750D02*
X1338975Y154225D01*
X1350400Y143750D02*
X1361360Y132790D01*
X1351100Y677650D02*
X1342100D01*
X1351100D02*
X1360100D01*
X1351100D02*
Y668650D01*
Y677650D02*
Y686650D01*
X1355000Y189000D03*
Y940000D03*
X1360000Y601350D02*
X1373497Y601653D01*
X1360000Y601350D02*
X1346500D01*
X1360000D02*
Y614850D01*
Y763950D02*
X1346500D01*
X1360000D02*
X1373500D01*
X1360000D02*
Y777450D01*
Y763950D02*
Y750450D01*
X1365000Y189000D03*
Y940000D03*
X1368900Y687750D02*
X1359900D01*
X1368900D02*
X1377900D01*
X1368900D02*
Y678750D01*
Y687750D02*
Y696750D01*
X1375000Y189000D03*
Y560000D03*
Y588000D03*
Y940000D03*
X1385000Y189000D03*
Y560000D03*
Y588000D03*
Y940000D03*
X1395000Y189000D03*
Y560000D03*
Y588000D03*
Y940000D03*
X1405000Y189000D03*
Y560000D03*
Y588000D03*
Y940000D03*
X1415000Y189000D03*
Y560000D03*
Y588000D03*
Y940000D03*
G54D14*
X835181Y960694D02*
X831821Y963434D01*
X831761Y963514*
X831741Y963614*
X831701Y963674*
X831681Y963754*
Y966494*
X831701Y966554*
X831741Y966694*
X831761Y966794*
X831821Y966834*
X845141Y977654*
Y979794*
X832081*
X831941Y979834*
X831821Y979914*
X831761Y980054*
X831741Y980214*
X831761Y980354*
X831821Y980494*
X831941Y980574*
X832081Y980614*
X845561*
X845721Y980574*
X845821Y980474*
X845921Y980354*
X845961Y980214*
Y977474*
X845941Y977394*
X845901Y977274*
X845861Y977214*
X845841Y977174*
X845781Y977134*
X832481Y966294*
Y963954*
X835601Y961434*
X842061*
X845321Y964094*
X845461Y964134*
X845601Y964114*
X845721Y964034*
X845821Y963934*
X845881Y963794*
X845901Y963654*
X845881Y963534*
X845841Y963474*
X845781Y963434*
X842421Y960694*
X842341Y960674*
X842301Y960654*
X842261Y960634*
X842181Y960614*
X835441*
X835361Y960634*
X835321Y960654*
X835261Y960674*
X835181Y960694*
G54D15*
X184188Y395655D02*
X185661Y397127D01*
Y401821*
G54D16*
X171258Y313448D03*
X174529Y336674D03*
X177010Y405236D03*
X179321Y331972D03*
X183258Y388801D03*
X183388Y382044D03*
X183458Y364136D03*
X183463Y349554D03*
Y357382D03*
X183636Y342462D03*
X183657Y371099D03*
X184188Y395655D03*
X185661Y401821D03*
X188634Y337830D03*
X194775Y326363D03*
X195356Y337699D03*
X196089Y394511D03*
X201360Y326330D03*
X202268Y337797D03*
X202621Y394686D03*
X207947Y326457D03*
X208774Y337625D03*
X209551Y394835D03*
X214743Y326041D03*
X215281Y337482D03*
X215639Y312028D03*
X216099Y394773D03*
X222145Y337758D03*
X222644Y394623D03*
X222720Y327456D03*
X228671Y337732D03*
X229460Y394896D03*
X235196Y337764D03*
X236092Y394622D03*
X239525Y314309D03*
X240199Y344242D03*
X240652Y363841D03*
X240750Y356700D03*
Y373200D03*
Y380400D03*
X240849Y389352D03*
X243768Y338487D03*
X247066Y405211D03*
X251957Y395523D03*
X420000Y378000D03*
Y385000D03*
Y392000D03*
Y399000D03*
Y406000D03*
Y413000D03*
X430092Y299389D03*
X434686Y304521D03*
X444500Y339500D03*
Y346500D03*
Y353500D03*
Y360500D03*
Y367500D03*
Y374500D03*
Y381500D03*
Y388500D03*
Y395500D03*
Y402500D03*
X444901Y422259D03*
X445441Y326952D03*
X449548Y321854D03*
X451856Y442253D03*
X454584Y301647D03*
X456774Y420491D03*
X462408Y458189D03*
X463449Y301295D03*
X463503Y322421D03*
X464153Y451494D03*
X466948Y421343D03*
X467784Y327317D03*
X469570Y442330D03*
X471771Y467634D03*
X472072Y322346D03*
X473698Y421343D03*
X474293Y301014D03*
X476693Y327298D03*
X480606Y420924D03*
X480784Y322130D03*
X484586Y442304D03*
X485319Y327030D03*
X488356Y420924D03*
X489657Y322183D03*
X495102Y421499D03*
X496181Y301405D03*
X496279Y322479D03*
X502004Y421672D03*
X506276Y416390D03*
X506287Y327656D03*
X508128Y442333D03*
X509717Y321688D03*
X510792Y421448D03*
X513408Y327045D03*
X515006Y442313D03*
X517542Y421448D03*
X518237Y322258D03*
X522165Y327563D03*
X524627Y419305D03*
X526808Y322997D03*
X530813Y328180D03*
X531284Y421177D03*
X532013Y301159D03*
X532396Y442888D03*
X534169Y368700D03*
X535326Y322229D03*
X536071Y388726D03*
X536208Y378863D03*
X536308Y340987D03*
X536899Y349777D03*
X537631Y297392D03*
X537711Y334206D03*
X537737Y359420D03*
X538292Y421804D03*
X539234Y443485D03*
X540906Y383755D03*
X541382Y374140D03*
X541658Y393025D03*
X541758Y281895D03*
X541899Y322348D03*
X541993Y344808D03*
X542073Y354128D03*
X542206Y364634D03*
X542465Y329374D03*
X548807Y442896D03*
X549145Y429547D03*
X550174Y436277D03*
X556276Y307088D03*
X557758Y313875D03*
X558853Y429661D03*
X559113Y452870D03*
X563264Y374675D03*
X563758Y411781D03*
X564067Y425372D03*
X564514Y418624D03*
X564572Y403007D03*
X564880Y384987D03*
X568332Y316109D03*
X580893Y289841D03*
G54D17*
X18500Y132000D03*
Y663000D03*
Y690000D03*
Y720000D03*
Y750000D03*
Y780000D03*
Y810000D03*
Y840000D03*
Y930000D03*
X19051Y325545D03*
X20080Y259506D03*
X21029Y226455D03*
X24823Y219697D03*
X31141Y325680D03*
X35500Y267000D03*
Y276000D03*
Y285000D03*
X41783Y127232D03*
X44500Y267000D03*
Y276000D03*
Y285000D03*
X46018Y325545D03*
X50654Y610018D03*
X59932Y259518D03*
X60500Y987000D03*
X62039Y276272D03*
X68877Y672577D03*
X69900Y598396D03*
X71907Y792452D03*
X75000Y264000D03*
Y273000D03*
Y282000D03*
X83309Y143376D03*
X84000Y264000D03*
Y273000D03*
Y282000D03*
X93000Y264000D03*
Y273000D03*
Y282000D03*
X93500Y987000D03*
X96000Y-66000D03*
Y-33000D03*
X98379Y323744D03*
X99086Y672595D03*
X102500Y254500D03*
Y263500D03*
X108820Y46719D03*
X111500Y254500D03*
Y263500D03*
X112605Y359703D03*
X112625Y132533D03*
X113516Y369151D03*
X114749Y121718D03*
X120000Y-66500D03*
X120500Y254500D03*
Y263500D03*
Y987000D03*
X125540Y542015D03*
X126134Y551718D03*
X129500Y254500D03*
Y263500D03*
X130732Y473766D03*
X130786Y319189D03*
X131676Y369261D03*
Y381261D03*
Y393261D03*
Y405261D03*
X137340Y639190D03*
X137783Y159532D03*
Y210532D03*
X138500Y254500D03*
Y263500D03*
X138869Y349444D03*
X143676Y325761D03*
Y334761D03*
X150000Y-66500D03*
Y-42500D03*
Y-31500D03*
X150500Y987000D03*
X154530Y44237D03*
X156750Y496500D03*
Y505500D03*
X159047Y534068D03*
X164250Y64944D03*
X165476Y379612D03*
X165750Y496500D03*
Y505500D03*
X174585Y48785D03*
X174750Y496500D03*
Y505500D03*
Y534250D03*
X178793Y37300D03*
X180000Y-66500D03*
Y-42500D03*
Y-31500D03*
X180400Y281769D03*
X180500Y987000D03*
X180921Y289269D03*
X183308Y464403D03*
Y472251D03*
X183388Y480099D03*
X183610Y418190D03*
X183750Y516250D03*
Y525250D03*
Y534250D03*
X189854Y484804D03*
X194562Y15758D03*
X195980Y82743D03*
X196031Y91218D03*
X199950Y354500D03*
Y362500D03*
Y370500D03*
Y378500D03*
X201500Y7500D03*
X207094Y300634D03*
X207950Y354500D03*
Y362500D03*
Y370500D03*
Y378500D03*
X210000Y-66500D03*
Y-42500D03*
Y-31500D03*
X210500Y987000D03*
X212449Y261171D03*
X214844Y298826D03*
X215950Y354500D03*
Y362500D03*
Y370500D03*
Y378500D03*
X218389Y265750D03*
X222248Y33616D03*
X223950Y354500D03*
Y362500D03*
Y370500D03*
Y378500D03*
X224027Y690640D03*
X224126Y643338D03*
X226951Y278420D03*
X228307Y636560D03*
X228325Y683256D03*
X229606Y292395D03*
X231188Y300313D03*
X234000Y429000D03*
X235496Y632314D03*
X236111Y692228D03*
X236696Y476103D03*
X238820Y674540D03*
X239334Y624940D03*
X240000Y-66500D03*
Y-42500D03*
Y-31500D03*
X240267Y656474D03*
X240500Y987000D03*
X240552Y664290D03*
X241385Y682918D03*
X243000Y429000D03*
X246762Y645628D03*
X247694Y654261D03*
X247978Y637974D03*
X250283Y159532D03*
Y210532D03*
X257352Y558875D03*
X259865Y641626D03*
X261203Y596796D03*
X261923Y589080D03*
X262093Y83199D03*
X263597Y13296D03*
X264726Y625896D03*
X266493Y442500D03*
X270000Y-66500D03*
Y-42500D03*
Y-31500D03*
X270500Y7500D03*
Y987000D03*
X271278Y346364D03*
X271748Y331224D03*
X272373Y38423D03*
X272533Y458427D03*
X272612Y448177D03*
X274915Y687889D03*
X277132Y596706D03*
X277810Y308631D03*
X278013Y301134D03*
X280283Y159532D03*
Y210532D03*
Y458427D03*
X281975Y649010D03*
X285744Y523674D03*
X287250Y340000D03*
Y351000D03*
Y377500D03*
Y409000D03*
X288250Y390800D03*
X294618Y708413D03*
X294750Y385000D03*
X295403Y395607D03*
X296632Y596767D03*
X297207Y420737D03*
X300000Y-66500D03*
Y-42500D03*
Y-31500D03*
X300500Y987000D03*
X301446Y64882D03*
X303822Y37094D03*
X305346Y478762D03*
X305724Y649002D03*
X309487Y687342D03*
X311403Y725654D03*
X312906Y85337D03*
X319313Y591757D03*
X320781Y468476D03*
X323059Y85417D03*
X325180Y596820D03*
X328005Y705038D03*
X330000Y-66500D03*
Y-42500D03*
Y-31500D03*
X330500Y987000D03*
X332548Y14354D03*
X335295Y372392D03*
X336135Y739306D03*
X338517Y591965D03*
X338803Y550164D03*
X339500Y7500D03*
X341168Y685456D03*
X342550Y649770D03*
X343391Y606349D03*
X345261Y660063D03*
X348038Y591725D03*
X348122Y33242D03*
X348466Y670339D03*
X350696Y603456D03*
X350866Y677708D03*
X351130Y649073D03*
X352518Y559943D03*
X353365Y716819D03*
X357581Y591725D03*
X358064Y469475D03*
X359893Y655646D03*
X360000Y-66500D03*
Y-42500D03*
Y-31500D03*
X360500Y987000D03*
X363384Y698524D03*
X363480Y596752D03*
X365612Y481906D03*
X368016Y739661D03*
X368988Y551620D03*
X371374Y365514D03*
Y374686D03*
X371467Y383207D03*
Y392379D03*
Y401412D03*
Y410351D03*
X376466Y596749D03*
X376911Y551792D03*
X377173Y616783D03*
X377468Y718706D03*
X382069Y491010D03*
X382900Y466801D03*
X386874Y617740D03*
X389277Y38895D03*
X390000Y-66500D03*
Y-42500D03*
Y-31500D03*
X390500Y987000D03*
X393150Y699250D03*
X393249Y159553D03*
Y211150D03*
X395866Y402199D03*
X395946Y370832D03*
X395962Y362949D03*
X395985Y378652D03*
Y386461D03*
Y394269D03*
X399031Y473997D03*
X399761Y739661D03*
X400737Y444500D03*
X400739Y592088D03*
X401724Y13430D03*
X403432Y288596D03*
X404956Y718873D03*
X407402Y270746D03*
X408500Y7500D03*
X412750Y654426D03*
X412804Y673628D03*
X414250Y300000D03*
Y309000D03*
Y318000D03*
Y327000D03*
X415473Y907331D03*
X416123Y210549D03*
X417458Y596716D03*
X417526Y455656D03*
X419783Y159532D03*
X419921Y84354D03*
X420000Y-66500D03*
Y-42500D03*
Y-31500D03*
X420500Y915604D03*
Y987000D03*
X421189Y344403D03*
Y369403D03*
X421900Y699104D03*
X424479Y654335D03*
X425622Y456183D03*
X427042Y291854D03*
X427111Y284278D03*
X427623Y267600D03*
X427636Y259829D03*
X430023Y626742D03*
X430684Y739661D03*
X432228Y654472D03*
X433659Y718934D03*
X437000Y69899D03*
X437249Y629542D03*
X437876Y596634D03*
X440862Y654711D03*
X442831Y681711D03*
X443000Y415100D03*
X444088Y940553D03*
X444999Y629492D03*
X445000Y83456D03*
X449094Y655012D03*
X449408Y486956D03*
X450000Y-66500D03*
Y-42500D03*
Y-31500D03*
X450194Y449310D03*
X450500Y987000D03*
X451500Y415500D03*
X452543Y631269D03*
X453607Y567828D03*
X454134Y293229D03*
X454219Y280121D03*
X455000Y84034D03*
X455712Y766299D03*
X455937Y940522D03*
X457794Y655271D03*
X458378Y286736D03*
X459966Y739661D03*
X460250Y340000D03*
Y348000D03*
Y356000D03*
Y364000D03*
Y372000D03*
Y380000D03*
Y388000D03*
Y396000D03*
Y404000D03*
X460601Y772312D03*
X461219Y40594D03*
X461357Y567828D03*
X461677Y614297D03*
X463173Y676935D03*
X463410Y635073D03*
X468250Y340000D03*
Y348000D03*
Y356000D03*
Y364000D03*
Y372000D03*
Y380000D03*
Y388000D03*
Y396000D03*
Y404000D03*
X468381Y880273D03*
X468969Y39923D03*
X470206Y659866D03*
X470637Y14231D03*
X472766Y750108D03*
X472958Y284750D03*
X474332Y277020D03*
X474342Y642330D03*
X476250Y340000D03*
Y348000D03*
Y356000D03*
Y364000D03*
Y372000D03*
Y380000D03*
Y388000D03*
Y396000D03*
Y404000D03*
X477500Y7500D03*
X477906Y755928D03*
X479809Y940571D03*
X480000Y-66500D03*
Y-42500D03*
Y-31500D03*
X480500Y987000D03*
X480905Y270130D03*
Y281106D03*
X481019Y681298D03*
X482396Y948388D03*
X484250Y340000D03*
Y348000D03*
Y356000D03*
Y364000D03*
Y372000D03*
Y380000D03*
Y388000D03*
Y396000D03*
Y404000D03*
X485195Y753295D03*
X485865Y710506D03*
X491764Y769912D03*
X492013Y757099D03*
X492250Y340000D03*
Y348000D03*
Y356000D03*
Y364000D03*
Y372000D03*
Y380000D03*
Y388000D03*
Y396000D03*
Y404000D03*
X495515Y780264D03*
X498477Y752603D03*
X498560Y790531D03*
X500011Y502689D03*
X500250Y340000D03*
Y348000D03*
Y356000D03*
Y364000D03*
Y372000D03*
Y380000D03*
Y388000D03*
Y396000D03*
Y404000D03*
X500426Y662096D03*
X504303Y940564D03*
X504906Y270932D03*
X505214Y756434D03*
X505290Y278423D03*
X505946Y788184D03*
X507028Y689890D03*
X507758Y726196D03*
X508250Y340000D03*
Y348000D03*
Y356000D03*
Y364000D03*
Y372000D03*
Y380000D03*
Y388000D03*
Y396000D03*
Y404000D03*
X510000Y-66500D03*
Y-42500D03*
Y-31500D03*
X510500Y987000D03*
X511142Y459985D03*
X511417Y452174D03*
X512597Y285533D03*
X512790Y278036D03*
X512954Y756049D03*
X513684Y38255D03*
X516250Y340000D03*
Y348000D03*
Y356000D03*
Y364000D03*
Y372000D03*
Y380000D03*
Y388000D03*
Y396000D03*
Y404000D03*
X518323Y519828D03*
X519108Y508029D03*
X519177Y588085D03*
X520146Y571684D03*
X520704Y755969D03*
X524250Y340000D03*
Y348000D03*
Y356000D03*
Y364000D03*
Y372000D03*
Y380000D03*
Y388000D03*
Y396000D03*
Y404000D03*
X524363Y578186D03*
X524758Y524953D03*
X524802Y502500D03*
X525363Y707952D03*
X527185Y567299D03*
X527552Y669639D03*
X528302Y752606D03*
X528356Y762849D03*
X530783Y159532D03*
X533438Y782428D03*
X534764Y603694D03*
X535250Y210514D03*
X536365Y769581D03*
X536519Y902103D03*
X536876Y761847D03*
X536900Y398500D03*
X537101Y414352D03*
X538808Y518706D03*
X539823Y16767D03*
X540000Y-66500D03*
Y-42500D03*
Y-31500D03*
X540500Y987000D03*
X540588Y526249D03*
X540975Y87078D03*
X541188Y782487D03*
X541616Y404690D03*
X541834Y811333D03*
X543790Y689708D03*
X544111Y769329D03*
X546103Y454383D03*
X546500Y7500D03*
X546577Y462241D03*
X547657Y600304D03*
X548624Y649297D03*
X548987Y275849D03*
X550145Y87102D03*
X551860Y769183D03*
X553613Y540564D03*
X554463Y270718D03*
X557103Y533644D03*
X559049Y611965D03*
X559153Y808528D03*
X560269Y291903D03*
X560669Y210582D03*
X560783Y159532D03*
X562300Y59470D03*
X562622Y72820D03*
X563391Y51798D03*
X565352Y891080D03*
X565677Y279492D03*
X565691Y80581D03*
X568174Y434566D03*
X568181Y330801D03*
X569482Y442205D03*
X569970Y677393D03*
X570000Y-66500D03*
Y-42500D03*
Y-31500D03*
X570179Y291410D03*
X570364Y408609D03*
X570500Y987000D03*
X570514Y374549D03*
X570769Y95483D03*
X571144Y262938D03*
X573539Y279892D03*
X574650Y640879D03*
X574833Y387778D03*
X578036Y451824D03*
X578788Y380772D03*
X579947Y335300D03*
X580471Y393540D03*
X581545Y308417D03*
X582201Y64935D03*
X585218Y448046D03*
X590647Y309839D03*
X591000Y579000D03*
Y588000D03*
Y597000D03*
X594275Y34788D03*
X594716Y612446D03*
X598035Y438365D03*
X600000Y-66500D03*
Y-42500D03*
Y-31500D03*
Y579000D03*
Y588000D03*
Y597000D03*
X600500Y987000D03*
X600587Y298043D03*
X601988Y677119D03*
X603000Y798500D03*
X607647Y641206D03*
X608211Y21236D03*
X609000Y579000D03*
Y588000D03*
Y597000D03*
X612000Y798500D03*
Y807500D03*
X612309Y380546D03*
X615500Y7500D03*
X619882Y951109D03*
X621000Y780500D03*
Y789500D03*
Y798500D03*
Y807500D03*
X621094Y307712D03*
X624213Y453748D03*
X625825Y612361D03*
X628256Y532442D03*
X629500Y400036D03*
X629569Y429836D03*
X630000Y-66500D03*
Y-42500D03*
Y-31500D03*
Y676500D03*
Y685500D03*
Y694500D03*
Y703500D03*
Y712500D03*
Y721500D03*
Y730500D03*
Y739500D03*
Y762500D03*
Y771500D03*
Y780500D03*
Y789500D03*
Y798500D03*
Y807500D03*
Y816500D03*
Y825500D03*
X630500Y987000D03*
X630574Y370635D03*
X633500Y478000D03*
Y496000D03*
Y514000D03*
X638235Y327279D03*
X639561Y36069D03*
X641574Y366345D03*
X641647Y374696D03*
X641929Y602106D03*
X645500Y478000D03*
Y496000D03*
X645527Y594745D03*
X645544Y640552D03*
X648000Y676500D03*
Y685500D03*
Y694500D03*
Y703500D03*
Y712500D03*
Y721500D03*
Y730500D03*
Y739500D03*
Y762500D03*
Y771500D03*
Y780500D03*
Y789500D03*
Y798500D03*
Y807500D03*
Y816500D03*
Y825500D03*
X649465Y513071D03*
X649832Y602121D03*
X650038Y293330D03*
X650572Y339190D03*
X652173Y457773D03*
X653580Y519638D03*
X657239Y368632D03*
X657500Y478000D03*
Y496000D03*
X657908Y360911D03*
X660000Y-66500D03*
Y-42500D03*
Y-31500D03*
X660500Y987000D03*
X663243Y260285D03*
X664125Y549156D03*
X664965Y369242D03*
X665344Y593489D03*
X665737Y602092D03*
X666703Y392856D03*
X667532Y23575D03*
X669447Y307314D03*
X669500Y478000D03*
Y496000D03*
Y514000D03*
X669513Y330851D03*
X671783Y159532D03*
Y210532D03*
X673165Y549156D03*
X675000Y694500D03*
Y703500D03*
Y712500D03*
Y721500D03*
X677929Y360063D03*
X681000Y826500D03*
Y835500D03*
Y844500D03*
X681500Y7500D03*
Y478000D03*
Y496000D03*
Y514000D03*
X681540Y854981D03*
Y873033D03*
X684000Y694500D03*
Y703500D03*
Y712500D03*
Y721500D03*
X685954Y549169D03*
X686047Y956289D03*
X688984Y330409D03*
X689780Y315014D03*
X690000Y-66500D03*
Y-42500D03*
Y-31500D03*
Y826500D03*
Y835500D03*
Y844500D03*
X690035Y594340D03*
X690045Y602090D03*
X690500Y987000D03*
X692706Y673471D03*
X693000Y108000D03*
Y117000D03*
Y243000D03*
Y252000D03*
Y694500D03*
Y703500D03*
Y712500D03*
Y721500D03*
X693645Y520079D03*
X697795Y602098D03*
X698576Y499778D03*
X699000Y826500D03*
Y835500D03*
Y844500D03*
X701395Y520079D03*
X702000Y108000D03*
Y117000D03*
Y243000D03*
Y252000D03*
X705805Y602097D03*
X709697Y549169D03*
X710169Y956221D03*
X712723Y639693D03*
X713945Y602110D03*
X717228Y433358D03*
X719698Y949548D03*
X720000Y-66500D03*
Y-42500D03*
Y-31500D03*
X720500Y987000D03*
X726500Y7500D03*
X728695Y540812D03*
X736000Y687000D03*
X741000Y773000D03*
X741182Y639403D03*
X743500Y672741D03*
X744000Y687000D03*
X750000Y-66500D03*
Y-42500D03*
Y-31500D03*
Y773000D03*
X759000Y690000D03*
Y776000D03*
X759079Y445526D03*
X768000Y776000D03*
X770942Y563972D03*
X776422Y23574D03*
X780000Y-66500D03*
Y-42500D03*
Y-31500D03*
X783000Y703500D03*
Y712500D03*
Y721500D03*
Y730500D03*
Y789500D03*
Y798500D03*
Y807500D03*
Y816500D03*
X787170Y674255D03*
X792000Y703500D03*
Y712500D03*
Y721500D03*
Y730500D03*
Y789500D03*
Y798500D03*
Y807500D03*
Y816500D03*
X792728Y637515D03*
X795500Y7500D03*
X799729Y670595D03*
X801000Y703500D03*
Y712500D03*
Y721500D03*
Y730500D03*
Y789500D03*
Y798500D03*
Y807500D03*
Y816500D03*
X801088Y391965D03*
X809747Y445925D03*
X810000Y-66500D03*
Y-42500D03*
Y-31500D03*
X825834Y659005D03*
X830916Y565932D03*
X834500Y241000D03*
Y250000D03*
Y259000D03*
Y268000D03*
Y277000D03*
Y286000D03*
Y295000D03*
X836499Y464276D03*
X838360Y471800D03*
X839906Y872706D03*
X840000Y-66500D03*
Y-42500D03*
Y-31500D03*
X840057Y913628D03*
X845269Y23574D03*
X851997Y671655D03*
X852405Y535730D03*
X852856Y498119D03*
X853507Y508901D03*
X855500Y241000D03*
Y250000D03*
Y259000D03*
Y268000D03*
Y277000D03*
Y286000D03*
Y295000D03*
X856181Y627932D03*
X857866Y692840D03*
Y716840D03*
Y740840D03*
Y778840D03*
Y802840D03*
X858009Y821004D03*
X858545Y492701D03*
X870000Y-66500D03*
Y-42500D03*
Y-31500D03*
X873500Y7500D03*
Y37500D03*
Y91500D03*
Y121500D03*
Y172500D03*
Y202500D03*
Y415500D03*
Y499500D03*
Y522000D03*
Y546000D03*
Y649500D03*
X882000Y673500D03*
Y682500D03*
Y691500D03*
Y700500D03*
Y709500D03*
Y718500D03*
X886073Y915209D03*
X886659Y890880D03*
X891000Y673500D03*
Y718500D03*
X900000Y-66500D03*
Y-42500D03*
Y-31500D03*
Y673500D03*
Y718500D03*
X909000Y673500D03*
Y718500D03*
Y730500D03*
X918000Y673500D03*
Y730500D03*
X927000Y673500D03*
Y682500D03*
Y691500D03*
Y700500D03*
Y709500D03*
Y730500D03*
X930000Y-66500D03*
Y-42500D03*
Y-31500D03*
X951500Y672000D03*
Y987000D03*
X952088Y835415D03*
X960000Y-66500D03*
Y-42500D03*
Y-31500D03*
X981500Y672000D03*
Y702000D03*
Y741000D03*
Y771000D03*
Y801000D03*
Y831000D03*
Y861000D03*
Y891000D03*
Y960000D03*
Y987000D03*
X990000Y-66500D03*
Y-42500D03*
Y-31500D03*
X1020000Y-66500D03*
Y-42500D03*
Y-31500D03*
X1036232Y857321D03*
X1036297Y840175D03*
X1036800Y832205D03*
X1036802Y872909D03*
X1036915Y880925D03*
X1036950Y807000D03*
X1037028Y848992D03*
X1044000Y-18000D03*
X1050000Y-66500D03*
Y-42500D03*
Y-31500D03*
X1060401Y433312D03*
Y441062D03*
X1060440Y303772D03*
X1060521Y410627D03*
X1060529Y418385D03*
X1060641Y391616D03*
X1068000Y-12000D03*
X1071323Y273591D03*
X1071526Y802307D03*
Y810600D03*
X1071553Y290121D03*
Y312315D03*
Y343462D03*
X1071566Y794341D03*
X1071783Y328692D03*
X1072042Y785968D03*
X1072082Y766408D03*
X1072189Y742344D03*
Y750081D03*
Y758040D03*
X1072197Y915090D03*
Y922786D03*
Y930450D03*
X1080000Y-66500D03*
Y-42500D03*
Y-31500D03*
X1081732Y366268D03*
X1086706Y460400D03*
X1087395Y443181D03*
X1087428Y931880D03*
X1087443Y745734D03*
Y753545D03*
Y761282D03*
X1087446Y850245D03*
Y858277D03*
Y866162D03*
Y874268D03*
Y881932D03*
X1087502Y923994D03*
X1087649Y916035D03*
X1087668Y780724D03*
X1087842Y814456D03*
Y797098D03*
X1087944Y805750D03*
X1094313Y757131D03*
X1095668Y824742D03*
X1098563Y853686D03*
X1098943Y777019D03*
X1098991Y882836D03*
X1099180Y816678D03*
X1099200Y835966D03*
Y844101D03*
X1099511Y291425D03*
X1099519Y299452D03*
X1104000Y-27000D03*
X1105950Y683000D03*
X1110000Y-66500D03*
Y-42500D03*
X1116000Y99000D03*
Y123000D03*
X1122000Y-9000D03*
X1124071Y341952D03*
X1124152Y333724D03*
X1124441Y349543D03*
X1124539Y357400D03*
X1125000Y15000D03*
Y45000D03*
Y75000D03*
X1126830Y319689D03*
X1127899Y309709D03*
X1134000Y-18000D03*
X1137000Y102000D03*
X1137276Y367086D03*
X1138365Y249307D03*
X1140000Y-66500D03*
Y-42500D03*
Y15000D03*
Y45000D03*
Y75000D03*
X1141232Y266612D03*
X1141242Y258262D03*
X1141494Y274367D03*
X1145185Y366995D03*
X1156430Y283623D03*
X1161155Y318034D03*
Y326034D03*
Y334034D03*
X1169155Y318034D03*
Y326034D03*
Y334034D03*
X1169798Y283340D03*
X1170000Y-66500D03*
Y-42500D03*
X1172744Y378069D03*
X1177155Y310034D03*
Y318034D03*
Y326034D03*
Y334034D03*
X1179770Y283659D03*
X1180712Y377983D03*
X1185155Y318034D03*
X1185167Y367215D03*
X1187629Y283561D03*
X1194116Y368138D03*
X1200000Y-66500D03*
Y-42500D03*
X1201045Y384612D03*
X1202656Y283074D03*
X1206661Y257336D03*
X1206931Y265223D03*
X1207195Y273034D03*
X1208439Y246676D03*
X1210273Y374004D03*
X1211499Y433503D03*
X1230000Y-66500D03*
X1233000Y-39000D03*
X1248000Y-9000D03*
Y42000D03*
Y72000D03*
Y129000D03*
X1251916Y374836D03*
X1257000Y-57000D03*
X1270593Y202724D03*
X1272000Y-36000D03*
Y-9000D03*
Y42000D03*
Y72000D03*
Y129000D03*
X1290018Y374534D03*
X1299238Y919896D03*
X1299285Y606121D03*
X1302364Y878608D03*
X1308913Y203145D03*
X1327128Y346682D03*
X1341138Y885350D03*
X1346549Y202692D03*
X1361689Y912699D03*
X1366057Y346431D03*
X1374910Y782615D03*
X1385058Y203101D03*
X1385337Y912699D03*
X1386381Y813684D03*
X1391308Y483143D03*
X1396938Y852600D03*
G54D18*
X1041600Y10950D03*
Y61750D03*
Y92950D03*
Y143750D03*
X1092400Y10950D03*
Y61750D03*
Y92950D03*
Y143750D03*
X1170600Y10950D03*
Y61750D03*
Y92950D03*
Y143750D03*
X1221400Y10950D03*
Y61750D03*
Y92950D03*
Y143750D03*
X1299600Y10950D03*
Y61750D03*
Y92950D03*
Y143750D03*
X1350400Y10950D03*
Y61750D03*
Y92950D03*
Y143750D03*
G54D19*
X1067000Y36350D03*
Y118350D03*
X1196000Y36350D03*
Y118350D03*
X1325000Y36350D03*
Y118350D03*
G54D20*
X21500Y879000D03*
X29300Y860300D03*
Y897700D03*
X39500Y186000D03*
X47300Y167300D03*
Y204700D03*
X48000Y852500D03*
Y905500D03*
X66000Y159500D03*
Y212500D03*
X66700Y860300D03*
Y897700D03*
X74500Y879000D03*
X84700Y167300D03*
Y204700D03*
X92500Y186000D03*
X579950Y911206D03*
X872050D03*
X891500Y274500D03*
X899300Y255800D03*
Y293200D03*
X918000Y248000D03*
Y301000D03*
X925500Y930000D03*
X933300Y911300D03*
Y948700D03*
X936700Y255800D03*
Y293200D03*
X944500Y274500D03*
X952000Y903500D03*
Y956500D03*
X970700Y911300D03*
Y948700D03*
X978500Y930000D03*
G54D21*
X23000Y87500D03*
X35500Y62500D03*
X47300Y375200D03*
Y400600D03*
Y426000D03*
Y451400D03*
Y476800D03*
X72700Y375200D03*
Y400600D03*
Y426000D03*
Y451400D03*
Y476800D03*
X80500Y62500D03*
X93000Y87500D03*
X723850Y67000D03*
Y147000D03*
Y227000D03*
Y307000D03*
Y387000D03*
X755100Y583300D03*
X795100D03*
X835100D03*
X866350Y67000D03*
Y147000D03*
Y227000D03*
Y307000D03*
Y387000D03*
X1049150Y619988D03*
Y645388D03*
X1074550Y619988D03*
Y645388D03*
X1099950Y619988D03*
Y645388D03*
X1125350Y619988D03*
Y645388D03*
X1150750Y619988D03*
Y645388D03*
G54D22*
X627800Y575625D03*
X723800D03*
G54D23*
X162400Y113000D03*
Y138400D03*
Y163800D03*
Y189200D03*
Y214600D03*
X175100Y125700D03*
Y151100D03*
Y176200D03*
Y201900D03*
Y227300D03*
X215700Y125700D03*
Y151100D03*
Y176500D03*
Y201900D03*
Y227300D03*
X228400Y113000D03*
Y138400D03*
Y163800D03*
Y189200D03*
Y214600D03*
X302400Y113000D03*
Y138400D03*
Y163800D03*
Y189200D03*
Y214600D03*
X315100Y125700D03*
Y151100D03*
Y176200D03*
Y201900D03*
Y227300D03*
X355700Y125700D03*
Y151100D03*
Y176500D03*
Y201900D03*
Y227300D03*
X368400Y113000D03*
Y138400D03*
Y163800D03*
Y189200D03*
Y214600D03*
X442400Y113000D03*
Y138400D03*
Y163800D03*
Y189200D03*
Y214600D03*
X455100Y125700D03*
Y151100D03*
Y176200D03*
Y201900D03*
Y227300D03*
X495700Y125700D03*
Y151100D03*
Y176500D03*
Y201900D03*
Y227300D03*
X508400Y113000D03*
Y138400D03*
Y163800D03*
Y189200D03*
Y214600D03*
X554000Y782000D03*
X582400Y113000D03*
Y138400D03*
Y163800D03*
Y189200D03*
Y214600D03*
X595100Y125700D03*
Y151100D03*
Y176200D03*
Y201900D03*
Y227300D03*
X604000Y782000D03*
X635700Y125700D03*
Y151100D03*
Y176500D03*
Y201900D03*
Y227300D03*
X648400Y113000D03*
Y138400D03*
Y163800D03*
Y189200D03*
Y214600D03*
X678000Y592000D03*
Y642000D03*
X893000Y782000D03*
X943000D03*
G54D24*
X111500Y20300D03*
Y220900D03*
X266000Y238700D03*
X405700D03*
X545400D03*
X700300Y20300D03*
Y180300D03*
X1327557Y383958D03*
Y546558D03*
X1360000Y601350D03*
Y763950D03*
G54D25*
X1318657Y429658D03*
Y449958D03*
Y470258D03*
Y490558D03*
X1336457Y439858D03*
Y460158D03*
Y480458D03*
Y500758D03*
X1351100Y657350D03*
Y677650D03*
Y697950D03*
Y718250D03*
X1368900Y647150D03*
Y667450D03*
Y687750D03*
Y708050D03*
G54D26*
X1301758Y618091D03*
Y910191D03*
G54D27*
X795100Y147000D03*
Y608000D03*
G54D28*
X757100Y494500D03*
Y553200D03*
X761100Y465200D03*
Y523900D03*
X765100Y480700D03*
Y539400D03*
X769100Y451300D03*
Y510000D03*
X773100Y494500D03*
Y553200D03*
X777100Y465200D03*
Y523900D03*
X781100Y480700D03*
Y539400D03*
X785100Y451300D03*
Y510000D03*
X789100Y494500D03*
Y553200D03*
X793100Y465200D03*
Y523900D03*
X797100Y480700D03*
Y539400D03*
X801100Y451300D03*
Y510000D03*
X805100Y494500D03*
Y553200D03*
X809100Y465200D03*
Y523900D03*
X813100Y480700D03*
Y539400D03*
X817100Y451300D03*
Y510000D03*
X821100Y494500D03*
Y553200D03*
X825100Y465200D03*
Y523900D03*
X829100Y480700D03*
Y539400D03*
X833100Y451300D03*
Y510000D03*
G54D29*
X246200Y577875D03*
X447500D03*
X1099643Y271442D03*
Y455442D03*
X1099800Y745113D03*
Y929113D03*
G54D30*
X16000Y14500D03*
X86000D03*
G54D31*
X979000Y82500D03*
G54D32*
X929000Y50000D03*
Y115000D03*
G54D33*
X1136400Y783113D03*
Y795813D03*
Y808513D03*
Y821213D03*
Y833913D03*
Y846613D03*
Y859313D03*
Y872013D03*
Y884713D03*
X1152906Y789495D03*
Y802195D03*
Y814895D03*
Y827595D03*
Y840295D03*
Y852995D03*
Y865695D03*
Y878395D03*
Y891095D03*
G54D34*
X1100800Y712113D03*
Y962113D03*
X1188400Y727113D03*
Y947113D03*
G54D70*
X56500Y741000D03*
X111500D03*
G54D71*
X48000Y879000D03*
X66000Y186000D03*
X918000Y274500D03*
X952000Y930000D03*
G54D72*
X30000Y-49000D03*
Y970000D03*
X1385000D03*
Y-49000D03*
G54D73*
X26000Y41500D03*
X76000D03*
M02*
