*
G04 Job   : H:\PCB100-199\PCB121_Ferret_Cu8_SFP2_Unmngd_ref_board\Rev2\Layout\working\PCB\pcb121-02.pcb*
G04 User  : HERENT0076:mag*
G04 Layer : 10_PasteBot.gdo*
G04 Date  : Fri Aug 12 11:52:13 2016*
%ICAS*%
%MOMM*%
%FSLAX24Y24*%
%OFA0.0000B0.0000*%
G90*
G74*
%AMVB_RECTANGLE*
21,1,$1,$2,0,0,$3*
%
%ADD10C,0.00500*%
%ADD11C,1.00000*%
%ADD32O,1.25000X0.90000*%
%ADD33O,0.90000X1.55000*%
%ADD70VB_RECTANGLE,1.50000X1.50000X270.00000*%
%ADD72VB_RECTANGLE,0.30000X1.45000X90.00000*%
%ADD31VB_RECTANGLE,0.40000X1.50000X180.00000*%
%ADD21VB_RECTANGLE,0.50000X2.00000X180.00000*%
%ADD13VB_RECTANGLE,0.50040X0.59940X0.00000*%
%ADD15VB_RECTANGLE,0.50040X0.59940X270.00000*%
%ADD23VB_RECTANGLE,0.55000X0.75000X270.00000*%
%ADD34VB_RECTANGLE,0.60000X1.30000X180.00000*%
%ADD12VB_RECTANGLE,0.80000X0.80000X0.00000*%
%ADD14VB_RECTANGLE,0.80000X0.80000X270.00000*%
%ADD22VB_RECTANGLE,0.90000X1.00000X0.00000*%
%ADD71VB_RECTANGLE,0.90000X1.00000X270.00000*%
%ADD18VB_RECTANGLE,1.00000X0.50000X0.00000*%
%ADD20VB_RECTANGLE,1.00000X0.50000X270.00000*%
%ADD25VB_RECTANGLE,1.20000X1.90000X0.00000*%
%ADD16VB_RECTANGLE,1.20000X1.90000X270.00000*%
%ADD17VB_RECTANGLE,1.30000X1.00000X0.00000*%
%ADD26VB_RECTANGLE,1.30000X1.00000X90.00000*%
%ADD24VB_RECTANGLE,1.30000X2.80000X90.00000*%
%ADD29VB_RECTANGLE,1.40000X3.20000X270.00000*%
%ADD28VB_RECTANGLE,1.80000X0.40000X0.00000*%
%ADD30VB_RECTANGLE,2.55000X0.65000X90.00000*%
%ADD19VB_RECTANGLE,3.60000X1.70000X0.00000*%
%ADD27VB_RECTANGLE,3.60000X1.70000X90.00000*%
%ADD73VB_RECTANGLE,4.70000X0.65000X90.00000*%
G01*
G36*
X16000Y7000D02*
X28500D01*
Y22000*
X16000*
Y7000*
X33500D02*
X48500D01*
Y22000*
X33500*
Y7000*
X53500D02*
X68500D01*
Y22000*
X53500*
Y7000*
X73500D02*
X86000D01*
Y22000*
X73500*
Y7000*
G37*
G54D10*
X0Y-74000D02*
X1415000D01*
Y995000*
X0*
Y-74000*
G54D11*
X80000Y-49000D03*
Y970000D03*
X195500Y164000D03*
X342000Y450000D03*
X475500Y164000D03*
X564000Y708000D03*
X624000Y282000D03*
X903000Y21000D03*
X921000Y978000D03*
X1032000Y600000D03*
X1047000Y540000D03*
X1159950Y963000D03*
X1335000Y-49000D03*
X1392000Y225000D03*
G54D12*
X90150Y122500D03*
X90250Y110500D03*
X106150Y122500D03*
X106250Y110500D03*
X107350Y-37000D03*
X123350D03*
X143500Y314500D03*
X149500Y345000D03*
X159500Y314500D03*
X163000Y243000D03*
X165500Y345000D03*
X179000Y243000D03*
X194000Y403500D03*
X210000D03*
X211000Y243000D03*
X227000D03*
X250000Y365000D03*
X254500Y316000D03*
X266000Y365000D03*
X270500Y316000D03*
X277000Y365000D03*
X280000Y91000D03*
X293000Y365000D03*
X296000Y91000D03*
X304000Y243000D03*
X320000D03*
X322000Y561000D03*
X338000D03*
X344000Y372502D03*
X352000Y243000D03*
X360000Y372502D03*
X368000Y243000D03*
X420000Y352999D03*
X436000D03*
X439000Y260499D03*
Y271499D03*
Y286502D03*
X443500Y243000D03*
X455000Y260499D03*
Y271499D03*
Y286502D03*
X459500Y243000D03*
X478250Y293000D03*
Y311000D03*
X484000Y450499D03*
X491500Y243000D03*
X494250Y293000D03*
Y311000D03*
X500000Y450499D03*
X507500Y243000D03*
X552000Y363500D03*
X563000Y269499D03*
X568000Y363500D03*
X579000Y269499D03*
X583000Y243000D03*
X599000D03*
X631000D03*
X647000D03*
X1149930Y274659D03*
X1149931Y262666D03*
X1165930Y274659D03*
X1165931Y262666D03*
X1174931Y387066D03*
X1181930Y274659D03*
X1181931Y262666D03*
X1190931Y387066D03*
X1197930Y274659D03*
X1197931Y262666D03*
X1368643Y451558D03*
Y463558D03*
X1384643Y451558D03*
Y463558D03*
G54D13*
X114000Y381000D03*
Y393000D03*
Y405000D03*
X124000Y381000D03*
Y393000D03*
Y405000D03*
X139000Y357000D03*
Y369000D03*
Y381000D03*
Y393000D03*
Y405000D03*
X149000Y357000D03*
Y369000D03*
Y381000D03*
Y393000D03*
Y405000D03*
X151000Y325500D03*
Y334500D03*
X161000Y325500D03*
Y334500D03*
X166000Y371000D03*
Y388000D03*
X176000Y371000D03*
Y388000D03*
X190000Y347200D03*
Y387500D03*
X191000Y414000D03*
Y423000D03*
X200000Y347200D03*
Y387500D03*
X201000Y414000D03*
Y423000D03*
X207000Y387500D03*
X217000D03*
X223500Y347200D03*
X224000Y387500D03*
X233500Y347200D03*
X234000Y387500D03*
X254000Y327000D03*
Y336000D03*
Y345000D03*
X262000Y91000D03*
X264000Y327000D03*
Y336000D03*
Y345000D03*
X265000Y354000D03*
X272000Y91000D03*
X275000Y354000D03*
X313000Y93000D03*
X323000D03*
X364000Y492502D03*
X373000Y483502D03*
X374000Y492502D03*
X378500Y356499D03*
Y365499D03*
Y374499D03*
Y383499D03*
Y392499D03*
Y401499D03*
Y410499D03*
X382000Y474502D03*
X383000Y483502D03*
X388500Y356499D03*
Y365499D03*
Y374499D03*
Y383499D03*
Y392499D03*
Y401499D03*
Y410499D03*
X391000Y465502D03*
X392000Y474502D03*
X400000Y456502D03*
X401000Y465502D03*
X403000Y365502D03*
Y374502D03*
Y383502D03*
Y392502D03*
Y401502D03*
Y410502D03*
X409000Y447502D03*
X410000Y456502D03*
X413000Y365502D03*
Y374502D03*
Y383502D03*
Y392502D03*
Y401502D03*
Y410502D03*
X419000Y447502D03*
X436950Y297500D03*
X445000Y91600D03*
X446950Y297500D03*
X455000Y91600D03*
X541000Y94600D03*
X551000D03*
X552000Y320499D03*
X562000D03*
X564000Y308499D03*
X571000Y299499D03*
X574000Y308499D03*
X580000Y317499D03*
Y326502D03*
X581000Y299499D03*
X589000Y272499D03*
Y281499D03*
Y290499D03*
X590000Y317499D03*
Y326502D03*
X599000Y272499D03*
Y281499D03*
Y290499D03*
X778000Y564000D03*
X782500Y438000D03*
X788000Y564000D03*
X790000Y663000D03*
X792500Y438000D03*
X799000Y564000D03*
X800000Y663000D03*
X805000Y438000D03*
X809000Y564000D03*
X815000Y438000D03*
G54D14*
X105000Y352000D03*
Y368000D03*
X107350Y-63000D03*
Y-47000D03*
X189000Y220000D03*
Y236000D03*
X201000Y220000D03*
Y236000D03*
X206250Y274000D03*
Y290000D03*
X218250Y274000D03*
Y290000D03*
X330000Y220000D03*
Y236000D03*
X342000Y220000D03*
Y236000D03*
X429999Y370000D03*
Y386000D03*
X469500Y220000D03*
Y236000D03*
X481500Y220000D03*
Y236000D03*
X494502Y469000D03*
Y485000D03*
X506499Y469000D03*
Y485000D03*
X556500Y403000D03*
Y419000D03*
X576790Y416582D03*
Y432582D03*
X609000Y220000D03*
Y236000D03*
X621000Y220000D03*
Y236000D03*
X759000Y421000D03*
Y437000D03*
X852000Y647000D03*
Y663000D03*
X896000Y895000D03*
Y911000D03*
X1138931Y286066D03*
Y302066D03*
X1150930Y341659D03*
Y357659D03*
X1160930Y293659D03*
Y309659D03*
X1217442Y244643D03*
Y260643D03*
X1241980Y359201D03*
Y375201D03*
X1298680Y359201D03*
Y375201D03*
X1318607Y348122D03*
Y364122D03*
X1356680Y348201D03*
Y364201D03*
G54D15*
X118000Y542000D03*
Y552000D03*
X172500Y320000D03*
Y330000D03*
X176000Y412000D03*
Y422000D03*
X192000Y354000D03*
Y364000D03*
Y370500D03*
Y380500D03*
X233000Y354000D03*
Y364000D03*
Y370500D03*
Y380500D03*
X235500Y321000D03*
Y331000D03*
X244500Y321000D03*
Y331000D03*
X249000Y378000D03*
Y388000D03*
X258000Y378000D03*
Y388000D03*
X410999Y278500D03*
Y288500D03*
X452002Y348000D03*
Y358000D03*
Y364500D03*
Y374500D03*
Y381000D03*
Y391000D03*
X452499Y398000D03*
Y408000D03*
X452502Y329000D03*
Y339000D03*
X473202Y451000D03*
Y461000D03*
X483502Y460000D03*
Y470000D03*
X534702Y280800D03*
Y290800D03*
X545502Y412000D03*
Y422000D03*
X556202Y374000D03*
Y384000D03*
X559202Y436300D03*
Y446300D03*
X627499Y481000D03*
Y491000D03*
X627502Y502000D03*
Y512000D03*
X639499Y481000D03*
Y491000D03*
Y502000D03*
Y512000D03*
X651499Y481000D03*
Y491000D03*
X663499Y481000D03*
Y491000D03*
X663502Y502000D03*
Y512000D03*
X675499Y481000D03*
Y491000D03*
X675502Y502000D03*
Y512000D03*
X801000Y399000D03*
Y409000D03*
X1037025Y903500D03*
Y913500D03*
Y921500D03*
Y931500D03*
G54D16*
X42000Y224000D03*
Y256000D03*
X72000Y803000D03*
Y835000D03*
X108000Y242000D03*
Y274000D03*
X132000Y242000D03*
Y274000D03*
X702000Y65000D03*
Y97000D03*
Y128000D03*
Y160000D03*
Y200000D03*
Y232000D03*
Y263000D03*
Y295000D03*
X952000Y846000D03*
Y878000D03*
G54D17*
X438502Y438000D03*
Y456000D03*
X950000Y73500D03*
Y91500D03*
G54D18*
X164800Y38500D03*
Y48000D03*
Y57500D03*
X188800Y38500D03*
Y48000D03*
Y57500D03*
X213000Y29000D03*
Y38500D03*
Y48000D03*
X237000Y29000D03*
Y38500D03*
Y48000D03*
X339000Y28500D03*
Y38000D03*
Y47500D03*
X363000Y28500D03*
Y38000D03*
Y47500D03*
X380000Y34000D03*
Y43500D03*
Y53000D03*
X404000Y34000D03*
Y43500D03*
Y53000D03*
X504500Y33500D03*
Y43000D03*
Y52500D03*
X528500Y33500D03*
Y43000D03*
Y52500D03*
X630500Y31500D03*
Y41000D03*
Y50500D03*
X654500Y31500D03*
Y41000D03*
Y50500D03*
G54D19*
X1271863Y360662D03*
Y400662D03*
G54D20*
X128500Y126000D03*
Y150000D03*
Y177000D03*
Y201000D03*
X138000Y126000D03*
Y150000D03*
Y177000D03*
Y201000D03*
X147500Y126000D03*
Y150000D03*
Y177000D03*
Y201000D03*
X241000Y126000D03*
Y150000D03*
Y177000D03*
Y201000D03*
X250500Y126000D03*
Y150000D03*
Y177000D03*
Y201000D03*
X260000Y126000D03*
Y150000D03*
Y177000D03*
Y201000D03*
X271000Y126000D03*
Y150000D03*
Y177000D03*
Y201000D03*
X280500Y126000D03*
Y150000D03*
Y177000D03*
Y201000D03*
X290000Y126000D03*
Y150000D03*
Y177000D03*
Y201000D03*
X380500Y126000D03*
Y150000D03*
Y177000D03*
Y201000D03*
X390000Y126000D03*
Y150000D03*
Y177000D03*
Y201000D03*
X399500Y126000D03*
Y150000D03*
Y177000D03*
Y201000D03*
X410500Y126000D03*
Y150000D03*
Y177000D03*
Y201000D03*
X420000Y126000D03*
Y150000D03*
Y177000D03*
Y201000D03*
X429500Y126000D03*
Y150000D03*
Y177000D03*
Y201000D03*
X521500Y126000D03*
Y150000D03*
Y177000D03*
Y201000D03*
X531000Y126000D03*
Y150000D03*
Y177000D03*
Y201000D03*
X540500Y126000D03*
Y150000D03*
Y177000D03*
Y201000D03*
X551500Y126000D03*
Y150000D03*
Y177000D03*
Y201000D03*
X561000Y126000D03*
Y150000D03*
Y177000D03*
Y201000D03*
X570500Y126000D03*
Y150000D03*
Y177000D03*
Y201000D03*
X662500Y126000D03*
Y150000D03*
Y177000D03*
Y201000D03*
X672000Y126000D03*
Y150000D03*
Y177000D03*
Y201000D03*
X681500Y126000D03*
Y150000D03*
Y177000D03*
Y201000D03*
G54D21*
X637800Y534625D03*
X641800Y616625D03*
X645800Y534625D03*
X649800Y616625D03*
X653800Y534625D03*
X657800Y616625D03*
X661800Y534625D03*
X665800Y616625D03*
X669800Y534625D03*
X673800Y616625D03*
X677800Y534625D03*
X681800Y616625D03*
X685800Y534625D03*
X689800Y616625D03*
X693800Y534625D03*
X697800Y616625D03*
X701800Y534625D03*
X705800Y616625D03*
X709800Y534625D03*
X713800Y616625D03*
G54D22*
X1396858Y465442D03*
G54D23*
X172500Y69000D03*
Y77000D03*
Y85000D03*
Y93000D03*
X187500Y69000D03*
Y77000D03*
Y85000D03*
Y93000D03*
X217500Y59500D03*
Y67500D03*
Y75500D03*
Y83500D03*
X232500Y59500D03*
Y67500D03*
Y75500D03*
Y83500D03*
X348500Y59500D03*
Y67500D03*
Y75500D03*
Y83500D03*
X363500Y59500D03*
Y67500D03*
Y75500D03*
Y83500D03*
X381500Y65000D03*
Y73000D03*
Y81000D03*
Y89000D03*
X396500Y65000D03*
Y73000D03*
Y81000D03*
Y89000D03*
X501500Y65500D03*
Y73500D03*
Y81500D03*
Y89500D03*
X516500Y65500D03*
Y73500D03*
Y81500D03*
Y89500D03*
X624500Y63500D03*
Y71500D03*
Y79500D03*
Y87500D03*
X639500Y63500D03*
Y71500D03*
Y79500D03*
Y87500D03*
G54D24*
X762000Y646000D03*
Y678000D03*
X780000Y389000D03*
Y421000D03*
X822000Y389000D03*
Y421000D03*
X828000Y646000D03*
Y678000D03*
G54D25*
X845000Y246000D03*
Y267000D03*
Y288000D03*
X877000Y246000D03*
Y267000D03*
Y288000D03*
G54D26*
X1147931Y246066D03*
X1165931D03*
X1180431D03*
X1186628Y335369D03*
X1198431Y246066D03*
X1204628Y335369D03*
G54D27*
X887957Y147583D03*
X888016Y80049D03*
X927957Y147583D03*
X928016Y80049D03*
G54D28*
X258500Y37500D03*
Y44000D03*
Y50500D03*
Y57000D03*
Y63500D03*
Y70000D03*
Y76500D03*
X317500Y37500D03*
Y44000D03*
Y50500D03*
Y57000D03*
Y63500D03*
Y70000D03*
Y76500D03*
X423500Y38500D03*
Y45000D03*
Y51500D03*
Y58000D03*
Y64500D03*
Y71000D03*
Y77500D03*
X482500Y38500D03*
Y45000D03*
Y51500D03*
Y58000D03*
Y64500D03*
Y71000D03*
Y77500D03*
X548800Y35000D03*
Y41500D03*
Y48000D03*
Y54500D03*
Y61000D03*
Y67500D03*
Y74000D03*
X607800Y35000D03*
Y41500D03*
Y48000D03*
Y54500D03*
Y61000D03*
Y67500D03*
Y74000D03*
G54D29*
X1212783Y296944D03*
Y316944D03*
G54D30*
X1079643Y282442D03*
Y444442D03*
X1079800Y756113D03*
Y918113D03*
G54D31*
X38000Y42500D03*
X44500D03*
X51000D03*
X57500D03*
X64000D03*
G54D32*
X26000Y41500D03*
X76000D03*
G54D33*
X16000Y14500D03*
X86000D03*
G54D34*
X37400Y84250D03*
Y138250D03*
X50100Y84250D03*
Y138250D03*
X62800Y84250D03*
Y138250D03*
X75500Y84250D03*
Y138250D03*
X1102450Y597500D03*
Y694500D03*
X1115150Y597500D03*
Y694500D03*
X1127850D03*
X1127950Y597500D03*
X1140550Y694500D03*
X1140650Y597500D03*
X1153250Y694500D03*
X1153350Y597500D03*
X1165950Y694500D03*
X1166050Y597500D03*
X1178750D03*
Y694500D03*
X1191450Y597500D03*
Y694500D03*
G54D70*
X147500Y11500D03*
X182500D03*
X216500D03*
X251500D03*
X285500D03*
X320500D03*
X354500D03*
X389500D03*
X423500D03*
X458500D03*
X492500D03*
X527500D03*
X561500D03*
X596500D03*
X630500D03*
X665500D03*
X741500D03*
X776500D03*
X810500D03*
X845500D03*
X1403358Y447942D03*
Y482942D03*
G54D71*
X165000Y18000D03*
X234000D03*
X303000D03*
X372000D03*
X441000D03*
X510000D03*
X579000D03*
X648000D03*
X759000D03*
X828000D03*
G54D72*
X1048643Y287442D03*
Y295442D03*
Y303442D03*
Y311442D03*
Y319442D03*
Y327442D03*
Y335442D03*
Y343442D03*
Y351442D03*
Y359442D03*
Y367442D03*
Y375442D03*
Y383442D03*
Y391442D03*
Y399442D03*
Y407442D03*
Y415442D03*
Y423442D03*
Y431442D03*
Y439442D03*
X1048800Y761113D03*
Y769113D03*
Y777113D03*
Y785113D03*
Y793113D03*
Y801113D03*
Y809113D03*
Y817113D03*
Y825113D03*
Y833113D03*
Y841113D03*
Y849113D03*
Y857113D03*
Y865113D03*
Y873113D03*
Y881113D03*
Y889113D03*
Y897113D03*
Y905113D03*
Y913113D03*
X1110643Y287442D03*
Y295442D03*
Y303442D03*
Y311442D03*
Y319442D03*
Y327442D03*
Y335442D03*
Y343442D03*
Y351442D03*
Y359442D03*
Y367442D03*
Y375442D03*
Y383442D03*
Y391442D03*
Y399442D03*
Y407442D03*
Y415442D03*
Y423442D03*
Y431442D03*
Y439442D03*
X1110800Y761113D03*
Y769113D03*
Y777113D03*
Y785113D03*
Y793113D03*
Y801113D03*
Y809113D03*
Y817113D03*
Y825113D03*
Y833113D03*
Y841113D03*
Y849113D03*
Y857113D03*
Y865113D03*
Y873113D03*
Y881113D03*
Y889113D03*
Y897113D03*
Y905113D03*
Y913113D03*
G54D73*
X1079643Y331442D03*
Y395442D03*
X1079800Y805113D03*
Y869113D03*
M02*
