*
G04 Job   : H:\PCB100-199\PCB123_Ferret_Cu4_SFP8_Mngd_ref_board\Rev2\Layout\working\PCB\pcb123-02.pcb*
G04 User  : HERENT0076:mag*
G04 Layer : 03_PasteTop.gdo*
G04 Date  : Tue Aug 16 15:48:20 2016*
%ICAS*%
%MOMM*%
%FSLAX24Y24*%
%OFA0.0000B0.0000*%
G90*
G74*
%AMVB_RECTANGLE*
21,1,$1,$2,0,0,$3*
%
%ADD48C,0.00100*%
%ADD10C,0.00500*%
%ADD27C,0.40000*%
%ADD45C,0.50000*%
%ADD11C,1.00000*%
%ADD38C,1.40000*%
%ADD44O,1.25000X0.90000*%
%ADD43O,0.90000X1.55000*%
%ADD30VB_RECTANGLE,1.50000X1.50000X90.00000*%
%ADD54VB_RECTANGLE,3.20000X3.20000X270.00000*%
%ADD55VB_RECTANGLE,4.00000X4.00000X90.00000*%
%ADD25VB_RECTANGLE,0.25000X0.70000X180.00000*%
%ADD50VB_RECTANGLE,0.30000X2.25000X180.00000*%
%ADD42VB_RECTANGLE,0.40000X1.50000X180.00000*%
%ADD17VB_RECTANGLE,0.50040X0.59940X180.00000*%
%ADD22VB_RECTANGLE,0.60000X1.30000X180.00000*%
%ADD14VB_RECTANGLE,0.60000X1.30000X90.00000*%
%ADD71VB_RECTANGLE,0.75000X2.70000X180.00000*%
%ADD70VB_RECTANGLE,0.75000X2.70000X270.00000*%
%ADD13VB_RECTANGLE,0.80000X0.80000X180.00000*%
%ADD12VB_RECTANGLE,0.80000X0.80000X90.00000*%
%ADD39VB_RECTANGLE,0.80000X1.60000X0.00000*%
%ADD16VB_RECTANGLE,0.80000X1.60000X90.00000*%
%ADD20VB_RECTANGLE,0.90000X1.00000X180.00000*%
%ADD23VB_RECTANGLE,0.90000X1.00000X90.00000*%
%ADD29VB_RECTANGLE,1.00000X0.50000X180.00000*%
%ADD35VB_RECTANGLE,1.00000X0.50000X270.00000*%
%ADD36VB_RECTANGLE,1.00000X1.80000X270.00000*%
%ADD53VB_RECTANGLE,1.20000X1.00000X270.00000*%
%ADD31VB_RECTANGLE,1.20000X1.90000X180.00000*%
%ADD21VB_RECTANGLE,1.30000X1.00000X180.00000*%
%ADD73VB_RECTANGLE,1.30000X1.00000X90.00000*%
%ADD15VB_RECTANGLE,1.30000X2.80000X180.00000*%
%ADD72VB_RECTANGLE,1.40000X2.00000X180.00000*%
%ADD33VB_RECTANGLE,1.40000X4.40000X0.00000*%
%ADD24VB_RECTANGLE,1.40000X4.40000X270.00000*%
%ADD41VB_RECTANGLE,1.80000X0.40000X0.00000*%
%ADD49VB_RECTANGLE,1.80000X0.60000X90.00000*%
%ADD26VB_RECTANGLE,1.80000X2.60000X270.00000*%
%ADD34VB_RECTANGLE,1.80000X3.20000X270.00000*%
%ADD28VB_RECTANGLE,1.80000X3.40000X270.00000*%
%ADD47VB_RECTANGLE,2.00000X1.50000X270.00000*%
%ADD37VB_RECTANGLE,2.20000X0.40000X270.00000*%
%ADD51VB_RECTANGLE,2.55000X0.65000X180.00000*%
%ADD18VB_RECTANGLE,2.80000X3.80000X0.00000*%
%ADD40VB_RECTANGLE,2.80000X3.80000X270.00000*%
%ADD46VB_RECTANGLE,3.40000X2.56000X0.00000*%
%ADD19VB_RECTANGLE,4.40000X1.90000X270.00000*%
%ADD52VB_RECTANGLE,4.70000X0.65000X180.00000*%
%ADD32VB_RECTANGLE,5.00000X2.40000X90.00000*%
G01*
G36*
X458200Y338000D02*
X490200D01*
Y370000*
X458200*
Y338000*
Y374000D02*
X490200D01*
Y406000*
X458200*
Y374000*
X494200Y338000D02*
X526200D01*
Y370000*
X494200*
Y338000*
Y374000D02*
X526200D01*
Y406000*
X494200*
Y374000*
X684938Y1573025D02*
X697438D01*
Y1588025*
X684938*
Y1573025*
X702438D02*
X717438D01*
Y1588025*
X702438*
Y1573025*
X722438D02*
X737438D01*
Y1588025*
X722438*
Y1573025*
X742438D02*
X754938D01*
Y1588025*
X742438*
Y1573025*
G37*
G54D10*
X0Y-74000D02*
X1415000D01*
Y1695000*
X0*
Y-74000*
G54D11*
X23500Y1249000D03*
X34000Y565000D03*
X80000Y-49000D03*
Y1644000D03*
X136000Y313000D03*
X268000Y844000D03*
X307000Y1495000D03*
X403000Y1192000D03*
X409000Y592000D03*
X439000Y355000D03*
X610000Y1084000D03*
X664000Y1541000D03*
X730000Y1303000D03*
X892000Y1564000D03*
X937000Y742000D03*
X1033000Y598000D03*
X1045000Y1192000D03*
X1047000Y279000D03*
X1159950Y963000D03*
X1216000Y1030000D03*
X1248000Y882000D03*
X1335000Y-49000D03*
X1381000Y1582000D03*
X1392000Y504000D03*
Y657000D03*
G54D12*
X49500Y1276500D03*
Y1292500D03*
X107350Y-63000D03*
Y-47000D03*
X121000Y955000D03*
Y971000D03*
Y982000D03*
Y998000D03*
Y1009000D03*
Y1025000D03*
Y1036000D03*
Y1052000D03*
Y1063000D03*
Y1079000D03*
Y1090000D03*
Y1106000D03*
Y1117000D03*
Y1133000D03*
X129000Y1275500D03*
Y1291500D03*
Y1301500D03*
Y1317500D03*
X133000Y608000D03*
Y624000D03*
X141000Y571000D03*
Y587000D03*
X144369Y1123000D03*
Y1139000D03*
X145000Y821250D03*
Y837250D03*
X148819Y982500D03*
Y998500D03*
X153000Y571000D03*
Y587000D03*
X156369Y1123000D03*
Y1139000D03*
X157000Y821250D03*
Y837250D03*
X160819Y982500D03*
Y998500D03*
X168369Y1123000D03*
Y1139000D03*
X169000Y821250D03*
Y837250D03*
X172819Y982500D03*
Y998500D03*
X181000Y821250D03*
Y837250D03*
X184819Y982500D03*
Y998500D03*
X193000Y821250D03*
Y837250D03*
X205000Y747750D03*
Y763750D03*
Y794250D03*
Y810250D03*
Y821250D03*
Y837250D03*
X205919Y982500D03*
Y998500D03*
X207000Y1249500D03*
Y1265500D03*
Y1287500D03*
Y1303500D03*
X217919Y982500D03*
Y998500D03*
X235919Y982500D03*
Y998500D03*
X247700Y1499000D03*
Y1515000D03*
X247919Y982500D03*
Y998500D03*
X259700Y1499000D03*
Y1515000D03*
X259906Y982438D03*
Y998438D03*
X263500Y1395500D03*
Y1411500D03*
Y1422500D03*
Y1438500D03*
X271700Y1499000D03*
Y1515000D03*
X277000Y1395500D03*
Y1411500D03*
Y1422500D03*
Y1438500D03*
X288500Y1245000D03*
Y1261000D03*
Y1279500D03*
Y1295500D03*
Y1306500D03*
Y1322500D03*
X289000Y1395500D03*
Y1411500D03*
Y1422500D03*
Y1438500D03*
X301000Y1395500D03*
Y1411500D03*
Y1422500D03*
Y1438500D03*
X313000Y1395500D03*
Y1411500D03*
Y1422500D03*
Y1438500D03*
X325000Y1395500D03*
Y1411500D03*
Y1422500D03*
Y1438500D03*
X337000Y1395500D03*
Y1411500D03*
Y1422500D03*
Y1438500D03*
X349000Y1395500D03*
Y1411500D03*
Y1422500D03*
Y1438500D03*
X361000Y1395500D03*
Y1411500D03*
Y1422500D03*
Y1438500D03*
X377700Y1513000D03*
Y1529000D03*
X382000Y1422500D03*
Y1438500D03*
X394000Y1422500D03*
Y1438500D03*
X438250Y956587D03*
Y972587D03*
X450300Y956600D03*
Y972600D03*
X462250Y956587D03*
Y972587D03*
X474250Y956587D03*
Y972587D03*
X490000Y1512900D03*
Y1528900D03*
X548000Y1074600D03*
Y1090600D03*
X551680Y1139322D03*
Y1155322D03*
X560000Y1074600D03*
Y1090600D03*
X580000Y1496000D03*
Y1512000D03*
X592000Y1496000D03*
Y1512000D03*
X622500Y953000D03*
Y969000D03*
Y980000D03*
Y996000D03*
X622550Y1015950D03*
Y1031950D03*
X634500Y953000D03*
Y969000D03*
Y984500D03*
Y1000500D03*
Y1015900D03*
Y1031900D03*
X646500Y953000D03*
Y969000D03*
Y989000D03*
Y1005000D03*
Y1016000D03*
Y1032000D03*
X658500Y953000D03*
Y969000D03*
Y984500D03*
Y1000500D03*
Y1016000D03*
Y1032000D03*
X671500Y1443000D03*
Y1459000D03*
X700250Y1416500D03*
Y1432500D03*
X712000Y1157000D03*
Y1173000D03*
X745000Y1157000D03*
Y1173000D03*
X748250Y1416500D03*
Y1432500D03*
Y1443500D03*
Y1459500D03*
X756063Y1478550D03*
Y1494550D03*
Y1512400D03*
Y1528400D03*
X757000Y1157000D03*
Y1173000D03*
X760250Y1416500D03*
Y1432500D03*
Y1443500D03*
Y1459500D03*
X772250Y1416500D03*
Y1432500D03*
X844000Y1494500D03*
Y1510500D03*
X850000Y1055500D03*
Y1071500D03*
X1118000Y1052000D03*
Y1068000D03*
D03*
Y1084000D03*
X1136000Y1052000D03*
Y1068000D03*
D03*
Y1084000D03*
X1148000Y1052000D03*
Y1068000D03*
D03*
Y1084000D03*
X1160000Y1052000D03*
Y1068000D03*
D03*
Y1084000D03*
X1160306Y390832D03*
Y406832D03*
X1168000Y1430000D03*
Y1446000D03*
X1172000Y1052000D03*
Y1068000D03*
D03*
Y1084000D03*
Y1103000D03*
Y1119000D03*
X1175208Y393059D03*
Y409059D03*
D03*
Y425059D03*
X1187208Y393059D03*
Y409059D03*
D03*
Y425059D03*
X1199208Y393059D03*
Y409059D03*
D03*
Y425059D03*
X1211208Y393059D03*
Y409059D03*
D03*
Y425059D03*
X1349700Y888150D03*
Y904150D03*
X1361700Y888150D03*
Y904150D03*
X1373700Y888150D03*
Y904150D03*
X1385700Y888150D03*
Y904150D03*
X1397700Y888150D03*
Y904150D03*
G54D13*
X107350Y-37000D03*
X123350D03*
X147500Y622750D03*
X163500D03*
X192500D03*
X208500D03*
X258450Y1092531D03*
X274450D03*
X327750Y332750D03*
X343750D03*
X358000Y289250D03*
Y301250D03*
Y313250D03*
Y325000D03*
Y353500D03*
Y365500D03*
Y377500D03*
Y389500D03*
X374000Y289250D03*
D03*
Y301250D03*
D03*
Y313250D03*
D03*
Y325000D03*
Y337000D03*
Y353500D03*
D03*
Y365500D03*
D03*
Y377500D03*
D03*
Y389500D03*
D03*
X390000Y289250D03*
Y301250D03*
Y313250D03*
Y337000D03*
Y353500D03*
Y365500D03*
Y377500D03*
Y389500D03*
X425000Y1234000D03*
X441000D03*
X453800Y647975D03*
X460000Y601000D03*
X469800Y647975D03*
X476000Y601000D03*
X500200Y648000D03*
X501200Y601000D03*
X516200Y648000D03*
X517200Y601000D03*
X533000Y1231000D03*
Y1243000D03*
X549000Y1231000D03*
Y1243000D03*
X552700Y1473000D03*
Y1485000D03*
X568700Y1473000D03*
Y1485000D03*
X571000Y1197000D03*
X574000Y1523300D03*
X576000Y1238000D03*
Y1250000D03*
Y1262000D03*
Y1274000D03*
X587000Y1197000D03*
X590000Y1523300D03*
X592000Y1238000D03*
Y1250000D03*
Y1262000D03*
Y1274000D03*
X596300Y601000D03*
Y647975D03*
X604000Y1472500D03*
Y1487500D03*
Y1499500D03*
Y1511500D03*
X612300Y601000D03*
Y647975D03*
X620000Y1472500D03*
Y1487500D03*
Y1499500D03*
Y1511500D03*
X643500Y601000D03*
Y648000D03*
X659500Y601000D03*
Y648000D03*
X670000Y1475500D03*
Y1487500D03*
Y1499500D03*
Y1511500D03*
X677500Y961000D03*
X686000Y1475500D03*
Y1487500D03*
Y1499500D03*
Y1511500D03*
X693500Y961000D03*
X713250Y1459000D03*
X729250D03*
X738000Y601000D03*
Y648000D03*
X743500Y1024000D03*
X746500Y976000D03*
X754000Y601000D03*
Y648000D03*
X759500Y1024000D03*
X762500Y976000D03*
X766000Y1403500D03*
X782000D03*
X785000Y601000D03*
Y648000D03*
X801000Y601000D03*
Y648000D03*
X881000Y601000D03*
Y648000D03*
X897000Y601000D03*
Y648000D03*
X908000D03*
X913500Y1000050D03*
X924000Y648000D03*
X929000Y601000D03*
X929500Y1000050D03*
X945000Y601000D03*
X1045300Y819100D03*
Y831100D03*
Y843100D03*
Y855100D03*
Y867100D03*
Y879100D03*
X1061300Y819100D03*
D03*
Y831100D03*
D03*
Y843100D03*
D03*
Y855100D03*
D03*
Y867100D03*
D03*
Y879100D03*
D03*
Y891113D03*
X1077300Y819100D03*
Y831100D03*
Y843100D03*
Y855100D03*
Y867100D03*
Y879100D03*
Y891113D03*
X1151406Y244632D03*
X1151430Y256659D03*
Y268659D03*
X1167406Y244632D03*
X1167430Y256659D03*
Y268659D03*
X1181906Y244632D03*
X1181930Y256659D03*
Y268659D03*
X1197906Y244632D03*
X1197930Y256659D03*
Y268659D03*
X1358000Y1147000D03*
Y1237000D03*
Y1444000D03*
X1374000Y1147000D03*
Y1237000D03*
Y1444000D03*
X1383700Y776150D03*
X1399700D03*
G54D14*
X63000Y1251400D03*
Y1264100D03*
Y1276800D03*
Y1289500D03*
Y1302200D03*
Y1314900D03*
Y1327600D03*
X117000Y1251400D03*
Y1264100D03*
Y1276800D03*
Y1289500D03*
Y1302200D03*
Y1314900D03*
Y1327600D03*
X141000Y1251400D03*
Y1264100D03*
Y1276800D03*
Y1289500D03*
Y1302200D03*
Y1314900D03*
Y1327600D03*
X144969Y1017500D03*
Y1030200D03*
Y1043000D03*
Y1055700D03*
Y1068400D03*
Y1081100D03*
Y1093800D03*
Y1106500D03*
X145019Y874000D03*
Y886700D03*
Y899500D03*
Y912200D03*
Y924900D03*
Y937600D03*
Y950300D03*
Y963000D03*
X195000Y1251400D03*
Y1264100D03*
Y1276800D03*
Y1289500D03*
Y1302200D03*
Y1314900D03*
Y1327600D03*
X219000Y1251400D03*
Y1264100D03*
Y1276800D03*
Y1289500D03*
Y1302200D03*
Y1314900D03*
Y1327600D03*
X241969Y1017500D03*
Y1030200D03*
Y1042900D03*
Y1055600D03*
Y1068300D03*
Y1081000D03*
Y1093800D03*
Y1106500D03*
X242019Y874000D03*
Y886700D03*
Y899400D03*
Y912100D03*
Y924800D03*
Y937500D03*
Y950300D03*
Y963000D03*
X273000Y1251400D03*
Y1264100D03*
Y1276800D03*
Y1289500D03*
Y1302200D03*
Y1314900D03*
Y1327600D03*
X673500Y978000D03*
Y990700D03*
Y1003400D03*
Y1016100D03*
X727500Y978000D03*
Y990700D03*
Y1003400D03*
Y1016100D03*
X781500Y977900D03*
Y990600D03*
Y1003300D03*
Y1016000D03*
X835500Y977900D03*
Y990600D03*
Y1003300D03*
Y1016000D03*
G54D15*
X442800Y624675D03*
X474800D03*
X493800D03*
X525800D03*
X585300D03*
X617300D03*
X637050D03*
X669050D03*
X727800D03*
X759800D03*
X778800D03*
X810800D03*
X870300D03*
X902300D03*
X921300D03*
X953300D03*
G54D16*
X47799Y302788D03*
X178000Y622750D03*
X827000Y1168000D03*
X895450Y1000050D03*
G54D17*
X1067644Y407661D03*
Y416661D03*
Y434661D03*
Y443661D03*
X1077644Y407661D03*
Y416661D03*
Y434661D03*
Y443661D03*
X1251709Y198647D03*
X1261709D03*
X1290709D03*
X1300709D03*
X1328644Y198661D03*
X1338644D03*
X1366503Y198761D03*
X1376503D03*
G54D18*
X878000Y1183050D03*
Y1246050D03*
X951000Y1183050D03*
Y1246050D03*
G54D19*
X683000Y1055000D03*
Y1142000D03*
Y1190000D03*
Y1277000D03*
X789000Y1190000D03*
Y1277000D03*
G54D20*
X709000Y962000D03*
X718500Y942000D03*
X728000Y962000D03*
X745000Y942000D03*
X754500Y962000D03*
X764000Y942000D03*
G54D21*
X850000Y1027000D03*
Y1045000D03*
X862000Y982000D03*
Y1000000D03*
G54D22*
X150000Y752750D03*
Y806750D03*
X162700Y752750D03*
Y806750D03*
X174419Y890500D03*
Y944500D03*
X175400Y752750D03*
Y806750D03*
X187119Y890500D03*
Y944500D03*
X188100Y752750D03*
Y806750D03*
X199819Y890500D03*
Y944500D03*
X212519Y890500D03*
Y944500D03*
X700338Y1479775D03*
Y1533775D03*
X713038Y1479775D03*
Y1533775D03*
X725738Y1479775D03*
Y1533775D03*
X738438Y1479775D03*
Y1533775D03*
G54D23*
X213700Y1497500D03*
Y1516500D03*
X233700Y1507000D03*
X338400Y1500500D03*
Y1519500D03*
X358400Y1510000D03*
X450400Y1500500D03*
Y1519500D03*
X470400Y1510000D03*
X546200Y1497500D03*
Y1516500D03*
X566200Y1507000D03*
X714750Y1418000D03*
X733750D03*
Y1437000D03*
X839125Y1577000D03*
G54D24*
X1122930Y214518D03*
X1206930D03*
G54D25*
X633700Y1479500D03*
Y1507500D03*
X638200Y1479500D03*
Y1507500D03*
X642700Y1479500D03*
Y1507500D03*
X647300Y1479500D03*
Y1507500D03*
X651800Y1479500D03*
Y1507500D03*
X656300Y1479500D03*
Y1507500D03*
G54D26*
X645000Y1493500D03*
G54D27*
X40494Y363822D03*
Y371822D03*
Y379822D03*
Y387822D03*
Y395822D03*
Y403822D03*
Y411822D03*
Y419822D03*
Y427822D03*
Y435822D03*
Y443822D03*
Y451822D03*
Y459822D03*
Y467822D03*
Y475822D03*
Y483822D03*
X48494Y363822D03*
Y371822D03*
Y379822D03*
Y387822D03*
Y395822D03*
Y403822D03*
Y411822D03*
Y419822D03*
Y427822D03*
Y435822D03*
Y443822D03*
Y451822D03*
Y459822D03*
Y467822D03*
Y475822D03*
Y483822D03*
X56494Y363822D03*
Y371822D03*
Y379822D03*
Y387822D03*
Y395822D03*
Y403822D03*
Y411822D03*
Y419822D03*
Y427822D03*
Y435822D03*
Y443822D03*
Y451822D03*
Y459822D03*
Y467822D03*
Y475822D03*
Y483822D03*
X88494Y363822D03*
Y371822D03*
Y379822D03*
Y387822D03*
Y395822D03*
Y403822D03*
Y411822D03*
Y419822D03*
Y427822D03*
Y435822D03*
Y443822D03*
Y451822D03*
Y459822D03*
Y467822D03*
Y475822D03*
Y483822D03*
X96494Y363822D03*
Y371822D03*
Y379822D03*
Y387822D03*
Y395822D03*
Y403822D03*
Y411822D03*
Y419822D03*
Y427822D03*
Y435822D03*
Y443822D03*
Y451822D03*
Y459822D03*
Y467822D03*
Y475822D03*
Y483822D03*
X104494Y363822D03*
Y371822D03*
Y379822D03*
Y387822D03*
Y395822D03*
Y403822D03*
Y411822D03*
Y419822D03*
Y427822D03*
Y435822D03*
Y443822D03*
Y451822D03*
Y459822D03*
Y467822D03*
Y475822D03*
Y483822D03*
X1133180Y290009D03*
Y298009D03*
Y306009D03*
Y314009D03*
Y322009D03*
Y330009D03*
Y338009D03*
Y346009D03*
Y354009D03*
Y362009D03*
X1141180Y290009D03*
Y298009D03*
Y306009D03*
Y314009D03*
Y322009D03*
Y330009D03*
Y338009D03*
Y346009D03*
Y354009D03*
Y362009D03*
X1149180Y290009D03*
Y298009D03*
Y306009D03*
Y314009D03*
Y322009D03*
Y330009D03*
Y338009D03*
Y346009D03*
Y354009D03*
Y362009D03*
X1157180Y290009D03*
Y298009D03*
Y306009D03*
Y314009D03*
Y322009D03*
Y330009D03*
Y338009D03*
Y346009D03*
Y354009D03*
Y362009D03*
X1165180Y290009D03*
Y298009D03*
Y306009D03*
Y314009D03*
Y322009D03*
Y330009D03*
Y338009D03*
Y346009D03*
Y354009D03*
Y362009D03*
X1173180Y290009D03*
Y298009D03*
Y306009D03*
Y314009D03*
Y322009D03*
Y330009D03*
Y338009D03*
Y346009D03*
Y354009D03*
Y362009D03*
X1181180Y290009D03*
Y298009D03*
Y306009D03*
Y314009D03*
Y322009D03*
Y330009D03*
Y338009D03*
Y346009D03*
Y354009D03*
Y362009D03*
X1189180Y290009D03*
Y298009D03*
Y306009D03*
Y314009D03*
Y322009D03*
Y330009D03*
Y338009D03*
Y346009D03*
Y354009D03*
Y362009D03*
X1197180Y290009D03*
Y298009D03*
Y306009D03*
Y314009D03*
Y322009D03*
Y330009D03*
Y338009D03*
Y346009D03*
Y354009D03*
Y362009D03*
X1205180Y290009D03*
Y298009D03*
Y306009D03*
Y314009D03*
Y322009D03*
Y330009D03*
Y338009D03*
Y346009D03*
Y354009D03*
Y362009D03*
G54D28*
X178000Y644950D03*
Y702550D03*
G54D29*
X570000Y1208500D03*
Y1227500D03*
X594000Y1208500D03*
Y1218000D03*
Y1227500D03*
G54D30*
X821625Y1583500D03*
X856625D03*
G54D31*
X156000Y732500D03*
X188000D03*
X351000Y255000D03*
X383000D03*
X777500Y952000D03*
X809500D03*
G54D32*
X203600Y1550000D03*
X291200D03*
X316600D03*
X404200D03*
X429600D03*
X517200D03*
X542600D03*
X630200D03*
G54D33*
X247400Y1553000D03*
X360400D03*
X473400D03*
X586400D03*
G54D34*
X808000Y1394000D03*
Y1452000D03*
X967000Y1394000D03*
Y1452000D03*
G54D35*
X770500Y1526000D03*
Y1550000D03*
X780000Y1526000D03*
Y1550000D03*
X789500Y1526000D03*
Y1550000D03*
X1179500Y1426000D03*
Y1450000D03*
X1189000D03*
X1198500Y1426000D03*
Y1450000D03*
G54D36*
X826000Y1492500D03*
Y1512500D03*
G54D37*
X1353900Y798150D03*
Y868150D03*
X1360400Y798150D03*
Y868150D03*
X1366900Y798150D03*
Y868150D03*
X1373400D03*
X1373500Y798150D03*
X1379900Y868150D03*
X1380000Y798150D03*
X1386500D03*
Y868150D03*
X1393000Y798150D03*
Y868150D03*
X1399500Y798150D03*
Y868150D03*
G54D38*
X464000Y1160400D03*
Y1200400D03*
X524000Y1160400D03*
Y1200400D03*
G54D39*
X263750Y966000D03*
X357500Y339500D03*
X700250Y1448500D03*
G54D40*
X856000Y1377500D03*
Y1450500D03*
X919000Y1377500D03*
Y1450500D03*
G54D41*
X457300Y1230300D03*
Y1236700D03*
Y1243300D03*
Y1249700D03*
X516700Y1230300D03*
Y1236700D03*
Y1243300D03*
Y1249700D03*
G54D42*
X706938Y1552525D03*
X713438D03*
X719938D03*
X726438D03*
X732938D03*
G54D43*
X684938Y1580525D03*
X754938D03*
G54D44*
X694938Y1553525D03*
X744938D03*
G54D45*
X184000Y421000D03*
Y431000D03*
Y441000D03*
Y451000D03*
Y461000D03*
Y471000D03*
Y481000D03*
Y491000D03*
Y501000D03*
Y511000D03*
Y521000D03*
Y531000D03*
Y541000D03*
Y551000D03*
Y561000D03*
Y571000D03*
X194000Y421000D03*
Y431000D03*
Y441000D03*
Y451000D03*
Y461000D03*
Y471000D03*
Y481000D03*
Y491000D03*
Y501000D03*
Y511000D03*
Y521000D03*
Y531000D03*
Y541000D03*
Y551000D03*
Y561000D03*
Y571000D03*
X204000Y421000D03*
Y431000D03*
Y441000D03*
Y451000D03*
Y461000D03*
Y471000D03*
Y481000D03*
Y491000D03*
Y501000D03*
Y511000D03*
Y521000D03*
Y531000D03*
Y541000D03*
Y551000D03*
Y561000D03*
Y571000D03*
X214000Y421000D03*
Y431000D03*
Y441000D03*
Y451000D03*
Y461000D03*
Y471000D03*
Y481000D03*
Y491000D03*
Y501000D03*
Y511000D03*
Y521000D03*
Y531000D03*
Y541000D03*
Y551000D03*
Y561000D03*
Y571000D03*
X224000Y421000D03*
Y431000D03*
Y441000D03*
Y451000D03*
Y461000D03*
Y471000D03*
Y481000D03*
Y491000D03*
Y501000D03*
Y511000D03*
Y521000D03*
Y531000D03*
Y541000D03*
Y551000D03*
Y561000D03*
Y571000D03*
X234000Y421000D03*
Y431000D03*
Y441000D03*
Y451000D03*
Y461000D03*
Y471000D03*
Y481000D03*
Y491000D03*
Y501000D03*
Y511000D03*
Y521000D03*
Y531000D03*
Y541000D03*
Y551000D03*
Y561000D03*
Y571000D03*
X244000Y421000D03*
Y431000D03*
Y441000D03*
Y451000D03*
Y461000D03*
Y471000D03*
Y481000D03*
Y491000D03*
Y501000D03*
Y511000D03*
Y521000D03*
Y531000D03*
Y541000D03*
Y551000D03*
Y561000D03*
Y571000D03*
X254000Y421000D03*
Y431000D03*
Y441000D03*
Y451000D03*
Y461000D03*
Y471000D03*
Y481000D03*
Y491000D03*
Y501000D03*
Y511000D03*
Y521000D03*
Y531000D03*
Y541000D03*
Y551000D03*
Y561000D03*
Y571000D03*
X264000Y421000D03*
Y431000D03*
Y441000D03*
Y451000D03*
Y461000D03*
Y471000D03*
Y481000D03*
Y491000D03*
Y501000D03*
Y511000D03*
Y521000D03*
Y531000D03*
Y541000D03*
Y551000D03*
Y561000D03*
Y571000D03*
X274000Y421000D03*
Y431000D03*
Y441000D03*
Y451000D03*
Y461000D03*
Y471000D03*
Y481000D03*
Y491000D03*
Y501000D03*
Y511000D03*
Y521000D03*
Y531000D03*
Y541000D03*
Y551000D03*
Y561000D03*
Y571000D03*
X284000Y421000D03*
Y431000D03*
Y441000D03*
Y451000D03*
Y461000D03*
Y471000D03*
Y481000D03*
Y491000D03*
Y501000D03*
Y511000D03*
Y521000D03*
Y531000D03*
Y541000D03*
Y551000D03*
Y561000D03*
Y571000D03*
X294000Y421000D03*
Y431000D03*
Y441000D03*
Y451000D03*
Y461000D03*
Y471000D03*
Y481000D03*
Y491000D03*
Y501000D03*
Y511000D03*
Y521000D03*
Y531000D03*
Y541000D03*
Y551000D03*
Y561000D03*
Y571000D03*
X304000Y421000D03*
Y431000D03*
Y441000D03*
Y451000D03*
Y461000D03*
Y471000D03*
Y481000D03*
Y491000D03*
Y501000D03*
Y511000D03*
Y521000D03*
Y531000D03*
Y541000D03*
Y551000D03*
Y561000D03*
Y571000D03*
X314000Y421000D03*
Y431000D03*
Y441000D03*
Y451000D03*
Y461000D03*
Y471000D03*
Y481000D03*
Y491000D03*
Y501000D03*
Y511000D03*
Y521000D03*
Y531000D03*
Y541000D03*
Y551000D03*
Y561000D03*
Y571000D03*
X324000Y421000D03*
Y431000D03*
Y441000D03*
Y451000D03*
Y461000D03*
Y471000D03*
Y481000D03*
Y491000D03*
Y501000D03*
Y511000D03*
Y521000D03*
Y531000D03*
Y541000D03*
Y551000D03*
Y561000D03*
Y571000D03*
X334000Y421000D03*
Y431000D03*
Y441000D03*
Y451000D03*
Y461000D03*
Y471000D03*
Y481000D03*
Y491000D03*
Y501000D03*
Y511000D03*
Y521000D03*
Y531000D03*
Y541000D03*
Y551000D03*
Y561000D03*
Y571000D03*
G54D46*
X169000Y779750D03*
G54D47*
X498600Y1106800D03*
Y1180400D03*
X549400Y1106800D03*
Y1180400D03*
G54D48*
X524000Y1106800D03*
Y1180400D03*
G54D49*
X1251757Y214952D03*
Y360992D03*
X1264457Y214952D03*
Y360992D03*
X1277157Y214952D03*
Y360992D03*
X1289857Y214952D03*
Y360992D03*
X1302557Y214952D03*
Y360992D03*
X1315257Y214952D03*
Y360992D03*
X1327957Y214952D03*
Y360992D03*
X1340657Y214952D03*
Y360992D03*
X1353357Y214952D03*
Y360992D03*
X1366057Y214952D03*
Y360992D03*
X1378757Y214952D03*
Y360992D03*
X1391457Y214952D03*
Y360992D03*
G54D50*
X340900Y875137D03*
Y932337D03*
X348900Y875137D03*
Y932337D03*
X356900Y875137D03*
Y932337D03*
X364900Y875137D03*
Y932337D03*
X372900Y875137D03*
Y932337D03*
X380900Y875137D03*
Y932337D03*
X388900Y875137D03*
Y932337D03*
X396900Y875137D03*
Y932337D03*
X404900Y875137D03*
Y932337D03*
X412900Y875137D03*
Y932337D03*
X420900Y875137D03*
Y932337D03*
X428900Y875137D03*
Y932337D03*
X436900Y875137D03*
Y932337D03*
X444900Y875137D03*
Y932337D03*
X452900Y875137D03*
Y932337D03*
X460900Y875137D03*
Y932337D03*
X468900Y875137D03*
Y932337D03*
X476900Y875137D03*
Y932337D03*
X484900Y875137D03*
Y932337D03*
X492900Y875137D03*
Y932337D03*
G54D51*
X336300Y903737D03*
X497600D03*
G54D52*
X385200D03*
X448700D03*
G54D53*
X714750Y1435500D03*
G54D54*
X895500Y1024050D03*
Y1132050D03*
X947500Y1024050D03*
Y1132050D03*
G54D55*
X787500Y1049000D03*
Y1143000D03*
G54D70*
X1281229Y611746D03*
Y624446D03*
Y637146D03*
Y649846D03*
Y662546D03*
Y675246D03*
Y687946D03*
Y700646D03*
Y713346D03*
Y726046D03*
Y738746D03*
Y751446D03*
Y764146D03*
Y776846D03*
Y789546D03*
Y802246D03*
Y814946D03*
Y827646D03*
Y840346D03*
Y853046D03*
Y865746D03*
Y878446D03*
Y891146D03*
Y903846D03*
Y916546D03*
X1322229Y611746D03*
Y624446D03*
Y637146D03*
Y649846D03*
Y662546D03*
Y675246D03*
Y687946D03*
Y700646D03*
Y713346D03*
Y726046D03*
Y738746D03*
Y751446D03*
Y764146D03*
Y776846D03*
Y789546D03*
Y802246D03*
Y814946D03*
Y827646D03*
Y840346D03*
Y853046D03*
Y865746D03*
Y878446D03*
Y891146D03*
Y903846D03*
Y916546D03*
G54D71*
X454104Y1340735D03*
Y1381735D03*
X466804Y1340735D03*
Y1381735D03*
X479504Y1340735D03*
Y1381735D03*
X492204Y1340735D03*
Y1381735D03*
X504904Y1340735D03*
Y1381735D03*
X517604Y1340735D03*
Y1381735D03*
X530304Y1340735D03*
Y1381735D03*
X543004Y1340735D03*
Y1381735D03*
X555704Y1340735D03*
Y1381735D03*
X568404Y1340735D03*
Y1381735D03*
X581104Y1340735D03*
Y1381735D03*
X593804Y1340735D03*
Y1381735D03*
X606504Y1340735D03*
Y1381735D03*
X619204Y1340735D03*
Y1381735D03*
X631904Y1340735D03*
Y1381735D03*
X644604Y1340735D03*
Y1381735D03*
X657304Y1340735D03*
Y1381735D03*
X670004Y1340735D03*
Y1381735D03*
X682704Y1340735D03*
Y1381735D03*
X695404Y1340735D03*
Y1381735D03*
X708104Y1340735D03*
Y1381735D03*
X720804Y1340735D03*
Y1381735D03*
X733504Y1340735D03*
Y1381735D03*
X746204Y1340735D03*
Y1381735D03*
X758904Y1340735D03*
Y1381735D03*
X1070604Y1171529D03*
Y1212529D03*
Y1477500D03*
Y1518500D03*
X1083304Y1171529D03*
Y1212529D03*
Y1477500D03*
Y1518500D03*
X1096004Y1171529D03*
Y1212529D03*
Y1477500D03*
Y1518500D03*
X1108704Y1171529D03*
Y1212529D03*
Y1477500D03*
Y1518500D03*
X1121404Y1171529D03*
Y1212529D03*
Y1477500D03*
Y1518500D03*
X1134104Y1171529D03*
Y1212529D03*
Y1477500D03*
Y1518500D03*
X1146804Y1171529D03*
Y1212529D03*
Y1477500D03*
Y1518500D03*
X1159504Y1171529D03*
Y1212529D03*
Y1477500D03*
Y1518500D03*
X1172204Y1171529D03*
Y1212529D03*
Y1477500D03*
Y1518500D03*
X1184904Y1171529D03*
Y1212529D03*
Y1477500D03*
Y1518500D03*
X1197604Y1171529D03*
Y1212529D03*
Y1477500D03*
Y1518500D03*
X1210304Y1171529D03*
Y1212529D03*
Y1477500D03*
Y1518500D03*
X1223004Y1171529D03*
Y1212529D03*
Y1477500D03*
Y1518500D03*
X1235704Y1171529D03*
Y1212529D03*
Y1477500D03*
Y1518500D03*
X1248404Y1171529D03*
Y1212529D03*
Y1477500D03*
Y1518500D03*
X1261104Y1171529D03*
Y1212529D03*
Y1477500D03*
Y1518500D03*
X1273804Y1171529D03*
Y1212529D03*
Y1477500D03*
Y1518500D03*
X1286504Y1171529D03*
Y1212529D03*
Y1477500D03*
Y1518500D03*
X1299204Y1171529D03*
Y1212529D03*
Y1477500D03*
Y1518500D03*
X1311904Y1171529D03*
Y1212529D03*
Y1477500D03*
Y1518500D03*
X1324604Y1171529D03*
Y1212529D03*
Y1477500D03*
Y1518500D03*
X1337304Y1171529D03*
Y1212529D03*
Y1477500D03*
Y1518500D03*
X1350004Y1171529D03*
Y1212529D03*
Y1477500D03*
Y1518500D03*
X1362704Y1171529D03*
Y1212529D03*
Y1477500D03*
Y1518500D03*
X1375404Y1171529D03*
Y1212529D03*
Y1477500D03*
Y1518500D03*
G54D72*
X475600Y1085800D03*
Y1127800D03*
X526400Y1085800D03*
Y1127800D03*
G54D73*
X676500Y946000D03*
X694500D03*
X745500Y991000D03*
Y1009000D03*
X763500Y991000D03*
Y1009000D03*
M02*
