*
G04 Job   : H:\PCB100-199\PCB123_Ferret_Cu4_SFP8_Mngd_ref_board\Rev2\Layout\working\PCB\pcb123-02.pcb*
G04 User  : HERENT0076:mag*
G04 Layer : 04_SolderTop.gdo*
G04 Date  : Tue Aug 16 15:48:20 2016*
%ICAS*%
%MOMM*%
%FSLAX24Y24*%
%OFA0.0000B0.0000*%
G90*
G74*
%AMVB_RECTANGLE*
21,1,$1,$2,0,0,$3*
%
%ADD65C,0.00100*%
%ADD10C,0.00500*%
%ADD42C,0.50000*%
%ADD62C,0.60000*%
%ADD16C,0.85000*%
%ADD19C,0.90000*%
%ADD27C,1.00000*%
%ADD12C,1.20000*%
%ADD41C,1.40000*%
%ADD31C,1.50000*%
%ADD35C,1.70000*%
%ADD25C,1.80000*%
%ADD24C,2.10000*%
%ADD68C,2.20000*%
%ADD30C,2.40000*%
%ADD71C,2.60000*%
%ADD70C,2.80000*%
%ADD11C,3.00000*%
%ADD67C,3.40000*%
%ADD13C,3.50000*%
%ADD53C,4.20000*%
%ADD40C,6.20000*%
%ADD20C,6.60000*%
%ADD61O,1.45000X1.10000*%
%ADD60O,1.10000X1.75000*%
%ADD33O,5.20000X2.80000*%
%ADD32O,2.80000X5.20000*%
%ADD47VB_RECTANGLE,1.70000X1.70000X90.00000*%
%ADD77VB_RECTANGLE,3.30000X3.30000X270.00000*%
%ADD78VB_RECTANGLE,4.10000X4.10000X90.00000*%
%ADD38VB_RECTANGLE,0.40000X0.90000X180.00000*%
%ADD69VB_RECTANGLE,0.50000X2.45000X180.00000*%
%ADD59VB_RECTANGLE,0.60000X1.70000X180.00000*%
%ADD22VB_RECTANGLE,0.70100X0.80010X180.00000*%
%ADD34VB_RECTANGLE,0.80000X1.50000X180.00000*%
%ADD17VB_RECTANGLE,0.80000X1.50000X90.00000*%
%ADD15VB_RECTANGLE,0.90000X0.90000X180.00000*%
%ADD14VB_RECTANGLE,0.90000X0.90000X90.00000*%
%ADD56VB_RECTANGLE,0.90000X1.70000X0.00000*%
%ADD21VB_RECTANGLE,0.90000X1.70000X90.00000*%
%ADD29VB_RECTANGLE,0.95000X2.90000X180.00000*%
%ADD28VB_RECTANGLE,0.95000X2.90000X270.00000*%
%ADD72VB_RECTANGLE,1.10000X1.20000X180.00000*%
%ADD36VB_RECTANGLE,1.10000X1.20000X90.00000*%
%ADD44VB_RECTANGLE,1.20000X0.70000X180.00000*%
%ADD52VB_RECTANGLE,1.20000X0.70000X270.00000*%
%ADD54VB_RECTANGLE,1.20000X2.00000X270.00000*%
%ADD76VB_RECTANGLE,1.40000X1.20000X270.00000*%
%ADD48VB_RECTANGLE,1.40000X2.10000X180.00000*%
%ADD73VB_RECTANGLE,1.50000X1.20000X180.00000*%
%ADD46VB_RECTANGLE,1.50000X1.20000X90.00000*%
%ADD18VB_RECTANGLE,1.50000X3.00000X180.00000*%
%ADD45VB_RECTANGLE,1.60000X2.20000X180.00000*%
%ADD50VB_RECTANGLE,1.60000X4.60000X0.00000*%
%ADD37VB_RECTANGLE,1.60000X4.60000X270.00000*%
%ADD39VB_RECTANGLE,1.80000X2.80000X270.00000*%
%ADD58VB_RECTANGLE,1.90000X0.50000X0.00000*%
%ADD66VB_RECTANGLE,2.00000X0.80000X90.00000*%
%ADD51VB_RECTANGLE,2.00000X3.40000X270.00000*%
%ADD43VB_RECTANGLE,2.00000X3.60000X270.00000*%
%ADD64VB_RECTANGLE,2.20000X1.70000X270.00000*%
%ADD55VB_RECTANGLE,2.40000X0.55000X270.00000*%
%ADD74VB_RECTANGLE,2.75000X0.85000X180.00000*%
%ADD23VB_RECTANGLE,3.00000X4.00000X0.00000*%
%ADD57VB_RECTANGLE,3.00000X4.00000X270.00000*%
%ADD63VB_RECTANGLE,3.50000X2.66000X0.00000*%
%ADD26VB_RECTANGLE,4.60000X2.10000X270.00000*%
%ADD75VB_RECTANGLE,4.90000X0.85000X180.00000*%
%ADD49VB_RECTANGLE,5.20000X2.60000X90.00000*%
G01*
G36*
X684938Y1572025D02*
X718438D01*
Y1589025*
X684938*
Y1572025*
X721438D02*
X754938D01*
Y1589025*
X721438*
Y1572025*
G37*
G54D10*
X0Y-74000D02*
X1415000D01*
Y1695000*
X0*
Y-74000*
G54D11*
X23500Y1249000D03*
X34000Y565000D03*
X80000Y-49000D03*
Y1644000D03*
X136000Y313000D03*
X268000Y844000D03*
X307000Y1495000D03*
X403000Y1192000D03*
X409000Y592000D03*
X439000Y355000D03*
X610000Y1084000D03*
X664000Y1541000D03*
X730000Y1303000D03*
X892000Y1564000D03*
X937000Y742000D03*
X1033000Y598000D03*
X1045000Y1192000D03*
X1047000Y279000D03*
X1159950Y963000D03*
X1216000Y1030000D03*
X1248000Y882000D03*
X1335000Y-49000D03*
X1381000Y1582000D03*
X1392000Y504000D03*
Y657000D03*
G54D12*
X16017Y52725D03*
X23817Y34025D03*
Y71425D03*
X42517Y26225D03*
Y79225D03*
X61217Y34025D03*
Y71425D03*
X69017Y52725D03*
X316200Y877037D03*
X358000Y1320000D03*
X365800Y1301300D03*
Y1338700D03*
X384500Y1293500D03*
Y1346500D03*
X403200Y1301300D03*
Y1338700D03*
X411000Y1320000D03*
X438800Y1398500D03*
X447300Y475825D03*
Y500825D03*
Y525825D03*
Y550825D03*
X455300Y488325D03*
Y513325D03*
Y538325D03*
Y563325D03*
X463300Y475825D03*
Y500825D03*
Y525825D03*
Y550825D03*
X471300Y488325D03*
Y513325D03*
Y538325D03*
Y563325D03*
X479300Y475825D03*
Y500825D03*
Y525825D03*
Y550825D03*
X487300Y488325D03*
Y513325D03*
Y538325D03*
Y563325D03*
X495300Y475825D03*
Y500825D03*
Y525825D03*
Y550825D03*
X503300Y488325D03*
Y513325D03*
Y538325D03*
Y563325D03*
X511300Y475825D03*
Y500825D03*
Y525825D03*
Y550825D03*
X517500Y877037D03*
X519300Y488325D03*
Y513325D03*
Y538325D03*
Y563325D03*
X568458Y1115877D03*
X589800Y475825D03*
Y500825D03*
Y525825D03*
Y550825D03*
X597800Y488325D03*
Y513325D03*
Y538325D03*
Y563325D03*
X605800Y475825D03*
Y500825D03*
Y525825D03*
Y550825D03*
X613800Y488325D03*
Y513325D03*
Y538325D03*
Y563325D03*
X621800Y475825D03*
Y500825D03*
Y525825D03*
Y550825D03*
X629800Y488325D03*
Y513325D03*
Y538325D03*
Y563325D03*
X637800Y475825D03*
Y500825D03*
Y525825D03*
Y550825D03*
X645800Y488325D03*
Y513325D03*
Y538325D03*
Y563325D03*
X653800Y475825D03*
Y500825D03*
Y525825D03*
Y550825D03*
X661800Y488325D03*
Y513325D03*
Y538325D03*
Y563325D03*
X732300Y475825D03*
Y500825D03*
Y525825D03*
Y550825D03*
X740300Y488325D03*
Y513325D03*
Y538325D03*
Y563325D03*
X748300Y475825D03*
Y500825D03*
Y525825D03*
Y550825D03*
X756300Y488325D03*
Y513325D03*
Y538325D03*
Y563325D03*
X764300Y475825D03*
Y500825D03*
Y525825D03*
Y550825D03*
X772300Y488325D03*
Y513325D03*
Y538325D03*
Y563325D03*
X780300Y475825D03*
Y500825D03*
Y525825D03*
Y550825D03*
X788300Y488325D03*
Y513325D03*
Y538325D03*
Y563325D03*
X796300Y475825D03*
Y500825D03*
Y525825D03*
Y550825D03*
X804300Y488325D03*
Y513325D03*
Y538325D03*
Y563325D03*
X840100Y1398500D03*
X866000Y1320000D03*
X873800Y1301300D03*
Y1338700D03*
X874800Y475825D03*
Y500825D03*
Y525825D03*
Y550825D03*
X882800Y488325D03*
Y513325D03*
Y538325D03*
Y563325D03*
X890800Y475825D03*
Y500825D03*
Y525825D03*
Y550825D03*
X892500Y1293500D03*
Y1346500D03*
X898800Y488325D03*
Y513325D03*
Y538325D03*
Y563325D03*
X906800Y475825D03*
Y500825D03*
Y525825D03*
Y550825D03*
X911200Y1301300D03*
Y1338700D03*
X914800Y488325D03*
Y513325D03*
Y538325D03*
Y563325D03*
X919000Y1320000D03*
X922800Y475825D03*
Y500825D03*
Y525825D03*
Y550825D03*
X930800Y488325D03*
Y513325D03*
Y538325D03*
Y563325D03*
X931000Y688000D03*
X938800Y475825D03*
Y500825D03*
Y525825D03*
Y550825D03*
Y669300D03*
Y706700D03*
X946800Y488325D03*
Y513325D03*
Y538325D03*
Y563325D03*
X957500Y661500D03*
Y714500D03*
X976200Y669300D03*
Y706700D03*
X984000Y688000D03*
X1099643Y271442D03*
Y455442D03*
X1099800Y745113D03*
Y929113D03*
X1136400Y783113D03*
Y795813D03*
Y808513D03*
Y821213D03*
Y833913D03*
Y846613D03*
Y859313D03*
Y872013D03*
Y884713D03*
X1152906Y789495D03*
Y802195D03*
Y814895D03*
Y827595D03*
Y840295D03*
Y852995D03*
Y865695D03*
Y878395D03*
Y891095D03*
G54D13*
X44000Y1569000D03*
X106500Y66300D03*
X171000Y1569000D03*
X280000Y885738D03*
Y1032763D03*
X360500Y66300D03*
X449509Y1306265D03*
X554000Y885738D03*
X723200Y1675450D03*
Y2094550D03*
X763509Y1306265D03*
X1061644Y226661D03*
Y500661D03*
X1061800Y700113D03*
Y974113D03*
X1066000Y1041000D03*
X1153400Y1576500D03*
X1208644Y500661D03*
X1246700Y607150D03*
Y921150D03*
X1361857Y401758D03*
Y528758D03*
X1380000Y1041000D03*
X1386700Y1643700D03*
Y2126300D03*
X1394300Y619150D03*
Y746150D03*
G54D14*
X49500Y1276500D03*
Y1292500D03*
X107350Y-63000D03*
Y-47000D03*
X121000Y955000D03*
Y971000D03*
Y982000D03*
Y998000D03*
Y1009000D03*
Y1025000D03*
Y1036000D03*
Y1052000D03*
Y1063000D03*
Y1079000D03*
Y1090000D03*
Y1106000D03*
Y1117000D03*
Y1133000D03*
X129000Y1275500D03*
Y1291500D03*
Y1301500D03*
Y1317500D03*
X133000Y608000D03*
Y624000D03*
X141000Y571000D03*
Y587000D03*
X144369Y1123000D03*
Y1139000D03*
X145000Y821250D03*
Y837250D03*
X148819Y982500D03*
Y998500D03*
X153000Y571000D03*
Y587000D03*
X156369Y1123000D03*
Y1139000D03*
X157000Y821250D03*
Y837250D03*
X160819Y982500D03*
Y998500D03*
X168369Y1123000D03*
Y1139000D03*
X169000Y821250D03*
Y837250D03*
X172819Y982500D03*
Y998500D03*
X181000Y821250D03*
Y837250D03*
X184819Y982500D03*
Y998500D03*
X193000Y821250D03*
Y837250D03*
X205000Y747750D03*
Y763750D03*
Y794250D03*
Y810250D03*
Y821250D03*
Y837250D03*
X205919Y982500D03*
Y998500D03*
X207000Y1249500D03*
Y1265500D03*
Y1287500D03*
Y1303500D03*
X217919Y982500D03*
Y998500D03*
X235919Y982500D03*
Y998500D03*
X247700Y1499000D03*
Y1515000D03*
X247919Y982500D03*
Y998500D03*
X259700Y1499000D03*
Y1515000D03*
X259906Y982438D03*
Y998438D03*
X263500Y1395500D03*
Y1411500D03*
Y1422500D03*
Y1438500D03*
X271700Y1499000D03*
Y1515000D03*
X277000Y1395500D03*
Y1411500D03*
Y1422500D03*
Y1438500D03*
X288500Y1245000D03*
Y1261000D03*
Y1279500D03*
Y1295500D03*
Y1306500D03*
Y1322500D03*
X289000Y1395500D03*
Y1411500D03*
Y1422500D03*
Y1438500D03*
X301000Y1395500D03*
Y1411500D03*
Y1422500D03*
Y1438500D03*
X313000Y1395500D03*
Y1411500D03*
Y1422500D03*
Y1438500D03*
X325000Y1395500D03*
Y1411500D03*
Y1422500D03*
Y1438500D03*
X337000Y1395500D03*
Y1411500D03*
Y1422500D03*
Y1438500D03*
X349000Y1395500D03*
Y1411500D03*
Y1422500D03*
Y1438500D03*
X361000Y1395500D03*
Y1411500D03*
Y1422500D03*
Y1438500D03*
X377700Y1513000D03*
Y1529000D03*
X382000Y1422500D03*
Y1438500D03*
X394000Y1422500D03*
Y1438500D03*
X438250Y956587D03*
Y972587D03*
X450300Y956600D03*
Y972600D03*
X462250Y956587D03*
Y972587D03*
X474250Y956587D03*
Y972587D03*
X490000Y1512900D03*
Y1528900D03*
X548000Y1074600D03*
Y1090600D03*
X551680Y1139322D03*
Y1155322D03*
X560000Y1074600D03*
Y1090600D03*
X580000Y1496000D03*
Y1512000D03*
X592000Y1496000D03*
Y1512000D03*
X622500Y953000D03*
Y969000D03*
Y980000D03*
Y996000D03*
X622550Y1015950D03*
Y1031950D03*
X634500Y953000D03*
Y969000D03*
Y984500D03*
Y1000500D03*
Y1015900D03*
Y1031900D03*
X646500Y953000D03*
Y969000D03*
Y989000D03*
Y1005000D03*
Y1016000D03*
Y1032000D03*
X658500Y953000D03*
Y969000D03*
Y984500D03*
Y1000500D03*
Y1016000D03*
Y1032000D03*
X671500Y1443000D03*
Y1459000D03*
X700250Y1416500D03*
Y1432500D03*
X712000Y1157000D03*
Y1173000D03*
X745000Y1157000D03*
Y1173000D03*
X748250Y1416500D03*
Y1432500D03*
Y1443500D03*
Y1459500D03*
X756063Y1478550D03*
Y1494550D03*
Y1512400D03*
Y1528400D03*
X757000Y1157000D03*
Y1173000D03*
X760250Y1416500D03*
Y1432500D03*
Y1443500D03*
Y1459500D03*
X772250Y1416500D03*
Y1432500D03*
X844000Y1494500D03*
Y1510500D03*
X850000Y1055500D03*
Y1071500D03*
X1118000Y1052000D03*
Y1068000D03*
D03*
Y1084000D03*
X1136000Y1052000D03*
Y1068000D03*
D03*
Y1084000D03*
X1148000Y1052000D03*
Y1068000D03*
D03*
Y1084000D03*
X1160000Y1052000D03*
Y1068000D03*
D03*
Y1084000D03*
X1160306Y390832D03*
Y406832D03*
X1168000Y1430000D03*
Y1446000D03*
X1172000Y1052000D03*
Y1068000D03*
D03*
Y1084000D03*
Y1103000D03*
Y1119000D03*
X1175208Y393059D03*
Y409059D03*
D03*
Y425059D03*
X1187208Y393059D03*
Y409059D03*
D03*
Y425059D03*
X1199208Y393059D03*
Y409059D03*
D03*
Y425059D03*
X1211208Y393059D03*
Y409059D03*
D03*
Y425059D03*
X1349700Y888150D03*
Y904150D03*
X1361700Y888150D03*
Y904150D03*
X1373700Y888150D03*
Y904150D03*
X1385700Y888150D03*
Y904150D03*
X1397700Y888150D03*
Y904150D03*
G54D15*
X107350Y-37000D03*
X123350D03*
X147500Y622750D03*
X163500D03*
X192500D03*
X208500D03*
X258450Y1092531D03*
X274450D03*
X327750Y332750D03*
X343750D03*
X358000Y289250D03*
Y301250D03*
Y313250D03*
Y325000D03*
Y353500D03*
Y365500D03*
Y377500D03*
Y389500D03*
X374000Y289250D03*
D03*
Y301250D03*
D03*
Y313250D03*
D03*
Y325000D03*
Y337000D03*
Y353500D03*
D03*
Y365500D03*
D03*
Y377500D03*
D03*
Y389500D03*
D03*
X390000Y289250D03*
Y301250D03*
Y313250D03*
Y337000D03*
Y353500D03*
Y365500D03*
Y377500D03*
Y389500D03*
X425000Y1234000D03*
X441000D03*
X453800Y647975D03*
X460000Y601000D03*
X469800Y647975D03*
X476000Y601000D03*
X500200Y648000D03*
X501200Y601000D03*
X516200Y648000D03*
X517200Y601000D03*
X533000Y1231000D03*
Y1243000D03*
X549000Y1231000D03*
Y1243000D03*
X552700Y1473000D03*
Y1485000D03*
X568700Y1473000D03*
Y1485000D03*
X571000Y1197000D03*
X574000Y1523300D03*
X576000Y1238000D03*
Y1250000D03*
Y1262000D03*
Y1274000D03*
X587000Y1197000D03*
X590000Y1523300D03*
X592000Y1238000D03*
Y1250000D03*
Y1262000D03*
Y1274000D03*
X596300Y601000D03*
Y647975D03*
X604000Y1472500D03*
Y1487500D03*
Y1499500D03*
Y1511500D03*
X612300Y601000D03*
Y647975D03*
X620000Y1472500D03*
Y1487500D03*
Y1499500D03*
Y1511500D03*
X643500Y601000D03*
Y648000D03*
X659500Y601000D03*
Y648000D03*
X670000Y1475500D03*
Y1487500D03*
Y1499500D03*
Y1511500D03*
X677500Y961000D03*
X686000Y1475500D03*
Y1487500D03*
Y1499500D03*
Y1511500D03*
X693500Y961000D03*
X713250Y1459000D03*
X729250D03*
X738000Y601000D03*
Y648000D03*
X743500Y1024000D03*
X746500Y976000D03*
X754000Y601000D03*
Y648000D03*
X759500Y1024000D03*
X762500Y976000D03*
X766000Y1403500D03*
X782000D03*
X785000Y601000D03*
Y648000D03*
X801000Y601000D03*
Y648000D03*
X881000Y601000D03*
Y648000D03*
X897000Y601000D03*
Y648000D03*
X908000D03*
X913500Y1000050D03*
X924000Y648000D03*
X929000Y601000D03*
X929500Y1000050D03*
X945000Y601000D03*
X1045300Y819100D03*
Y831100D03*
Y843100D03*
Y855100D03*
Y867100D03*
Y879100D03*
X1061300Y819100D03*
D03*
Y831100D03*
D03*
Y843100D03*
D03*
Y855100D03*
D03*
Y867100D03*
D03*
Y879100D03*
D03*
Y891113D03*
X1077300Y819100D03*
Y831100D03*
Y843100D03*
Y855100D03*
Y867100D03*
Y879100D03*
Y891113D03*
X1151406Y244632D03*
X1151430Y256659D03*
Y268659D03*
X1167406Y244632D03*
X1167430Y256659D03*
Y268659D03*
X1181906Y244632D03*
X1181930Y256659D03*
Y268659D03*
X1197906Y244632D03*
X1197930Y256659D03*
Y268659D03*
X1358000Y1147000D03*
Y1237000D03*
Y1444000D03*
X1374000Y1147000D03*
Y1237000D03*
Y1444000D03*
X1383700Y776150D03*
X1399700D03*
G54D16*
X19879Y421625D03*
X22922Y401649D03*
X181000Y588000D03*
X190000D03*
X348000Y409500D03*
X355500Y406000D03*
G54D17*
X63000Y1251400D03*
Y1264100D03*
Y1276800D03*
Y1289500D03*
Y1302200D03*
Y1314900D03*
Y1327600D03*
X117000Y1251400D03*
Y1264100D03*
Y1276800D03*
Y1289500D03*
Y1302200D03*
Y1314900D03*
Y1327600D03*
X141000Y1251400D03*
Y1264100D03*
Y1276800D03*
Y1289500D03*
Y1302200D03*
Y1314900D03*
Y1327600D03*
X144969Y1017500D03*
Y1030200D03*
Y1043000D03*
Y1055700D03*
Y1068400D03*
Y1081100D03*
Y1093800D03*
Y1106500D03*
X145019Y874000D03*
Y886700D03*
Y899500D03*
Y912200D03*
Y924900D03*
Y937600D03*
Y950300D03*
Y963000D03*
X195000Y1251400D03*
Y1264100D03*
Y1276800D03*
Y1289500D03*
Y1302200D03*
Y1314900D03*
Y1327600D03*
X219000Y1251400D03*
Y1264100D03*
Y1276800D03*
Y1289500D03*
Y1302200D03*
Y1314900D03*
Y1327600D03*
X241969Y1017500D03*
Y1030200D03*
Y1042900D03*
Y1055600D03*
Y1068300D03*
Y1081000D03*
Y1093800D03*
Y1106500D03*
X242019Y874000D03*
Y886700D03*
Y899400D03*
Y912100D03*
Y924800D03*
Y937500D03*
Y950300D03*
Y963000D03*
X273000Y1251400D03*
Y1264100D03*
Y1276800D03*
Y1289500D03*
Y1302200D03*
Y1314900D03*
Y1327600D03*
X673500Y978000D03*
Y990700D03*
Y1003400D03*
Y1016100D03*
X727500Y978000D03*
Y990700D03*
Y1003400D03*
Y1016100D03*
X781500Y977900D03*
Y990600D03*
Y1003300D03*
Y1016000D03*
X835500Y977900D03*
Y990600D03*
Y1003300D03*
Y1016000D03*
G54D18*
X442800Y624675D03*
X474800D03*
X493800D03*
X525800D03*
X585300D03*
X617300D03*
X637050D03*
X669050D03*
X727800D03*
X759800D03*
X778800D03*
X810800D03*
X870300D03*
X902300D03*
X921300D03*
X953300D03*
G54D19*
X0Y2000D03*
Y1593000D03*
X10000Y2000D03*
Y1593000D03*
X20000Y2000D03*
Y1593000D03*
X30000Y2000D03*
Y1593000D03*
X40000Y2000D03*
Y1593000D03*
X50000Y2000D03*
Y1593000D03*
X60000Y2000D03*
Y1593000D03*
X70000Y2000D03*
Y1593000D03*
X641000D03*
Y1621000D03*
X651000Y1593000D03*
Y1621000D03*
X661000Y1593000D03*
Y1621000D03*
X671000Y1593000D03*
Y1621000D03*
X681000Y1593000D03*
Y1621000D03*
X996000Y0D03*
Y10000D03*
Y20000D03*
Y30000D03*
Y40000D03*
Y50000D03*
Y60000D03*
Y70000D03*
Y925000D03*
Y935000D03*
Y945000D03*
Y955000D03*
Y965000D03*
Y975000D03*
Y985000D03*
Y995000D03*
Y1019000D03*
Y1029000D03*
Y1039000D03*
Y1049000D03*
Y1059000D03*
Y1069000D03*
Y1079000D03*
Y1089000D03*
Y1549000D03*
Y1559000D03*
Y1569000D03*
Y1579000D03*
Y1589000D03*
Y1599000D03*
Y1609000D03*
Y1619000D03*
X1024000Y189000D03*
Y560000D03*
Y588000D03*
X1026000Y925000D03*
Y935000D03*
Y945000D03*
Y955000D03*
Y965000D03*
Y975000D03*
Y985000D03*
Y995000D03*
Y1019000D03*
Y1029000D03*
Y1039000D03*
Y1049000D03*
Y1059000D03*
Y1069000D03*
Y1079000D03*
Y1089000D03*
Y1549000D03*
Y1559000D03*
Y1569000D03*
Y1579000D03*
Y1589000D03*
Y1599000D03*
Y1609000D03*
Y1619000D03*
X1034000Y189000D03*
Y560000D03*
Y588000D03*
X1044000Y189000D03*
Y560000D03*
Y588000D03*
X1054000Y189000D03*
Y560000D03*
Y588000D03*
X1064000Y189000D03*
Y560000D03*
Y588000D03*
X1074000Y189000D03*
Y560000D03*
Y588000D03*
X1084000Y189000D03*
Y560000D03*
Y588000D03*
X1094000Y189000D03*
Y560000D03*
Y588000D03*
X1200000Y637000D03*
Y647000D03*
Y657000D03*
Y667000D03*
Y677000D03*
Y687000D03*
Y697000D03*
Y707000D03*
X1200950Y955000D03*
Y965000D03*
Y975000D03*
Y985000D03*
Y995000D03*
X1228000Y637000D03*
Y647000D03*
Y657000D03*
Y667000D03*
Y677000D03*
Y687000D03*
Y697000D03*
Y707000D03*
X1270000Y560000D03*
Y588000D03*
X1275000Y1021000D03*
X1280000Y560000D03*
Y588000D03*
X1285000Y1021000D03*
X1290000Y560000D03*
Y588000D03*
X1295000Y1021000D03*
X1300000Y560000D03*
Y588000D03*
X1305000Y1021000D03*
X1310000Y560000D03*
Y588000D03*
X1315000Y1021000D03*
X1325000D03*
X1335000D03*
X1345000Y189000D03*
Y940000D03*
Y1021000D03*
X1355000Y189000D03*
Y940000D03*
X1365000Y189000D03*
Y940000D03*
X1375000Y189000D03*
Y560000D03*
Y588000D03*
Y940000D03*
X1385000Y189000D03*
Y560000D03*
Y588000D03*
Y940000D03*
X1395000Y189000D03*
Y560000D03*
Y588000D03*
Y940000D03*
X1405000Y189000D03*
Y560000D03*
Y588000D03*
Y940000D03*
X1415000Y189000D03*
Y560000D03*
Y588000D03*
Y940000D03*
G54D20*
X42517Y52725D03*
X384500Y1320000D03*
X892500D03*
X957500Y688000D03*
G54D21*
X47799Y302788D03*
X178000Y622750D03*
X827000Y1168000D03*
X895450Y1000050D03*
G54D22*
X1067644Y407661D03*
Y416661D03*
Y434661D03*
Y443661D03*
X1077644Y407661D03*
Y416661D03*
Y434661D03*
Y443661D03*
X1251709Y198647D03*
X1261709D03*
X1290709D03*
X1300709D03*
X1328644Y198661D03*
X1338644D03*
X1366503Y198761D03*
X1376503D03*
G54D23*
X878000Y1183050D03*
Y1246050D03*
X951000Y1183050D03*
Y1246050D03*
G54D24*
X1100800Y712113D03*
Y962113D03*
X1188400Y727113D03*
Y947113D03*
G54D25*
X47288Y761150D03*
Y786550D03*
Y811950D03*
Y837350D03*
Y862750D03*
X47300Y967800D03*
Y993200D03*
Y1018600D03*
Y1044000D03*
Y1069400D03*
Y1094800D03*
Y1120200D03*
X72688Y761150D03*
Y786550D03*
Y811950D03*
Y837350D03*
Y862750D03*
X72700Y967800D03*
Y993200D03*
Y1018600D03*
Y1044000D03*
Y1069400D03*
Y1094800D03*
Y1120200D03*
X412000Y67325D03*
Y147325D03*
Y227325D03*
Y307325D03*
Y387325D03*
Y467325D03*
X443500Y583625D03*
X468800Y324125D03*
X483500Y583625D03*
X497800Y67325D03*
X522800Y324125D03*
X523500Y583625D03*
X554500Y67325D03*
Y147325D03*
Y227325D03*
Y307325D03*
Y387325D03*
Y467325D03*
X586000Y583625D03*
X611300Y324125D03*
X615000Y1124500D03*
Y1149900D03*
Y1175300D03*
Y1200700D03*
Y1226100D03*
Y1251500D03*
X626000Y583625D03*
X640300Y67325D03*
X665300Y324125D03*
X666000Y583625D03*
X697000Y67325D03*
Y147325D03*
Y227325D03*
Y307325D03*
Y387325D03*
Y467325D03*
X728500Y583625D03*
X753800Y324125D03*
X768500Y583625D03*
X777150Y2113600D03*
Y2139000D03*
X777200Y1631050D03*
Y1656450D03*
X782800Y67325D03*
X797125Y1507500D03*
X802550Y2113600D03*
Y2139000D03*
X802600Y1631050D03*
Y1656450D03*
X807800Y324125D03*
X808500Y583625D03*
X809625Y1532500D03*
X827950Y2113600D03*
Y2139000D03*
X828000Y1631050D03*
Y1656450D03*
X839500Y67325D03*
Y147325D03*
Y227325D03*
Y307325D03*
Y387325D03*
Y467325D03*
X853350Y2113600D03*
Y2139000D03*
X853400Y1631050D03*
Y1656450D03*
X854625Y1532500D03*
X867125Y1507500D03*
X871000Y583625D03*
X878750Y2113600D03*
Y2139000D03*
X878800Y1631050D03*
Y1656450D03*
X896300Y324125D03*
X904150Y2113600D03*
Y2139000D03*
X904200Y1631050D03*
Y1656450D03*
X911000Y583625D03*
X925300Y67325D03*
X929550Y2113600D03*
Y2139000D03*
X929600Y1631050D03*
Y1656450D03*
X950300Y324125D03*
X951000Y583625D03*
X954950Y2113600D03*
Y2139000D03*
X955000Y1631050D03*
Y1656450D03*
X980350Y2113600D03*
Y2139000D03*
X980400Y1631050D03*
Y1656450D03*
X982000Y67325D03*
Y147325D03*
Y227325D03*
Y307325D03*
Y387325D03*
Y467325D03*
X1005750Y2113600D03*
Y2139000D03*
X1005800Y1631050D03*
Y1656450D03*
X1031150Y2113600D03*
Y2139000D03*
X1031200Y1631050D03*
Y1656450D03*
X1049150Y619988D03*
Y645388D03*
X1056550Y2113600D03*
Y2139000D03*
X1056600Y1631050D03*
Y1656450D03*
X1074550Y619988D03*
Y645388D03*
X1081950Y2113600D03*
Y2139000D03*
X1082000Y1631050D03*
Y1656450D03*
X1099950Y619988D03*
Y645388D03*
X1107350Y2113600D03*
Y2139000D03*
X1107400Y1631050D03*
Y1656450D03*
X1125350Y619988D03*
Y645388D03*
X1132750Y2113600D03*
Y2139000D03*
X1132800Y1631050D03*
Y1656450D03*
X1150750Y619988D03*
Y645388D03*
X1158150Y2113600D03*
Y2139000D03*
X1158200Y1631050D03*
Y1656450D03*
X1183550Y2113600D03*
Y2139000D03*
X1183600Y1631050D03*
Y1656450D03*
X1208950Y2113600D03*
Y2139000D03*
X1209000Y1631050D03*
Y1656450D03*
X1234350Y2113600D03*
Y2139000D03*
X1234400Y1631050D03*
Y1656450D03*
X1259750Y2113600D03*
Y2139000D03*
X1259800Y1631050D03*
Y1656450D03*
X1285150Y2113600D03*
Y2139000D03*
X1285200Y1631050D03*
Y1656450D03*
X1310550Y2113600D03*
Y2139000D03*
X1310600Y1631050D03*
Y1656450D03*
X1335950Y2113600D03*
Y2139000D03*
X1336000Y1631050D03*
Y1656450D03*
G54D26*
X683000Y1055000D03*
Y1142000D03*
Y1190000D03*
Y1277000D03*
X789000Y1190000D03*
Y1277000D03*
G54D27*
X1076950Y1096029D03*
Y1497971D03*
X1301758Y618091D03*
Y910191D03*
X1369050Y1096029D03*
Y1497971D03*
G54D28*
X1281229Y611746D03*
Y624446D03*
Y637146D03*
Y649846D03*
Y662546D03*
Y675246D03*
Y687946D03*
Y700646D03*
Y713346D03*
Y726046D03*
Y738746D03*
Y751446D03*
Y764146D03*
Y776846D03*
Y789546D03*
Y802246D03*
Y814946D03*
Y827646D03*
Y840346D03*
Y853046D03*
Y865746D03*
Y878446D03*
Y891146D03*
Y903846D03*
Y916546D03*
X1322229Y611746D03*
Y624446D03*
Y637146D03*
Y649846D03*
Y662546D03*
Y675246D03*
Y687946D03*
Y700646D03*
Y713346D03*
Y726046D03*
Y738746D03*
Y751446D03*
Y764146D03*
Y776846D03*
Y789546D03*
Y802246D03*
Y814946D03*
Y827646D03*
Y840346D03*
Y853046D03*
Y865746D03*
Y878446D03*
Y891146D03*
Y903846D03*
Y916546D03*
G54D29*
X454104Y1340735D03*
Y1381735D03*
X466804Y1340735D03*
Y1381735D03*
X479504Y1340735D03*
Y1381735D03*
X492204Y1340735D03*
Y1381735D03*
X504904Y1340735D03*
Y1381735D03*
X517604Y1340735D03*
Y1381735D03*
X530304Y1340735D03*
Y1381735D03*
X543004Y1340735D03*
Y1381735D03*
X555704Y1340735D03*
Y1381735D03*
X568404Y1340735D03*
Y1381735D03*
X581104Y1340735D03*
Y1381735D03*
X593804Y1340735D03*
Y1381735D03*
X606504Y1340735D03*
Y1381735D03*
X619204Y1340735D03*
Y1381735D03*
X631904Y1340735D03*
Y1381735D03*
X644604Y1340735D03*
Y1381735D03*
X657304Y1340735D03*
Y1381735D03*
X670004Y1340735D03*
Y1381735D03*
X682704Y1340735D03*
Y1381735D03*
X695404Y1340735D03*
Y1381735D03*
X708104Y1340735D03*
Y1381735D03*
X720804Y1340735D03*
Y1381735D03*
X733504Y1340735D03*
Y1381735D03*
X746204Y1340735D03*
Y1381735D03*
X758904Y1340735D03*
Y1381735D03*
X1070604Y1171529D03*
Y1212529D03*
Y1477500D03*
Y1518500D03*
X1083304Y1171529D03*
Y1212529D03*
Y1477500D03*
Y1518500D03*
X1096004Y1171529D03*
Y1212529D03*
Y1477500D03*
Y1518500D03*
X1108704Y1171529D03*
Y1212529D03*
Y1477500D03*
Y1518500D03*
X1121404Y1171529D03*
Y1212529D03*
Y1477500D03*
Y1518500D03*
X1134104Y1171529D03*
Y1212529D03*
Y1477500D03*
Y1518500D03*
X1146804Y1171529D03*
Y1212529D03*
Y1477500D03*
Y1518500D03*
X1159504Y1171529D03*
Y1212529D03*
Y1477500D03*
Y1518500D03*
X1172204Y1171529D03*
Y1212529D03*
Y1477500D03*
Y1518500D03*
X1184904Y1171529D03*
Y1212529D03*
Y1477500D03*
Y1518500D03*
X1197604Y1171529D03*
Y1212529D03*
Y1477500D03*
Y1518500D03*
X1210304Y1171529D03*
Y1212529D03*
Y1477500D03*
Y1518500D03*
X1223004Y1171529D03*
Y1212529D03*
Y1477500D03*
Y1518500D03*
X1235704Y1171529D03*
Y1212529D03*
Y1477500D03*
Y1518500D03*
X1248404Y1171529D03*
Y1212529D03*
Y1477500D03*
Y1518500D03*
X1261104Y1171529D03*
Y1212529D03*
Y1477500D03*
Y1518500D03*
X1273804Y1171529D03*
Y1212529D03*
Y1477500D03*
Y1518500D03*
X1286504Y1171529D03*
Y1212529D03*
Y1477500D03*
Y1518500D03*
X1299204Y1171529D03*
Y1212529D03*
Y1477500D03*
Y1518500D03*
X1311904Y1171529D03*
Y1212529D03*
Y1477500D03*
Y1518500D03*
X1324604Y1171529D03*
Y1212529D03*
Y1477500D03*
Y1518500D03*
X1337304Y1171529D03*
Y1212529D03*
Y1477500D03*
Y1518500D03*
X1350004Y1171529D03*
Y1212529D03*
Y1477500D03*
Y1518500D03*
X1362704Y1171529D03*
Y1212529D03*
Y1477500D03*
Y1518500D03*
X1375404Y1171529D03*
Y1212529D03*
Y1477500D03*
Y1518500D03*
G54D30*
X26200Y1414100D03*
Y1497900D03*
X78600Y20600D03*
Y221200D03*
X188800Y1414100D03*
Y1497900D03*
X233500Y239000D03*
X388400Y20600D03*
Y180600D03*
X1327557Y383958D03*
Y546558D03*
X1360000Y601350D03*
Y763950D03*
G54D31*
X63000Y1398800D03*
Y1461100D03*
X75700Y1424200D03*
X75750Y1486500D03*
X88400Y1398800D03*
Y1461100D03*
X101100Y1424200D03*
X101150Y1486500D03*
X113900Y1398800D03*
Y1461100D03*
X126500Y1424200D03*
X126550Y1486500D03*
X139300Y1398800D03*
Y1461100D03*
X151900Y1424200D03*
X151950Y1486500D03*
X464000Y1160400D03*
Y1200400D03*
X524000Y1160400D03*
Y1200400D03*
X1318657Y429658D03*
Y449958D03*
Y470258D03*
Y490558D03*
X1336457Y439858D03*
Y460158D03*
Y480458D03*
Y500758D03*
X1351100Y657350D03*
Y677650D03*
Y697950D03*
Y718250D03*
X1368900Y647150D03*
Y667450D03*
Y687750D03*
Y708050D03*
G54D32*
X890000Y1512550D03*
G54D33*
X940000Y1480050D03*
Y1545050D03*
G54D34*
X150000Y752750D03*
Y806750D03*
X162700Y752750D03*
Y806750D03*
X174419Y890500D03*
Y944500D03*
X175400Y752750D03*
Y806750D03*
X187119Y890500D03*
Y944500D03*
X188100Y752750D03*
Y806750D03*
X199819Y890500D03*
Y944500D03*
X212519Y890500D03*
Y944500D03*
X700338Y1479775D03*
Y1533775D03*
X713038Y1479775D03*
Y1533775D03*
X725738Y1479775D03*
Y1533775D03*
X738438Y1479775D03*
Y1533775D03*
G54D35*
X55232Y541438D03*
Y643438D03*
X90587Y576793D03*
Y678793D03*
X130700Y113300D03*
Y138700D03*
Y164100D03*
Y189500D03*
Y214900D03*
X143400Y126000D03*
Y151400D03*
Y176500D03*
Y202200D03*
Y227600D03*
X184000Y126000D03*
Y151400D03*
Y176800D03*
Y202200D03*
Y227600D03*
X196700Y113300D03*
Y138700D03*
Y164100D03*
Y189500D03*
Y214900D03*
X270700Y113300D03*
Y138700D03*
Y164100D03*
Y189500D03*
Y214900D03*
X283400Y126000D03*
Y151400D03*
Y176500D03*
Y202200D03*
Y227600D03*
X324000Y126000D03*
Y151400D03*
Y176800D03*
Y202200D03*
Y227600D03*
X336700Y113300D03*
Y138700D03*
Y164100D03*
Y189500D03*
Y214900D03*
X847305Y904177D03*
X882660Y939532D03*
G54D36*
X213700Y1497500D03*
Y1516500D03*
X233700Y1507000D03*
X338400Y1500500D03*
Y1519500D03*
X358400Y1510000D03*
X450400Y1500500D03*
Y1519500D03*
X470400Y1510000D03*
X546200Y1497500D03*
Y1516500D03*
X566200Y1507000D03*
X714750Y1418000D03*
X733750D03*
Y1437000D03*
X839125Y1577000D03*
G54D37*
X1122930Y214518D03*
X1206930D03*
G54D38*
X633700Y1479500D03*
Y1507500D03*
X638200Y1479500D03*
Y1507500D03*
X642700Y1479500D03*
Y1507500D03*
X647300Y1479500D03*
Y1507500D03*
X651800Y1479500D03*
Y1507500D03*
X656300Y1479500D03*
Y1507500D03*
G54D39*
X645000Y1493500D03*
G54D40*
X51500Y1205500D03*
X106500D03*
G54D41*
X460450Y1361206D03*
X752550D03*
X1076950Y1192000D03*
X1369050D03*
G54D42*
X40494Y363822D03*
Y371822D03*
Y379822D03*
Y387822D03*
Y395822D03*
Y403822D03*
Y411822D03*
Y419822D03*
Y427822D03*
Y435822D03*
Y443822D03*
Y451822D03*
Y459822D03*
Y467822D03*
Y475822D03*
Y483822D03*
X48494Y363822D03*
Y371822D03*
Y379822D03*
Y387822D03*
Y395822D03*
Y403822D03*
Y411822D03*
Y419822D03*
Y427822D03*
Y435822D03*
Y443822D03*
Y451822D03*
Y459822D03*
Y467822D03*
Y475822D03*
Y483822D03*
X56494Y363822D03*
Y371822D03*
Y379822D03*
Y387822D03*
Y395822D03*
Y403822D03*
Y411822D03*
Y419822D03*
Y427822D03*
Y435822D03*
Y443822D03*
Y451822D03*
Y459822D03*
Y467822D03*
Y475822D03*
Y483822D03*
X88494Y363822D03*
Y371822D03*
Y379822D03*
Y387822D03*
Y395822D03*
Y403822D03*
Y411822D03*
Y419822D03*
Y427822D03*
Y435822D03*
Y443822D03*
Y451822D03*
Y459822D03*
Y467822D03*
Y475822D03*
Y483822D03*
X96494Y363822D03*
Y371822D03*
Y379822D03*
Y387822D03*
Y395822D03*
Y403822D03*
Y411822D03*
Y419822D03*
Y427822D03*
Y435822D03*
Y443822D03*
Y451822D03*
Y459822D03*
Y467822D03*
Y475822D03*
Y483822D03*
X104494Y363822D03*
Y371822D03*
Y379822D03*
Y387822D03*
Y395822D03*
Y403822D03*
Y411822D03*
Y419822D03*
Y427822D03*
Y435822D03*
Y443822D03*
Y451822D03*
Y459822D03*
Y467822D03*
Y475822D03*
Y483822D03*
X1133180Y290009D03*
Y298009D03*
Y306009D03*
Y314009D03*
Y322009D03*
Y330009D03*
Y338009D03*
Y346009D03*
Y354009D03*
Y362009D03*
X1141180Y290009D03*
Y298009D03*
Y306009D03*
Y314009D03*
Y322009D03*
Y330009D03*
Y338009D03*
Y346009D03*
Y354009D03*
Y362009D03*
X1149180Y290009D03*
Y298009D03*
Y306009D03*
Y314009D03*
Y322009D03*
Y330009D03*
Y338009D03*
Y346009D03*
Y354009D03*
Y362009D03*
X1157180Y290009D03*
Y298009D03*
Y306009D03*
Y314009D03*
Y322009D03*
Y330009D03*
Y338009D03*
Y346009D03*
Y354009D03*
Y362009D03*
X1165180Y290009D03*
Y298009D03*
Y306009D03*
Y314009D03*
Y322009D03*
Y330009D03*
Y338009D03*
Y346009D03*
Y354009D03*
Y362009D03*
X1173180Y290009D03*
Y298009D03*
Y306009D03*
Y314009D03*
Y322009D03*
Y330009D03*
Y338009D03*
Y346009D03*
Y354009D03*
Y362009D03*
X1181180Y290009D03*
Y298009D03*
Y306009D03*
Y314009D03*
Y322009D03*
Y330009D03*
Y338009D03*
Y346009D03*
Y354009D03*
Y362009D03*
X1189180Y290009D03*
Y298009D03*
Y306009D03*
Y314009D03*
Y322009D03*
Y330009D03*
Y338009D03*
Y346009D03*
Y354009D03*
Y362009D03*
X1197180Y290009D03*
Y298009D03*
Y306009D03*
Y314009D03*
Y322009D03*
Y330009D03*
Y338009D03*
Y346009D03*
Y354009D03*
Y362009D03*
X1205180Y290009D03*
Y298009D03*
Y306009D03*
Y314009D03*
Y322009D03*
Y330009D03*
Y338009D03*
Y346009D03*
Y354009D03*
Y362009D03*
G54D43*
X178000Y644950D03*
Y702550D03*
G54D44*
X570000Y1208500D03*
Y1227500D03*
X594000Y1208500D03*
Y1218000D03*
Y1227500D03*
G54D45*
X475600Y1085800D03*
Y1127800D03*
X526400Y1085800D03*
Y1127800D03*
G54D46*
X676500Y946000D03*
X694500D03*
X745500Y991000D03*
Y1009000D03*
X763500Y991000D03*
Y1009000D03*
G54D47*
X821625Y1583500D03*
X856625D03*
G54D48*
X156000Y732500D03*
X188000D03*
X351000Y255000D03*
X383000D03*
X777500Y952000D03*
X809500D03*
G54D49*
X203600Y1550000D03*
X291200D03*
X316600D03*
X404200D03*
X429600D03*
X517200D03*
X542600D03*
X630200D03*
G54D50*
X247400Y1553000D03*
X360400D03*
X473400D03*
X586400D03*
G54D51*
X808000Y1394000D03*
Y1452000D03*
X967000Y1394000D03*
Y1452000D03*
G54D52*
X770500Y1526000D03*
Y1550000D03*
X780000Y1526000D03*
Y1550000D03*
X789500Y1526000D03*
Y1550000D03*
X1179500Y1426000D03*
Y1450000D03*
X1189000D03*
X1198500Y1426000D03*
Y1450000D03*
G54D53*
X30000Y-49000D03*
Y1644000D03*
X1385000D03*
Y-49000D03*
G54D54*
X826000Y1492500D03*
Y1512500D03*
G54D55*
X1353900Y798150D03*
Y868150D03*
X1360400Y798150D03*
Y868150D03*
X1366900Y798150D03*
Y868150D03*
X1373400D03*
X1373500Y798150D03*
X1379900Y868150D03*
X1380000Y798150D03*
X1386500D03*
Y868150D03*
X1393000Y798150D03*
Y868150D03*
X1399500Y798150D03*
Y868150D03*
G54D56*
X263750Y966000D03*
X357500Y339500D03*
X700250Y1448500D03*
G54D57*
X856000Y1377500D03*
Y1450500D03*
X919000Y1377500D03*
Y1450500D03*
G54D58*
X457300Y1230300D03*
Y1236700D03*
Y1243300D03*
Y1249700D03*
X516700Y1230300D03*
Y1236700D03*
Y1243300D03*
Y1249700D03*
G54D59*
X706938Y1552525D03*
X713438D03*
X719938D03*
X726438D03*
X732938D03*
G54D60*
X684938Y1580525D03*
X754938D03*
G54D61*
X694938Y1553525D03*
X744938D03*
G54D62*
X184000Y421000D03*
Y431000D03*
Y441000D03*
Y451000D03*
Y461000D03*
Y471000D03*
Y481000D03*
Y491000D03*
Y501000D03*
Y511000D03*
Y521000D03*
Y531000D03*
Y541000D03*
Y551000D03*
Y561000D03*
Y571000D03*
X194000Y421000D03*
Y431000D03*
Y441000D03*
Y451000D03*
Y461000D03*
Y471000D03*
Y481000D03*
Y491000D03*
Y501000D03*
Y511000D03*
Y521000D03*
Y531000D03*
Y541000D03*
Y551000D03*
Y561000D03*
Y571000D03*
X204000Y421000D03*
Y431000D03*
Y441000D03*
Y451000D03*
Y461000D03*
Y471000D03*
Y481000D03*
Y491000D03*
Y501000D03*
Y511000D03*
Y521000D03*
Y531000D03*
Y541000D03*
Y551000D03*
Y561000D03*
Y571000D03*
X214000Y421000D03*
Y431000D03*
Y441000D03*
Y451000D03*
Y461000D03*
Y471000D03*
Y481000D03*
Y491000D03*
Y501000D03*
Y511000D03*
Y521000D03*
Y531000D03*
Y541000D03*
Y551000D03*
Y561000D03*
Y571000D03*
X224000Y421000D03*
Y431000D03*
Y441000D03*
Y451000D03*
Y461000D03*
Y471000D03*
Y481000D03*
Y491000D03*
Y501000D03*
Y511000D03*
Y521000D03*
Y531000D03*
Y541000D03*
Y551000D03*
Y561000D03*
Y571000D03*
X234000Y421000D03*
Y431000D03*
Y441000D03*
Y451000D03*
Y461000D03*
Y471000D03*
Y481000D03*
Y491000D03*
Y501000D03*
Y511000D03*
Y521000D03*
Y531000D03*
Y541000D03*
Y551000D03*
Y561000D03*
Y571000D03*
X244000Y421000D03*
Y431000D03*
Y441000D03*
Y451000D03*
Y461000D03*
Y471000D03*
Y481000D03*
Y491000D03*
Y501000D03*
Y511000D03*
Y521000D03*
Y531000D03*
Y541000D03*
Y551000D03*
Y561000D03*
Y571000D03*
X254000Y421000D03*
Y431000D03*
Y441000D03*
Y451000D03*
Y461000D03*
Y471000D03*
Y481000D03*
Y491000D03*
Y501000D03*
Y511000D03*
Y521000D03*
Y531000D03*
Y541000D03*
Y551000D03*
Y561000D03*
Y571000D03*
X264000Y421000D03*
Y431000D03*
Y441000D03*
Y451000D03*
Y461000D03*
Y471000D03*
Y481000D03*
Y491000D03*
Y501000D03*
Y511000D03*
Y521000D03*
Y531000D03*
Y541000D03*
Y551000D03*
Y561000D03*
Y571000D03*
X274000Y421000D03*
Y431000D03*
Y441000D03*
Y451000D03*
Y461000D03*
Y471000D03*
Y481000D03*
Y491000D03*
Y501000D03*
Y511000D03*
Y521000D03*
Y531000D03*
Y541000D03*
Y551000D03*
Y561000D03*
Y571000D03*
X284000Y421000D03*
Y431000D03*
Y441000D03*
Y451000D03*
Y461000D03*
Y471000D03*
Y481000D03*
Y491000D03*
Y501000D03*
Y511000D03*
Y521000D03*
Y531000D03*
Y541000D03*
Y551000D03*
Y561000D03*
Y571000D03*
X294000Y421000D03*
Y431000D03*
Y441000D03*
Y451000D03*
Y461000D03*
Y471000D03*
Y481000D03*
Y491000D03*
Y501000D03*
Y511000D03*
Y521000D03*
Y531000D03*
Y541000D03*
Y551000D03*
Y561000D03*
Y571000D03*
X304000Y421000D03*
Y431000D03*
Y441000D03*
Y451000D03*
Y461000D03*
Y471000D03*
Y481000D03*
Y491000D03*
Y501000D03*
Y511000D03*
Y521000D03*
Y531000D03*
Y541000D03*
Y551000D03*
Y561000D03*
Y571000D03*
X314000Y421000D03*
Y431000D03*
Y441000D03*
Y451000D03*
Y461000D03*
Y471000D03*
Y481000D03*
Y491000D03*
Y501000D03*
Y511000D03*
Y521000D03*
Y531000D03*
Y541000D03*
Y551000D03*
Y561000D03*
Y571000D03*
X324000Y421000D03*
Y431000D03*
Y441000D03*
Y451000D03*
Y461000D03*
Y471000D03*
Y481000D03*
Y491000D03*
Y501000D03*
Y511000D03*
Y521000D03*
Y531000D03*
Y541000D03*
Y551000D03*
Y561000D03*
Y571000D03*
X334000Y421000D03*
Y431000D03*
Y441000D03*
Y451000D03*
Y461000D03*
Y471000D03*
Y481000D03*
Y491000D03*
Y501000D03*
Y511000D03*
Y521000D03*
Y531000D03*
Y541000D03*
Y551000D03*
Y561000D03*
Y571000D03*
G54D63*
X169000Y779750D03*
G54D64*
X498600Y1106800D03*
Y1180400D03*
X549400Y1106800D03*
Y1180400D03*
G54D65*
X524000Y1106800D03*
Y1180400D03*
G54D66*
X1251757Y214952D03*
Y360992D03*
X1264457Y214952D03*
Y360992D03*
X1277157Y214952D03*
Y360992D03*
X1289857Y214952D03*
Y360992D03*
X1302557Y214952D03*
Y360992D03*
X1315257Y214952D03*
Y360992D03*
X1327957Y214952D03*
Y360992D03*
X1340657Y214952D03*
Y360992D03*
X1353357Y214952D03*
Y360992D03*
X1366057Y214952D03*
Y360992D03*
X1378757Y214952D03*
Y360992D03*
X1391457Y214952D03*
Y360992D03*
G54D67*
X483300Y147325D03*
X697000Y608325D03*
X910800Y147325D03*
G54D68*
X428300Y488325D03*
X538300Y563325D03*
X570800Y488325D03*
X680800Y563325D03*
X713300Y488325D03*
X823300Y563325D03*
X855800Y488325D03*
X965800Y563325D03*
G54D69*
X340900Y875137D03*
Y932337D03*
X348900Y875137D03*
Y932337D03*
X356900Y875137D03*
Y932337D03*
X364900Y875137D03*
Y932337D03*
X372900Y875137D03*
Y932337D03*
X380900Y875137D03*
Y932337D03*
X388900Y875137D03*
Y932337D03*
X396900Y875137D03*
Y932337D03*
X404900Y875137D03*
Y932337D03*
X412900Y875137D03*
Y932337D03*
X420900Y875137D03*
Y932337D03*
X428900Y875137D03*
Y932337D03*
X436900Y875137D03*
Y932337D03*
X444900Y875137D03*
Y932337D03*
X452900Y875137D03*
Y932337D03*
X460900Y875137D03*
Y932337D03*
X468900Y875137D03*
Y932337D03*
X476900Y875137D03*
Y932337D03*
X484900Y875137D03*
Y932337D03*
X492900Y875137D03*
Y932337D03*
G54D70*
X1041600Y10950D03*
Y61750D03*
Y92950D03*
Y143750D03*
X1092400Y10950D03*
Y61750D03*
Y92950D03*
Y143750D03*
X1170600Y10950D03*
Y61750D03*
Y92950D03*
Y143750D03*
X1221400Y10950D03*
Y61750D03*
Y92950D03*
Y143750D03*
X1299600Y10950D03*
Y61750D03*
Y92950D03*
Y143750D03*
X1350400Y10950D03*
Y61750D03*
Y92950D03*
Y143750D03*
G54D71*
X1067000Y36350D03*
Y118350D03*
X1196000Y36350D03*
Y118350D03*
X1325000Y36350D03*
Y118350D03*
G54D72*
X709000Y962000D03*
X718500Y942000D03*
X728000Y962000D03*
X745000Y942000D03*
X754500Y962000D03*
X764000Y942000D03*
G54D73*
X850000Y1027000D03*
Y1045000D03*
X862000Y982000D03*
Y1000000D03*
G54D74*
X336300Y903737D03*
X497600D03*
G54D75*
X385200D03*
X448700D03*
G54D76*
X714750Y1435500D03*
G54D77*
X895500Y1024050D03*
Y1132050D03*
X947500Y1024050D03*
Y1132050D03*
G54D78*
X787500Y1049000D03*
Y1143000D03*
M02*
