*
G04 Job   : H:\PCB100-199\PCB123_Ferret_Cu4_SFP8_Mngd_ref_board\Rev2\Layout\working\PCB\pcb123-02.pcb*
G04 User  : HERENT0076:mag*
G04 Layer : 13_Outline.gdo*
G04 Date  : Tue Aug 16 15:48:18 2016*
%ICAS*%
%MOMM*%
%FSLAX24Y24*%
%OFA0.0000B0.0000*%
G90*
G74*
%ADD10C,0.10000*%
%ADD12C,1.00000*%
%ADD11C,2.00000*%
%ADD14O,0.85000X0.50000*%
%ADD13O,0.50000X1.15000*%
G01*
G54D10*
X296500Y885500D02*
G03X280500Y901500I16000D01*
X264500Y885500J16000*
X280500Y869500I16000*
X296500Y885500J16000*
G01X465508Y1306000D02*
G03X449000Y1322508I16508D01*
X432492Y1306000J16508*
X449000Y1289492I16508*
X465508Y1306000J16508*
G01X570500Y885500D02*
G03X554500Y901500I16000D01*
X538500Y885500J16000*
X554500Y869500I16000*
X570500Y885500J16000*
G54D11*
G01X219000Y848000D02*
Y880004D01*
Y848000D02*
X251004D01*
X219000Y908005D02*
Y940009D01*
Y968010D02*
Y1000014D01*
Y1028015D02*
Y1060019D01*
Y1088020D02*
Y1120024D01*
Y1148025D02*
Y1180029D01*
Y1208030D02*
Y1239000D01*
X251004*
X231100Y1270200D02*
X263104D01*
X231100D02*
Y1302204D01*
Y1330205D02*
Y1362209D01*
Y1390210D02*
Y1422214D01*
Y1450215D02*
Y1482219D01*
Y1510220D02*
Y1542224D01*
Y1570225D02*
Y1602229D01*
Y1630230D02*
Y1662234D01*
Y1690235D02*
Y1722239D01*
Y1727400D02*
X263104D01*
X259500Y847500D02*
Y879504D01*
Y847500D02*
X291504D01*
X259500Y907505D02*
Y939509D01*
Y967510D02*
Y999514D01*
Y1025500D02*
X291504D01*
X279005Y848000D02*
X311009D01*
X279005Y1239000D02*
X311009D01*
X291105Y1270200D02*
X323109D01*
X291105Y1727400D02*
X323109D01*
X319505Y847500D02*
X351509D01*
X319505Y1025500D02*
X351509D01*
X339010Y848000D02*
X371014D01*
X339010Y1239000D02*
X371014D01*
X351110Y1270200D02*
X383114D01*
X351110Y1727400D02*
X383114D01*
X379510Y847500D02*
X411514D01*
X379510Y1025500D02*
X411514D01*
X399015Y848000D02*
X431019D01*
X399015Y1239000D02*
X431019D01*
X411115Y1270200D02*
X443119D01*
X411115Y1727400D02*
X443119D01*
X428500Y1285500D02*
Y1317504D01*
Y1285500D02*
X460504D01*
X428500Y1345505D02*
Y1377509D01*
Y1405510D02*
Y1437514D01*
Y1465515D02*
Y1474500D01*
X460504*
X439515Y847500D02*
X471519D01*
X439515Y1025500D02*
X471519D01*
X459020Y848000D02*
X491024D01*
X459020Y1239000D02*
X491024D01*
X471120Y1270200D02*
X503124D01*
X471120Y1727400D02*
X503124D01*
X488505Y1285500D02*
X520509D01*
X488505Y1474500D02*
X520509D01*
X499520Y847500D02*
X531524D01*
X499520Y1025500D02*
X531524D01*
X519025Y848000D02*
X551029D01*
X519025Y1239000D02*
X551029D01*
X531125Y1270200D02*
X563129D01*
X531125Y1727400D02*
X563129D01*
X548510Y1285500D02*
X580514D01*
X548510Y1474500D02*
X580514D01*
X559525Y847500D02*
X591529D01*
X559525Y1025500D02*
X591529D01*
X579030Y848000D02*
X594000D01*
X579030Y1239000D02*
X594000D01*
X591130Y1270200D02*
X623134D01*
X591130Y1727400D02*
X623134D01*
X594000Y878970D02*
Y848000D01*
Y938975D02*
Y906971D01*
Y998980D02*
Y966976D01*
Y1058985D02*
Y1026981D01*
Y1118990D02*
Y1086986D01*
Y1178995D02*
Y1146991D01*
Y1239000D02*
Y1206996D01*
X608515Y1285500D02*
X640519D01*
X608515Y1474500D02*
X640519D01*
X619530Y847500D02*
X651534D01*
X619530Y1025500D02*
X651534D01*
X651135Y1270200D02*
X683139D01*
X651135Y1727400D02*
X683139D01*
X668500Y905490D02*
Y873486D01*
Y965495D02*
Y933491D01*
Y1025500D02*
Y993496D01*
X668520Y1285500D02*
X700524D01*
X668520Y1474500D02*
X700524D01*
X711140Y1270200D02*
X743144D01*
X711140Y1727400D02*
X743144D01*
X728525Y1285500D02*
X760529D01*
X728525Y1474500D02*
X760529D01*
X771145Y1270200D02*
X803149D01*
X771145Y1727400D02*
X803149D01*
X784500Y1294485D02*
Y1285500D01*
Y1354490D02*
Y1322486D01*
Y1414495D02*
Y1382491D01*
Y1474500D02*
Y1442496D01*
X831150Y1270200D02*
X863154D01*
X831150Y1727400D02*
X863154D01*
X891155Y1270200D02*
X923159D01*
X891155Y1727400D02*
X923159D01*
X951160Y1270200D02*
X983164D01*
X951160Y1727400D02*
X983164D01*
X1011165Y1270200D02*
X1043169D01*
X1011165Y1727400D02*
X1043169D01*
X1043900Y1307365D02*
Y1275361D01*
Y1367370D02*
Y1335366D01*
Y1427375D02*
Y1395371D01*
Y1487380D02*
Y1455376D01*
Y1547385D02*
Y1515381D01*
Y1607390D02*
Y1575386D01*
Y1667395D02*
Y1635391D01*
Y1727400D02*
Y1695396D01*
G54D12*
X890000Y1527550D02*
Y1497550D01*
X955000Y1480050D02*
X925000D01*
X955000Y1545050D02*
X925000D01*
G54D13*
X684938Y1580525D03*
X754938D03*
G54D14*
X694938Y1553525D03*
X744938D03*
M02*
