; Version : LOCAL
; Job     : H:\PCB100-199\PCB121_Ferret_Cu8_SFP2_Unmngd_ref_board\Rev2\Layout\working\PCB\pcb121-02.pcb
; User    : HERENT0076:mag
; Date    : Fri Aug 12 11:52:25 2016
; Format  : 3.3 / Absolute / MM / Leading
; Contents: Thru / Drill / Plated
M48
METRIC,TZ
FMAT,2
ICI,OFF
T17C0.2500
T01C0.3000
T09C0.5000
T18C0.7000
T15C0.8000
T06C0.9000
T08C0.9000
T05C1.0000
T10C1.0500
T11C1.1000
T16C1.4000
T03C1.5000
T07C1.6000
T02C1.7000
T04C3.5000
%
M71
G90
G93X0Y0
T17
X43009Y29939
X43469Y30452
X45458Y30165
X46345Y30130
X47429Y30101
X49618Y30140
X53201Y30116
X53763Y29739
X54176Y28189
X58089Y28984
X56833Y31611
X55776Y31388
X55628Y30709
X54247Y32937
X54190Y32235
X53533Y32223
X53081Y32818
X52681Y32300
X52217Y32756
X51824Y32226
X51341Y32705
X50972Y32169
X50629Y32766
X49628Y32248
X48966Y32218
X48532Y32703
X48078Y32213
X47669Y32730
X47207Y32235
X46778Y32732
X46350Y32242
X44955Y32185
X44544Y32695
X23952Y31431
X22272Y32746
X21564Y31203
X21474Y32604
X20795Y32646
X20136Y32633
X19477Y32636
X17126Y31345
X17453Y33667
X17932Y33197
X18346Y34955
X18364Y34246
X18863Y33783
X19536Y33770
X20227Y33780
X20877Y33763
X21528Y33748
X22215Y33776
X22867Y33773
X23520Y33776
X24020Y34424
X24377Y33849
X44450Y33950
Y34650
Y35350
X53631Y34099
X53690Y34978
X53771Y33421
X54199Y34481
X54207Y35413
X56326Y37467
X54221Y36463
X54138Y37414
X53774Y35942
X53621Y37886
X53417Y36870
X44450Y36050
Y36750
Y37450
X42000Y37800
X24075Y35670
Y37320
Y38040
X24065Y36384
X18366Y37110
X18346Y35738
Y36414
X17701Y40524
X18326Y38880
X18339Y38204
X18419Y39565
X18566Y40182
X19609Y39451
X20262Y39469
X20955Y39484
X21610Y39477
X22264Y39462
X22946Y39490
X23609Y39462
X24085Y38935
X24707Y40521
X25196Y39552
X42000Y38500
Y39200
Y39900
Y40600
X44450Y38150
Y38850
Y39550
Y40250
X53607Y38873
X54091Y38375
X54166Y39302
X56457Y40301
X56488Y38499
X56451Y41862
X56407Y42537
X56376Y41178
X55885Y42966
X54914Y42955
X53829Y42180
X53128Y42118
X52463Y41930
X51754Y42145
X51079
X50628Y41639
X50200Y42167
X49510Y42150
X48836Y42092
X48061
X47370Y42134
X46695
X45677Y42049
X44490Y42226
X42000Y41300
X45186Y44225
X46415Y45149
X46957Y44233
X48459Y44230
X50813Y44233
X51501Y44231
X53240Y44289
X53923Y44349
X54881Y44290
X55017Y43628
X55911Y45287
X47177Y46763
X46241Y45819
T01
X125700Y-5700
X123000Y-6650
X120000
X117000
X114000
X111000
X108000
X105000
X102000
X99000
X96000
X93000
X90000
X87000
X84000
X81000
X78000
X75000
X72000
X69000
X66000
X63000
X60000
X57000
X54000
X51000
X48000
X45000
X42000
X39000
X36000
X33000
X30000
X27000
X24000
X21000
X18000
X15000
X12000
X9600Y-6600
Y-3300
X15000Y-4250
Y-3150
X18000Y-4250
Y-3150
X21000Y-4250
Y-3150
X24000Y-4250
Y-3150
X27000Y-4250
Y-3150
X30000Y-4250
Y-3150
X33000Y-4250
Y-3150
X36000Y-4250
Y-3150
X39000Y-4250
Y-3150
X42000Y-4250
Y-3150
X45000Y-4250
Y-3150
X48000Y-4250
Y-3150
X51000Y-4250
Y-3150
X54000Y-4250
Y-3150
X57000Y-4250
Y-3150
X60000Y-4250
Y-3150
X63000Y-4250
Y-3150
X66000Y-4250
Y-3150
X69000Y-4250
Y-3150
X72000Y-4250
Y-3150
X75000Y-4250
Y-3150
X78000Y-4250
Y-3150
X81000Y-4250
Y-3150
X84000Y-4250
Y-3150
X87000Y-4250
Y-3150
X90000Y-4250
Y-3150
X93000Y-4250
Y-3150
X96000Y-4250
Y-3150
X99000Y-4250
Y-3150
X102000Y-4250
Y-3150
X105000Y-4250
Y-3150
X108000Y-4250
Y-3150
X110400Y-2700
X111000Y-4250
X114000
X117000
X120000
X123300Y-3900
X127200Y-3600
Y-900
X124800
X114000Y1500
X113400Y-1800
X112500Y1500
X112200Y-900
X106800Y-1200
X104400Y-1800
X87350Y750
X84527Y2357
X79550Y750
X77642Y2357
X72650Y750
X68150
X66753Y2358
X61550Y750
X60821Y2124
X54650Y750
X53982Y1677
X47750Y750
X47064Y1423
X40850Y750
X40172Y1343
X33950Y750
X33255Y1435
X27050Y750
X26360Y1330
X20150Y750
X19456Y1576
X10882Y4672
X15453Y4424
X17458Y4879
X17879Y3730
X22225Y3362
X27237Y3842
X30382Y3709
X34812Y3324
X38928Y3890
X46122Y4059
X46897Y3992
X51368Y3826
X59427Y3479
X63956Y3607
X87350Y3750
X112500Y4500
X114000
X124800Y4200
X127200
Y7200
X124800
X114000Y7500
X112500
X58220Y6493
X56339Y5180
X56262Y7282
X56230Y5947
X43700Y6990
X30145Y6488
X16425Y6494
X19598Y8274
X19603Y9122
X26209Y8320
X31291Y8534
X32306Y8542
X41992Y8435
X44500Y8346
X45500Y8403
X54097Y8708
X55014Y8710
X56569Y8058
X57077Y9548
X87350Y9150
X111600Y9900
X113700Y10200
X111600Y12300
X87350Y12150
X70200Y10800
Y11700
X69300Y10800
Y11700
X11475Y12172
X1850Y13200
X4178Y12723
X8331Y14338
X11263Y13253
X124800Y12900
X127200
X87350Y17250
X67178Y15953
X56078
X53078
X41978
X39325Y15955
X28028Y15953
X25028
X13778
X87350Y20250
X127059Y20272
X130891Y20314
X134655Y20269
X138506Y20310
X67178Y21053
X56067Y21058
X53525Y21051
X41612Y21055
X39325Y21115
X28028Y21053
X25028
X13778
X2482Y21970
X2103Y22645
X69300Y24300
Y25200
X70200Y24300
Y25200
X83450Y24100
Y25000
X85550Y24100
Y25000
X113837Y24931
X120844Y24668
X120720Y27303
X120693Y26522
X120666Y25734
X114149Y27437
X114124Y25826
X114123Y26661
X107132Y27359
X85550Y25900
Y26800
Y27700
X83450Y25900
Y26800
Y27700
X66324Y26028
X57114Y26294
X55446Y27072
X54899Y27585
X51279Y27804
X50529Y27842
X50491Y27093
X48090Y27013
X47433Y27702
X42764Y25983
X42762Y26760
X40740Y27075
X22695Y27842
X21839Y26575
X21245Y26117
X13850Y25450
Y26350
X12950Y25450
Y26350
X12050Y25450
Y26350
X11150Y25450
Y26350
X10250Y25450
Y26350
X9300Y26400
Y27300
X8400Y26400
Y27300
X7500Y26400
Y27300
X6204Y27627
X5993Y25952
X4450Y26700
Y27600
X3550Y26700
Y27600
X2008Y25951
X3550Y28500
X4450
X7500Y28200
X8400
X9300
X18040Y28177
X18092Y28927
X20709Y30063
X21484Y29883
X22961Y29240
X23119Y30031
X27801Y30113
X40343Y28860
X41425Y30000
X42704Y29185
X42711Y28428
X45413Y29323
X45422Y28012
X45838Y28674
X47296Y28475
X48090Y28111
X51260Y28553
X56027Y29190
X56568Y27949
X57018Y29141
X57354Y27989
X60059Y29804
X65004Y29333
X83450Y28600
Y29500
X85550Y28600
Y29500
X106044Y30377
X107155Y29012
X109951Y29142
X109952Y29945
X115643Y28362
X116980Y28334
X117977Y28366
X118763Y28356
X120266Y28307
X118516Y31803
X117716Y31003
Y31803
Y32603
X116916Y31803
Y32603
X116116Y31803
Y32603
X112790Y30971
X112683Y31969
X107178Y32869
X107155Y31231
X68978Y31501
X66945Y30731
X63824Y32728
X62109Y30771
X59065Y30984
X58154Y30842
X41425Y30900
Y31800
Y32700
X27781Y30863
X14368Y32576
X13079Y31919
X9838Y32374
X4602Y32554
X3114Y32568
X1905Y32554
X13887Y34944
X14368Y33476
X19995Y35450
X20795
X21595
X22395
X27128Y34636
X27175Y33122
X28725Y34000
Y35100
X42119Y34440
X46025Y34000
Y34800
X46825Y34000
Y34800
X47625Y34000
Y34800
X48425Y34000
Y34800
X49225Y34000
Y34800
X50025Y34000
Y34800
X50825Y34000
Y34800
X51625Y34000
Y34800
X52425Y34000
Y34800
X56818Y33080
X57995Y33530
X65057Y33919
X66951Y33085
X68898Y33041
X107155Y34346
X112407Y34195
X112415Y33372
X112444Y34954
X116116Y33403
X116916
X117716
X132713Y34668
X136606Y34643
X129002Y37453
X125192Y37484
X121027Y37400
X119412Y36814
X118517Y36721
X118071Y37798
X117274Y37807
X114519Y36699
X113728Y36709
X112454Y35740
X108173Y36627
X67793Y36006
X66496Y36924
X65791Y36091
X65724Y36863
X64165Y37470
X64157Y36635
X63057Y37064
X61231Y38055
X57879Y38077
X57051Y37455
X52425Y35600
Y36400
Y37200
Y38000
X51625Y35600
Y36400
Y37200
Y38000
X50825Y35600
Y36400
Y37200
Y38000
X50025Y35600
Y36400
Y37200
Y38000
X49225Y35600
Y36400
Y37200
Y38000
X48425Y35600
Y36400
Y37200
Y38000
X47625Y35600
Y36400
Y37200
Y38000
X46825Y35600
Y36400
Y37200
Y38000
X46025Y35600
Y36400
Y37200
Y38000
X42119Y36940
X39599Y37865
X39596Y36295
X39595Y37083
X37137Y36551
Y37469
X33530Y37239
X28725Y37750
X22395Y36250
Y37050
Y37850
X21595Y36250
Y37050
Y37850
X20795Y36250
Y37050
Y37850
X19995Y36250
Y37050
Y37850
X16548Y37961
X13168Y36926
X11352Y36915
X11260Y35970
X13168Y38126
Y39326
Y40526
X28825Y39080
X29475Y38500
X29540Y39561
X37147Y38321
Y39238
Y40141
X39587Y40220
X39599Y38646
Y39427
X46025Y38800
Y39600
Y40400
X46825Y38800
Y39600
Y40400
X47625Y38800
Y39600
Y40400
X48425Y38800
Y39600
Y40400
X49225Y38800
Y39600
Y40400
X50025Y38800
Y39600
Y40400
X50825Y38800
Y39600
Y40400
X51625Y38800
Y39600
Y40400
X52425Y38800
Y39600
Y40400
X53690Y39850
X54162Y40469
X57483Y38778
X58047Y39354
X62950Y40004
X66670Y39286
X80109Y39197
X106064Y39162
X120104Y38461
X106053Y41839
X106052Y41063
X87350Y41550
X62957Y42984
X57036Y40861
X53710Y41435
X45150Y41550
X44300Y41510
X37147Y41035
X29721Y42074
X28725Y40900
X24300Y42900
X23400
X18361Y41819
X26649Y44250
X27261Y44818
X40074Y44450
X41753Y45566
X42562Y45618
X45019Y44931
X51142Y45217
X54610Y45438
X56817Y43457
X56948Y44220
X57804Y45182
X58522Y44805
X59804Y43836
X62421Y45375
X71723Y43336
X75908Y44553
X80975Y44593
X106040Y43331
Y44106
X108739Y44318
X121150Y43350
X108671Y46040
X83836Y47180
X83650Y46428
X68150Y47800
X66950
X65750
X65217Y45777
X64550Y47800
X63350
X54658Y46224
X51114Y45998
X39903Y47400
X38290Y46680
X36561Y48191
X35806Y46948
X32078Y46848
X30535Y47876
X28028Y45843
X27253
X23670Y47610
X18339Y48010
X18331Y46440
Y47225
X13073Y47377
X15675Y49650
Y50550
X16575Y49650
Y50550
X17475Y49650
Y50550
X18985Y48480
X38207Y49101
X44941Y48696
X50001Y50269
X52480Y50250
X63350Y49600
X64550
X65750
X66950
X68150
X69858Y49978
X85286Y49812
X85855Y49270
X87350Y49950
X139131Y48314
X87350Y52200
X85351Y50890
X70139Y52008
X69364
X68150Y51400
X66950
X65358Y51964
X64946Y51307
X63350Y51400
X62826Y53244
X54059Y52625
X53881Y51871
X52476Y52495
X51911Y50803
X51832Y51983
X28574Y52367
X18375Y51625
Y52525
X12554Y54202
X12613Y55172
X15905Y53407
X17475Y53425
X18375
X33880Y55016
X36899Y55162
X37691Y55179
X55361Y54056
X55710Y53364
X66413Y54916
X67316
X68595Y54917
X70970
X72870Y54081
X85241Y53573
X87350Y54600
X83092Y56593
X77094Y56397
X60900Y57900
X60000
X59100
X52718Y56730
X52436Y57819
X52015Y57168
X46136Y56783
X45361
X35252Y55994
X25735Y55888
X6990Y59840
X26120Y59680
X26192Y58908
X27713Y59671
X29663Y59677
X31931Y59176
X32518Y59682
X33852Y59196
X34339Y60635
X34804Y59173
X35070Y60346
X35758Y59173
X36348Y59675
X37647
X40074Y59209
X41746Y59672
X43788Y59663
X51918Y58808
X53476Y60369
X54766Y60030
X59100Y58800
Y59700
X60000Y58800
Y59700
X60900Y58800
Y59700
X64193Y60211
X64553Y59474
X64983Y60212
X66534Y59349
X66574Y60209
X69003Y59434
X69005Y60209
X69780Y60210
X70580
X71394Y60211
X129929Y60612
X85618Y62793
X62582Y61236
X59472Y61245
X55905Y61197
X46168Y61430
X45254Y63127
X44500Y62949
X43725Y62954
X43002Y62674
X38687Y61774
X37717Y61678
X26473Y62590
X23933Y62494
X23550Y63231
X5065Y61002
X13734Y63919
X22413Y64334
X22831Y63656
X24027Y65647
X24676Y64563
X24769Y65426
X24798Y63797
X25987Y64163
X28198Y64901
X30572Y64900
X34255Y64977
X34526Y66006
X35113Y64907
X35989Y65565
X41275Y65443
X42448Y65433
X43223Y65447
X44086Y65471
X44909Y65501
X45779Y65527
X46341Y63507
X47021Y65987
X47434Y64233
X54862Y64930
X57465Y64088
X60765Y64121
X64554Y64055
X71272Y63969
X74118Y63940
X79273Y63752
X82583Y65900
X87350Y64950
X110595Y68300
X98150Y67200
X95150
X92700Y67350
Y68250
X91800Y67350
X90900
X90000
X89100
X88200
Y68250
X85200Y67166
X79973Y67060
X78717Y67425
X74350Y67274
X69271Y67347
X64800Y67650
Y68550
X63000Y67650
Y68550
X60199Y67712
X56997Y67739
X52755Y66964
X50043Y66210
X48102Y68130
X46317Y67693
X44283Y68171
X41280Y67363
X35087Y67771
X34847Y67034
X34117Y68546
X24139Y68292
X24055Y66429
X23882Y67454
X22833Y68326
X9909Y67260
X6888Y67258
X1850Y66300
Y69000
X22403Y69064
X23611Y69223
X27491Y68789
X29462Y70841
X30949Y68734
X32800Y70504
X36338Y69852
X39315Y69925
X42190Y69910
X48586Y71051
X50703Y68989
X52536Y70795
X54379Y68971
X63000Y69450
Y70350
X64800Y69450
Y70350
X67500Y69450
Y70350
X68400Y69450
Y70350
X69300Y69450
Y70350
X73600Y68700
X74400
X75900Y69000
X78300Y70350
X79200
X80100
X85787Y69284
X88200Y69150
Y70050
Y70950
X92700Y69150
Y70050
Y70950
X98150Y70200
X92700Y73050
X91800
X90900Y71850
Y73050
X90000Y71850
X89100
X88200
X85787Y71684
X80100Y71250
Y72150
Y73050
X79200Y71250
Y72150
Y73050
X78300Y71250
Y72150
Y73050
X69300Y71250
Y72150
X68400Y71250
Y72150
X67500Y71250
Y72150
X64800Y71250
Y72150
Y73050
X63000Y71250
Y72150
Y73050
X50776Y72620
X43366Y71893
X40496Y71887
X37747Y71871
X35337Y71682
X31140Y72565
X1850Y72000
Y75000
X33613Y73931
X36802Y73966
X39976
X43068
X45997
X47277Y75011
X47791Y75593
X48520Y75329
X49201Y75710
X49848Y75260
X50521Y75643
X51295Y75605
X52070Y75597
X52830Y75261
X53688Y76185
X63000Y73950
X64800
X85787Y74084
X98150Y74100
X107219Y74234
Y75008
Y75804
X108744Y74573
Y75354
Y76128
X109431Y75713
X137491Y78262
X109894Y77702
X108767Y78072
X107208Y76641
X107204Y78597
X98150Y77100
X85787Y77884
X76800Y77600
X75900
X75000Y77300
X74100
X64800Y76250
Y77150
Y78050
X63000Y76250
Y77150
Y78050
X62100
X55186Y76918
X54411Y76933
X54119Y78249
X53637Y76958
X53344Y78243
X52836Y76285
X49552Y78026
X49176Y76991
X46060Y77231
X45571Y76630
X1850Y78000
Y81000
X7191Y79245
X49856Y79053
X50595Y78818
X54183Y81133
X55915Y80853
X60300Y79850
X61200
Y80750
X62100Y78950
Y79850
Y80750
X63000Y78950
Y79850
Y80750
X64800Y78950
Y79850
Y80750
X78300Y78950
Y79850
Y80750
X79200Y78950
Y79850
Y80750
X80100Y78950
Y79850
Y80750
X85787Y80284
X98150Y80100
X103695Y80700
X107153Y80231
Y81060
X107157Y79434
X108784Y79710
X108794Y80575
X138638Y81368
X109920Y83597
X109918Y81668
X109567Y82474
X108784Y81446
X103680Y83220
X98150Y83100
X95209Y83542
X85801Y82100
X80100Y81650
X79200
X78300
X69900Y82650
Y83550
X69000Y82650
Y83550
X68100Y82650
Y83550
X64800Y81650
Y82550
X63000Y81650
Y82550
X1850Y84000
X68100Y84450
X68154Y85498
X69000Y84450
X69900
X98150Y86100
X103623Y85732
X103630Y84017
X103703Y84899
X108745Y85025
Y85828
X109856Y85369
X109920Y84410
X139694Y85260
X134114Y88535
X130236Y87861
X109899Y88284
X108745Y86616
Y87427
Y88193
X103691Y88093
X103680Y87291
X83991Y87271
X68154Y87303
X46838Y88027
X41547Y90733
X53652Y90210
X56535Y89108
X84006Y91363
X88666Y89088
X98150Y89100
X136169Y91270
X138534
X129924Y91990
X108765Y91603
X108750Y92399
X108743Y93188
X107220Y91509
Y92279
Y93045
X88607Y91521
X42050Y91560
X1850Y93000
X44409Y94055
X45594Y94052
X47981Y94057
X48240Y94839
X50430Y94056
X61988Y95111
X68605Y95629
X71017Y95622
X71970Y94955
X98150Y96000
Y98700
X95150
X72050
X69050
X66050
X63050
X60050
X57050
X54050
X51050
X48050
X45050
X42050
X39050
X36050
X33050
X30050
X27050
X24050
X21050
X18050
X15050
X12050
X9350
X6050
T09
X76910Y45130
X78510
X80110
X81710
X83310
X82910Y48070
X82510Y46520
X81310Y48070
X80910Y46520
X79710Y48070
X79310Y46520
X78110Y48070
X77710Y46520
X76510Y48070
X76110Y46520
X75710Y49450
X77310
X78910
X80510
X82110
X83310Y51000
X82510Y52390
X81710Y51000
X80910Y52390
X80110Y51000
X79310Y52390
X78510Y51000
X77710Y52390
X76910Y51000
X76110Y52390
X75710Y55320
X76510Y53940
X77310Y55320
X78110Y53940
X78910Y55320
X79710Y53940
X80510Y55320
X81310Y53940
X82110Y55320
X82910Y53940
T18
X8470Y16730
X6600Y15950
X4730Y16730
X3950Y18600
X9250
X8470Y20470
X6600Y21250
X4730Y20470
X91800Y24800
X94450Y27450
X93670Y25580
X89930
X89150Y27450
X89930Y29320
X91800Y30100
X93670Y29320
X2930Y86030
X4800Y85250
X6670Y86030
X7450Y87900
X2150
X2930Y89770
X4800Y90550
X6670Y89770
X93330Y91130
X95200Y90350
X97070Y91130
X97850Y93000
X92550
X93330Y94870
X95200Y95650
X97070Y94870
T15
X113640Y78311
Y79581
Y80851
X115291Y78950
Y80220
Y81490
Y82760
X113640Y82121
Y83391
Y84661
Y85931
X115291Y84030
Y85300
Y86570
Y87840
X113640Y87201
Y88471
X115291Y89110
T06
X64840Y11300
X63570Y12570
X59510
X58240Y11300
X50840
X49570Y12570
X45510
X44240Y11300
X36840
X35570Y12570
X31510
X30240Y11300
X22840
X21570Y12570
X17510
X16240Y11300
Y13840
X17510Y15110
X21570
X22840Y13840
X30240
X31510Y15110
X35570
X36840Y13840
X44240
X45510Y15110
X49570
X50840Y13840
X58240
X59510Y15110
X63570
X64840Y13840
Y16380
X63570Y17650
X59510Y17620
X58240Y16380
X50840
X49570Y17650
X45510Y17620
X44240Y16380
X36840
X35570Y17650
X31510Y17620
X30240Y16380
X22840
X21570Y17650
X17510Y17620
X16240Y16380
Y18920
X17510Y20190
X21570
X22840Y18920
X30240
X31510Y20190
X35570
X36840Y18920
X44240
X45510Y20190
X49570
X50840Y18920
X58240
X59510Y20190
X63570
X64840Y18920
Y21460
X63570Y22730
X59510
X58240Y21460
X50840
X49570Y22730
X45510
X44240Y21460
X36840
X35570Y22730
X31510
X30240Y21460
X22840
X21570Y22730
X17510
X16240Y21460
X67800Y59200
Y64200
X94300Y78200
X89300
X60400
X55400
T08
X131866Y42966
Y44996
X133646Y43986
Y46016
Y48046
X131866Y47026
Y49056
X133646Y50076
X135110Y65735
X136890Y64715
Y66745
X135110Y67765
Y69795
X136890Y68775
Y70805
X135110Y71825
T05
X7270Y37520
X4730
Y40060
X7270
Y42600
X4730
Y45140
X7270
Y47680
X4730
X115075Y61999
X112535
X109995
X107455
X104915
Y64539
X107455
X109995
X112535
X115075
T10
X86635Y6700
X72385
Y14700
X86635
Y22700
X72385
X86635Y30700
X72385
Y38700
X86635
X83510Y58330
X79510
X75510
T11
X8050Y6250
X3550
X2300Y8750
X9300
T16
X118840Y72711
X110080Y71211
Y96211
X118840Y94711
T03
X106700Y3635
X119600
X132500
Y11835
X119600
X106700
T07
X70030Y2030
X11150
X70030Y18030
X11150Y22090
X26600Y23870
X40570
X54540
X132756Y38396
Y54656
X136000Y60135
Y76395
T02
X135040Y1095
X129960
X122140
X117060
X109240
X104160
X135040Y6175
X129960
X122140
X117060
X109240
X104160
Y9295
X109240
X117060
X122140
X129960
X135040
X104160Y14375
X109240
X117060
X122140
X129960
X135040
T04
X6600Y18600
X91800Y27450
X5650Y74100
X11150
X4800Y87900
X95200Y93000
T00
M30
