; Version : LOCAL
; Job     : H:\PCB100-199\PCB121_Ferret_Cu8_SFP2_Unmngd_ref_board\Rev2\Layout\working\PCB\pcb121-02.pcb
; User    : HERENT0076:mag
; Date    : Fri Aug 12 11:52:25 2016
; Format  : 3.3 / Absolute / MM / Leading
; Contents: Thru / Drill / Non-Plated
M48
METRIC,TZ
FMAT,2
ICI,OFF
T21C0.7000
T23C0.8000
T25C1.0000
T27C1.2000
T22C1.5500
T19C2.0000
T24C3.0000
T20C3.3000
T26C4.0000
%
M71
G90
G93X0Y0
T21
X100000Y200
X99000
X98000
X97000
X96000
X95000
X94000
X93000
X13300
X12300
X11300
X10300
X9300
X102400Y18900
X103400
X104400
X105400
X106400
X107400
X108400
X109400
X134500
X135500
X136500
X137500
X138500
X139500
X140500
X141500
Y56000
X140500
X139500
X138500
X137500
X131000
X130000
X129000
X128000
X127000
X109400
X108400
X107400
X106400
X105400
X104400
X103400
X102400
Y58800
X103400
X104400
X105400
X106400
X107400
X108400
X109400
X127000
X128000
X129000
X130000
X131000
X137500
X138500
X139500
X140500
X141500
X120000Y63700
Y64700
Y65700
X122800Y63700
Y64700
Y65700
Y66700
Y67700
X120000Y66700
Y67700
Y68700
Y69700
Y70700
X122800Y68700
Y69700
Y70700
X102600Y92500
Y93500
X99600Y92500
Y93500
Y94500
Y95500
Y96500
X102600Y94500
Y95500
Y96500
X120095Y95500
Y96500
X134500Y94000
X135500
X136500
X137500
X138500
X139500
X140500
X141500
X120095Y97500
Y98500
X102600Y97500
Y98500
X99600Y97500
Y98500
Y99500
X102600
X120095
T23
X130176Y61809
Y91019
T25
X109964Y27144
Y45544
X44750Y57788
X24620
X109980Y74511
Y92911
T27
X57995Y91121
X87205
T22
X72380Y57563
X62780
T19
X35400Y29400
X12900Y43500
X74010Y48800
X85010Y56300
X57400Y59900
T24
X79510Y14700
Y60800
T20
X67240Y6600
X13900
X106164Y22666
X136186Y40176
X106164Y50066
X120864
X136186Y52876
X21000Y58658
X48400
X124670Y60715
X139430Y61915
X106180Y70011
X21000Y73360
X139430Y74615
X56901Y85626
X88301
X124670Y92115
X106180Y97411
T26
X3000Y-4900
X138500
Y97000
X3000
T00
M30
